<?xml version="1.0" standalone="no"?>
<!DOCTYPE svg PUBLIC "-//W3C//DTD SVG 1.1//EN" "http://www.w3.org/Graphics/SVG/1.1/DTD/svg11.dtd" >
<svg xmlns="http://www.w3.org/2000/svg" xmlns:xlink="http://www.w3.org/1999/xlink" version="1.1">
<metadata>
Created by FontForge 20150318 at Mon Nov 23 10:26:47 2015
 By uniteet7
Copyright (c) 2010 by Jonathan Hill. All rights reserved.
</metadata>
<defs>
<font id="TheNorthernBlockNorpethBold" horiz-adv-x="680" >
  <font-face 
    font-family="TheNorthernBlockNorpethBold"
    font-weight="700"
    font-stretch="normal"
    units-per-em="1000"
    panose-1="0 0 8 0 0 0 0 0 0 0"
    ascent="750"
    descent="-250"
    x-height="500"
    cap-height="700"
    bbox="-74 -217 1062 1071"
    underline-thickness="50"
    underline-position="-50"
    unicode-range="U+0020-FB06"
  />
<missing-glyph horiz-adv-x="500" 
d="M0 0v700h500v-700h-500zM250 395l170 255h-340zM280 350l170 -255v510zM80 50h340l-170 255zM50 605v-510l170 255z" />
    <glyph glyph-name="f_f" unicode="ff" horiz-adv-x="651" 
d="M621 611h-66q-12 0 -22 -5t-16.5 -16t-6.5 -26v-64h111v-96h-111v-404h-126v404h-185v-404h-125v404h-47v96h47v78q0 54 43 92t101 38h92v-97h-65q-12 0 -22.5 -5t-17 -16t-6.5 -26v-64h185v78q0 54 43 92t102 38h92v-97z" />
    <glyph glyph-name="fi" unicode="fi" horiz-adv-x="586" 
d="M311 611h-66q-12 0 -22 -5t-16.5 -16t-6.5 -26v-64h326v-500h-125v404h-201v-404h-125v404h-47v96h47v78q0 53 42 91.5t102 38.5h92v-97z" />
    <glyph glyph-name="fl" unicode="fl" horiz-adv-x="528" 
d="M489 0h-124v611h-120q-19 0 -32.5 -12t-13.5 -34v-65h111v-96h-111v-404h-125v404h-47v96h47v78q0 54 43 92t101 38h271v-708z" />
    <glyph glyph-name="f_f_i" unicode="ffi" horiz-adv-x="922" 
d="M862 0h-125v404h-201v-404h-125v404h-211v-404h-125v404h-47v96h47v78q0 53 42 91.5t102 38.5h92v-97h-66q-19 0 -32 -12.5t-13 -34.5v-64h211v78q0 53 42 91.5t102 38.5h92v-97h-66q-12 0 -22 -5t-16.5 -16t-6.5 -26v-64h326v-500z" />
    <glyph glyph-name="f_f_l" unicode="ffl" horiz-adv-x="838" 
d="M799 0h-125v611h-120q-18 0 -31.5 -12.5t-13.5 -34.5v-64h111v-96h-111v-404h-125v404h-185v-404h-125v404h-47v96h47v78q0 54 43 92t101 38h91v-97h-64q-12 0 -22 -5t-17 -16t-7 -26v-64h185v78q0 54 43 92t101 38h271v-708z" />
    <glyph glyph-name=".notdef" horiz-adv-x="500" 
d="M0 0v700h500v-700h-500zM250 395l170 255h-340zM280 350l170 -255v510zM80 50h340l-170 255zM50 605v-510l170 255z" />
    <glyph glyph-name=".null" horiz-adv-x="0" 
 />
    <glyph glyph-name="nonmarkingreturn" horiz-adv-x="333" 
 />
    <glyph glyph-name="space" unicode=" " horiz-adv-x="300" 
 />
    <glyph glyph-name="exclam" unicode="!" horiz-adv-x="209" 
d="M168 170h-125v531h125v-531zM173 0h-134v95h134v-95z" />
    <glyph glyph-name="quotedbl" unicode="&#x22;" horiz-adv-x="362" 
d="M150 512h-102l-8 193h117zM314 512h-102l-8 193h118z" />
    <glyph glyph-name="numbersign" unicode="#" horiz-adv-x="568" 
d="M460 459h67v-76h-82l-33 -151h115v-74h-131l-34 -158h-92l32 158h-99l-33 -158h-94l32 158h-67v74h83l33 151h-116v76h131l49 224h95l-49 -224h99l51 224h96zM253 383l-32 -151h95l33 151h-96z" />
    <glyph glyph-name="dollar" unicode="$" horiz-adv-x="533" 
d="M310 767v-60q87 -2 147 -29l-10 -110q-67 30 -162 31h-35q-32 0 -53.5 -20.5t-21.5 -49.5v-12q0 -14 6 -27t15.5 -22t21.5 -15l153 -69q46 -19 72 -40t39.5 -52.5t13.5 -78.5v-16q-1 -89 -47.5 -141t-127.5 -60l-11 -2v-58h-87v56q-108 4 -180 31l9 110q57 -19 104 -26.5
t119 -6.5q36 0 60 24t24 60v18q0 48 -48 72l-158 70q-64 26 -90 59t-26 95v14q0 84 44 134.5t122 58.5l20 1v61h87z" />
    <glyph glyph-name="percent" unicode="%" horiz-adv-x="728" 
d="M177 -17h-89l457 734h88zM151 706h29q28 0 53 -11t42 -35t17 -55v-165q0 -47 -34.5 -74t-78.5 -27h-27q-44 0 -78.5 26.5t-34.5 74.5v165q0 47 34.5 74t77.5 27zM167 648h-3q-21 0 -37 -11t-16 -34v-161q0 -16 9 -26.5t20.5 -14.5t23.5 -4h4q21 0 36.5 11.5t15.5 33.5
v161q0 22 -16 33t-37 12zM549 361h29q44 0 78 -27.5t34 -73.5v-166q0 -46 -34 -73t-79 -27h-28q-43 0 -77.5 26.5t-34.5 73.5v166q0 47 34.5 74t77.5 27zM565 302h-3q-21 0 -37 -11t-16 -34v-160q0 -16 8.5 -26.5t19.5 -14.5t24 -4h3q22 0 38 11t16 34v160q0 23 -16 34
t-37 11z" />
    <glyph glyph-name="ampersand" unicode="&#x26;" horiz-adv-x="655" 
d="M251 702h10q66 0 109.5 -39.5t43.5 -92.5v-41q0 -53 -48 -95l-43 -39l126 -167q6 15 6 33v34h101l-9 -137q-1 -26 -12 -53l84 -106h-143l-30 42q-50 -48 -115 -48h-85q-89 0 -148 55t-59 134v35q0 38 18.5 75.5t51.5 65.5l53 48l-42 55q-22 35 -22 69v41q0 34 19.5 64
t55 48.5t78.5 18.5zM260 613h-8q-22 0 -37 -14.5t-15 -34.5v-39q0 -21 13 -32l36 -46l44 39q18 15 18 39v39q0 20 -14.5 34.5t-36.5 14.5zM237 310l-48 -44q-31 -27 -31 -68v-29q0 -26 11.5 -46.5t31.5 -32.5t43 -12h69q45 0 69 40z" />
    <glyph glyph-name="quotesingle" unicode="'" horiz-adv-x="197" 
d="M150 512h-102l-8 193h117z" />
    <glyph glyph-name="parenleft" unicode="(" horiz-adv-x="288" 
d="M154 747l96 -53q-24 -67 -57 -195t-33 -203q0 -48 22 -148.5t41.5 -171.5t24.5 -85l-93 -46q-25 41 -72.5 207t-47.5 244q0 86 41 224t78 227z" />
    <glyph glyph-name="parenright" unicode=")" horiz-adv-x="288" 
d="M38 694l96 53q37 -89 78 -227t41 -224q0 -78 -48 -244t-72 -207l-93 46q5 14 24.5 85t41.5 171.5t22 148.5q0 75 -33 203t-57 195z" />
    <glyph glyph-name="asterisk" unicode="*" horiz-adv-x="371" 
d="M216 611l69 70l44 -44l-101 -100l101 -101l-44 -43l-69 69v-99h-61v99l-70 -69l-43 43l100 101l-100 100l43 44l70 -70v99h61v-99z" />
    <glyph glyph-name="plus" unicode="+" horiz-adv-x="544" 
d="M324 351h187v-104h-187v-187h-104v187h-187v104h187v187h104v-187z" />
    <glyph glyph-name="comma" unicode="," horiz-adv-x="211" 
d="M173 38l-55 -105h-78l32 64h-32v110h133v-69z" />
    <glyph glyph-name="hyphen" unicode="-" horiz-adv-x="434" 
d="M394 259h-354v96h354v-96z" />
    <glyph glyph-name="period" unicode="." horiz-adv-x="213" 
d="M174 0h-134v107h134v-107z" />
    <glyph glyph-name="slash" unicode="/" horiz-adv-x="454" 
d="M120 0h-97l311 700h97z" />
    <glyph glyph-name="zero" unicode="0" horiz-adv-x="536" 
d="M224 680h94q72 0 122.5 -48.5t50.5 -119.5v-349q0 -71 -50.5 -120t-122.5 -49h-94q-77 0 -128 48.5t-51 120.5v349q0 72 51.5 120t127.5 48zM297 573h-55q-21 0 -38.5 -10t-27 -27t-9.5 -39v-319q0 -34 21.5 -55.5t53.5 -21.5h55q31 0 52 21.5t21 55.5v319q0 33 -21 54.5
t-52 21.5z" />
    <glyph glyph-name="one" unicode="1" horiz-adv-x="358" 
d="M283 0h-129v557l-97 -29l-30 100l171 52h85v-680z" />
    <glyph glyph-name="two" unicode="2" horiz-adv-x="521" 
d="M237 682h61q48 0 88.5 -22t64 -60t23.5 -84v-21q0 -46 -27 -87t-73 -65l-146 -78q-26 -13 -42 -36.5t-16 -53.5v-80h304v-95h-426v190q0 103 109 160l157 82q40 22 40 63v12q0 19 -9.5 35t-26 25.5t-36.5 9.5h-43q-87 0 -151 -24l-13 94q67 35 162 35z" />
    <glyph glyph-name="three" unicode="3" horiz-adv-x="520" 
d="M215 682h61q73 0 124.5 -48.5t51.5 -117.5v-37q0 -40 -21 -70.5t-54 -45.5q36 -16 58 -50t22 -73v-79q0 -46 -23.5 -84.5t-64 -60.5t-88.5 -22h-66q-98 0 -162 38l19 84q61 -24 152 -24h35q33 0 55 21t22 52v76q0 31 -22 52.5t-55 21.5h-67v90h67q22 0 39.5 10t27.5 26.5
t10 37.5v32q0 31 -22 52.5t-55 21.5h-33q-97 0 -155 -22l-18 84q67 35 162 35z" />
    <glyph glyph-name="four" unicode="4" horiz-adv-x="539" 
d="M150 236h161l31 205h84v-205h88v-97h-88v-139h-115v139h-286v63l188 478h112z" />
    <glyph glyph-name="five" unicode="5" horiz-adv-x="507" 
d="M418 583h-234l-12 -151h95q74 0 127.5 -48t53.5 -113v-110q0 -71 -51.5 -119t-124.5 -48h-66q-109 0 -170 43l18 85q60 -31 153 -30h44q12 0 24 3.5t21.5 10t16 15.5t10.5 20.5t4 23.5v95q-1 30 -22.5 50.5t-52.5 21.5h-162l-47 38l32 310h343v-97z" />
    <glyph glyph-name="six" unicode="6" horiz-adv-x="555" 
d="M276 680l62 1q58 0 144 -19v-93q-79 13 -143 14h-57q-41 0 -68 -27t-27 -70v-70q64 12 94 12h66q69 0 115 -45t46 -123v-97q0 -75 -51 -122t-123 -47h-92q-83 0 -131 50.5t-48 144.5v291q0 91 60 145.5t153 54.5zM313 331h-56q-43 0 -73 -19v-144q0 -34 21.5 -55.5
t54.5 -21.5h53q30 0 51 22t21 55v86q0 22 -9.5 39.5t-26 27.5t-36.5 10z" />
    <glyph glyph-name="seven" unicode="7" horiz-adv-x="508" 
d="M213 0h-135l230 583h-282v97h455z" />
    <glyph glyph-name="eight" unicode="8" horiz-adv-x="573" 
d="M250 682h74q29 0 56 -8t48.5 -23.5t38 -35.5t25.5 -45.5t9 -52.5v-40q0 -39 -20.5 -69.5t-52.5 -45.5q38 -15 60 -49t22 -74v-80q0 -69 -51.5 -117.5t-124.5 -48.5h-95q-73 0 -124.5 49t-51.5 117v80q0 41 23.5 74.5t58.5 49.5q-34 16 -53 46.5t-19 67.5v40
q1 69 52.5 117t124.5 48zM308 585h-42q-32 0 -53.5 -21t-21.5 -53v-34q0 -31 21.5 -52t53.5 -21h45q21 0 37.5 10t26 26.5t9.5 36.5v34q0 21 -10 38t-27 26.5t-39 9.5zM313 314h-52q-33 0 -54.5 -21.5t-21.5 -52.5v-76q0 -32 21.5 -53t54.5 -21h52q32 0 53.5 21t21.5 53v76
q0 31 -21.5 52.5t-53.5 21.5z" />
    <glyph glyph-name="nine" unicode="9" horiz-adv-x="555" 
d="M221 680h92q83 0 131 -50t48 -144v-291q0 -91 -60 -146t-153 -55h-62q-58 0 -144 18v93q80 -13 143 -13h57q41 0 68 26.5t27 70.5v83q-63 -12 -94 -12h-65q-70 0 -115.5 45t-45.5 124v82q0 75 50.5 122t122.5 47zM295 583h-53q-30 0 -51 -21.5t-21 -54.5v-73
q0 -22 9.5 -39.5t26 -27.5t36.5 -10h57q42 0 72 19v131q0 22 -10 39.5t-27 27t-39 9.5z" />
    <glyph glyph-name="colon" unicode=":" horiz-adv-x="202" 
d="M168 276v-137h-133v137h133z" />
    <glyph glyph-name="semicolon" unicode=";" horiz-adv-x="204" 
d="M169 307h-133v108h133v-108zM169 38l-55 -105h-78l32 64h-32v110h133v-69z" />
    <glyph glyph-name="less" unicode="&#x3c;" horiz-adv-x="439" 
d="M400 432l-248 -120l248 -119v-131l-367 179v142l367 180v-131z" />
    <glyph glyph-name="equal" unicode="=" horiz-adv-x="554" 
d="M516 344h-478v103h478v-103zM516 159h-478v104h478v-104z" />
    <glyph glyph-name="greater" unicode="&#x3e;" horiz-adv-x="439" 
d="M406 383v-142l-367 -179v131l249 119l-249 120v131z" />
    <glyph glyph-name="question" unicode="?" horiz-adv-x="486" 
d="M215 708h61q73 0 124.5 -48.5t51.5 -117.5v-21q0 -46 -27.5 -87t-72.5 -65l-92 -49q-25 -13 -41 -36.5t-16 -53.5v-31h-123v46q0 103 110 160l101 53q41 22 41 63v12q0 29 -21 49.5t-51 20.5h-43q-88 0 -151 -24l-14 94q67 35 163 35zM209 0h-134v95h134v-95z" />
    <glyph glyph-name="at" unicode="@" horiz-adv-x="740" 
d="M254 635h232q89 0 151.5 -62t62.5 -152v-110q0 -47 -19.5 -89.5t-53.5 -72t-77 -43.5h-115l-3 30q-61 -35 -112 -35q-48 0 -79 28t-31 75v11q1 101 138 101q36 0 73 -8v27q0 31 -23 45t-51 14q-40 0 -98 -12l-10 65q71 15 121 15q28 0 53 -6t47.5 -20t36 -39t13.5 -59
v-145h21q36 13 58 44t22 72v112q0 56 -35.5 91t-89.5 35h-232q-54 0 -89.5 -35t-35.5 -91v-302q0 -54 36 -89.5t89 -35.5h161q43 0 87 19v-88q-50 -20 -87 -20h-161q-58 0 -107.5 28t-78 77t-28.5 109v302q0 90 62.5 152t151.5 62zM421 183v83q-27 5 -58 5q-70 0 -70 -48
v-19q0 -21 14 -34t36 -14q34 0 78 27z" />
    <glyph glyph-name="A" unicode="A" horiz-adv-x="686" 
d="M646 0h-141l-50 166h-224l-50 -166h-141l219 700h168zM250 273h186l-93 316z" />
    <glyph glyph-name="B" unicode="B" horiz-adv-x="639" 
d="M75 700h340q68 0 110 -44t42 -112v-35q0 -51 -23 -88t-64 -56q32 -10 55.5 -31t36 -52.5t12.5 -70.5v-48q0 -71 -41.5 -117t-110.5 -46h-357v700zM210 598v-197h152q34 0 56 22t22 56v40q0 33 -22.5 56t-55.5 23h-152zM210 317v-210h166q34 0 56 22t22 57v52
q0 34 -22.5 56.5t-55.5 22.5h-166z" />
    <glyph glyph-name="C" unicode="C" horiz-adv-x="528" 
d="M309 708h27q66 0 149 -20l-7 -99q-78 12 -142 12h-20q-54 0 -90 -35.5t-36 -94.5v-241q0 -59 36 -95t90 -36h20q64 1 142 13l7 -99q-83 -21 -149 -21h-27q-108 0 -181 65.5t-73 175.5v234q0 111 73 176t181 65z" />
    <glyph glyph-name="D" unicode="D" horiz-adv-x="654" 
d="M80 700h265q107 0 180.5 -66.5t73.5 -174.5v-218q0 -110 -73 -175.5t-181 -65.5h-265v700zM215 593v-486h123q35 0 63.5 15.5t45.5 45.5t17 70v224q0 58 -36.5 94.5t-89.5 36.5h-123z" />
    <glyph glyph-name="E" unicode="E" horiz-adv-x="545" 
d="M501 593h-295v-185h257v-107h-257v-194h295v-107h-431v700h431v-107z" />
    <glyph glyph-name="F" unicode="F" horiz-adv-x="542" 
d="M501 593h-295v-190h257v-106h-257v-297h-136v700h431v-107z" />
    <glyph glyph-name="G" unicode="G" horiz-adv-x="631" 
d="M309 708h27q124 -1 211 -35l-17 -103q-49 18 -95.5 24.5t-118.5 6.5q-58 0 -92 -35.5t-34 -95.5v-241q0 -58 32 -94t91 -36h19q68 0 111 21v178h-115v96h230v-347q-36 -20 -68.5 -31.5t-69 -17.5t-81.5 -6h-30q-119 1 -186.5 65t-67.5 176v233q0 115 69.5 178.5
t184.5 63.5z" />
    <glyph glyph-name="H" unicode="H" horiz-adv-x="687" 
d="M611 0h-135v298h-266v-298h-135v700h135v-296h266v296h135v-700z" />
    <glyph glyph-name="I" unicode="I" horiz-adv-x="285" 
d="M210 0h-135v700h135v-700z" />
    <glyph glyph-name="J" unicode="J" horiz-adv-x="451" 
d="M376 700v-467q0 -110 -73 -175.5t-181 -65.5h-94v107h87q54 0 90 36t36 95v470h135z" />
    <glyph glyph-name="K" unicode="K" horiz-adv-x="655" 
d="M308 348l314 -348h-162l-257 280v-280h-132v700h132v-281l253 281h157z" />
    <glyph glyph-name="L" unicode="L" horiz-adv-x="552" 
d="M215 106h300v-106h-435v700h135v-594z" />
    <glyph glyph-name="M" unicode="M" horiz-adv-x="817" 
d="M751 0h-132l-15 456l-157 -294h-77l-156 294l-17 -456h-132l26 700h133l184 -367l183 367h133z" />
    <glyph glyph-name="N" unicode="N" 
d="M614 0h-131l-285 471v-471h-133v700h131l285 -474v474h133v-700z" />
    <glyph glyph-name="O" unicode="O" horiz-adv-x="655" 
d="M310 708h33q105 0 181 -68.5t76 -173.5v-233q0 -105 -73.5 -173t-183.5 -68h-33q-76 0 -134 31.5t-89.5 86t-31.5 123.5v233q0 107 73 174.5t182 67.5zM338 601h-22q-53 0 -90 -37t-37 -94v-241q0 -59 37 -94.5t90 -35.5h22q52 0 89.5 35.5t37.5 94.5v241q0 57 -38 94
t-89 37z" />
    <glyph glyph-name="P" unicode="P" horiz-adv-x="633" 
d="M80 700h311q87 0 139.5 -55t52.5 -143v-73q0 -90 -52 -144t-140 -54h-177v-231h-134v700zM214 591v-251h156q34 0 56 22t22 57v93q0 21 -10 39.5t-28 29t-40 10.5h-156z" />
    <glyph glyph-name="Q" unicode="Q" horiz-adv-x="667" 
d="M312 708h34q104 0 180 -68.5t76 -173.5v-233q0 -65 -31 -118t-84 -84l122 -121l-138 -3l-89 90q-19 -5 -43 -5h-27q-113 0 -183.5 68t-70.5 173v233q0 107 73 174.5t181 67.5zM340 601h-22q-34 0 -63 -16.5t-46 -46.5t-17 -68v-241q0 -39 17.5 -69.5t46 -45.5t63.5 -15
h21q52 0 90 35.5t38 94.5v241q0 57 -38 94t-90 37z" />
    <glyph glyph-name="R" unicode="R" horiz-adv-x="654" 
d="M75 700h311q88 0 140 -55t52 -143v-72q0 -59 -28 -103.5t-73 -61.5l121 -265h-155l-94 232h-139v-232h-135v700zM210 591v-252h156q33 0 55.5 22.5t22.5 56.5v94q0 13 -4 25t-11 21.5t-16.5 17t-21.5 11.5t-25 4h-156z" />
    <glyph glyph-name="S" unicode="S" horiz-adv-x="549" 
d="M45 498v14q0 54 17 92.5t48 61t69.5 32.5t85.5 10h40.5t36 -1.5t33.5 -3.5t31 -5t30.5 -8t28.5 -12l-10 -110q-64 31 -177 31q-16 0 -30.5 -3t-30 -10t-25 -21.5t-9.5 -35.5v-12q0 -14 6 -27t15.5 -22t21.5 -15l153 -69q68 -28 96.5 -65t28.5 -106v-16
q-1 -104 -61 -154.5t-169 -50.5q-140 0 -223 31l10 110q56 -19 103.5 -26.5t118.5 -6.5q36 0 60.5 24t24.5 60v18q0 48 -48 72l-158 70q-64 26 -90 59t-27 95z" />
    <glyph glyph-name="T" unicode="T" horiz-adv-x="612" 
d="M574 594h-199v-594h-134v594h-203v106h536v-106z" />
    <glyph glyph-name="U" unicode="U" 
d="M607 700v-476q0 -74 -36 -128t-92 -79t-125 -25h-32q-110 0 -181 61t-71 171v476h135v-476q0 -59 35.5 -92t88.5 -33h21q51 -1 87 33t36 92v476h134z" />
    <glyph glyph-name="V" unicode="V" horiz-adv-x="654" 
d="M418 0h-183l-197 700h141l147 -595l149 595h141z" />
    <glyph glyph-name="W" unicode="W" horiz-adv-x="916" 
d="M731 0h-167l-105 495l-106 -495h-167l-151 700h141l100 -540l113 540h139l113 -540l101 540h140z" />
    <glyph glyph-name="X" unicode="X" horiz-adv-x="629" 
d="M395 350l205 -350h-142l-144 259l-144 -259h-142l207 350l-206 350h141l144 -259l145 259h141z" />
    <glyph glyph-name="Y" unicode="Y" horiz-adv-x="647" 
d="M391 287v-287h-135v288l-223 412h144l146 -289l147 289h144z" />
    <glyph glyph-name="Z" unicode="Z" horiz-adv-x="602" 
d="M554 647l-335 -540h340v-107h-516v53l335 540h-325v107h501v-53z" />
    <glyph glyph-name="bracketleft" unicode="[" horiz-adv-x="277" 
d="M247 654h-82v-706h82v-96h-207v898h207v-96z" />
    <glyph glyph-name="backslash" unicode="\" horiz-adv-x="454" 
d="M431 0h-97l-311 700h97z" />
    <glyph glyph-name="bracketright" unicode="]" horiz-adv-x="278" 
d="M238 -148h-208v96h83v706h-83v96h208v-898z" />
    <glyph glyph-name="asciicircum" unicode="^" horiz-adv-x="587" 
d="M550 363h-120l-137 248l-137 -248h-119l201 337h111z" />
    <glyph glyph-name="underscore" unicode="_" horiz-adv-x="598" 
d="M558 -153h-518v93h518v-93z" />
    <glyph glyph-name="grave" unicode="`" horiz-adv-x="271" 
d="M235 569h-94l-107 148h121z" />
    <glyph glyph-name="a" unicode="a" horiz-adv-x="508" 
d="M87 396l-14 91q100 21 172 21q40 0 75.5 -9t67.5 -28t51 -55t19 -85v-331h-104l-5 45q-89 -52 -162 -52q-68 0 -112 39.5t-45 106.5v17q1 41 18 70.5t47 44t61.5 21t69.5 6.5q52 0 107 -11v40q0 31 -19 52t-41.5 27.5t-46.5 6.5q-57 0 -139 -17zM333 109v121q-36 7 -84 7
q-101 0 -101 -71v-27q0 -30 20 -49.5t52 -19.5q49 0 113 39z" />
    <glyph glyph-name="b" unicode="b" horiz-adv-x="526" 
d="M182 700v-214q60 22 127 22q32 0 61.5 -8.5t56 -27t43 -53t16.5 -80.5v-180q0 -74 -51 -121.5t-133 -44.5q-66 0 -137 45l-5 -38h-102v700h124zM367 174v155q0 23 -10.5 40.5t-28 26t-34.5 12.5t-34 4q-47 0 -78 -6v-287q53 -29 97 -29q39 0 63.5 24.5t24.5 59.5z" />
    <glyph glyph-name="c" unicode="c" horiz-adv-x="418" 
d="M40 166v167q0 28 7 52t19 41.5t28.5 32t35 23.5t39.5 15.5t40.5 9t39.5 2.5q63 0 133 -16l-7 -94q-59 13 -103 13q-43 0 -76.5 -22t-33.5 -68v-145q0 -47 34 -68.5t76 -21.5q44 0 103 13l8 -95q-71 -15 -133 -15q-24 0 -47 3.5t-47 11.5t-44.5 22t-36.5 33t-25.5 46
t-9.5 60z" />
    <glyph glyph-name="d" unicode="d" horiz-adv-x="526" 
d="M469 0h-103l-5 38q-70 -45 -137 -45q-82 -3 -133 44.5t-51 121.5v180q0 46 16.5 80.5t43 53t56 27t60.5 8.5q68 0 128 -22v214h125v-700zM344 119v287q-32 6 -80 6q-17 0 -34 -4t-33.5 -13t-27.5 -26t-11 -41v-155q0 -34 25 -58.5t64 -24.5q43 0 97 29z" />
    <glyph glyph-name="e" unicode="e" horiz-adv-x="509" 
d="M40 169v163q0 47 20.5 82.5t53.5 55t69 29t72 9.5q31 0 60 -5.5t57.5 -18.5t50 -33t35 -50.5t13.5 -68.5v-114h-314v-57q0 -29 17.5 -48t38.5 -25.5t43 -6.5q54 0 188 17l13 -83q-110 -22 -195 -22q-41 0 -78 9t-70.5 28t-53.5 55t-20 84zM354 283v57q0 29 -17.5 48.5
t-38 25.5t-43.5 6q-36 0 -67 -19.5t-31 -60.5v-57h197z" />
    <glyph glyph-name="f" unicode="f" horiz-adv-x="336" 
d="M311 611h-66q-12 0 -22 -5t-16.5 -16t-6.5 -26v-64h111v-96h-111v-404h-125v404h-47v96h47v78q0 53 42 91.5t102 38.5h92v-97z" />
    <glyph glyph-name="g" unicode="g" horiz-adv-x="524" 
d="M40 168v173q0 72 50.5 119t130.5 47q69 3 140 -25l5 17h102v-507q0 -32 -8.5 -59t-24 -46t-35 -33t-43 -22.5t-47 -12.5t-47.5 -4q-83 0 -200 25l14 86q102 -20 160 -20q15 0 31.5 4t34.5 12.5t29.5 27t11.5 43.5v47q-73 -41 -136 -41q-72 0 -120 44.5t-48 124.5z
M344 117v284q-50 13 -99 9q-37 -2 -61.5 -25.5t-24.5 -57.5v-153q0 -24 11.5 -43t32 -29.5t46.5 -10.5q31 0 95 26z" />
    <glyph glyph-name="h" unicode="h" horiz-adv-x="536" 
d="M183 700v-214q60 22 127 22q31 0 60.5 -8.5t56.5 -27t43 -53t16 -80.5v-339h-118v328q0 31 -19 51t-41 26.5t-46 6.5q-47 0 -79 -6v-406h-125v700h125z" />
    <glyph glyph-name="i" unicode="i" horiz-adv-x="250" 
d="M194 574h-134v96h134v-96zM190 0h-125v500h125v-500z" />
    <glyph glyph-name="j" unicode="j" horiz-adv-x="250" 
d="M192 574h-134v96h134v-96zM187 500v-558q0 -35 -19 -65t-52 -48t-73 -18h-48v97h22q19 0 32 12.5t13 34.5v545h125z" />
    <glyph glyph-name="k" unicode="k" horiz-adv-x="524" 
d="M185 296l178 204h132l-201 -236l204 -264h-131l-182 219v-219h-125v700h125v-404z" />
    <glyph glyph-name="l" unicode="l" horiz-adv-x="238" 
d="M185 0h-125v700h125v-700z" />
    <glyph glyph-name="m" unicode="m" horiz-adv-x="821" 
d="M153 500l5 -39q74 48 140 48q79 0 130 -55q91 55 160 55q83 0 133 -48t50 -121v-340h-113v329q0 36 -26 59.5t-64 23.5t-105 -33q10 -22 10 -45v-334h-113v329q0 37 -25.5 60t-64.5 23q-38 0 -95 -28v-384h-120v500h98z" />
    <glyph glyph-name="n" unicode="n" horiz-adv-x="534" 
d="M158 500l5 -39q76 48 147 48q77 0 125.5 -48.5t48.5 -120.5v-340h-119v329q0 35 -24.5 59t-61.5 24q-41 0 -99 -28v-384h-125v500h103z" />
    <glyph glyph-name="o" unicode="o" horiz-adv-x="521" 
d="M40 174v152q0 60 32.5 102.5t81 61t106.5 18.5q95 0 158 -46t63 -136v-152q0 -90 -63.5 -136.5t-157.5 -46.5q-93 0 -156.5 47.5t-63.5 135.5zM359 175v149q0 43 -27.5 64.5t-71.5 21.5t-71 -21.5t-27 -64.5v-149q0 -28 13.5 -48t35 -29t49.5 -9q44 0 71.5 21.5
t27.5 64.5z" />
    <glyph glyph-name="p" unicode="p" horiz-adv-x="529" 
d="M163 500l5 -38q30 20 69 33t74 13q53 0 94 -22.5t62 -60t21 -84.5v-176q0 -45 -16 -79.5t-43 -53t-56 -27.5t-61 -9q-65 0 -127 23v-201h-125v682h103zM371 172v155q0 36 -26 59.5t-66 23.5t-94 -29v-286q31 -7 78 -7q17 0 34.5 4t34.5 13t28 26t11 41z" />
    <glyph glyph-name="q" unicode="q" horiz-adv-x="524" 
d="M40 165v176q0 71 48.5 119t125.5 48t147 -46l5 38h102v-682h-124v201q-62 -23 -128 -23q-24 0 -48 5t-47.5 18t-41 31.5t-28.5 48t-11 66.5zM343 95v286q-53 29 -98 29q-37 0 -62 -24.5t-25 -58.5v-155q0 -24 11 -41t28 -26t34 -13t35 -4q46 0 77 7z" />
    <glyph glyph-name="r" unicode="r" horiz-adv-x="330" 
d="M303 403h-49q-23 0 -44.5 -10.5t-29.5 -23.5v-369h-125v500h103l5 -50q22 23 54.5 38.5t65.5 15.5h20v-101z" />
    <glyph glyph-name="s" unicode="s" horiz-adv-x="436" 
d="M190 507h52q74 0 134 -22l-11 -80q-53 19 -110 20h-51q-22 0 -37 -14.5t-15 -36.5q0 -7 1.5 -13t4 -11t6 -9.5t8 -7.5t10.5 -5l125 -44q52 -19 75.5 -51t23.5 -85q0 -52 -22 -87t-62 -51.5t-96 -16.5h-47q-79 0 -143 25l11 79q70 -23 128 -22h46q28 0 46.5 19t18.5 46
q0 22 -11.5 40.5t-29.5 24.5l-130 45q-46 17 -65.5 42t-19.5 71q0 71 41.5 107.5t118.5 36.5z" />
    <glyph glyph-name="t" unicode="t" horiz-adv-x="346" 
d="M202 500h111v-96h-111v-270q0 -22 13.5 -34t32.5 -12h65v-97h-92q-60 0 -102 38.5t-42 91.5v283h-47v96h47v110h125v-110z" />
    <glyph glyph-name="u" unicode="u" horiz-adv-x="531" 
d="M478 0h-103l-4 39q-77 -48 -142 -48q-54 0 -95 22t-62.5 60.5t-21.5 86.5v340h119v-329q0 -37 25.5 -60t64.5 -23q37 0 95 28v384h124v-500z" />
    <glyph glyph-name="v" unicode="v" horiz-adv-x="501" 
d="M331 0h-162l-144 500h129l96 -391l97 391h129z" />
    <glyph glyph-name="w" unicode="w" horiz-adv-x="718" 
d="M567 0h-126l-82 303l-82 -303h-127l-122 500h128l74 -374l85 374h87l86 -374l73 374h128z" />
    <glyph glyph-name="x" unicode="x" horiz-adv-x="514" 
d="M341 250l148 -250h-132l-101 181l-101 -181h-130l148 250l-143 250h130l96 -182l96 182h132z" />
    <glyph glyph-name="y" unicode="y" horiz-adv-x="534" 
d="M476 500v-512q0 -48 -18.5 -83.5t-49.5 -55t-65 -29t-72 -9.5q-78 0 -200 25l14 86q102 -20 160 -20q15 0 31 4t34 12.5t29.5 27t11.5 43.5v51q-76 -44 -140 -45q-69 0 -116 45.5t-47 124.5v335h118v-329q0 -35 25 -59t61 -24q41 0 99 28v384h125z" />
    <glyph glyph-name="z" unicode="z" horiz-adv-x="451" 
d="M411 434l-238 -342h243v-92h-386v67l238 341h-228v92h371v-66z" />
    <glyph glyph-name="braceleft" unicode="{" horiz-adv-x="394" 
d="M360 660h-64q-15 0 -25.5 -11t-10.5 -28v-223q0 -63 -54 -100q54 -38 54 -98v-223q0 -16 10.5 -27t25.5 -11h64v-91h-108q-117 0 -117 107v232q0 26 -18.5 44t-45.5 19h-37v99h37q27 0 45.5 18t18.5 44v232q0 30 16 55t43 38.5t58 13.5h108v-90z" />
    <glyph glyph-name="bar" unicode="|" horiz-adv-x="204" 
d="M165 -111h-125v861h125v-861z" />
    <glyph glyph-name="braceright" unicode="}" horiz-adv-x="394" 
d="M35 750h107q49 0 83 -30.5t34 -76.5v-232q0 -17 8.5 -31t23 -22.5t33.5 -8.5h37v-99h-37q-28 -1 -46.5 -19t-18.5 -44v-232q0 -107 -117 -107h-107v91h63q10 0 18.5 5t13 13.5t4.5 19.5v223q0 60 54 98q-54 37 -54 100v223q0 11 -4.5 20t-13 14t-18.5 5h-63v90z" />
    <glyph glyph-name="asciitilde" unicode="~" horiz-adv-x="588" 
d="M130 161l-91 13q1 78 48.5 131t121.5 53q36 0 60 -14.5t50 -42.5q37 -40 68 -40q18 0 33.5 11t25.5 31t12 46l92 -9q-3 -75 -46 -128.5t-110 -53.5q-17 0 -33.5 5.5t-25.5 9.5t-24.5 18t-17.5 16t-17 19q-34 36 -63 36q-33 0 -56.5 -27.5t-26.5 -73.5z" />
    <glyph glyph-name="exclamdown" unicode="&#xa1;" horiz-adv-x="209" 
d="M173 443h-134v95h134v-95zM163 -163h-115v531h115v-531z" />
    <glyph glyph-name="cent" unicode="&#xa2;" horiz-adv-x="404" 
d="M264 576v-68q52 -2 111 -15l-7 -94q-59 13 -105 13q-42 0 -75 -22t-33 -68v-145q0 -25 11 -43.5t28 -28t34.5 -14t35.5 -4.5q46 0 104 13l7 -95q-57 -12 -111 -15v-66h-87v77q-12 3 -20 6q-56 14 -90 56t-34 102v168q0 63 35.5 105.5t93.5 56.5l15 3v78h87z" />
    <glyph glyph-name="sterling" unicode="&#xa3;" horiz-adv-x="563" 
d="M101 401v122q0 72 54 123.5t135 59.5q9 2 34 2q68 0 166 -26l-11 -93q-68 14 -143 15q-16 0 -24 -1q-39 -2 -62.5 -24t-23.5 -56v-122h150v-103h-150v-194h300v-104h-479v104h54v194h-54v103h54z" />
    <glyph glyph-name="currency" unicode="&#xa4;" horiz-adv-x="600" 
 />
    <glyph glyph-name="yen" unicode="&#xa5;" horiz-adv-x="648" 
d="M477 453h91v-104h-143l-25 -44l-3 -17h171v-104h-177v-184h-134v184h-177v104h172l-4 17l-25 44h-143v104h92l-138 247h144l146 -289l147 289h144z" />
    <glyph glyph-name="brokenbar" unicode="&#xa6;" horiz-adv-x="204" 
d="M165 418h-125v332h125v-332zM165 -111h-125v332h125v-332z" />
    <glyph glyph-name="section" unicode="&#xa7;" horiz-adv-x="473" 
d="M37 523v13q0 172 202 172q106 0 168 -26l-10 -97q-56 27 -155 27q-14 0 -27 -2.5t-26.5 -8.5t-22 -19t-8.5 -31v-11q0 -38 38 -57l134 -60q61 -25 85.5 -57.5t24.5 -92.5v-14q0 -76 -42 -122q42 -40 42 -112v-15q0 -61 -25 -102t-69.5 -60t-107.5 -19q-121 0 -195 29
l8 96q49 -17 91 -23.5t105 -5.5q20 0 37 9.5t27 26.5t10 38v15q0 43 -42 64l-139 61q-56 23 -79.5 52t-23.5 84v12q0 81 57 125q-56 37 -57 111zM283 324l-79 41q-50 -13 -50 -59v-12q0 -37 38 -57l95 -50l8 -4q31 22 31 62v13q0 44 -43 66z" />
    <glyph glyph-name="dieresis" unicode="&#xa8;" horiz-adv-x="334" 
d="M130 598h-90v92h90v-92zM294 598h-91v92h91v-92z" />
    <glyph glyph-name="copyright" unicode="&#xa9;" horiz-adv-x="800" 
d="M400 710q73 0 139.5 -28.5t115 -76.5t77 -115t28.5 -140q0 -98 -48 -181t-131 -131t-181 -48t-181 48t-131 131t-48 181q0 73 28.5 140t76.5 115t115 76.5t140 28.5zM400 638q-119 0 -203 -84t-84 -203t84 -203t203 -84t203 84t84 203t-84 203t-203 84zM393 543h15
q36 0 81 -11l-4 -55q-42 7 -77 7h-11q-19 0 -34 -8t-24 -24t-9 -37v-130q0 -21 9 -37t24 -24t34 -8h11q35 0 77 7l4 -55q-45 -11 -81 -11h-15q-58 0 -97.5 35.5t-39.5 94.5v126q0 39 19 69.5t50 45.5t68 15z" />
    <glyph glyph-name="ordfeminine" unicode="&#xaa;" horiz-adv-x="356" 
d="M77 628l-10 64q69 14 111 14q38 0 67.5 -10t50 -36.5t20.5 -67.5v-207h-72l-4 26q-53 -31 -100 -31q-43 0 -71 25.5t-29 68.5v11q2 91 126 91q24 0 63 -7v20q0 12 -4.5 21.5t-13 16t-20 9.5t-25.5 3q-32 0 -89 -11zM229 457v71q-22 4 -48 4q-59 0 -59 -40v-18
q0 -11 5 -20t14.5 -14t20.5 -5q28 0 67 22z" />
    <glyph glyph-name="guillemotleft" unicode="&#xab;" horiz-adv-x="486" 
d="M215 335l-76 -59l76 -59v-106l-180 143v44l180 142v-105zM441 335l-76 -59l76 -59v-106l-180 143v44l180 142v-105z" />
    <glyph glyph-name="logicalnot" unicode="&#xac;" horiz-adv-x="873" 
 />
    <glyph glyph-name="registered" unicode="&#xae;" horiz-adv-x="800" 
d="M400 710q73 0 139.5 -28.5t115 -76.5t77 -115t28.5 -140q0 -98 -48 -181t-131 -131t-181 -48t-181 48t-131 131t-48 181q0 73 28.5 140t76.5 115t115 76.5t140 28.5zM400 638q-119 0 -203 -84t-84 -203t84 -203t203 -84t203 84t84 203t-84 203t-203 84zM269 533h161
q45 0 72.5 -28.5t27.5 -73.5v-38q0 -30 -15 -53t-38 -33l63 -138h-79l-50 122h-73v-122h-69v364zM338 477v-130h83q8 0 15.5 3t13 8.5t8.5 13t3 16.5v48q0 17 -11.5 29t-28.5 12h-83z" />
    <glyph glyph-name="macron" unicode="&#xaf;" horiz-adv-x="400" 
d="M360 624h-320v76h320v-76z" />
    <glyph glyph-name="degree" unicode="&#xb0;" horiz-adv-x="342" 
d="M171 750q59 0 95.5 -36.5t36.5 -96.5q0 -59 -36.5 -95t-95.5 -36t-95.5 36t-36.5 95q0 60 36.5 96.5t95.5 36.5zM171 685q-30 0 -49 -19t-19 -49q0 -29 19 -47.5t49 -18.5q20 0 35 8.5t23.5 23.5t8.5 34q0 30 -18.5 49t-48.5 19z" />
    <glyph glyph-name="plusminus" unicode="&#xb1;" horiz-adv-x="558" 
d="M331 436h187v-104h-187v-165h-104v165h-187v104h187v165h104v-165zM518 0h-478v104h478v-104z" />
    <glyph glyph-name="twosuperior" unicode="&#xb2;" horiz-adv-x="315" 
d="M150 706h31q40 0 68 -26t28 -63v-11q0 -25 -15 -47.5t-39 -35.5l-74 -39q-27 -13 -27 -41v-42h155v-59h-229v109q0 56 59 86l78 41q18 10 18 28v6q0 13 -9 21.5t-23 8.5h-20q-45 0 -81 -15l-8 59q35 20 88 20z" />
    <glyph glyph-name="threesuperior" unicode="&#xb3;" horiz-adv-x="314" 
d="M138 708h33q25 -1 47 -13t35 -32.5t13 -45.5v-25q0 -37 -33 -59q11 -7 19 -17.5t12 -22t4 -22.5v-41q0 -37 -28 -63.5t-67 -26.5h-35q-53 0 -89 22l12 53q35 -14 83 -15h17q9 0 17 4.5t12 11.5t4 16v39q0 9 -4 16.5t-12 11.5t-17 4h-40v57h40q14 0 23.5 9t9.5 23v22
q0 29 -34 33h-16q-49 0 -82 -12l-13 52q38 21 89 21z" />
    <glyph glyph-name="acute" unicode="&#xb4;" horiz-adv-x="271" 
d="M131 570h-95l81 147h120z" />
    <glyph glyph-name="paragraph" unicode="&#xb6;" horiz-adv-x="649" 
d="M611 597h-34v-760h-125v760h-79v-760h-126v428h-52q-71 7 -117.5 57t-46.5 116v86q0 45 23.5 85t66.5 65.5t96 25.5h394v-103z" />
    <glyph glyph-name="periodcentered" unicode="&#xb7;" horiz-adv-x="213" 
d="M174 255h-134v107h134v-107z" />
    <glyph glyph-name="cedilla" unicode="&#xb8;" horiz-adv-x="251" 
d="M131 -32h12q29 0 50 -22t21 -53v-15q0 -35 -23 -58.5t-55 -23.5h-98v64h93q9 0 15.5 6t6.5 16v6q0 6 -3 11.5t-8 8t-11 2.5h-55v91h55v-33z" />
    <glyph glyph-name="onesuperior" unicode="&#xb9;" horiz-adv-x="217" 
d="M177 341h-73v285l-46 -12l-19 61l83 25h55v-359z" />
    <glyph glyph-name="ordmasculine" unicode="&#xba;" horiz-adv-x="362" 
d="M40 491v102q0 31 13.5 53.5t35 35t45 18.5t47.5 6q35 0 65.5 -10t53 -36.5t22.5 -66.5v-102q0 -39 -22.5 -65.5t-53 -37t-65.5 -10.5q-34 0 -64.5 10.5t-53.5 37t-23 65.5zM237 492v100q0 24 -17 35t-39 11q-9 0 -18.5 -2.5t-18 -7t-14 -14t-5.5 -22.5v-100
q0 -24 17.5 -35t38.5 -11q22 0 39 11t17 35z" />
    <glyph glyph-name="guillemotright" unicode="&#xbb;" horiz-adv-x="486" 
d="M220 298v-44l-180 -143v106l75 59l-75 59v105zM446 298v-44l-180 -143v106l75 59l-75 59v105z" />
    <glyph glyph-name="onequarter" unicode="&#xbc;" horiz-adv-x="616" 
d="M164 -18h-87l326 734h87zM173 341h-73v284l-46 -12l-20 61l84 25h55v-358zM394 133h71l15 102h53v-102h43v-65h-43v-69h-70v69h-149v41l95 250h73z" />
    <glyph glyph-name="onehalf" unicode="&#xbd;" horiz-adv-x="648" 
d="M177 -17h-87l326 734h87zM186 341h-73v285l-46 -12l-19 61l83 25h55v-359zM489 364h31q26 0 48 -12t35 -32.5t13 -45.5v-10q0 -26 -14.5 -48t-39.5 -35l-74 -39q-26 -13 -26 -41v-42h154v-59h-229v109q0 55 59 86l78 41q19 9 19 27v7q0 12 -9.5 20.5t-22.5 8.5h-21
q-45 0 -81 -14l-8 59q35 20 88 20z" />
    <glyph glyph-name="threequarters" unicode="&#xbe;" horiz-adv-x="668" 
d="M216 -17h-87l326 733h87zM125 708h32q39 -2 67 -28t28 -63v-25q0 -37 -33 -59q17 -10 26.5 -27t9.5 -35v-41q0 -37 -28.5 -63.5t-67.5 -26.5h-34q-53 0 -90 22l12 53q35 -14 83 -15h17q14 0 23.5 9.5t9.5 22.5v39q0 14 -9.5 23t-23.5 9h-39v57h39q14 0 23.5 9t9.5 23v22
q0 29 -33 33h-17q-48 0 -82 -12l-13 52q38 21 90 21zM441 134h72l15 102h53v-102h43v-65h-43v-69h-70v69h-150v41l96 249h72z" />
    <glyph glyph-name="questiondown" unicode="&#xbf;" horiz-adv-x="486" 
d="M411 446h-135v95h135v-95zM405 342v-46q0 -103 -109 -160l-102 -53q-40 -22 -40 -63v-12q0 -30 20.5 -50t51.5 -20h43q85 0 151 24l13 -93q-67 -36 -162 -36h-61q-73 0 -124.5 48t-51.5 118v21q0 46 27 87t73 65l91 49q26 13 42 36.5t16 53.5v31h122z" />
    <glyph glyph-name="Agrave" unicode="&#xc0;" horiz-adv-x="686" 
d="M435 769h-95l-107 148h121zM646 0h-140l-51 166h-224l-50 -166h-141l219 700h168zM250 273h186l-93 317z" />
    <glyph glyph-name="Aacute" unicode="&#xc1;" horiz-adv-x="686" 
d="M338 770h-94l80 147h121zM646 0h-140l-51 166h-224l-50 -166h-141l219 700h168zM250 273h186l-93 317z" />
    <glyph glyph-name="Acircumflex" unicode="&#xc2;" horiz-adv-x="686" 
d="M527 762h-111l-71 81l-72 -81h-111l142 155h80zM646 0h-140l-51 166h-224l-50 -166h-141l219 700h168zM250 273h186l-93 317z" />
    <glyph glyph-name="Atilde" unicode="&#xc3;" horiz-adv-x="686" 
d="M462 907l52 -54q-52 -54 -99 -60q-35 -3 -70 20q-3 2 -11 7.5t-11.5 8t-9.5 5.5t-11.5 4.5t-11.5 1.5q-17 0 -66 -39l-49 55q69 64 116 64q16 0 31 -5t22 -9.5t21 -15.5q24 -17 45 -16q18 2 52 33zM646 0h-141l-50 166h-224l-50 -166h-141l219 700h168zM250 273h186
l-93 316z" />
    <glyph glyph-name="Adieresis" unicode="&#xc4;" horiz-adv-x="686" 
d="M307 798h-90v92h90v-92zM470 798h-90v92h90v-92zM646 0h-140l-51 166h-224l-50 -166h-141l219 700h168zM250 273h186l-93 317z" />
    <glyph glyph-name="Aring" unicode="&#xc5;" horiz-adv-x="686" 
d="M343 950q43 0 73.5 -30t30.5 -71q0 -44 -30 -74t-74 -30q-43 0 -72.5 30t-29.5 74q0 41 30 71t72 30zM343 896q-10 0 -18.5 -4t-14.5 -10t-10 -15t-4 -18q0 -20 13.5 -34t33.5 -14t33.5 14t13.5 34q0 8 -2 15t-6.5 12.5t-10.5 10t-13 7t-15 2.5zM646 0h-140l-51 166h-224
l-50 -166h-141l219 700h168zM250 273h186l-93 317z" />
    <glyph glyph-name="AE" unicode="&#xc6;" horiz-adv-x="819" 
d="M773 593h-295v-185h258v-107h-258v-194h295v-107h-430v166h-112l-50 -166h-141l219 700h514v-107zM245 273h103l-5 317z" />
    <glyph glyph-name="Ccedilla" unicode="&#xc7;" horiz-adv-x="528" 
d="M309 708h27q66 0 149 -20l-7 -99q-78 12 -142 12h-20q-54 0 -90 -35.5t-36 -94.5v-241q0 -59 36 -95t90 -36h20q64 1 142 13l7 -99q-83 -21 -149 -21h-27q-5 0 -14 0.5t-14 0.5v-25h11q19 0 35.5 -10t26 -27.5t9.5 -37.5v-15q0 -23 -10.5 -42t-28.5 -29.5t-39 -10.5h-98
v64h94q9 0 15 6t6 16v6q0 10 -6 16t-15 6h-55v95q-76 20 -123.5 81t-47.5 147v234q0 111 73 176t181 65z" />
    <glyph glyph-name="Egrave" unicode="&#xc8;" horiz-adv-x="545" 
d="M375 769h-95l-107 148h121zM501 593h-295v-185h257v-107h-257v-194h295v-107h-431v700h431v-107z" />
    <glyph glyph-name="Eacute" unicode="&#xc9;" horiz-adv-x="545" 
d="M278 770h-94l81 147h120zM501 593h-295v-185h257v-107h-257v-194h295v-107h-431v700h431v-107z" />
    <glyph glyph-name="Ecircumflex" unicode="&#xca;" horiz-adv-x="545" 
d="M467 762h-111l-71 81l-72 -81h-111l142 155h80zM501 593h-295v-185h257v-107h-257v-194h295v-107h-431v700h431v-107z" />
    <glyph glyph-name="Edieresis" unicode="&#xcb;" horiz-adv-x="545" 
d="M247 798h-90v92h90v-92zM411 798h-91v92h91v-92zM501 593h-295v-185h257v-107h-257v-194h295v-107h-431v700h431v-107z" />
    <glyph glyph-name="Igrave" unicode="&#xcc;" horiz-adv-x="285" 
d="M233 769h-94l-107 148h120zM210 0h-135v700h135v-700z" />
    <glyph glyph-name="Iacute" unicode="&#xcd;" horiz-adv-x="285" 
d="M136 770h-94l81 147h120zM210 0h-135v700h135v-700z" />
    <glyph glyph-name="Icircumflex" unicode="&#xce;" horiz-adv-x="285" 
d="M325 762h-111l-71 81l-72 -81h-111l142 155h80zM209 0h-134v700h134v-700z" />
    <glyph glyph-name="Idieresis" unicode="&#xcf;" horiz-adv-x="285" 
d="M105 798h-90v92h90v-92zM269 798h-91v92h91v-92zM210 0h-135v700h135v-700z" />
    <glyph glyph-name="Eth" unicode="&#xd0;" horiz-adv-x="654" 
d="M80 700h265q107 0 180.5 -66.5t73.5 -174.5v-218q0 -110 -73 -175.5t-181 -65.5h-265v294h-55v74h55v332zM215 593v-225h107v-74h-107v-187h123q35 0 63.5 15.5t45.5 45.5t17 70v224q0 58 -36.5 94.5t-89.5 36.5h-123z" />
    <glyph glyph-name="Ntilde" unicode="&#xd1;" 
d="M458 907l51 -54q-52 -54 -98 -60q-35 -3 -71 20q-2 2 -10 7.5t-11.5 8t-10 5.5t-12 4.5t-10.5 1.5q-18 0 -66 -39l-50 55q69 64 117 64q15 0 30 -5t22.5 -9.5t21.5 -15.5q24 -17 44 -16q19 2 53 33zM614 0h-131l-285 471v-471h-133v700h131l285 -474v474h133v-700z" />
    <glyph glyph-name="Ograve" unicode="&#xd2;" horiz-adv-x="655" 
d="M418 769h-95l-106 148h120zM310 708h33q105 0 181 -68.5t76 -173.5v-233q0 -105 -73.5 -173t-183.5 -68h-33q-114 0 -184.5 68t-70.5 173v233q0 107 73 174.5t182 67.5zM338 601h-22q-53 0 -90 -37t-37 -94v-241q0 -59 37 -94.5t90 -35.5h22q52 0 89.5 35.5t37.5 94.5
v241q0 28 -10.5 53t-28 42t-41 26.5t-47.5 9.5z" />
    <glyph glyph-name="Oacute" unicode="&#xd3;" horiz-adv-x="655" 
d="M322 770h-95l81 147h120zM310 708h33q105 0 181 -68.5t76 -173.5v-233q0 -105 -73.5 -173t-183.5 -68h-33q-114 0 -184.5 68t-70.5 173v233q0 107 73 174.5t182 67.5zM338 601h-22q-53 0 -90 -37t-37 -94v-241q0 -59 37 -94.5t90 -35.5h22q52 0 89.5 35.5t37.5 94.5v241
q0 28 -10.5 53t-28 42t-41 26.5t-47.5 9.5z" />
    <glyph glyph-name="Ocircumflex" unicode="&#xd4;" horiz-adv-x="655" 
d="M510 762h-111l-71 81l-71 -81h-112l142 155h80zM310 708h33q105 0 181 -68.5t76 -173.5v-233q0 -105 -73.5 -173t-183.5 -68h-33q-114 0 -184.5 68t-70.5 173v233q0 107 73 174.5t182 67.5zM338 601h-22q-35 0 -63.5 -16.5t-46 -46.5t-17.5 -68v-241q0 -59 37 -94.5
t90 -35.5h22q52 0 89.5 35.5t37.5 94.5v241q0 28 -10.5 53t-28 42t-41 26.5t-47.5 9.5z" />
    <glyph glyph-name="Otilde" unicode="&#xd5;" horiz-adv-x="655" 
d="M446 907l51 -54q-52 -54 -99 -60q-35 -3 -70 20q-3 2 -11 7.5t-11.5 8t-9.5 5.5t-11.5 4.5t-11.5 1.5q-17 0 -65 -39l-50 55q69 64 116 64q16 0 31 -5t22.5 -9.5t21.5 -15.5q23 -17 44 -16q19 2 53 33zM310 708h33q105 0 181 -68.5t76 -173.5v-233q0 -105 -73.5 -173
t-183.5 -68h-33q-114 0 -184.5 68t-70.5 173v233q0 107 73 174.5t182 67.5zM338 601h-22q-53 0 -90 -37t-37 -94v-241q0 -59 37 -94.5t90 -35.5h22q52 0 89.5 35.5t37.5 94.5v241q0 28 -10.5 53t-28 42t-41 26.5t-47.5 9.5z" />
    <glyph glyph-name="Odieresis" unicode="&#xd6;" horiz-adv-x="655" 
d="M290 798h-90v92h90v-92zM454 798h-91v92h91v-92zM310 708h33q105 0 181 -68.5t76 -173.5v-233q0 -105 -73.5 -173t-183.5 -68h-33q-76 0 -134 31.5t-89.5 86t-31.5 123.5v233q0 107 73 174.5t182 67.5zM338 601h-22q-53 0 -90 -37t-37 -94v-241q0 -59 37 -94.5t90 -35.5
h22q52 0 89.5 35.5t37.5 94.5v241q0 28 -10.5 53t-28 42t-41 26.5t-47.5 9.5z" />
    <glyph glyph-name="multiply" unicode="&#xd7;" horiz-adv-x="491" 
d="M451 431l-132 -132l132 -132l-74 -73l-132 132l-132 -132l-73 73l132 132l-132 132l73 74l132 -132l132 132z" />
    <glyph glyph-name="Oslash" unicode="&#xd8;" horiz-adv-x="675" 
d="M562 750l-43 -98q28 -21 48 -49t31.5 -63t11.5 -74v-233q0 -105 -73.5 -173t-183.5 -68h-33q-47 0 -88 13l-25 -55h-94l42 94q-43 32 -66.5 81t-23.5 108v233q0 107 73 174.5t182 67.5h34q46 0 89 -15l25 57h94zM200 470v-241q0 -32 11 -58l186 420q-23 10 -49 10h-22
q-53 0 -89.5 -37t-36.5 -94zM476 229v241q0 31 -13 57l-186 -419q23 -9 49 -9h22q52 0 90 35.5t38 94.5z" />
    <glyph glyph-name="Ugrave" unicode="&#xd9;" 
d="M429 769h-95l-107 148h121zM607 700v-476q0 -74 -36 -128t-92 -79t-125 -25h-32q-110 0 -181 61t-71 171v476h135v-476q0 -59 35.5 -92t88.5 -33h21q51 -1 87 33t36 92v476h134z" />
    <glyph glyph-name="Uacute" unicode="&#xda;" 
d="M332 770h-94l80 147h121zM607 700v-476q0 -74 -36 -128t-92 -79t-125 -25h-32q-110 0 -181 61t-71 171v476h135v-476q0 -59 35.5 -92t88.5 -33h21q51 -1 87 33t36 92v476h134z" />
    <glyph glyph-name="Ucircumflex" unicode="&#xdb;" 
d="M521 762h-111l-72 81l-71 -81h-111l142 155h80zM607 700v-476q0 -74 -36 -128t-92 -79t-125 -25h-32q-110 0 -181 61t-71 171v476h135v-476q0 -59 35.5 -92t88.5 -33h21q51 -1 87 33t36 92v476h134z" />
    <glyph glyph-name="Udieresis" unicode="&#xdc;" 
d="M301 798h-90v92h90v-92zM464 798h-90v92h90v-92zM607 700v-476q0 -74 -36 -128t-92 -79t-125 -25h-32q-110 0 -181 61t-71 171v476h135v-476q0 -59 35.5 -92t88.5 -33h21q51 -1 87 33t36 92v476h134z" />
    <glyph glyph-name="Yacute" unicode="&#xdd;" horiz-adv-x="647" 
d="M318 770h-94l80 147h121zM391 287v-287h-135v288l-223 412h144l146 -289l147 289h144z" />
    <glyph glyph-name="Thorn" unicode="&#xde;" horiz-adv-x="608" 
d="M209 593h150q87 0 139.5 -55t52.5 -143v-47q0 -90 -52 -144t-140 -54h-150v-150h-134v700h134v-107zM209 484v-225h129q34 0 56.5 22.5t22.5 56.5v67q0 32 -23 55.5t-56 23.5h-129z" />
    <glyph glyph-name="germandbls" unicode="&#xdf;" horiz-adv-x="596" 
d="M253 706h105q74 0 125.5 -48.5t52.5 -117.5v-56q0 -11 -2 -22.5t-5.5 -21t-8.5 -18t-10.5 -15.5t-11.5 -13.5t-12.5 -11t-12 -8t-10.5 -5.5q28 -9 55 -42.5t27 -81.5v-81q0 -69 -51.5 -118t-125.5 -49h-140v96h123q16 0 30.5 5.5t24.5 15.5t16 24t6 29v80q0 32 -22 53.5
t-55 21.5h-30v87h28q32 1 53 22.5t21 52.5v51q0 32 -22 53t-54 21h-82q-22 0 -39.5 -9.5t-27.5 -26.5t-10 -38v-535h-113v540q1 69 52.5 117.5t125.5 48.5z" />
    <glyph glyph-name="agrave" unicode="&#xe0;" horiz-adv-x="508" 
d="M346 569h-95l-107 148h121zM87 396l-14 91q100 21 172 21q40 0 75.5 -9t67.5 -28t51 -55t19 -85v-331h-104l-5 45q-89 -52 -162 -52q-68 0 -112 39.5t-45 106.5v17q1 41 18 70.5t47 44t61.5 21t69.5 6.5q52 0 107 -11v40q0 31 -19 52t-41.5 27.5t-46.5 6.5
q-57 0 -139 -17zM333 109v121q-36 7 -84 7q-101 0 -101 -71v-27q0 -30 20 -49.5t52 -19.5q49 0 113 39z" />
    <glyph glyph-name="aacute" unicode="&#xe1;" horiz-adv-x="508" 
d="M249 570h-94l81 147h120zM87 396l-14 91q100 21 172 21q40 0 75.5 -9t67.5 -28t51 -55t19 -85v-331h-104l-5 45q-89 -52 -162 -52q-45 0 -80 17.5t-55.5 51t-21.5 77.5v17q1 41 18 70.5t47 44t61.5 21t69.5 6.5q52 0 107 -11v40q0 31 -19 52t-41.5 27.5t-46.5 6.5
q-57 0 -139 -17zM333 109v121q-36 7 -84 7q-101 0 -101 -71v-27q0 -30 20 -49.5t52 -19.5q49 0 113 39z" />
    <glyph glyph-name="acircumflex" unicode="&#xe2;" horiz-adv-x="508" 
d="M438 562h-111l-71 81l-72 -81h-111l142 155h80zM87 396l-14 91q100 21 172 21q40 0 75.5 -9t67.5 -28t51 -55t19 -85v-331h-104l-5 45q-89 -52 -162 -52q-45 0 -80 17.5t-55.5 51t-21.5 77.5v17q1 41 18 70.5t47 44t61.5 21t69.5 6.5q52 0 107 -11v40q0 31 -19 52
t-41.5 27.5t-46.5 6.5q-57 0 -139 -17zM333 109v121q-36 7 -84 7q-101 0 -101 -71v-27q0 -30 20 -49.5t52 -19.5q49 0 113 39z" />
    <glyph glyph-name="atilde" unicode="&#xe3;" horiz-adv-x="508" 
d="M373 707l52 -54q-52 -54 -99 -60q-35 -3 -70 20q-3 2 -11 7.5t-11.5 8t-10 5.5t-11.5 4.5t-11 1.5q-17 0 -66 -39l-49 55q69 64 116 64q16 0 31 -5t22 -9.5t21 -15.5q24 -17 45 -16q18 2 52 33zM87 396l-14 91q100 21 172 21q40 0 75.5 -9t67.5 -28t51 -55t19 -85v-331
h-104l-5 45q-89 -52 -162 -52q-68 0 -112 39.5t-45 106.5v17q1 41 18 70.5t47 44t61.5 21t69.5 6.5q52 0 107 -11v40q0 31 -19 52t-41.5 27.5t-46.5 6.5q-57 0 -139 -17zM333 109v121q-36 7 -84 7q-101 0 -101 -71v-27q0 -30 20 -49.5t52 -19.5q49 0 113 39z" />
    <glyph glyph-name="adieresis" unicode="&#xe4;" horiz-adv-x="508" 
d="M218 598h-90v92h90v-92zM381 598h-90v92h90v-92zM87 396l-14 91q100 21 172 21q40 0 75.5 -9t67.5 -28t51 -55t19 -85v-331h-104l-5 45q-89 -52 -162 -52q-68 0 -112 39.5t-45 106.5v17q1 41 18 70.5t47 44t61.5 21t69.5 6.5q52 0 107 -11v40q0 31 -19 52t-41.5 27.5
t-46.5 6.5q-57 0 -139 -17zM333 109v121q-36 7 -84 7q-101 0 -101 -71v-27q0 -30 20 -49.5t52 -19.5q49 0 113 39z" />
    <glyph glyph-name="aring" unicode="&#xe5;" horiz-adv-x="508" 
d="M254 750q43 0 73.5 -30t30.5 -71q0 -44 -30 -74t-74 -30q-43 0 -72.5 30t-29.5 74q0 41 30 71t72 30zM254 696q-13 0 -23.5 -6.5t-16.5 -17t-6 -23.5q0 -20 13 -33.5t33 -13.5t33.5 13.5t13.5 33.5q0 19 -13.5 33t-33.5 14zM87 396l-14 91q100 21 172 21q40 0 75.5 -9
t67.5 -28t51 -55t19 -85v-331h-104l-5 45q-89 -52 -162 -52q-45 0 -80 17.5t-55.5 51t-21.5 77.5v17q1 41 18 70.5t47 44t61.5 21t69.5 6.5q52 0 107 -11v40q0 31 -19 52t-41.5 27.5t-46.5 6.5q-57 0 -139 -17zM333 109v121q-36 7 -84 7q-101 0 -101 -71v-27q0 -30 20 -49.5
t52 -19.5q49 0 113 39z" />
    <glyph glyph-name="ae" unicode="&#xe6;" horiz-adv-x="863" 
d="M87 396l-14 91q100 21 172 21q36 0 69 -7t65 -26t50 -48q27 41 77.5 61t102.5 20q39 0 75.5 -9.5t69 -29t52 -55t19.5 -82.5v-110h-314v-61q0 -29 17.5 -48t38.5 -25.5t43 -6.5q54 0 188 17l13 -83q-110 -22 -195 -22q-44 0 -87.5 13t-70.5 41v-47h-104l-5 45
q-89 -52 -162 -52q-68 0 -112 39.5t-45 106.5v17q1 41 18 70.5t47 44t61.5 21t69.5 6.5q52 0 107 -11v40q0 31 -19 52t-41.5 27.5t-46.5 6.5q-57 0 -139 -17zM708 279v61q0 29 -17.5 48.5t-38 25.5t-43.5 6q-36 0 -67 -19.5t-31 -60.5v-61h197zM333 109v121q-36 7 -84 7
q-101 0 -101 -71v-27q0 -30 20 -49.5t52 -19.5q50 0 113 39z" />
    <glyph glyph-name="ccedilla" unicode="&#xe7;" horiz-adv-x="418" 
d="M40 166v167q0 39 13.5 70t34.5 50.5t49 32.5t56 18t56 5q63 0 133 -16l-7 -94q-59 13 -103 13q-43 0 -76.5 -22t-33.5 -68v-145q0 -47 34 -68.5t76 -21.5q44 0 103 13l8 -95q-73 -15 -131 -15h-5v-22h11q29 0 50.5 -22t21.5 -53v-15q0 -35 -23.5 -58.5t-55.5 -23.5h-98
v64h94q9 0 15.5 6t6.5 16v6q0 10 -6.5 16t-15.5 6h-55v85q-64 13 -108 54.5t-44 116.5z" />
    <glyph glyph-name="egrave" unicode="&#xe8;" horiz-adv-x="509" 
d="M344 569h-95l-107 148h121zM40 169v163q0 47 20.5 82.5t53.5 55t69 29t72 9.5q31 0 60 -5.5t57.5 -18.5t50 -33t35 -50.5t13.5 -68.5v-114h-314v-57q0 -29 17.5 -48t38.5 -25.5t43 -6.5q54 0 188 17l13 -83q-110 -22 -195 -22q-41 0 -78 9t-70.5 28t-53.5 55t-20 84z
M354 283v57q0 29 -17.5 48.5t-38 25.5t-43.5 6q-36 0 -67 -19.5t-31 -60.5v-57h197z" />
    <glyph glyph-name="eacute" unicode="&#xe9;" horiz-adv-x="509" 
d="M247 570h-94l81 147h120zM40 169v163q0 47 20.5 82.5t53.5 55t68.5 29t72.5 9.5q39 0 75 -9.5t68.5 -29t52.5 -55t20 -82.5v-114h-314v-57q0 -29 17.5 -48t38.5 -25.5t43 -6.5q54 0 188 17l13 -83q-110 -22 -195 -22q-32 0 -62 5t-60 18t-51.5 32.5t-35 50.5t-13.5 70z
M354 283v57q0 22 -10 38.5t-25.5 25.5t-31.5 12.5t-32 3.5q-22 0 -43 -6.5t-38 -26t-17 -47.5v-57h197z" />
    <glyph glyph-name="ecircumflex" unicode="&#xea;" horiz-adv-x="509" 
d="M436 562h-111l-71 81l-72 -81h-111l142 155h80zM40 169v163q0 47 20.5 82.5t53.5 55t69 29t72 9.5q31 0 60 -5.5t57.5 -18.5t50 -33t35 -50.5t13.5 -68.5v-114h-314v-57q0 -29 17.5 -48t38.5 -25.5t43 -6.5q54 0 188 17l13 -83q-110 -22 -195 -22q-41 0 -78 9t-70.5 28
t-53.5 55t-20 84zM354 283v57q0 29 -17.5 48.5t-38 25.5t-43.5 6q-36 0 -67 -19.5t-31 -60.5v-57h197z" />
    <glyph glyph-name="edieresis" unicode="&#xeb;" horiz-adv-x="509" 
d="M216 598h-90v92h90v-92zM379 598h-90v92h90v-92zM40 169v163q0 47 20.5 82.5t53.5 55t68.5 29t72.5 9.5q39 0 75 -9.5t68.5 -29t52.5 -55t20 -82.5v-114h-314v-57q0 -29 17.5 -48t38.5 -25.5t43 -6.5q54 0 188 17l13 -83q-110 -22 -195 -22q-32 0 -62 5t-60 18
t-51.5 32.5t-35 50.5t-13.5 70zM354 283v57q0 22 -10 38.5t-25.5 25.5t-31.5 12.5t-32 3.5q-22 0 -43 -6.5t-38 -26t-17 -47.5v-57h197z" />
    <glyph glyph-name="igrave" unicode="&#xec;" horiz-adv-x="213" 
d="M198 569h-94l-107 148h121zM169 0h-124v500h124v-500z" />
    <glyph glyph-name="iacute" unicode="&#xed;" horiz-adv-x="213" 
d="M102 570h-94l80 147h121zM169 0h-124v500h124v-500z" />
    <glyph glyph-name="icircumflex" unicode="&#xee;" horiz-adv-x="213" 
d="M291 562h-111l-72 81l-71 -81h-111l142 155h80zM169 0h-124v500h124v-500z" />
    <glyph glyph-name="idieresis" unicode="&#xef;" horiz-adv-x="213" 
d="M71 598h-90v92h90v-92zM234 598h-90v92h90v-92zM169 0h-124v500h124v-500z" />
    <glyph glyph-name="eth" unicode="&#xf0;" horiz-adv-x="545" 
d="M513 688l-64 -49q38 -51 38 -121v-355q0 -72 -52 -120.5t-128 -48.5h-91q-48 0 -88 22t-63 61t-23 86v97q0 46 23.5 85t62.5 60.5t86 22.5h58q27 0 91 -12v117q0 19 -6 36l-88 -68l-36 46l91 68q-25 18 -57 17h-54q-65 0 -146 -13v81q87 19 145 19h62q78 0 134 -40l70 53
zM365 168v144q-29 19 -72 19h-57q-30 0 -51 -22t-21 -55v-86q0 -22 10 -40t26.5 -27.5t35.5 -9.5h53q34 0 55 21.5t21 55.5z" />
    <glyph glyph-name="ntilde" unicode="&#xf1;" horiz-adv-x="534" 
d="M386 707l52 -54q-52 -54 -99 -60q-35 -3 -70 20q-3 2 -11 7.5t-11.5 7.5t-10 5.5t-11.5 5t-11 1.5q-17 0 -66 -39l-49 55q68 64 116 64q16 0 31 -5t22 -9.5t21 -15.5q24 -17 45 -16q18 2 52 33zM158 500l5 -39q76 48 147 48q77 0 125.5 -48.5t48.5 -120.5v-340h-119v329
q0 23 -11 42t-31 30t-44 11q-41 0 -99 -28v-384h-125v500h103z" />
    <glyph glyph-name="ograve" unicode="&#xf2;" horiz-adv-x="521" 
d="M349 569h-94l-107 148h121zM40 174v152q0 45 18.5 81t50 57.5t70 32.5t81.5 11q95 0 157.5 -46t62.5 -136v-152q0 -90 -63 -136.5t-157 -46.5q-93 0 -156.5 47.5t-63.5 135.5zM359 175v149q0 43 -27.5 64.5t-71.5 21.5q-29 0 -50.5 -8.5t-34.5 -28.5t-13 -49v-149
q0 -21 7.5 -38t21 -27.5t31 -15.5t38.5 -5q44 0 71.5 21.5t27.5 64.5z" />
    <glyph glyph-name="oacute" unicode="&#xf3;" horiz-adv-x="521" 
d="M253 570h-95l81 147h121zM40 174v152q0 60 32.5 102.5t80.5 61t107 18.5q95 0 157.5 -46t62.5 -136v-152q0 -90 -63 -136.5t-157 -46.5q-93 0 -156.5 47.5t-63.5 135.5zM359 175v149q0 43 -27.5 64.5t-71.5 21.5q-29 0 -50.5 -8.5t-34.5 -28.5t-13 -49v-149
q0 -21 7.5 -38t21 -27.5t31 -15.5t38.5 -5q29 0 50.5 9t35 28.5t13.5 48.5z" />
    <glyph glyph-name="ocircumflex" unicode="&#xf4;" horiz-adv-x="521" 
d="M442 562h-111l-72 81l-71 -81h-111l142 155h80zM40 174v152q0 45 18.5 81t50 57.5t70 32.5t81.5 11q95 0 157.5 -46t62.5 -136v-152q0 -90 -63 -136.5t-157 -46.5q-93 0 -156.5 47.5t-63.5 135.5zM359 175v149q0 43 -27.5 64.5t-71.5 21.5q-29 0 -50.5 -8.5t-34.5 -28.5
t-13 -49v-149q0 -21 7.5 -38t21 -27.5t31 -15.5t38.5 -5q44 0 71.5 21.5t27.5 64.5z" />
    <glyph glyph-name="otilde" unicode="&#xf5;" horiz-adv-x="521" 
d="M377 707l51 -54q-51 -54 -98 -60q-35 -3 -71 20q-2 2 -10 7.5t-11.5 7.5t-10 5.5t-12 5t-10.5 1.5q-18 0 -66 -39l-50 55q69 64 117 64q12 0 22.5 -2t20.5 -7.5t15 -9t16 -11.5q24 -17 45 -16q18 2 52 33zM40 174v152q0 60 32.5 102.5t81 61t106.5 18.5q95 0 158 -46
t63 -136v-152q0 -90 -63.5 -136.5t-157.5 -46.5q-93 0 -156.5 47.5t-63.5 135.5zM359 175v149q0 22 -7.5 39t-21 27t-31.5 15t-39 5q-44 0 -71 -21.5t-27 -64.5v-149q0 -28 13.5 -48t35 -29t49.5 -9q44 0 71.5 21.5t27.5 64.5z" />
    <glyph glyph-name="odieresis" unicode="&#xf6;" horiz-adv-x="521" 
d="M222 598h-90v92h90v-92zM385 598h-90v92h90v-92zM40 174v152q0 60 32.5 102.5t80.5 61t107 18.5q95 0 157.5 -46t62.5 -136v-152q0 -90 -63 -136.5t-157 -46.5q-93 0 -156.5 47.5t-63.5 135.5zM359 175v149q0 43 -27.5 64.5t-71.5 21.5t-71 -21.5t-27 -64.5v-149
q0 -42 27 -64t71 -22t71.5 21.5t27.5 64.5z" />
    <glyph glyph-name="divide" unicode="&#xf7;" horiz-adv-x="539" 
d="M337 456h-135v114h135v-114zM508 265h-478v104h478v-104zM337 65h-135v114h135v-114z" />
    <glyph glyph-name="oslash" unicode="&#xf8;" horiz-adv-x="531" 
d="M426 550l-31 -70q90 -48 90 -154v-152q0 -90 -63 -136.5t-157 -46.5q-44 0 -83 11l-23 -52h-55l32 71q-91 49 -91 153v152q0 60 32.5 102.5t81 61t106.5 18.5q45 0 83 -10l24 52h54zM167 324v-149q0 -30 15 -51l125 280q-19 6 -42 6q-44 0 -71 -21.5t-27 -64.5zM364 175
v149q0 31 -15 52l-125 -281q18 -6 41 -6q44 0 71.5 21.5t27.5 64.5z" />
    <glyph glyph-name="ugrave" unicode="&#xf9;" horiz-adv-x="531" 
d="M354 569h-94l-106 148h120zM478 0h-103l-4 39q-77 -48 -142 -48q-81 0 -130 48t-49 121v340h119v-329q0 -37 25.5 -60t64.5 -23q37 0 95 28v384h124v-500z" />
    <glyph glyph-name="uacute" unicode="&#xfa;" horiz-adv-x="531" 
d="M259 570h-95l81 147h120zM478 0h-103l-5 39q-76 -48 -141 -48q-81 0 -130 48t-49 121v340h119v-329q0 -37 25.5 -60t64.5 -23q37 0 95 28v384h124v-500z" />
    <glyph glyph-name="ucircumflex" unicode="&#xfb;" horiz-adv-x="531" 
d="M447 562h-111l-72 81l-71 -81h-111l142 155h80zM478 0h-103l-4 39q-77 -48 -142 -48q-54 0 -95 22t-62.5 60.5t-21.5 86.5v340h119v-329q0 -37 25.5 -60t64.5 -23q37 0 95 28v384h124v-500z" />
    <glyph glyph-name="udieresis" unicode="&#xfc;" horiz-adv-x="531" 
d="M227 598h-90v92h90v-92zM390 598h-90v92h90v-92zM478 0h-103l-4 39q-77 -48 -142 -48q-54 0 -95 22t-62.5 60.5t-21.5 86.5v340h119v-329q0 -37 25.5 -60t64.5 -23q37 0 95 28v384h124v-500z" />
    <glyph glyph-name="yacute" unicode="&#xfd;" horiz-adv-x="534" 
d="M261 570h-95l81 147h120zM476 500v-512q0 -48 -18.5 -83.5t-49.5 -55t-65 -29t-72 -9.5q-78 0 -200 25l14 86q102 -20 160 -20q15 0 31 4t34 12.5t29.5 27t11.5 43.5v51q-76 -44 -140 -45q-69 0 -116 45.5t-47 124.5v335h118v-329q0 -35 25 -59t61 -24q41 0 99 28v384
h125z" />
    <glyph glyph-name="thorn" unicode="&#xfe;" horiz-adv-x="551" 
d="M175 708v-242q71 46 147 46q77 0 125.5 -48t48.5 -119v-176q0 -45 -16.5 -79.5t-43.5 -53t-56.5 -27.5t-59.5 -9q-68 1 -128 23v-224h-124v909h107zM378 176v155q0 35 -25 59t-62 24q-45 0 -98 -29v-286q31 -7 78 -7q25 0 47.5 7t41 26.5t18.5 50.5z" />
    <glyph glyph-name="ydieresis" unicode="&#xff;" horiz-adv-x="534" 
d="M229 598h-90v92h90v-92zM392 598h-90v92h90v-92zM476 500v-512q0 -48 -18.5 -83.5t-49.5 -55t-65 -29t-72 -9.5q-78 0 -200 25l14 86q102 -20 160 -20q15 0 31 4t34 12.5t29.5 27t11.5 43.5v51q-76 -44 -140 -45q-44 0 -80.5 19t-59.5 58.5t-23 92.5v335h118v-329
q0 -23 11.5 -42t31 -30t43.5 -11q41 0 99 28v384h125z" />
    <glyph glyph-name="Amacron" unicode="&#x100;" horiz-adv-x="686" 
d="M504 824h-320v76h320v-76zM646 0h-140l-51 166h-224l-50 -166h-141l219 700h168zM250 273h186l-93 317z" />
    <glyph glyph-name="amacron" unicode="&#x101;" horiz-adv-x="508" 
d="M415 624h-320v76h320v-76zM87 396l-14 91q100 21 172 21q40 0 75.5 -9t67.5 -28t51 -55t19 -85v-331h-104l-5 45q-89 -52 -162 -52q-68 0 -112 39.5t-45 106.5v17q1 41 18 70.5t47 44t61.5 21t69.5 6.5q52 0 107 -11v40q0 31 -19 52t-41.5 27.5t-46.5 6.5q-57 0 -139 -17
zM333 109v121q-36 7 -84 7q-101 0 -101 -71v-27q0 -30 20 -49.5t52 -19.5q49 0 113 39z" />
    <glyph glyph-name="Abreve" unicode="&#x102;" horiz-adv-x="686" 
d="M412 919h83q-4 -56 -34.5 -95t-81.5 -39h-64q-33 0 -59 18.5t-39.5 49t-14.5 66.5h82q2 -27 14.5 -41.5t32.5 -14.5h35q19 0 31 14.5t15 41.5zM646 0h-141l-50 166h-224l-50 -166h-141l219 700h168zM250 273h186l-93 316z" />
    <glyph glyph-name="abreve" unicode="&#x103;" horiz-adv-x="508" 
d="M323 719h83q-4 -56 -34.5 -95t-81.5 -39h-64q-34 0 -59.5 18.5t-39 49t-14.5 66.5h82q1 -27 14 -41.5t33 -14.5h35q19 0 31 14.5t15 41.5zM87 396l-14 91q100 21 172 21q40 0 75.5 -9t67.5 -28t51 -55t19 -85v-331h-104l-5 45q-89 -52 -162 -52q-45 0 -80 17.5t-55.5 51
t-21.5 77.5v17q1 41 18 70.5t47 44t61.5 21t69.5 6.5q52 0 107 -11v40q0 31 -19 52t-41.5 27.5t-46.5 6.5q-57 0 -139 -17zM333 109v121q-36 7 -84 7q-101 0 -101 -71v-27q0 -30 20 -49.5t52 -19.5q49 0 113 39z" />
    <glyph glyph-name="Aogonek" unicode="&#x104;" horiz-adv-x="686" 
d="M646 0h-146q-14 0 -23.5 -10t-9.5 -25v-9q0 -15 10 -25.5t23 -10.5h102v-64h-120q-24 0 -45 10t-34 31t-13 49v25q0 41 27 65t65 24h12l-42 125h-218l-53 -185h-141l219 700h168zM251 281h184l-92 308z" />
    <glyph glyph-name="aogonek" unicode="&#x105;" horiz-adv-x="508" 
d="M87 396l-14 91q100 21 172 21q40 0 75.5 -9t67.5 -28t51 -55t19 -85v-344h-33q-13 0 -22.5 -10t-9.5 -25v-9q0 -15 9.5 -25t22.5 -10h102v-65h-120q-38 0 -65 24.5t-27 65.5v25q0 20 11 34.5t26 17.5l1 3l-4 32q-89 -52 -162 -52q-68 0 -112 39.5t-45 106.5v17
q1 41 18 70.5t47 44t61.5 21t69.5 6.5q52 0 107 -11v40q0 31 -19 52t-41.5 27.5t-46.5 6.5q-57 0 -139 -17zM333 109v121q-36 7 -84 7q-101 0 -101 -71v-27q0 -30 20 -49.5t52 -19.5q49 0 113 39z" />
    <glyph glyph-name="Cacute" unicode="&#x106;" horiz-adv-x="528" 
d="M298 770h-95l81 147h120zM309 708h27q66 0 149 -20l-7 -99q-78 12 -142 12h-20q-26 0 -49 -9t-40 -25.5t-27 -41.5t-10 -54v-241q0 -59 36 -95t90 -36h20q64 1 142 13l7 -99q-83 -21 -149 -21h-27q-108 0 -181 65.5t-73 175.5v234q0 111 73 176t181 65z" />
    <glyph glyph-name="cacute" unicode="&#x107;" horiz-adv-x="418" 
d="M236 570h-95l81 147h120zM40 166v167q0 32 9.5 59.5t25.5 46t36 32.5t44 22t47.5 12t46.5 4q63 0 133 -16l-7 -94q-59 13 -103 13q-43 0 -76.5 -22t-33.5 -68v-145q0 -47 34 -68.5t76 -21.5q44 0 103 13l8 -95q-71 -15 -133 -15q-29 0 -56.5 5t-56 18t-49.5 32.5
t-34.5 50.5t-13.5 70z" />
    <glyph glyph-name="Cdotaccent" unicode="&#x10a;" horiz-adv-x="528" 
d="M347 798h-90v92h90v-92zM309 708h27q66 0 149 -20l-7 -99q-78 12 -142 12h-20q-54 0 -90 -35.5t-36 -94.5v-241q0 -59 36 -95t90 -36h20q64 1 142 13l7 -99q-83 -21 -149 -21h-27q-108 0 -181 65.5t-73 175.5v234q0 111 73 176t181 65z" />
    <glyph glyph-name="cdotaccent" unicode="&#x10b;" horiz-adv-x="418" 
d="M285 598h-90v92h90v-92zM40 166v167q0 28 7 52t19 41.5t28.5 32t35 23.5t39.5 15.5t40.5 9t39.5 2.5q63 0 133 -16l-7 -94q-59 13 -103 13q-43 0 -76.5 -22t-33.5 -68v-145q0 -47 34 -68.5t76 -21.5q44 0 103 13l8 -95q-71 -15 -133 -15q-24 0 -47 3.5t-47 11.5t-44.5 22
t-36.5 33t-25.5 46t-9.5 60z" />
    <glyph glyph-name="Ccaron" unicode="&#x10c;" horiz-adv-x="528" 
d="M344 762h-80l-143 155h111l71 -81l72 81h111zM309 708h27q66 0 149 -20l-7 -99q-78 12 -142 12h-20q-54 0 -90 -35.5t-36 -94.5v-241q0 -59 36 -95t90 -36h20q64 1 142 13l7 -99q-83 -21 -149 -21h-27q-108 0 -181 65.5t-73 175.5v234q0 111 73 176t181 65z" />
    <glyph glyph-name="ccaron" unicode="&#x10d;" horiz-adv-x="418" 
d="M282 562h-80l-143 155h111l71 -81l72 81h111zM40 166v167q0 28 7 52t19 41.5t28.5 32t35 23.5t39.5 15.5t40.5 9t39.5 2.5q63 0 133 -16l-7 -94q-59 13 -103 13q-43 0 -76.5 -22t-33.5 -68v-145q0 -47 34 -68.5t76 -21.5q44 0 103 13l8 -95q-71 -15 -133 -15
q-24 0 -47 3.5t-47 11.5t-44.5 22t-36.5 33t-25.5 46t-9.5 60z" />
    <glyph glyph-name="Dcaron" unicode="&#x10e;" horiz-adv-x="654" 
d="M360 762h-79l-143 154h111l71 -80l72 80h111zM80 700h265q107 0 180.5 -66.5t73.5 -174.5v-218q0 -110 -73 -175.5t-181 -65.5h-265v700zM215 593v-486h123q35 0 63.5 15.5t45.5 45.5t17 70v224q0 58 -36.5 94.5t-89.5 36.5h-123z" />
    <glyph glyph-name="dcaron" unicode="&#x10f;" horiz-adv-x="648" 
d="M469 0h-103l-5 38q-71 -45 -140 -45q-80 -3 -130.5 45t-50.5 121v180q0 46 16.5 80.5t43 53t56 27t60.5 8.5q68 0 128 -22v214h125v-700zM628 645l-43 -82h-60l25 50h-25v87h103v-55zM344 119v287q-32 6 -80 6q-23 0 -45.5 -6.5t-41.5 -26.5t-19 -51v-155q0 -34 25 -58.5
t62 -24.5q45 0 99 29z" />
    <glyph glyph-name="Dcroat" unicode="&#x110;" horiz-adv-x="654" 
d="M80 700h265q107 0 180.5 -66.5t73.5 -174.5v-218q0 -110 -73 -175.5t-181 -65.5h-265v294h-55v74h55v332zM215 593v-225h107v-74h-107v-187h123q35 0 63.5 15.5t45.5 45.5t17 70v224q0 58 -36.5 94.5t-89.5 36.5h-123z" />
    <glyph glyph-name="dcroat" unicode="&#x111;" horiz-adv-x="534" 
d="M552 568h-83v-568h-103l-5 38q-71 -45 -140 -45q-80 -3 -130.5 45t-50.5 121v180q0 46 16.5 80.5t43 53t56 27t60.5 8.5q68 0 128 -22v82h-112v76h112v56h125v-56h83v-76zM344 119v287q-32 6 -80 6q-23 0 -45.5 -6.5t-41.5 -26.5t-19 -51v-155q0 -34 25 -58.5t62 -24.5
q45 0 99 29z" />
    <glyph glyph-name="Emacron" unicode="&#x112;" horiz-adv-x="545" 
d="M444 824h-320v76h320v-76zM501 593h-295v-185h257v-107h-257v-194h295v-107h-431v700h431v-107z" />
    <glyph glyph-name="emacron" unicode="&#x113;" horiz-adv-x="509" 
d="M413 624h-320v76h320v-76zM40 169v163q0 47 20.5 82.5t53.5 55t68.5 29t72.5 9.5q39 0 75 -9.5t68.5 -29t52.5 -55t20 -82.5v-114h-314v-57q0 -29 17.5 -48t38.5 -25.5t43 -6.5q54 0 188 17l13 -83q-110 -22 -195 -22q-32 0 -62 5t-60 18t-51.5 32.5t-35 50.5t-13.5 70z
M354 283v57q0 22 -10 38.5t-25.5 25.5t-31.5 12.5t-32 3.5q-22 0 -43 -6.5t-38 -26t-17 -47.5v-57h197z" />
    <glyph glyph-name="Edotaccent" unicode="&#x116;" horiz-adv-x="545" 
d="M328 798h-90v92h90v-92zM501 593h-295v-185h257v-107h-257v-194h295v-107h-431v700h431v-107z" />
    <glyph glyph-name="edotaccent" unicode="&#x117;" horiz-adv-x="509" 
d="M297 598h-90v92h90v-92zM40 169v163q0 47 20.5 82.5t53.5 55t68.5 29t72.5 9.5q39 0 75 -9.5t68.5 -29t52.5 -55t20 -82.5v-114h-314v-57q0 -29 17.5 -48t38.5 -25.5t43 -6.5q54 0 188 17l13 -83q-110 -22 -195 -22q-32 0 -62 5t-60 18t-51.5 32.5t-35 50.5t-13.5 70z
M354 283v57q0 22 -10 38.5t-25.5 25.5t-31.5 12.5t-32 3.5q-22 0 -43 -6.5t-38 -26t-17 -47.5v-57h197z" />
    <glyph glyph-name="Eogonek" unicode="&#x118;" horiz-adv-x="545" 
d="M501 593h-295v-185h257v-107h-257v-194h295v-107h-120q-9 0 -16.5 -5t-12 -13t-4.5 -18v-9q0 -10 4.5 -18t12 -12.5t16.5 -4.5h101v-65h-119q-38 0 -65 24.5t-27 65.5v12q0 23 11 43h-212v700h431v-107z" />
    <glyph glyph-name="eogonek" unicode="&#x119;" horiz-adv-x="509" 
d="M40 169v163q0 47 20.5 82.5t53.5 55t68.5 29t72.5 9.5q31 0 60 -5.5t57.5 -18.5t50 -33t35 -50.5t13.5 -68.5v-114h-314v-57q0 -29 17.5 -48t38.5 -25.5t43 -6.5q56 0 188 17l13 -83q-36 -8 -88 -14q-13 -2 -21.5 -12t-8.5 -23v-9q0 -10 4.5 -18t12 -13t16.5 -5h101v-64
h-119q-38 0 -65 24t-27 66v9q0 19 9 38l-16 -1q-32 1 -61 6.5t-57.5 18.5t-49.5 32.5t-34 50t-13 68.5zM354 283v57q0 22 -10 38.5t-25.5 25.5t-31.5 12.5t-32 3.5q-22 0 -43 -6.5t-38 -26t-17 -47.5v-57h197z" />
    <glyph glyph-name="Ecaron" unicode="&#x11a;" horiz-adv-x="545" 
d="M324 762h-79l-143 155h111l71 -81l72 81h111zM501 593h-295v-185h257v-107h-257v-194h295v-107h-431v700h431v-107z" />
    <glyph glyph-name="ecaron" unicode="&#x11b;" horiz-adv-x="509" 
d="M293 562h-79l-143 155h111l71 -81l72 81h111zM40 169v163q0 47 20.5 82.5t53.5 55t68.5 29t72.5 9.5q39 0 75 -9.5t68.5 -29t52.5 -55t20 -82.5v-114h-314v-57q0 -29 17.5 -48t38.5 -25.5t43 -6.5q54 0 188 17l13 -83q-110 -22 -195 -22q-32 0 -62 5t-60 18t-51.5 32.5
t-35 50.5t-13.5 70zM354 283v57q0 29 -17.5 48.5t-38 25.5t-43.5 6q-36 0 -67 -19.5t-31 -60.5v-57h197z" />
    <glyph glyph-name="Gbreve" unicode="&#x11e;" horiz-adv-x="631" 
d="M396 919h83q-4 -56 -34.5 -95t-81.5 -39h-64q-33 0 -59 18.5t-39.5 49t-14.5 66.5h82q1 -27 14 -41.5t33 -14.5h35q19 0 31 14.5t15 41.5zM309 708h27q124 -1 211 -35l-17 -103q-49 18 -95.5 24.5t-118.5 6.5q-38 0 -67 -16t-44 -45.5t-15 -69.5v-241q0 -58 32.5 -94
t90.5 -36h19q68 0 111 21v178h-115v96h230v-347q-54 -30 -103 -42.5t-116 -12.5h-30q-119 1 -186.5 65t-67.5 176v233q0 115 69.5 178.5t184.5 63.5z" />
    <glyph glyph-name="gbreve" unicode="&#x11f;" horiz-adv-x="524" 
d="M327 719h82q-3 -56 -33.5 -95t-81.5 -39h-64q-50 0 -80.5 39t-32.5 95h82q0 -9 2 -17t5 -14t7 -11t9.5 -8t11 -4.5t12.5 -1.5h35q9 0 17 3.5t14 11t10 18t5 23.5zM40 168v173q0 72 50.5 119t130.5 48q69 2 140 -26l5 18h102v-508q0 -48 -18.5 -83.5t-49.5 -55t-65 -29
t-72 -9.5q-83 0 -200 25l14 86q102 -20 160 -20q15 0 31.5 4t34.5 12.5t29.5 27t11.5 43.5v47q-73 -41 -136 -41q-72 0 -120 44.5t-48 124.5zM344 117v284q-50 13 -99 9q-37 -2 -61.5 -25.5t-24.5 -57.5v-153q0 -24 11.5 -43t32 -29.5t46.5 -10.5q31 0 95 26z" />
    <glyph glyph-name="Gdotaccent" unicode="&#x120;" horiz-adv-x="631" 
d="M372 798h-90v92h90v-92zM309 708h27q124 -1 211 -35l-17 -103q-49 18 -95.5 24.5t-118.5 6.5q-58 0 -92 -35.5t-34 -95.5v-241q0 -58 32 -94t91 -36h19q68 0 111 21v178h-115v96h230v-347q-36 -20 -68.5 -31.5t-69 -17.5t-81.5 -6h-30q-119 1 -186.5 65t-67.5 176v233
q0 115 69.5 178.5t184.5 63.5z" />
    <glyph glyph-name="gdotaccent" unicode="&#x121;" horiz-adv-x="524" 
d="M303 598h-90v92h90v-92zM40 168v173q0 72 50.5 119t130.5 47q69 3 140 -25l5 17h102v-507q0 -32 -8.5 -59t-24 -46t-35 -33t-43 -22.5t-47 -12.5t-47.5 -4q-83 0 -200 25l14 86q102 -20 160 -20q15 0 31.5 4t34.5 12.5t29.5 27t11.5 43.5v47q-73 -41 -136 -41
q-35 0 -65 11t-53 32t-36.5 53.5t-13.5 72.5zM344 117v284q-50 13 -99 9q-37 -2 -61.5 -25.5t-24.5 -57.5v-153q0 -24 11.5 -43t32 -29.5t46.5 -10.5q31 0 95 26z" />
    <glyph glyph-name="Gcommaaccent" unicode="&#x122;" horiz-adv-x="631" 
d="M309 708h27q124 -1 211 -35l-17 -103q-49 18 -95.5 24.5t-118.5 6.5q-58 0 -92 -35.5t-34 -95.5v-241q0 -58 32 -94t91 -36h19q68 0 111 21v178h-115v96h230v-347q-36 -20 -68.5 -31.5t-69 -17.5t-81.5 -6h-30q-119 1 -186.5 65t-67.5 176v233q0 115 69.5 178.5
t184.5 63.5zM367 -134l-43 -83h-60l26 51h-26v86h103v-54z" />
    <glyph glyph-name="gcommaaccent" unicode="&#x123;" horiz-adv-x="524" 
d="M281 706h25v-86h-103v55l43 82h60zM40 168v173q0 72 50.5 119t130.5 48q69 2 140 -26l5 18h102v-508q0 -39 -12.5 -70t-32.5 -50.5t-47.5 -32.5t-55 -18.5t-57.5 -5.5q-83 0 -200 25l14 86q102 -20 160 -20q15 0 31.5 4t34.5 12.5t29.5 27t11.5 43.5v47q-73 -41 -136 -41
q-72 0 -120 44.5t-48 124.5zM344 117v284q-50 13 -99 9q-24 -1 -44 -12t-31.5 -29.5t-11.5 -41.5v-153q0 -24 12 -43t32.5 -29.5t46.5 -10.5q31 0 95 26z" />
    <glyph glyph-name="Hbar" unicode="&#x126;" horiz-adv-x="650" 
d="M593 598h45v-97h-45v-501h-135v298h-266v-298h-135v501h-44v97h44v102h135v-102h266v102h135v-102zM192 501v-97h266v97h-266z" />
    <glyph glyph-name="hbar" unicode="&#x127;" horiz-adv-x="560" 
d="M200 650h116v-85h-117v-81q67 26 128 26q74 0 125 -42.5t51 -127.5v-339h-119v328q0 43 -29.5 63t-71.5 20q-38 0 -83 -8v-404h-125v565h-72v85h72v50h125v-50z" />
    <glyph glyph-name="Itilde" unicode="&#x128;" horiz-adv-x="285" 
d="M261 907l51 -54q-52 -54 -99 -60q-35 -3 -70 20q-3 2 -11 7.5t-11.5 7.5t-9.5 5.5t-11.5 5t-11.5 1.5q-17 0 -65 -39l-50 55q69 64 116 64q16 0 31 -5t22.5 -9.5t21.5 -15.5q23 -17 44 -16q19 2 53 33zM210 0h-135v700h135v-700z" />
    <glyph glyph-name="itilde" unicode="&#x129;" horiz-adv-x="213" 
d="M226 707l52 -54q-52 -54 -99 -60q-35 -3 -70 20q-3 2 -11 7.5t-11.5 8t-10 5.5t-11.5 4.5t-11 1.5t-13.5 -3t-16 -8.5t-14 -10t-13.5 -11t-9 -6.5l-50 55q70 64 117 64q16 0 31 -5t22 -9.5t21 -15.5q24 -17 45 -16q18 2 52 33zM169 0h-124v500h124v-500z" />
    <glyph glyph-name="Imacron" unicode="&#x12a;" horiz-adv-x="285" 
d="M302 824h-320v76h320v-76zM210 0h-135v700h135v-700z" />
    <glyph glyph-name="imacron" unicode="&#x12b;" horiz-adv-x="213" 
d="M268 624h-320v76h320v-76zM169 0h-124v500h124v-500z" />
    <glyph glyph-name="Iogonek" unicode="&#x12e;" horiz-adv-x="275" 
d="M205 0h-129q-14 0 -23.5 -10t-9.5 -25v-9q0 -15 9.5 -25.5t23.5 -10.5h101v-64h-119q-39 0 -66 24t-27 66v25q0 41 27 65t66 24h12v640h135v-700z" />
    <glyph glyph-name="iogonek" unicode="&#x12f;" horiz-adv-x="213" 
d="M173 587h-134v95h134v-95zM169 0h-118q-14 0 -23.5 -10t-9.5 -25v-9q0 -10 4 -18t12 -12.5t17 -4.5h101v-65h-119q-39 0 -66 24.5t-27 65.5v25q0 42 27 65.5t66 23.5h12v440h124v-500z" />
    <glyph glyph-name="Idotaccent" unicode="&#x130;" horiz-adv-x="285" 
d="M187 798h-90v92h90v-92zM210 0h-135v700h135v-700z" />
    <glyph glyph-name="dotlessi" unicode="&#x131;" horiz-adv-x="213" 
d="M169 0h-124v500h124v-500z" />
    <glyph glyph-name="IJ" unicode="&#x132;" horiz-adv-x="736" 
d="M210 0h-135v700h135v-700zM661 700v-467q0 -110 -73 -175.5t-181 -65.5h-94v107h87q54 0 90 36t36 95v470h135z" />
    <glyph glyph-name="ij" unicode="&#x133;" horiz-adv-x="500" 
d="M195 574h-135v96h135v-96zM442 574h-134v96h134v-96zM190 0h-125v500h125v-500zM437 500v-558q0 -35 -19 -65t-52.5 -48t-72.5 -18h-48v97h22q18 0 31.5 12.5t13.5 34.5v545h125z" />
    <glyph glyph-name="Kcommaaccent" unicode="&#x136;" horiz-adv-x="655" 
d="M308 348l314 -348h-162l-257 280v-280h-132v700h132v-281l253 281h157zM373 -134l-43 -83h-60l25 51h-25v86h103v-54z" />
    <glyph glyph-name="kcommaaccent" unicode="&#x137;" horiz-adv-x="524" 
d="M185 296l178 204h132l-201 -236l204 -264h-131l-182 219v-219h-125v700h125v-404zM326 -134l-43 -83h-60l25 51h-25v86h103v-54z" />
    <glyph glyph-name="Lacute" unicode="&#x139;" horiz-adv-x="552" 
d="M276 774h-94l80 147h121zM215 106h300v-106h-435v700h135v-594z" />
    <glyph glyph-name="lacute" unicode="&#x13a;" horiz-adv-x="235" 
d="M115 779h-95l81 147h120zM183 0h-125v700h125v-700z" />
    <glyph glyph-name="Lcommaaccent" unicode="&#x13b;" horiz-adv-x="552" 
d="M215 106h300v-106h-435v700h135v-594zM362 -134l-44 -83h-60l26 51h-26v86h104v-54z" />
    <glyph glyph-name="lcommaaccent" unicode="&#x13c;" horiz-adv-x="238" 
d="M185 0h-125v700h125v-700zM174 -134l-43 -83h-60l25 51h-25v86h103v-54z" />
    <glyph glyph-name="Lcaron" unicode="&#x13d;" horiz-adv-x="552" 
d="M215 106h300v-106h-435v700h135v-594zM466 645l-43 -82h-60l25 50h-25v87h103v-55z" />
    <glyph glyph-name="lcaron" unicode="&#x13e;" horiz-adv-x="360" 
d="M183 0h-125v700h125v-700zM337 644l-43 -82h-60l25 51h-25v86h103v-55z" />
    <glyph glyph-name="Ldot" unicode="&#x13f;" horiz-adv-x="555" 
d="M215 106h300v-106h-435v700h135v-594zM455 285h-113v88h113v-88z" />
    <glyph glyph-name="ldot" unicode="&#x140;" horiz-adv-x="376" 
d="M183 0h-125v700h125v-700zM356 289h-113v89h113v-89z" />
    <glyph glyph-name="Lslash" unicode="&#x141;" horiz-adv-x="562" 
d="M222 435l126 84v-114l-126 -85v-214h300v-106h-434v242l-83 -54v115l83 55v342h134v-265z" />
    <glyph glyph-name="lslash" unicode="&#x142;" horiz-adv-x="353" 
d="M221 434l127 85v-114l-127 -86v-319h-125v247l-91 -59v115l91 60v337h125v-266z" />
    <glyph glyph-name="Nacute" unicode="&#x143;" 
d="M334 770h-94l80 147h121zM614 0h-131l-285 471v-471h-133v700h131l285 -474v474h133v-700z" />
    <glyph glyph-name="nacute" unicode="&#x144;" horiz-adv-x="534" 
d="M262 570h-94l80 147h121zM158 500l5 -39q76 48 147 48q77 0 125.5 -48.5t48.5 -120.5v-340h-119v329q0 23 -11 42t-31 30t-44 11q-41 0 -99 -28v-384h-125v500h103z" />
    <glyph glyph-name="Ncommaaccent" unicode="&#x145;" 
d="M614 0h-131l-285 471v-471h-133v700h131l285 -474v474h133v-700zM391 -134l-43 -83h-60l26 51h-26v86h103v-54z" />
    <glyph glyph-name="ncommaaccent" unicode="&#x146;" horiz-adv-x="534" 
d="M158 500l5 -39q76 48 147 48q77 0 125.5 -48.5t48.5 -120.5v-340h-119v329q0 35 -24.5 59t-61.5 24q-41 0 -99 -28v-384h-125v500h103zM320 -134l-43 -83h-61l26 51h-26v86h104v-54z" />
    <glyph glyph-name="Ncaron" unicode="&#x147;" 
d="M380 762h-80l-142 155h111l71 -81l71 81h112zM614 0h-131l-285 471v-471h-133v700h131l285 -474v474h133v-700z" />
    <glyph glyph-name="ncaron" unicode="&#x148;" horiz-adv-x="534" 
d="M308 562h-80l-142 155h111l71 -81l71 81h112zM158 500l5 -39q76 48 147 48q77 0 125.5 -48.5t48.5 -120.5v-340h-119v329q0 23 -11 42t-31 30t-44 11q-41 0 -99 -28v-384h-125v500h103z" />
    <glyph glyph-name="Eng" unicode="&#x14a;" 
d="M614 700v-681q0 -94 -59 -153.5t-151 -59.5h-91v97h65q41 0 71.5 24t37.5 65l-289 479v-471h-133v700h131l285 -474v474h133z" />
    <glyph glyph-name="eng" unicode="&#x14b;" horiz-adv-x="555" 
d="M167 500l5 -39q76 48 147 48q51 0 91 -22.5t61 -61t21 -85.5v-398q0 -35 -19 -65t-52 -48t-73 -18h-60v97h41q19 0 32 12.5t13 34.5v377q0 22 -11.5 40.5t-31 29t-43.5 10.5q-41 0 -99 -28v-384h-125v500h103z" />
    <glyph glyph-name="Omacron" unicode="&#x14c;" horiz-adv-x="655" 
d="M487 824h-319v76h319v-76zM310 708h33q105 0 181 -68.5t76 -173.5v-233q0 -105 -73.5 -173t-183.5 -68h-33q-76 0 -134 31.5t-89.5 86t-31.5 123.5v233q0 107 73 174.5t182 67.5zM338 601h-22q-53 0 -90 -37t-37 -94v-241q0 -59 37 -94.5t90 -35.5h22q52 0 89.5 35.5
t37.5 94.5v241q0 57 -38 94t-89 37z" />
    <glyph glyph-name="omacron" unicode="&#x14d;" horiz-adv-x="521" 
d="M419 624h-320v76h320v-76zM40 174v152q0 60 32.5 102.5t80.5 61t107 18.5q95 0 157.5 -46t62.5 -136v-152q0 -90 -63 -136.5t-157 -46.5q-93 0 -156.5 47.5t-63.5 135.5zM359 175v149q0 43 -27.5 64.5t-71.5 21.5t-71 -21.5t-27 -64.5v-149q0 -42 27 -64t71 -22
t71.5 21.5t27.5 64.5z" />
    <glyph glyph-name="Ohungarumlaut" unicode="&#x150;" horiz-adv-x="655" 
d="M240 768h-95l81 148h120zM416 768h-94l80 148h121zM310 708h33q105 0 181 -68.5t76 -173.5v-233q0 -105 -73.5 -173t-183.5 -68h-33q-76 0 -134 31.5t-89.5 86t-31.5 123.5v233q0 107 73 174.5t182 67.5zM338 601h-22q-26 0 -49 -10t-40 -27t-27.5 -41.5t-10.5 -52.5
v-241q0 -39 18 -69.5t46.5 -45.5t62.5 -15h22q52 0 89.5 35.5t37.5 94.5v241q0 57 -38 94t-89 37z" />
    <glyph glyph-name="ohungarumlaut" unicode="&#x151;" horiz-adv-x="521" 
d="M171 568h-95l81 148h121zM347 568h-94l81 148h120zM40 174v152q0 60 32.5 102.5t80.5 61t107 18.5q95 0 157.5 -46t62.5 -136v-152q0 -90 -63 -136.5t-157 -46.5q-93 0 -156.5 47.5t-63.5 135.5zM359 175v149q0 43 -27.5 64.5t-71.5 21.5t-71 -21.5t-27 -64.5v-149
q0 -28 13.5 -48t35 -29t49.5 -9q44 0 71.5 21.5t27.5 64.5z" />
    <glyph glyph-name="OE" unicode="&#x152;" horiz-adv-x="945" 
d="M292 708h33q30 0 59.5 -9.5t53 -26t41.5 -38.5v66h430v-107h-294v-185h257v-107h-258v-194h295v-107h-430v63q-26 -33 -67 -52t-87 -19h-33q-76 0 -134 31.5t-89.5 86t-31.5 123.5v233q0 107 73 174.5t182 67.5zM319 601h-21q-35 0 -63.5 -16.5t-46 -46.5t-17.5 -68v-241
q0 -59 37 -94.5t90 -35.5h21q50 0 87 32t41 88v260q-4 55 -41.5 88.5t-86.5 33.5z" />
    <glyph glyph-name="oe" unicode="&#x153;" horiz-adv-x="833" 
d="M40 174v152q0 60 32.5 102.5t81 61t106.5 18.5q111 0 162 -67q24 34 68 50.5t89 16.5q31 0 60 -5.5t58 -18.5t50.5 -33t34.5 -50.5t13 -68.5v-110h-313v-61q0 -29 17 -48t38 -25.5t43 -6.5q54 0 189 17l13 -83q-111 -22 -195 -22q-49 0 -95 15.5t-71 50.5
q-51 -68 -161 -68q-93 0 -156.5 47.5t-63.5 135.5zM678 279v61q0 29 -17.5 48.5t-38 25.5t-43.5 6q-36 0 -66.5 -19.5t-30.5 -60.5v-61h196zM359 175v149q0 43 -27.5 64.5t-71.5 21.5t-71 -21.5t-27 -64.5v-149q0 -28 13.5 -48t35 -29t49.5 -9q44 0 71.5 21.5t27.5 64.5z
" />
    <glyph glyph-name="Racute" unicode="&#x154;" horiz-adv-x="654" 
d="M309 770h-94l80 147h121zM75 700h311q88 0 140 -55t52 -143v-72q0 -59 -28 -103.5t-73 -61.5l121 -265h-155l-94 232h-140v-232h-134v700zM210 591v-252h156q33 0 55.5 22.5t22.5 56.5v94q0 33 -22.5 56t-55.5 23h-156z" />
    <glyph glyph-name="racute" unicode="&#x155;" horiz-adv-x="330" 
d="M164 570h-95l81 147h121zM303 403h-49q-23 0 -44.5 -10.5t-29.5 -23.5v-369h-125v500h103l5 -50q22 23 54.5 38.5t65.5 15.5h20v-101z" />
    <glyph glyph-name="Rcommaaccent" unicode="&#x156;" horiz-adv-x="654" 
d="M75 700h311q88 0 140 -55t52 -143v-72q0 -59 -28 -103.5t-73 -61.5l121 -265h-155l-94 232h-139v-232h-135v700zM210 591v-252h156q33 0 55.5 22.5t22.5 56.5v94q0 13 -4 25t-11 21.5t-16.5 17t-21.5 11.5t-25 4h-156zM371 -134l-43 -83h-60l25 51h-25v86h103v-54z" />
    <glyph glyph-name="rcommaaccent" unicode="&#x157;" horiz-adv-x="330" 
d="M303 403h-49q-23 0 -44.5 -10.5t-29.5 -23.5v-369h-125v500h103l5 -50q22 23 54.5 38.5t65.5 15.5h20v-101zM219 -134l-43 -83h-60l25 51h-25v86h103v-54z" />
    <glyph glyph-name="Rcaron" unicode="&#x158;" horiz-adv-x="654" 
d="M355 762h-80l-142 155h111l71 -81l71 81h112zM75 700h311q88 0 140 -55t52 -143v-72q0 -59 -28 -103.5t-73 -61.5l121 -265h-155l-94 232h-140v-232h-134v700zM210 591v-252h156q33 0 55.5 22.5t22.5 56.5v94q0 33 -22.5 56t-55.5 23h-156z" />
    <glyph glyph-name="rcaron" unicode="&#x159;" horiz-adv-x="330" 
d="M210 562h-80l-143 155h111l72 -81l71 81h112zM303 403h-49q-23 0 -44.5 -10.5t-29.5 -23.5v-369h-125v500h103l5 -50q22 23 54.5 38.5t65.5 15.5h20v-101z" />
    <glyph glyph-name="Sacute" unicode="&#x15a;" horiz-adv-x="549" 
d="M265 770h-94l81 147h120zM45 498v14q0 54 17 92.5t48 61t69.5 32.5t85.5 10h40.5t36 -1.5t33.5 -3.5t31 -5t30.5 -8t28.5 -12l-10 -110q-64 31 -177 31q-16 0 -30.5 -3t-30 -10t-25 -21.5t-9.5 -35.5v-12q0 -14 6 -27t15.5 -22t21.5 -15l153 -69q68 -28 96.5 -65
t28.5 -106v-16q-1 -104 -61 -154.5t-169 -50.5q-140 0 -223 31l10 110q56 -19 103.5 -26.5t118.5 -6.5q36 0 60.5 24t24.5 60v18q0 48 -48 72l-158 70q-64 26 -90 59t-27 95z" />
    <glyph glyph-name="sacute" unicode="&#x15b;" horiz-adv-x="436" 
d="M211 570h-94l81 147h120zM190 507h52q74 0 134 -22l-11 -81q-53 20 -110 21h-51q-22 0 -37 -14.5t-15 -36.5q0 -11 3.5 -20t10.5 -16t16 -10l125 -44q52 -19 75.5 -51t23.5 -85q0 -77 -47.5 -116t-132.5 -39h-47q-79 0 -143 25l11 79q70 -23 128 -22h46q18 0 33 9
t23.5 23.5t8.5 32.5q0 22 -11.5 40.5t-29.5 24.5l-130 45q-31 11 -49 25t-27 35.5t-9 52.5q0 71 41.5 107.5t118.5 36.5z" />
    <glyph glyph-name="Scedilla" unicode="&#x15e;" horiz-adv-x="549" 
d="M45 498v14q0 53 17 92t48 61.5t69.5 32.5t85.5 10q46 1 77 -1t63 -9t60 -20l-10 -110q-64 31 -177 31q-16 0 -30.5 -3t-30 -10t-25 -21.5t-9.5 -35.5v-12q0 -21 12 -38t31 -26l153 -69q68 -28 96.5 -65t28.5 -106v-16q-1 -99 -56 -150.5t-153 -54.5h-18v-24h11
q19 0 35.5 -10t26 -27.5t9.5 -37.5v-15q0 -35 -23 -58.5t-55 -23.5h-98v64h94q9 0 15 6t6 16v6q0 10 -6 16t-15 6h-55v83q-101 4 -171 30l10 110q56 -19 103.5 -26.5t118.5 -6.5q36 0 60.5 24t24.5 60v18q0 48 -48 72l-158 70q-64 26 -90 59t-27 95z" />
    <glyph glyph-name="scedilla" unicode="&#x15f;" horiz-adv-x="436" 
d="M190 507h52q74 0 134 -22l-11 -80q-53 19 -110 20h-51q-22 0 -37 -14.5t-15 -36.5q0 -11 3.5 -20t10.5 -16t16 -10l125 -44q52 -19 75.5 -51t23.5 -85q0 -73 -42.5 -112.5t-117.5 -42.5h-24v-25h12q29 0 50 -22t21 -53v-15q0 -35 -23 -58.5t-55 -23.5h-98v64h94q9 0 15 6
t6 16v6q0 10 -6 16t-15 6h-56v84h-24q-60 5 -107 24l11 79q70 -23 128 -22h46q28 0 46.5 19t18.5 46q0 22 -11.5 40.5t-29.5 24.5l-130 45q-46 17 -65.5 42t-19.5 71q0 71 41.5 107.5t118.5 36.5z" />
    <glyph glyph-name="Scaron" unicode="&#x160;" horiz-adv-x="549" 
d="M311 762h-79l-143 155h111l71 -81l72 81h111zM45 498v14q0 54 17 92.5t48 61t69.5 32.5t85.5 10q46 1 77 -1t63 -9t60 -20l-10 -110q-64 31 -177 31q-16 0 -30.5 -3t-30 -10t-25 -21.5t-9.5 -35.5v-12q0 -21 12 -38t31 -26l153 -69q68 -28 96.5 -65t28.5 -106v-16
q-1 -104 -61 -154.5t-169 -50.5q-140 0 -223 31l10 110q56 -19 103.5 -26.5t118.5 -6.5q36 0 60.5 24t24.5 60v18q0 48 -48 72l-158 70q-64 26 -90.5 59t-26.5 95z" />
    <glyph glyph-name="scaron" unicode="&#x161;" horiz-adv-x="436" 
d="M257 562h-79l-143 155h111l71 -81l72 81h111zM190 507h52q74 0 134 -22l-11 -80q-53 19 -110 20h-51q-22 0 -37 -14.5t-15 -36.5q0 -8 2 -15.5t6 -13.5t9.5 -10.5t12.5 -6.5l125 -44q52 -19 75.5 -51t23.5 -85q0 -77 -47.5 -116t-132.5 -39h-47q-79 0 -143 25l11 79
q70 -23 128 -22h46q28 0 46.5 19t18.5 46q0 22 -11.5 40.5t-30.5 24.5l-129 45q-46 17 -65.5 42t-19.5 71q0 71 41.5 107.5t118.5 36.5z" />
    <glyph glyph-name="Tcedilla" unicode="&#x162;" horiz-adv-x="612" 
d="M574 594h-199v-594l-54 -9v-23h12q19 0 35.5 -10t26 -27.5t9.5 -37.5v-15q0 -35 -23 -58.5t-55 -23.5h-98v64h94q9 0 15 6t6 16v6q0 10 -6 16t-15 6h-56v81l-25 9v594h-203v106h536v-106z" />
    <glyph glyph-name="tcedilla" unicode="&#x163;" horiz-adv-x="346" 
d="M202 500h111v-96h-111v-270q0 -22 13.5 -34t32.5 -12h65v-97h-92q-21 0 -40 6v-20h11q29 0 50.5 -22.5t21.5 -53.5v-15q0 -35 -23.5 -58t-55.5 -23h-98v64h94q4 0 8 1.5t7 4t5 7t2 9.5v6q0 6 -3.5 11.5t-8 8t-10.5 2.5h-55v105q-49 39 -49 97v283h-47v96h47v110h125v-110
z" />
    <glyph glyph-name="Tcaron" unicode="&#x164;" horiz-adv-x="612" 
d="M346 762h-79l-143 155h111l71 -81l72 81h111zM574 594h-199v-594h-134v594h-203v106h536v-106z" />
    <glyph glyph-name="tcaron" unicode="&#x165;" horiz-adv-x="351" 
d="M402 670l-43 -82h-60l25 50h-25v87h103v-55zM202 500h111v-96h-111v-270q0 -22 13.5 -34t32.5 -12h65v-97h-92q-60 0 -102 38.5t-42 91.5v283h-47v96h47v110h125v-110z" />
    <glyph glyph-name="Tbar" unicode="&#x166;" horiz-adv-x="597" 
d="M368 593v-192h101v-86h-101v-315h-135v315h-104v86h104v192h-203v106h537v-106h-199z" />
    <glyph glyph-name="tbar" unicode="&#x167;" horiz-adv-x="351" 
d="M207 404v-80h111v-61h-111v-129q0 -22 13.5 -34t31.5 -12h66v-97h-92q-60 0 -102 38.5t-42 91.5v142h-47v61h47v80h-47v96h47v110h125v-110h111v-96h-111z" />
    <glyph glyph-name="Utilde" unicode="&#x168;" 
d="M456 907l52 -54q-52 -54 -99 -60q-35 -3 -70 20q-3 2 -11 7.5t-11.5 7.5t-10 5.5t-11.5 5t-11 1.5q-18 0 -66 -39l-50 55q69 64 117 64q12 0 22.5 -2t20.5 -7.5t15.5 -9t15.5 -11.5q24 -17 45 -16q18 2 52 33zM607 700v-476q0 -45 -13.5 -83.5t-37 -65.5t-55.5 -46
t-69.5 -28t-77.5 -9h-32q-110 0 -181 61t-71 171v476h135v-476q0 -59 35.5 -92t88.5 -33h21q51 -1 87 33t36 92v476h134z" />
    <glyph glyph-name="utilde" unicode="&#x169;" horiz-adv-x="531" 
d="M382 707l52 -54q-52 -54 -99 -60q-35 -3 -70 20q-3 2 -11 7.5t-11.5 7.5t-10 5.5t-11.5 5t-11 1.5q-17 0 -66 -39l-49 55q68 64 116 64q16 0 31 -5t22 -9.5t21 -15.5q24 -17 45 -16q18 2 52 33zM478 0h-103l-5 39q-76 -48 -141 -48q-54 0 -95 22t-62.5 60.5t-21.5 86.5
v340h119v-329q0 -37 25.5 -60t64.5 -23q37 0 95 28v384h124v-500z" />
    <glyph glyph-name="Umacron" unicode="&#x16a;" 
d="M498 824h-320v76h320v-76zM607 700v-476q0 -45 -13.5 -83.5t-37 -65.5t-55.5 -46t-69.5 -28t-77.5 -9h-32q-110 0 -181 61t-71 171v476h135v-476q0 -59 35.5 -92t88.5 -33h21q51 -1 87 33t36 92v476h134z" />
    <glyph glyph-name="umacron" unicode="&#x16b;" horiz-adv-x="531" 
d="M424 624h-319v76h319v-76zM478 0h-103l-4 39q-77 -48 -142 -48q-54 0 -95 22t-62.5 60.5t-21.5 86.5v340h119v-329q0 -37 25.5 -60t64.5 -23q37 0 95 28v384h124v-500z" />
    <glyph glyph-name="Uring" unicode="&#x16e;" 
d="M337 950q28 0 52 -14t38 -37t14 -50q0 -29 -14 -53t-37.5 -37.5t-52.5 -13.5q-43 0 -72.5 30t-29.5 74q0 41 30 71t72 30zM337 896q-13 0 -23.5 -6.5t-17 -17t-6.5 -23.5t6.5 -24t17 -17t23.5 -6t24 6t17 17t6 24q0 19 -14 33t-33 14zM607 700v-476q0 -74 -36 -128
t-92 -79t-125 -25h-32q-110 0 -181 61t-71 171v476h135v-476q0 -59 35.5 -92t88.5 -33h21q51 -1 87 33t36 92v476h134z" />
    <glyph glyph-name="uring" unicode="&#x16f;" horiz-adv-x="531" 
d="M263 750q43 0 73.5 -30t30.5 -71q0 -44 -30 -74t-74 -30q-43 0 -72 30t-29 74q0 41 29.5 71t71.5 30zM263 696q-13 0 -23.5 -6.5t-16.5 -17t-6 -23.5q0 -10 3.5 -18.5t9.5 -15t15 -10.5t18 -4q20 0 33.5 14t13.5 34q0 19 -13.5 33t-33.5 14zM478 0h-103l-5 39
q-76 -48 -141 -48q-81 0 -130 48t-49 121v340h119v-329q0 -37 25.5 -60t64.5 -23q37 0 95 28v384h124v-500z" />
    <glyph glyph-name="Uhungarumlaut" unicode="&#x170;" 
d="M250 768h-94l80 148h121zM427 768h-95l81 148h120zM607 700v-476q0 -74 -36 -128t-92 -79t-125 -25h-32q-110 0 -181 61t-71 171v476h135v-476q0 -59 35.5 -92t88.5 -33h21q51 -1 87 33t36 92v476h134z" />
    <glyph glyph-name="uhungarumlaut" unicode="&#x171;" horiz-adv-x="531" 
d="M176 568h-94l81 148h120zM353 568h-95l81 148h120zM478 0h-103l-4 39q-77 -48 -142 -48q-81 0 -130 48t-49 121v340h119v-329q0 -37 25.5 -60t64.5 -23q37 0 95 28v384h124v-500z" />
    <glyph glyph-name="Uogonek" unicode="&#x172;" horiz-adv-x="678" 
d="M607 700v-476q0 -77 -37 -131.5t-100 -79.5q-18 -10 -18 -32v-23q0 -15 9.5 -25t23.5 -10h101v-65h-119q-38 0 -65 24.5t-27 65.5v12q0 15 4 34q-11 -2 -33 -2h-24q-110 0 -181 61t-71 171v476h135v-476q0 -59 35.5 -92t88.5 -33h22q51 0 86.5 33.5t35.5 91.5v476h134z
" />
    <glyph glyph-name="uogonek" unicode="&#x173;" horiz-adv-x="534" 
d="M481 -49h-85q-14 0 -23.5 -10t-9.5 -26v-9q0 -10 4.5 -18t12 -12.5t16.5 -4.5h101v-64h-119q-38 0 -65 24t-27 65v25q0 40 24 63.5t60 25.5h4l-1 29q-77 -48 -146 -48q-77 0 -125.5 48.5t-48.5 120.5v340h118v-329q0 -35 25 -59t61 -24q42 0 99 28v384h125v-549z" />
    <glyph glyph-name="Wcircumflex" unicode="&#x174;" horiz-adv-x="916" 
d="M640 762h-110l-72 81l-71 -81h-112l142 155h80zM731 0h-167l-105 495l-106 -495h-167l-151 700h141l100 -540l113 540h139l113 -540l101 540h140z" />
    <glyph glyph-name="wcircumflex" unicode="&#x175;" horiz-adv-x="718" 
d="M541 562h-111l-71 81l-72 -81h-111l143 155h80zM567 0h-126l-82 303l-82 -303h-127l-122 500h128l74 -374l85 374h87l86 -374l73 374h128z" />
    <glyph glyph-name="Ycircumflex" unicode="&#x176;" horiz-adv-x="647" 
d="M506 762h-111l-71 81l-71 -81h-112l142 155h80zM391 287v-287h-135v288l-223 412h144l146 -289l147 289h144z" />
    <glyph glyph-name="ycircumflex" unicode="&#x177;" horiz-adv-x="534" 
d="M449 562h-111l-72 81l-71 -81h-111l142 155h80zM476 500v-512q0 -48 -18.5 -83.5t-49.5 -55t-65 -29t-72 -9.5q-78 0 -200 25l14 86q102 -20 160 -20q15 0 31 4t34 12.5t29.5 27t11.5 43.5v51q-76 -44 -140 -45q-44 0 -80.5 19t-59.5 58.5t-23 92.5v335h118v-329
q0 -35 25 -59t61 -24q41 0 99 28v384h125z" />
    <glyph glyph-name="Ydieresis" unicode="&#x178;" horiz-adv-x="647" 
d="M287 798h-90v92h90v-92zM450 798h-90v92h90v-92zM391 287v-287h-135v288l-223 412h144l146 -289l147 289h144z" />
    <glyph glyph-name="Zacute" unicode="&#x179;" horiz-adv-x="602" 
d="M302 770h-94l80 147h121zM554 647l-335 -540h340v-107h-516v53l335 540h-325v107h501v-53z" />
    <glyph glyph-name="zacute" unicode="&#x17a;" horiz-adv-x="451" 
d="M220 570h-95l81 147h121zM411 434l-238 -342h243v-92h-386v67l238 341h-228v92h371v-66z" />
    <glyph glyph-name="Zdotaccent" unicode="&#x17b;" horiz-adv-x="602" 
d="M352 798h-90v92h90v-92zM554 647l-335 -540h340v-107h-516v53l335 540h-325v107h501v-53z" />
    <glyph glyph-name="zdotaccent" unicode="&#x17c;" horiz-adv-x="451" 
d="M269 598h-89v92h89v-92zM411 434l-238 -342h243v-92h-386v67l238 341h-228v92h371v-66z" />
    <glyph glyph-name="Zcaron" unicode="&#x17d;" horiz-adv-x="602" 
d="M348 762h-80l-142 155h111l71 -81l71 81h112zM554 647l-335 -540h340v-107h-516v53l335 540h-325v107h501v-53z" />
    <glyph glyph-name="zcaron" unicode="&#x17e;" horiz-adv-x="451" 
d="M266 562h-80l-143 155h111l72 -81l71 81h112zM411 434l-238 -342h243v-92h-386v67l238 341h-228v92h371v-66z" />
    <glyph glyph-name="florin" unicode="&#x192;" horiz-adv-x="351" 
d="M324 607h-66q-18 0 -31.5 -12.5t-13.5 -34.5v-156h111v-96h-111v-350q0 -68 -44.5 -106t-126.5 -38v97q19 0 32.5 12.5t13.5 34.5v350h-47v96h47v169q0 54 42 92.5t102 38.5h92v-97z" />
    <glyph glyph-name="Acaron" unicode="&#x1cd;" horiz-adv-x="686" 
d="M384 762h-80l-142 155h111l71 -81l71 81h112zM646 0h-140l-51 166h-224l-50 -166h-141l219 700h168zM250 273h186l-93 317z" />
    <glyph glyph-name="acaron" unicode="&#x1ce;" horiz-adv-x="508" 
d="M295 562h-79l-143 155h111l71 -81l72 81h111zM87 396l-14 91q100 21 172 21q40 0 75.5 -9t67.5 -28t51 -55t19 -85v-331h-104l-5 45q-89 -52 -162 -52q-68 0 -112 39.5t-45 106.5v17q1 41 18 70.5t47 44t61.5 21t69.5 6.5q52 0 107 -11v40q0 31 -19 52t-41.5 27.5
t-46.5 6.5q-57 0 -139 -17zM333 109v121q-36 7 -84 7q-101 0 -101 -71v-27q0 -30 20 -49.5t52 -19.5q49 0 113 39z" />
    <glyph glyph-name="Icaron" unicode="&#x1cf;" horiz-adv-x="285" 
d="M182 762h-79l-143 155h111l71 -81l72 81h111zM209 0h-134v700h134v-700z" />
    <glyph glyph-name="icaron" unicode="&#x1d0;" horiz-adv-x="213" 
d="M148 562h-80l-142 155h111l71 -81l71 81h112zM169 0h-124v500h124v-500z" />
    <glyph glyph-name="Ocaron" unicode="&#x1d1;" horiz-adv-x="655" 
d="M368 762h-80l-143 155h111l72 -81l71 81h111zM310 708h33q105 0 181 -68.5t76 -173.5v-233q0 -105 -73.5 -173t-183.5 -68h-33q-76 0 -134 31.5t-89.5 86t-31.5 123.5v233q0 107 73 174.5t182 67.5zM338 601h-22q-53 0 -90 -37t-37 -94v-241q0 -39 18 -69.5t46.5 -45.5
t62.5 -15h22q52 0 89.5 35.5t37.5 94.5v241q0 57 -38 94t-89 37z" />
    <glyph glyph-name="ocaron" unicode="&#x1d2;" horiz-adv-x="521" 
d="M299 562h-80l-142 155h111l71 -81l71 81h112zM40 174v152q0 60 32.5 102.5t80.5 61t107 18.5q95 0 157.5 -46t62.5 -136v-152q0 -90 -63 -136.5t-157 -46.5q-93 0 -156.5 47.5t-63.5 135.5zM359 175v149q0 43 -27.5 64.5t-71.5 21.5t-71 -21.5t-27 -64.5v-149
q0 -42 27 -64t71 -22t71.5 21.5t27.5 64.5z" />
    <glyph glyph-name="Ucaron" unicode="&#x1d3;" 
d="M378 762h-80l-142 155h111l71 -81l71 81h112zM607 700v-476q0 -74 -36 -128t-92 -79t-125 -25h-32q-110 0 -181 61t-71 171v476h135v-476q0 -59 35.5 -92t88.5 -33h21q51 -1 87 33t36 92v476h134z" />
    <glyph glyph-name="ucaron" unicode="&#x1d4;" horiz-adv-x="531" 
d="M305 562h-80l-143 155h111l71 -81l72 81h111zM478 0h-103l-4 39q-77 -48 -142 -48q-54 0 -95 22t-62.5 60.5t-21.5 86.5v340h119v-329q0 -37 25.5 -60t64.5 -23q37 0 95 28v384h124v-500z" />
    <glyph glyph-name="Udieresismacron" unicode="&#x1d5;" horiz-adv-x="678" 
d="M498 913h-320v77h320v-77zM301 776h-90v92h90v-92zM464 776h-90v92h90v-92zM607 700v-476q0 -74 -36 -128t-92 -79t-125 -25h-32q-110 0 -181 61t-71 171v476h135v-476q0 -59 35.5 -92t88.5 -33h21q51 -1 87 33t36 92v476h134z" />
    <glyph glyph-name="udieresismacron" unicode="&#x1d6;" horiz-adv-x="534" 
d="M426 739h-319v77h319v-77zM229 583h-90v91h90v-91zM393 583h-91v91h91v-91zM481 0h-103l-5 39q-77 -48 -146 -48q-77 0 -125.5 48.5t-48.5 120.5v340h118v-329q0 -35 25 -59t61 -24q42 0 99 28v384h125v-500z" />
    <glyph glyph-name="Udieresisacute" unicode="&#x1d7;" horiz-adv-x="678" 
d="M332 913h-94l80 148h121zM301 776h-90v92h90v-92zM464 776h-90v92h90v-92zM607 700v-476q0 -74 -36 -128t-92 -79t-125 -25h-32q-110 0 -181 61t-71 171v476h135v-476q0 -59 35.5 -92t88.5 -33h21q51 -1 87 33t36 92v476h134z" />
    <glyph glyph-name="udieresisacute" unicode="&#x1d8;" horiz-adv-x="534" 
d="M261 725h-95l81 147h120zM229 583h-90v91h90v-91zM393 583h-91v91h91v-91zM481 0h-103l-5 39q-77 -48 -146 -48q-77 0 -125.5 48.5t-48.5 120.5v340h118v-329q0 -23 11.5 -42t31 -30t43.5 -11q42 0 99 28v384h125v-500z" />
    <glyph glyph-name="Udieresiscaron" unicode="&#x1d9;" 
d="M378 913h-80l-142 155h111l71 -81l71 81h112zM301 776h-90v92h90v-92zM464 776h-90v92h90v-92zM607 700v-476q0 -74 -36 -128t-92 -79t-125 -25h-32q-110 0 -181 61t-71 171v476h135v-476q0 -59 35.5 -92t88.5 -33h21q51 -1 87 33t36 92v476h134z" />
    <glyph glyph-name="udieresiscaron" unicode="&#x1da;" horiz-adv-x="534" 
d="M307 725h-80l-143 154h111l72 -81l71 81h111zM229 583h-90v91h90v-91zM393 583h-91v91h91v-91zM481 0h-103l-5 39q-77 -48 -146 -48q-77 0 -125.5 48.5t-48.5 120.5v340h118v-329q0 -35 25 -59t61 -24q42 0 99 28v384h125v-500z" />
    <glyph glyph-name="Udieresisgrave" unicode="&#x1db;" horiz-adv-x="678" 
d="M429 913h-95l-107 148h121zM301 776h-90v92h90v-92zM464 776h-90v92h90v-92zM607 700v-476q0 -74 -36 -128t-92 -79t-125 -25h-32q-110 0 -181 61t-71 171v476h135v-476q0 -59 35.5 -92t88.5 -33h21q51 -1 87 33t36 92v476h134z" />
    <glyph glyph-name="udieresisgrave" unicode="&#x1dc;" horiz-adv-x="534" 
d="M357 725h-95l-106 147h120zM229 583h-90v91h90v-91zM393 583h-91v91h91v-91zM481 0h-103l-5 39q-77 -48 -146 -48q-77 0 -125.5 48.5t-48.5 120.5v340h118v-329q0 -23 11.5 -42t31 -30t43.5 -11q42 0 99 28v384h125v-500z" />
    <glyph glyph-name="Adieresismacron" unicode="&#x1de;" horiz-adv-x="686" 
d="M504 918h-320v76h320v-76zM307 776h-90v92h90v-92zM470 776h-90v92h90v-92zM646 0h-141l-50 166h-224l-50 -166h-141l219 700h168zM250 273h186l-93 316z" />
    <glyph glyph-name="adieresismacron" unicode="&#x1df;" horiz-adv-x="508" 
d="M410 733h-320v77h320v-77zM213 583h-90v91h90v-91zM376 583h-90v91h90v-91zM87 396l-14 91q100 21 172 21q40 0 75.5 -9t67.5 -28t51 -55t19 -85v-331h-104l-5 45q-89 -52 -162 -52q-45 0 -80 17.5t-55.5 51t-21.5 77.5v17q1 41 18 70.5t47 44t61.5 21t69.5 6.5
q52 0 107 -11v40q0 31 -19 52t-41.5 27.5t-46.5 6.5q-57 0 -139 -17zM333 109v121q-36 7 -84 7q-101 0 -101 -71v-27q0 -30 20 -49.5t52 -19.5q49 0 113 39z" />
    <glyph glyph-name="Gcaron" unicode="&#x1e6;" horiz-adv-x="631" 
d="M368 762h-79l-143 155h111l71 -81l72 81h111zM309 708h27q124 -1 211 -35l-17 -103q-25 9 -48 15t-49 9.5t-53.5 5t-63.5 1.5q-29 0 -52.5 -9t-40 -26t-25 -41.5t-8.5 -54.5v-241q0 -58 32.5 -94t90.5 -36h19q68 0 111 21v178h-115v96h230v-347q-54 -30 -103 -42.5
t-116 -12.5h-30q-119 1 -186.5 65t-67.5 176v233q0 115 69.5 178.5t184.5 63.5z" />
    <glyph glyph-name="gcaron" unicode="&#x1e7;" horiz-adv-x="524" 
d="M300 562h-80l-143 155h111l71 -81l72 81h111zM40 168v173q0 72 50.5 119t130.5 48q69 2 140 -26l5 18h102v-508q0 -32 -8.5 -59t-24 -46t-35 -33t-43 -22.5t-47 -12.5t-47.5 -4q-83 0 -200 25l14 86q102 -20 160 -20q15 0 31.5 4t34.5 12.5t29.5 27t11.5 43.5v47
q-73 -41 -136 -41q-72 0 -120 44.5t-48 124.5zM344 117v284q-50 13 -99 9q-24 -1 -44 -12t-31 -29.5t-11 -41.5v-153q0 -37 25 -60t65 -23q31 0 95 26z" />
    <glyph glyph-name="Oslashacute" unicode="&#x1fe;" horiz-adv-x="675" 
d="M311 770h-95l81 147h121zM562 750l-43 -98q28 -21 48 -49t31.5 -63t11.5 -74v-233q0 -105 -73.5 -173t-183.5 -68h-33q-47 0 -88 13l-25 -55h-94l42 94q-43 32 -66.5 81t-23.5 108v233q0 107 73 174.5t182 67.5h34q46 0 89 -15l25 57h94zM200 470v-241q0 -32 11 -58
l186 420q-23 10 -49 10h-22q-53 0 -89.5 -37t-36.5 -94zM476 229v241q0 31 -13 57l-186 -419q23 -9 49 -9h22q52 0 90 35.5t38 94.5z" />
    <glyph glyph-name="oslashacute" unicode="&#x1ff;" horiz-adv-x="531" 
d="M242 570h-95l81 147h120zM426 550l-31 -70q90 -48 90 -154v-152q0 -90 -63 -136.5t-157 -46.5q-44 0 -83 11l-23 -52h-54l31 71q-91 49 -91 153v152q0 60 32.5 102.5t80.5 61t107 18.5q45 0 83 -10l24 52h54zM167 324v-149q0 -30 15 -51l125 280q-19 6 -42 6
q-44 0 -71 -21.5t-27 -64.5zM364 175v149q0 31 -15 52l-125 -281q18 -6 41 -6q29 0 50.5 9t35 28.5t13.5 48.5z" />
    <glyph glyph-name="Scommaaccent" unicode="&#x218;" horiz-adv-x="549" 
d="M45 498v14q0 54 17 92.5t48 61t69.5 32.5t85.5 10h40.5t36 -1.5t33.5 -3.5t31 -5t30.5 -8t28.5 -12l-10 -110q-64 31 -177 31q-16 0 -30.5 -3t-30 -10t-25 -21.5t-9.5 -35.5v-12q0 -14 6 -27t15.5 -22t21.5 -15l153 -69q68 -28 96.5 -65t28.5 -106v-16
q-1 -104 -61 -154.5t-169 -50.5q-140 0 -223 31l10 110q56 -19 103.5 -26.5t118.5 -6.5q36 0 60.5 24t24.5 60v18q0 48 -48 72l-158 70q-64 26 -90 59t-27 95zM323 -134l-43 -83h-60l25 51h-25v86h103v-54z" />
    <glyph glyph-name="scommaaccent" unicode="&#x219;" horiz-adv-x="436" 
d="M190 507h52q74 0 134 -22l-11 -80q-53 19 -110 20h-51q-22 0 -37 -14.5t-15 -36.5q0 -7 1.5 -13t4 -11t6 -9.5t8 -7.5t10.5 -5l125 -44q52 -19 75.5 -51t23.5 -85q0 -52 -22 -87t-62 -51.5t-96 -16.5h-47q-79 0 -143 25l11 79q70 -23 128 -22h46q28 0 46.5 19t18.5 46
q0 22 -11.5 40.5t-29.5 24.5l-130 45q-46 17 -65.5 42t-19.5 71q0 71 41.5 107.5t118.5 36.5zM269 -134l-43 -83h-60l25 51h-25v86h103v-54z" />
    <glyph glyph-name="uni021A" unicode="&#x21a;" horiz-adv-x="612" 
d="M574 594h-199v-594h-134v594h-203v106h536v-106zM360 -134l-44 -83h-60l26 51h-26v86h104v-54z" />
    <glyph glyph-name="uni021B" unicode="&#x21b;" horiz-adv-x="346" 
d="M202 500h111v-96h-111v-270q0 -22 13.5 -34t32.5 -12h65v-97h-92q-60 0 -102 38.5t-42 91.5v283h-47v96h47v110h125v-110zM222 -134l-43 -83h-60l26 51h-26v86h103v-54z" />
    <glyph glyph-name="circumflex" unicode="&#x2c6;" horiz-adv-x="439" 
d="M402 562h-111l-71 81l-71 -81h-112l142 155h80z" />
    <glyph glyph-name="caron" unicode="&#x2c7;" horiz-adv-x="438" 
d="M259 562h-80l-142 155h111l71 -81l71 81h112z" />
    <glyph glyph-name="breve" unicode="&#x2d8;" horiz-adv-x="370" 
d="M249 719h82q-3 -56 -33.5 -95t-81.5 -39h-64q-34 0 -60 18.5t-39 49t-14 66.5h81q2 -27 14.5 -41.5t32.5 -14.5h35q19 0 31.5 14.5t15.5 41.5z" />
    <glyph glyph-name="dotaccent" unicode="&#x2d9;" horiz-adv-x="170" 
d="M130 598h-90v92h90v-92z" />
    <glyph glyph-name="ring" unicode="&#x2da;" horiz-adv-x="283" 
d="M140 750q29 0 53 -14t37.5 -37t13.5 -50q0 -44 -30 -74t-74 -30q-43 0 -72 30t-29 74q0 41 29.5 71t71.5 30zM140 696q-13 0 -23.5 -6.5t-16.5 -17t-6 -23.5q0 -20 13.5 -33.5t32.5 -13.5q13 0 24 6t17.5 17t6.5 24q0 19 -14 33t-34 14z" />
    <glyph glyph-name="ogonek" unicode="&#x2db;" horiz-adv-x="287" 
d="M182 -60h-33q-14 0 -23.5 -10t-9.5 -25v-9q0 -15 9.5 -25t23.5 -10h102v-65h-120q-38 0 -65 24.5t-27 65.5v25q0 42 27 65.5t65 23.5h51v-60z" />
    <glyph glyph-name="tilde" unicode="&#x2dc;" horiz-adv-x="413" 
d="M324 707l52 -54q-52 -54 -99 -60q-35 -3 -70 20q-3 2 -11 7.5t-11.5 7.5t-10 5.5t-11.5 5t-11 1.5q-17 0 -66 -39l-49 55q68 64 116 64q16 0 31 -5t22 -9.5t21 -15.5q24 -17 45 -16q18 2 52 33z" />
    <glyph glyph-name="hungarumlaut" unicode="&#x2dd;" horiz-adv-x="453" 
d="M133 568h-95l81 148h120zM309 568h-94l80 148h121z" />
    <glyph glyph-name="dotbelowcomb" unicode="&#x323;" horiz-adv-x="0" 
d="M143 -153h-113v88h113v-88z" />
    <glyph glyph-name="commaaccentcomb" unicode="&#x326;" horiz-adv-x="0" 
d="M133 -134l-43 -83h-60l25 51h-25v86h103v-54z" />
    <glyph glyph-name="circumflexbelowcomb" unicode="&#x32d;" horiz-adv-x="0" 
d="M395 -208h-111l-72 81l-71 -81h-111l143 155h79z" />
    <glyph glyph-name="macronbelowcomb" unicode="&#x331;" horiz-adv-x="0" 
d="M360 -153h-330v67h330v-67z" />
    <glyph glyph-name="Delta" unicode="&#x394;" horiz-adv-x="833" 
 />
    <glyph glyph-name="Omega" unicode="&#x3a9;" horiz-adv-x="833" 
 />
    <glyph glyph-name="mu" unicode="&#x3bc;" horiz-adv-x="833" 
 />
    <glyph glyph-name="pi" unicode="&#x3c0;" horiz-adv-x="118" 
 />
    <glyph glyph-name="uni0401" unicode="&#x401;" horiz-adv-x="545" 
d="M214 798v92h139v-92h-139zM206 593v-185h257v-107h-257v-194h295v-107h-431v700h431v-107h-295z" />
    <glyph glyph-name="uni0410" unicode="&#x410;" horiz-adv-x="686" 
d="M646 0h-140l-51 166h-224l-50 -166h-141l219 700h168zM250 273h186l-93 317z" />
    <glyph glyph-name="uni0411" unicode="&#x411;" horiz-adv-x="637" 
d="M539 598h-325v-163h177q88 0 140 -51.5t51 -141.5v-55q-1 -85 -53 -136t-138 -51h-311v700h459v-102zM214 326v-217h156q33 0 55.5 23t22.5 57v58q0 17 -6 32t-16 25t-24.5 16t-31.5 6h-156z" />
    <glyph glyph-name="uni0412" unicode="&#x412;" horiz-adv-x="639" 
d="M75 700h340q34 0 62.5 -12t48 -32.5t30.5 -49.5t11 -62v-35q0 -34 -10.5 -62t-30 -49t-46.5 -33q49 -15 76.5 -55t27.5 -99v-48q0 -71 -41.5 -117t-110.5 -46h-357v700zM210 599v-198h152q17 0 31 6t24.5 16t16.5 24.5t6 31.5v40q0 33 -22.5 56.5t-55.5 23.5h-152z
M210 316v-209h166q34 0 56 22t22 57v52q0 34 -22 56t-56 22h-166z" />
    <glyph glyph-name="uni0413" unicode="&#x413;" horiz-adv-x="577" 
d="M539 598h-325v-598h-134v700h459v-102z" />
    <glyph glyph-name="uni0414" unicode="&#x414;" horiz-adv-x="747" 
d="M649 108h63v-211h-134v103h-418v-103h-134v211h37q39 0 64 26t25 70v496h497v-592zM287 592v-415q-2 -23 -14.5 -41.5t-32.5 -27.5h276v484h-229z" />
    <glyph glyph-name="uni0415" unicode="&#x415;" horiz-adv-x="545" 
d="M501 593h-295v-185h257v-107h-257v-194h295v-107h-431v700h431v-107z" />
    <glyph glyph-name="uni0416" unicode="&#x416;" horiz-adv-x="1002" 
d="M645 348l329 -348h-182l-225 270v-270h-132v270l-225 -270h-182l330 348l-320 352h176l221 -271v271h132v-271l221 271h177z" />
    <glyph glyph-name="uni0417" unicode="&#x417;" horiz-adv-x="618" 
d="M226 699h147q30 0 57.5 -9t49 -24.5t37.5 -36.5t25 -47t9 -53v-44q0 -44 -23 -75t-48 -42q28 -9 55.5 -43.5t27.5 -83.5v-71q0 -72 -51.5 -121t-126.5 -49h-164q-50 0 -91 23t-64 63t-23 87h118q0 -32 22 -54.5t55 -22.5h131q33 0 54.5 21.5t21.5 55.5v70
q0 34 -21.5 55.5t-54.5 21.5h-169v88h162q33 0 55 21.5t22 55.5v39q0 33 -22.5 55.5t-54.5 22.5h-125q-32 0 -54.5 -22.5t-22.5 -55.5h-112q0 74 51 124.5t127 50.5z" />
    <glyph glyph-name="uni0418" unicode="&#x418;" horiz-adv-x="690" 
d="M619 0h-132v471l-285 -471h-132v700h133v-474l285 474h131v-700z" />
    <glyph glyph-name="uni0419" unicode="&#x419;" horiz-adv-x="690" 
d="M386 763h-80l-143 154h111l72 -81l71 81h111zM619 0h-132v471l-285 -471h-132v700h133v-474l285 474h131v-700z" />
    <glyph glyph-name="uni041A" unicode="&#x41a;" horiz-adv-x="655" 
d="M308 348l314 -348h-162l-257 280v-280h-132v700h132v-281l253 281h157z" />
    <glyph glyph-name="uni041B" unicode="&#x41b;" horiz-adv-x="702" 
d="M632 0h-134v592h-230v-419q-2 -77 -50.5 -126.5t-117.5 -49.5h-74v125h29q38 0 58 25.5t20 70.5v482h499v-700z" />
    <glyph glyph-name="uni041C" unicode="&#x41c;" horiz-adv-x="817" 
d="M751 0h-132l-15 456l-157 -294h-77l-156 294l-17 -456h-132l26 700h133l184 -367l183 367h133z" />
    <glyph glyph-name="uni041D" unicode="&#x41d;" horiz-adv-x="687" 
d="M611 0h-134v298h-267v-298h-135v700h135v-295h267v295h134v-700z" />
    <glyph glyph-name="uni041E" unicode="&#x41e;" horiz-adv-x="655" 
d="M310 708h33q105 0 181 -68.5t76 -173.5v-233q0 -105 -73.5 -173t-183.5 -68h-33q-76 0 -134 31.5t-89.5 86t-31.5 123.5v233q0 107 73 174.5t182 67.5zM338 601h-22q-53 0 -90 -37t-37 -94v-241q0 -59 37 -94.5t90 -35.5h22q52 0 89.5 35.5t37.5 94.5v241q0 57 -38 94
t-89 37z" />
    <glyph glyph-name="uni041F" unicode="&#x41f;" horiz-adv-x="678" 
d="M603 0h-134v592h-259v-592h-135v700h528v-700z" />
    <glyph glyph-name="uni0420" unicode="&#x420;" horiz-adv-x="633" 
d="M80 700h311q87 0 139.5 -55t52.5 -143v-73q0 -90 -52 -144t-140 -54h-177v-231h-134v700zM214 591v-251h156q34 0 56 22t22 57v93q0 21 -10 39.5t-28 29t-40 10.5h-156z" />
    <glyph glyph-name="uni0421" unicode="&#x421;" horiz-adv-x="528" 
d="M309 708h27q66 0 149 -20l-7 -99q-78 12 -142 12h-20q-54 0 -90 -35.5t-36 -94.5v-241q0 -59 36 -95t90 -36h20q64 1 142 13l7 -99q-83 -21 -149 -21h-27q-108 0 -181 65.5t-73 175.5v234q0 111 73 176t181 65z" />
    <glyph glyph-name="uni0422" unicode="&#x422;" horiz-adv-x="612" 
d="M574 594h-199v-594h-134v594h-203v106h536v-106z" />
    <glyph glyph-name="uni0423" unicode="&#x423;" horiz-adv-x="672" 
d="M403 315v-315h-134v316l-236 384h142l161 -284l162 284h141z" />
    <glyph glyph-name="uni0424" unicode="&#x424;" horiz-adv-x="887" 
d="M510 629h135q87 0 139.5 -55t52.5 -143v-95q0 -60 -23.5 -104.5t-67 -69t-101.5 -24.5h-135v-138h-134v138h-134q-58 0 -101.5 24.5t-67 69t-23.5 104.5v95q0 88 52.5 143t139.5 55h134v71h134v-71zM376 520h-114q-32 0 -55 -23t-23 -56v-115q0 -23 10.5 -41t28.5 -28
t39 -10h114v273zM510 520v-273h114q17 0 31.5 5.5t25 16t16.5 25.5t6 32v115q0 33 -23 56t-56 23h-114z" />
    <glyph glyph-name="uni0425" unicode="&#x425;" horiz-adv-x="629" 
d="M395 350l205 -350h-142l-144 259l-144 -259h-142l207 350l-206 350h141l144 -259l145 259h141z" />
    <glyph glyph-name="uni0426" unicode="&#x426;" horiz-adv-x="715" 
d="M603 108h77v-204h-133v97h-467v701h134v-594h255v594h134v-594z" />
    <glyph glyph-name="uni0427" unicode="&#x427;" horiz-adv-x="650" 
d="M569 0h-133v274q-11 -14 -30 -18t-50 -4h-94q-66 0 -115 28t-73 72.5t-24 100.5v247h134v-256q0 -37 20.5 -60t52.5 -23h104q37 0 55.5 14t18.5 54v271h134v-700z" />
    <glyph glyph-name="uni0428" unicode="&#x428;" horiz-adv-x="997" 
d="M921 0h-841v701h134v-593h219v593h135v-593h219v593h134v-701z" />
    <glyph glyph-name="uni0429" unicode="&#x429;" horiz-adv-x="1039" 
d="M922 108h82v-204h-133v96h-791v701h134v-593h220v593h134v-593h220v593h134v-593z" />
    <glyph glyph-name="uni042A" unicode="&#x42a;" 
d="M262 470h176q88 0 140 -54t52 -144v-74q0 -88 -52.5 -143t-139.5 -55h-310v594h-102v106h236v-230zM262 360v-251h155q22 0 40 10.5t28.5 29t10.5 39.5v94q0 22 -10.5 40.5t-28.5 28t-40 9.5h-155z" />
    <glyph glyph-name="uni042B" unicode="&#x42b;" horiz-adv-x="855" 
d="M214 470h177q88 0 140 -54t52 -144v-74q0 -88 -52.5 -143t-139.5 -55h-311v701h134v-231zM779 0h-134v700h134v-700zM214 360v-251h156q33 0 55.5 23t22.5 56v94q0 34 -22 56.5t-56 21.5h-156z" />
    <glyph glyph-name="uni042C" unicode="&#x42c;" horiz-adv-x="633" 
d="M214 470h177q88 0 140 -54t52 -144v-74q0 -88 -52.5 -143t-139.5 -55h-311v701h134v-231zM214 360v-251h156q33 0 55.5 23t22.5 56v94q0 34 -22 56.5t-56 21.5h-156z" />
    <glyph glyph-name="uni042D" unicode="&#x42d;" horiz-adv-x="528" 
d="M192 708h27q70 0 127.5 -28t92 -83.5t34.5 -129.5v-234q0 -73 -34.5 -129t-92 -84t-127.5 -28h-27q-66 0 -149 20l8 99q75 -12 141 -12h21q53 0 89.5 35.5t36.5 94.5v73h-241v96h241v72q0 59 -36.5 95t-89.5 36h-22q-65 -1 -140 -13l-8 99q81 20 149 21z" />
    <glyph glyph-name="uni042E" unicode="&#x42e;" horiz-adv-x="925" 
d="M580 708h33q105 0 181 -68t76 -173v-234q0 -105 -73.5 -173t-182.5 -68h-34q-73 0 -130.5 30t-89.5 82.5t-34 118.5v74h-112v-297h-134v700h134v-296h112v69q2 104 74.5 169.5t179.5 65.5zM607 601h-22q-51 0 -88.5 -37.5t-37.5 -93.5v-240q0 -59 37 -95t89 -36h22
q34 0 62.5 15t47 45.5t18.5 70.5v240q0 57 -38.5 94t-89.5 37z" />
    <glyph glyph-name="uni042F" unicode="&#x42f;" horiz-adv-x="654" 
d="M578 0h-134v232h-139l-94 -232h-156l122 265q-30 11 -53 34.5t-35.5 57.5t-12.5 73v72q0 88 52 143t140 55h310v-700zM444 591h-156q-33 0 -55.5 -23t-22.5 -56v-94q0 -23 10 -41t28 -28t40 -10h156v252z" />
    <glyph glyph-name="uni0430" unicode="&#x430;" horiz-adv-x="508" 
d="M87 396l-14 91q100 21 172 21q40 0 75.5 -9t67.5 -28t51 -55t19 -85v-331h-104l-5 45q-89 -52 -162 -52q-68 0 -112 39.5t-45 106.5v17q1 41 18 70.5t47 44t61.5 21t69.5 6.5q52 0 107 -11v40q0 31 -19 52t-41.5 27.5t-46.5 6.5q-57 0 -139 -17zM333 109v121q-36 7 -84 7
q-101 0 -101 -71v-27q0 -30 20 -49.5t52 -19.5q49 0 113 39z" />
    <glyph glyph-name="uni0431" unicode="&#x431;" horiz-adv-x="543" 
d="M229 707h81q70 0 159 -19v-107q-97 24 -159 24h-54q-34 0 -56 -23.5t-23 -59.5v-97q69 11 81 11h77q67 -1 113.5 -41t47.5 -106v-125q0 -79 -56 -125t-136 -46h-55q-81 0 -139 45.5t-60 121.5v381q0 71 51.5 118.5t127.5 47.5zM300 336h-54q-49 0 -73 -17v-154
q0 -34 22 -54.5t55 -20.5h50q20 0 36.5 9t27 26.5t10.5 39.5v96q0 33 -22 54t-52 21z" />
    <glyph glyph-name="uni0432" unicode="&#x432;" horiz-adv-x="528" 
d="M60 500h292q55 0 91 -37t36 -85v-34q0 -52 -41 -83q23 -14 36.5 -38.5t13.5 -51.5v-49q0 -52 -36.5 -87t-92.5 -35h-299v500zM186 416v-120h128q11 0 20.5 4t15.5 10.5t10 15.5t4 20v20q0 22 -14 36t-36 14h-128zM186 214v-128h136q22 0 36 13.5t14 35.5v29q0 22 -14 36
t-36 14h-136z" />
    <glyph glyph-name="uni0433" unicode="&#x433;" horiz-adv-x="441" 
d="M411 398h-225v-398h-126v500h351v-102z" />
    <glyph glyph-name="uni0434" unicode="&#x434;" horiz-adv-x="616" 
d="M521 102h68v-182h-128v80h-305v-80h-128v182h45q21 5 33.5 21.5t12.5 42.5v334h402v-398zM240 398v-247q-1 -35 -33 -49h193v296h-160z" />
    <glyph glyph-name="uni0435" unicode="&#x435;" horiz-adv-x="509" 
d="M40 169v163q0 47 20.5 82.5t53.5 55t69 29t72 9.5q31 0 60 -5.5t57.5 -18.5t50 -33t35 -50.5t13.5 -68.5v-110h-314v-61q0 -29 17.5 -48t38.5 -25.5t43 -6.5q54 0 188 17l13 -83q-110 -22 -195 -22q-41 0 -78 9t-70.5 28t-53.5 55t-20 84zM354 279v61q0 29 -17.5 48.5
t-38 25.5t-43.5 6q-36 0 -67 -19.5t-31 -60.5v-61h197z" />
    <glyph glyph-name="uni0436" unicode="&#x436;" horiz-adv-x="834" 
d="M556 264l253 -264h-150l-182 194v-194h-120v194l-182 -194h-150l253 264l-249 236h150l178 -171v171h120v-171l178 171h150z" />
    <glyph glyph-name="uni0437" unicode="&#x437;" horiz-adv-x="491" 
d="M164 500h151q36 0 66 -17.5t46 -45t16 -58.5v-34q0 -19 -7.5 -37.5t-18 -30t-19.5 -16.5q17 -5 35 -32.5t18 -57.5v-49q0 -51 -36.5 -86.5t-91.5 -35.5h-159q-53 1 -90 45.5t-38 98.5h105q0 -17 6 -29.5t17 -19.5t25 -7h109q21 0 34.5 13.5t13.5 36.5v33q0 22 -13.5 35.5
t-34.5 13.5h-108v73h100q22 0 34.5 13.5t12.5 36.5v20q0 22 -13 36t-34 14h-101q-21 0 -34.5 -16t-13.5 -38h-106q1 54 38.5 97.5t90.5 43.5z" />
    <glyph glyph-name="uni0438" unicode="&#x438;" horiz-adv-x="545" 
d="M487 0h-121v303l-204 -303h-104v500h122v-309l203 309h104v-500z" />
    <glyph glyph-name="uni0439" unicode="&#x439;" horiz-adv-x="545" 
d="M337 720h82q-3 -57 -33.5 -96t-81.5 -39h-64q-34 0 -60 19t-39.5 49t-14.5 67h82q2 -28 14.5 -42.5t33.5 -14.5h33q13 0 23 6.5t16.5 19t8.5 31.5zM487 0h-121v303l-204 -303h-104v500h122v-308l203 308h104v-500z" />
    <glyph glyph-name="uni043A" unicode="&#x43a;" horiz-adv-x="547" 
d="M260 264l262 -264h-149l-192 194v-194h-121v500h121v-171l188 171h150z" />
    <glyph glyph-name="uni043B" unicode="&#x43b;" horiz-adv-x="568" 
d="M510 0h-126v398h-159v-281q-2 -50 -43 -85.5t-98 -35.5h-56v98l9 1q27 0 44 18.5t17 48.5v338h412v-500z" />
    <glyph glyph-name="uni043C" unicode="&#x43c;" horiz-adv-x="697" 
d="M349 214l149 285h129l17 -499h-126l-12 344l-121 -233h-73l-120 233l-12 -344h-127l17 500h131z" />
    <glyph glyph-name="uni043D" unicode="&#x43d;" horiz-adv-x="556" 
d="M498 0h-126v205h-187v-205h-127v500h127v-194h187v194h126v-500z" />
    <glyph glyph-name="uni043E" unicode="&#x43e;" horiz-adv-x="521" 
d="M40 174v152q0 60 32.5 102.5t80.5 61t107 18.5q95 0 157.5 -46t62.5 -136v-152q0 -90 -63 -136.5t-157 -46.5q-93 0 -156.5 47.5t-63.5 135.5zM359 175v149q0 43 -27.5 64.5t-71.5 21.5t-71 -21.5t-27 -64.5v-149q0 -42 27 -64t71 -22t71.5 21.5t27.5 64.5z" />
    <glyph glyph-name="uni043F" unicode="&#x43f;" horiz-adv-x="568" 
d="M510 0h-126v398h-200v-398h-126v500h452v-500z" />
    <glyph glyph-name="uni0440" unicode="&#x440;" horiz-adv-x="529" 
d="M163 500l5 -38q70 46 147 46t125 -48t48 -119v-176q0 -45 -16 -79.5t-43 -53t-56 -27.5t-61 -9q-65 0 -127 23v-201h-125v682h103zM371 172v155q0 22 -11.5 41.5t-31.5 30.5t-44 11q-45 0 -99 -29v-286q31 -7 78 -7q17 0 34.5 4t34.5 13t28 26t11 41z" />
    <glyph glyph-name="uni0441" unicode="&#x441;" horiz-adv-x="418" 
d="M40 166v167q0 28 7 52t19 41.5t28.5 32t35 23.5t39.5 15.5t40.5 9t39.5 2.5q63 0 133 -16l-7 -94q-59 13 -103 13q-43 0 -76.5 -22t-33.5 -68v-145q0 -47 34 -68.5t76 -21.5q44 0 103 13l8 -95q-71 -15 -133 -15q-24 0 -47 3.5t-47 11.5t-44.5 22t-36.5 33t-25.5 46
t-9.5 60z" />
    <glyph glyph-name="uni0442" unicode="&#x442;" horiz-adv-x="486" 
d="M461 398h-154v-398h-127v398h-155v102h436v-102z" />
    <glyph glyph-name="uni0443" unicode="&#x443;" horiz-adv-x="534" 
d="M476 500v-512q0 -48 -18.5 -83.5t-49.5 -55t-65 -29t-72 -9.5q-78 0 -200 25l14 86q102 -20 160 -20q15 0 31 4t34 12.5t29.5 27t11.5 43.5v51q-76 -44 -140 -45q-69 0 -116 45.5t-47 124.5v335h118v-329q0 -35 25 -59t61 -24q41 0 99 28v384h125z" />
    <glyph glyph-name="uni0444" unicode="&#x444;" horiz-adv-x="812" 
d="M452 700v-222q31 12 70.5 19t68.5 6q80 0 130.5 -47t50.5 -119v-175q0 -79 -46.5 -123t-116.5 -47q-68 1 -141 42v-243h-124v243q-73 -41 -141 -42q-70 3 -116.5 47t-46.5 123v175q0 72 50.5 119t130.5 47q19 1 43 -1.5t50 -9t47 -14.5v222h91zM343 111v286q-50 13 -98 9
q-38 -2 -62.5 -25.5t-24.5 -57.5v-155q0 -14 4 -26t12 -22t18.5 -17.5t23.5 -12t27 -5.5q47 -1 100 26zM654 168v155q0 34 -24.5 57.5t-62.5 25.5q-48 4 -98 -9v-286q53 -27 100 -26q37 3 61 26t24 57z" />
    <glyph glyph-name="uni0445" unicode="&#x445;" horiz-adv-x="515" 
d="M341 250l148 -250h-132l-101 181l-101 -181h-130l148 250l-143 250h130l96 -182l96 182h132z" />
    <glyph glyph-name="uni0446" unicode="&#x446;" horiz-adv-x="610" 
d="M504 102h79v-197h-128v95h-397v500h126v-398h194v398h126v-398z" />
    <glyph glyph-name="uni0447" unicode="&#x447;" horiz-adv-x="515" 
d="M458 0h-127v198q-8 -13 -25.5 -17.5t-47.5 -4.5h-81q-48 0 -79.5 20.5t-44.5 52t-13 72.5v179h127v-178q0 -22 14.5 -37t37.5 -15h58q27 0 40.5 8t13.5 31v191h127v-500z" />
    <glyph glyph-name="uni0448" unicode="&#x448;" horiz-adv-x="773" 
d="M715 0h-657v500h126v-398h139v398h126v-398h140v398h126v-500z" />
    <glyph glyph-name="uni0449" unicode="&#x449;" horiz-adv-x="822" 
d="M715 102h79v-197h-128v95h-608v500h126v-398h139v398h127v-398h139v398h126v-398z" />
    <glyph glyph-name="uni044A" unicode="&#x44a;" horiz-adv-x="571" 
d="M241 306h154q57 0 96 -39t40 -95v-38q0 -54 -40 -94t-96 -40h-279v398h-88v102h213v-194zM241 229v-152h127q25 0 41.5 16.5t16.5 40.5v38q0 26 -16.5 41.5t-41.5 15.5h-127z" />
    <glyph glyph-name="uni044B" unicode="&#x44b;" horiz-adv-x="727" 
d="M185 307h154q57 0 96 -39t40 -95v-38q0 -55 -40.5 -95t-95.5 -40h-279v501h125v-194zM670 0h-125v500h125v-500zM185 229v-152h127q25 0 42 17t17 42v36q0 26 -16.5 42t-42.5 15h-127z" />
    <glyph glyph-name="uni044C" unicode="&#x44c;" horiz-adv-x="515" 
d="M185 307h154q57 0 96 -39t40 -95v-38q0 -55 -40.5 -95t-95.5 -40h-279v501h125v-194zM185 229v-152h127q25 0 42 17t17 42v36q0 26 -16.5 42t-42.5 15h-127z" />
    <glyph glyph-name="uni044D" unicode="&#x44d;" horiz-adv-x="418" 
d="M43 397l-8 95q69 15 134 15q21 0 42 -3t42 -9t39 -16t34 -24t27.5 -32t18 -41.5t6.5 -50.5v-166q0 -47 -19 -82.5t-50.5 -55t-66.5 -29t-72 -9.5q-58 0 -135 16l8 94q57 -13 105 -13q24 0 47.5 7t43 26.5t21.5 48.5v47h-164v67h163v46q-1 30 -21.5 50t-43.5 26t-46 6
q-48 0 -105 -13z" />
    <glyph glyph-name="uni044E" unicode="&#x44e;" horiz-adv-x="746" 
d="M267 300v42q6 82 67.5 123.5t151.5 41.5q93 0 156 -47t63 -135v-151q0 -88 -62.5 -135.5t-156.5 -47.5q-90 0 -151 41.5t-69 122.5v44h-83v-199h-125v500h125v-200h84zM583 175v148q0 29 -13 49t-34.5 29t-50 9t-50.5 -9t-35 -29t-13 -49v-148q0 -44 27 -65.5t71 -21.5
t71 21.5t27 65.5z" />
    <glyph glyph-name="uni044F" unicode="&#x44f;" horiz-adv-x="534" 
d="M476 0h-125v176h-89l-91 -176h-136l129 205q-44 9 -72 42.5t-28 78.5v41q0 55 40 94t95 39h277v-500zM351 423h-124q-17 0 -30.5 -7.5t-21 -20.5t-7.5 -29v-37q0 -26 16.5 -42t42.5 -16h124v152z" />
    <glyph glyph-name="uni0451" unicode="&#x451;" horiz-adv-x="509" 
d="M216 598h-90v92h90v-92zM379 598h-90v92h90v-92zM40 169v163q0 47 20.5 82.5t53.5 55t68.5 29t72.5 9.5q39 0 75 -9.5t68.5 -29t52.5 -55t20 -82.5v-110h-314v-61q0 -29 17.5 -48t38.5 -25.5t43 -6.5q54 0 188 17l13 -83q-110 -22 -195 -22q-32 0 -62 5t-60 18
t-51.5 32.5t-35 50.5t-13.5 70zM354 279v61q0 29 -17.5 48.5t-38 25.5t-43.5 6q-36 0 -67 -19.5t-31 -60.5v-61h197z" />
    <glyph glyph-name="Bdotbelow" unicode="&#x1e04;" horiz-adv-x="639" 
d="M75 700h340q34 0 62.5 -12t48 -32.5t30.5 -49.5t11 -62v-35q0 -34 -10.5 -62t-30 -49t-46.5 -33q49 -15 76.5 -55t27.5 -99v-48q0 -71 -41.5 -117t-110.5 -46h-357v700zM210 599v-198h152q17 0 31 6t24.5 16t16.5 24.5t6 31.5v40q0 33 -22.5 56.5t-55.5 23.5h-152z
M210 316v-209h166q34 0 56 22t22 57v52q0 34 -22 56t-56 22h-166zM371 -153h-113v88h113v-88z" />
    <glyph glyph-name="bdotbelow" unicode="&#x1e05;" horiz-adv-x="526" 
d="M182 700v-214q60 22 127 22q32 0 61.5 -8.5t56 -27t43 -53t16.5 -80.5v-180q0 -74 -51 -121.5t-133 -44.5q-66 0 -137 45l-5 -38h-102v700h124zM367 174v155q0 23 -10.5 40.5t-28 26t-34.5 12.5t-34 4q-47 0 -78 -6v-287q53 -29 97 -29q39 0 63.5 24.5t24.5 59.5z
M323 -153h-114v88h114v-88z" />
    <glyph glyph-name="Ddotbelow" unicode="&#x1e0c;" horiz-adv-x="654" 
d="M80 700h265q107 0 180.5 -66.5t73.5 -174.5v-218q0 -110 -73 -175.5t-181 -65.5h-265v700zM215 593v-486h123q35 0 63.5 15.5t45.5 45.5t17 70v224q0 58 -36.5 94.5t-89.5 36.5h-123zM369 -153h-114v88h114v-88z" />
    <glyph glyph-name="ddotbelow" unicode="&#x1e0d;" horiz-adv-x="526" 
d="M469 0h-103l-5 38q-70 -45 -137 -45q-82 -3 -133 44.5t-51 121.5v180q0 46 16.5 80.5t43 53t56 27t60.5 8.5q68 0 128 -22v214h125v-700zM344 119v287q-32 6 -80 6q-17 0 -34 -4t-33.5 -13t-27.5 -26t-11 -41v-155q0 -34 25 -58.5t64 -24.5q43 0 97 29zM327 -153h-113v88
h113v-88z" />
    <glyph glyph-name="Dlinebelow" unicode="&#x1e0e;" horiz-adv-x="654" 
d="M80 700h265q107 0 180.5 -66.5t73.5 -174.5v-218q0 -110 -73 -175.5t-181 -65.5h-265v700zM215 593v-486h123q35 0 63.5 15.5t45.5 45.5t17 70v224q0 58 -36.5 94.5t-89.5 36.5h-123zM487 -153h-330v67h330v-67z" />
    <glyph glyph-name="dlinebelow" unicode="&#x1e0f;" horiz-adv-x="526" 
d="M469 0h-103l-5 38q-70 -45 -137 -45q-82 -3 -133 44.5t-51 121.5v180q0 46 16.5 80.5t43 53t56 27t60.5 8.5q68 0 128 -22v214h125v-700zM344 119v287q-32 6 -80 6q-17 0 -34 -4t-33.5 -13t-27.5 -26t-11 -41v-155q0 -34 25 -58.5t64 -24.5q43 0 97 29zM435 -153h-329v67
h329v-67z" />
    <glyph glyph-name="Dcircumflexbelow" unicode="&#x1e12;" horiz-adv-x="654" 
d="M80 700h265q107 0 180.5 -66.5t73.5 -174.5v-218q0 -110 -73 -175.5t-181 -65.5h-265v700zM215 593v-486h123q35 0 63.5 15.5t45.5 45.5t17 70v224q0 58 -36.5 94.5t-89.5 36.5h-123zM510 -208h-112l-71 81l-72 -81h-111l143 155h80z" />
    <glyph glyph-name="dcircumflexbelow" unicode="&#x1e13;" horiz-adv-x="526" 
d="M469 0h-103l-5 38q-70 -45 -137 -45q-82 -3 -133 44.5t-51 121.5v180q0 46 16.5 80.5t43 53t56 27t60.5 8.5q68 0 128 -22v214h125v-700zM344 119v287q-32 6 -80 6q-17 0 -34 -4t-33.5 -13t-27.5 -26t-11 -41v-155q0 -34 25 -58.5t64 -24.5q43 0 97 29zM452 -208h-112
l-71 81l-71 -81h-111l142 155h80z" />
    <glyph glyph-name="Hdotbelow" unicode="&#x1e24;" horiz-adv-x="687" 
d="M611 0h-134v298h-267v-298h-135v700h135v-295h267v295h134v-700zM406 -153h-113v88h113v-88z" />
    <glyph glyph-name="hdotbelow" unicode="&#x1e25;" horiz-adv-x="536" 
d="M183 700v-214q59 22 127 22q31 0 60.5 -8.5t56.5 -27t43 -53t16 -80.5v-339h-118v328q0 22 -9.5 39t-25 26t-31.5 13.5t-33 4.5q-51 1 -86 -6v-405h-125v700h125zM331 -153h-114v88h114v-88z" />
    <glyph glyph-name="Idieresisacute" unicode="&#x1e2e;" horiz-adv-x="275" 
d="M132 924h-95l81 147h120zM100 776h-90v92h90v-92zM264 776h-91v92h91v-92zM205 0h-135v700h135v-700z" />
    <glyph glyph-name="idieresisacute" unicode="&#x1e2f;" horiz-adv-x="213" 
d="M102 725h-94l80 147h121zM71 583h-90v91h90v-91zM234 583h-90v91h90v-91zM169 0h-124v500h124v-500z" />
    <glyph glyph-name="Ldotbelow" unicode="&#x1e36;" horiz-adv-x="552" 
d="M215 106h300v-106h-435v700h135v-594zM353 -153h-113v88h113v-88z" />
    <glyph glyph-name="ldotbelow" unicode="&#x1e37;" horiz-adv-x="238" 
d="M185 0h-125v700h125v-700zM179 -153h-113v88h113v-88z" />
    <glyph glyph-name="Lcircumflexbelow" unicode="&#x1e3c;" horiz-adv-x="552" 
d="M215 106h300v-106h-435v700h135v-594zM495 -208h-111l-72 81l-71 -81h-111l143 155h79z" />
    <glyph glyph-name="lcircumflexbelow" unicode="&#x1e3d;" horiz-adv-x="238" 
d="M185 0h-125v700h125v-700zM304 -208h-112l-71 81l-71 -81h-111l142 155h80z" />
    <glyph glyph-name="Macute" unicode="&#x1e3e;" horiz-adv-x="817" 
d="M430 774h-94l81 147h120zM751 0h-132l-15 456l-157 -294h-77l-156 294l-17 -456h-132l26 700h133l184 -367l183 367h133z" />
    <glyph glyph-name="macute" unicode="&#x1e3f;" horiz-adv-x="821" 
d="M426 570h-95l81 147h121zM153 500l5 -39q74 48 140 48q79 0 130 -55q91 55 160 55q83 0 133 -48t50 -121v-340h-113v329q0 36 -26 59.5t-64 23.5t-105 -33q10 -22 10 -45v-334h-113v329q0 37 -25.5 60t-64.5 23q-38 0 -95 -28v-384h-120v500h98z" />
    <glyph glyph-name="Ndotaccent" unicode="&#x1e44;" 
d="M384 798h-90v92h90v-92zM614 0h-131l-285 471v-471h-133v700h131l285 -474v474h133v-700z" />
    <glyph glyph-name="ndotaccent" unicode="&#x1e45;" horiz-adv-x="534" 
d="M312 598h-90v92h90v-92zM158 500l5 -39q76 48 147 48q77 0 125.5 -48.5t48.5 -120.5v-340h-119v329q0 35 -24.5 59t-61.5 24q-41 0 -99 -28v-384h-125v500h103z" />
    <glyph glyph-name="Ndotbelow" unicode="&#x1e46;" 
d="M614 0h-131l-285 471v-471h-133v700h131l285 -474v474h133v-700zM396 -153h-113v88h113v-88z" />
    <glyph glyph-name="ndotbelow" unicode="&#x1e47;" horiz-adv-x="534" 
d="M158 500l5 -39q76 48 147 48q77 0 125.5 -48.5t48.5 -120.5v-340h-119v329q0 35 -24.5 59t-61.5 24q-41 0 -99 -28v-384h-125v500h103zM325 -153h-114v88h114v-88z" />
    <glyph glyph-name="Ncircumflexbelow" unicode="&#x1e4a;" 
d="M614 0h-131l-285 471v-471h-133v700h131l285 -474v474h133v-700zM521 -208h-111l-71 81l-72 -81h-111l143 155h80z" />
    <glyph glyph-name="ncircumflexbelow" unicode="&#x1e4b;" horiz-adv-x="534" 
d="M158 500l5 -39q76 48 147 48q77 0 125.5 -48.5t48.5 -120.5v-340h-119v329q0 35 -24.5 59t-61.5 24q-41 0 -99 -28v-384h-125v500h103zM450 -208h-112l-71 81l-72 -81h-110l142 155h80z" />
    <glyph glyph-name="Otildeacute" unicode="&#x1e4c;" horiz-adv-x="675" 
d="M332 914h-95l81 147h120zM456 866l51 -54q-52 -55 -99 -60q-35 -3 -70 19q-3 2 -11 8t-11.5 8t-9.5 5.5t-11.5 4.5t-11.5 1q-17 0 -65 -39l-50 55q69 65 116 65q16 0 31 -5.5t22.5 -10t21.5 -14.5q24 -18 44 -17q19 2 53 34zM320 708h34q104 0 180 -68.5t76 -173.5v-233
q0 -105 -73.5 -173t-182.5 -68h-34q-114 0 -184.5 68t-70.5 173v233q0 107 73 174.5t182 67.5zM348 601h-22q-53 0 -89.5 -37t-36.5 -94v-241q0 -59 37 -94.5t89 -35.5h22q52 0 90 35.5t38 94.5v241q0 57 -38.5 94t-89.5 37z" />
    <glyph glyph-name="otildeacute" unicode="&#x1e4d;" horiz-adv-x="531" 
d="M258 725h-95l81 147h121zM382 681l51 -54q-51 -54 -98 -60q-35 -3 -71 20l-9 6t-9 6.5t-8.5 5.5t-9.5 4.5t-9 3t-9 1.5q-18 0 -66 -40l-50 55q69 65 117 65q15 0 30 -5t22.5 -10t21.5 -15q24 -17 44 -16q19 1 53 33zM45 174v152q0 60 32.5 102.5t81 61t106.5 18.5
q95 0 157.5 -46t62.5 -136v-152q0 -90 -63 -136.5t-157 -46.5q-60 0 -109 19.5t-80 62t-31 101.5zM364 175v149q0 43 -27.5 64.5t-71.5 21.5t-71 -21.5t-27 -64.5v-149q0 -42 27 -64t71 -22t71.5 21.5t27.5 64.5z" />
    <glyph glyph-name="Omacrongrave" unicode="&#x1e50;" horiz-adv-x="675" 
d="M415 913h-95l-106 148h120zM497 783h-320v77h320v-77zM320 708h34q104 0 180 -68.5t76 -173.5v-233q0 -105 -73.5 -173t-182.5 -68h-34q-114 0 -184.5 68t-70.5 173v233q0 107 73 174.5t182 67.5zM348 601h-22q-53 0 -89.5 -37t-36.5 -94v-241q0 -59 37 -94.5t89 -35.5
h22q52 0 90 35.5t38 94.5v241q0 28 -11 53t-28.5 42t-41 26.5t-47.5 9.5z" />
    <glyph glyph-name="omacrongrave" unicode="&#x1e51;" horiz-adv-x="531" 
d="M365 725h-95l-107 147h121zM424 590h-320v76h320v-76zM45 174v152q0 60 32.5 102.5t81 61t106.5 18.5q95 0 157.5 -46t62.5 -136v-152q0 -90 -63 -136.5t-157 -46.5q-93 0 -156.5 47.5t-63.5 135.5zM364 175v149q0 43 -27.5 64.5t-71.5 21.5t-71 -21.5t-27 -64.5v-149
q0 -42 27 -64t71 -22t71.5 21.5t27.5 64.5z" />
    <glyph glyph-name="Omacronacute" unicode="&#x1e52;" horiz-adv-x="675" 
d="M333 913h-94l80 148h121zM497 783h-319v77h319v-77zM320 708h34q104 0 180 -68.5t76 -173.5v-233q0 -105 -73.5 -173t-182.5 -68h-34q-114 0 -184.5 68t-70.5 173v233q0 107 73 174.5t182 67.5zM348 601h-22q-53 0 -89.5 -37t-36.5 -94v-241q0 -59 37 -94.5t89 -35.5h22
q52 0 90 35.5t38 94.5v241q0 28 -11 53t-28.5 42t-41 26.5t-47.5 9.5z" />
    <glyph glyph-name="omacronacute" unicode="&#x1e53;" horiz-adv-x="531" 
d="M258 725h-95l81 147h121zM424 590h-320v76h320v-76zM45 174v152q0 60 32.5 102.5t81 61t106.5 18.5q95 0 157.5 -46t62.5 -136v-152q0 -90 -63 -136.5t-157 -46.5q-93 0 -156.5 47.5t-63.5 135.5zM364 175v149q0 43 -27.5 64.5t-71.5 21.5t-71 -21.5t-27 -64.5v-149
q0 -42 27 -64t71 -22t71.5 21.5t27.5 64.5z" />
    <glyph glyph-name="Sdotbelow" unicode="&#x1e62;" horiz-adv-x="549" 
d="M45 498v14q0 54 17 92.5t48 61t69.5 32.5t85.5 10h40.5t36 -1.5t33.5 -3.5t31 -5t30.5 -8t28.5 -12l-10 -110q-64 31 -177 31q-16 0 -30.5 -3t-30 -10t-25 -21.5t-9.5 -35.5v-12q0 -14 6 -27t15.5 -22t21.5 -15l153 -69q68 -28 96.5 -65t28.5 -106v-16
q-1 -104 -61 -154.5t-169 -50.5q-140 0 -223 31l10 110q56 -19 103.5 -26.5t118.5 -6.5q36 0 60.5 24t24.5 60v18q0 48 -48 72l-158 70q-64 26 -90 59t-27 95zM328 -153h-113v88h113v-88z" />
    <glyph glyph-name="sdotbelow" unicode="&#x1e63;" horiz-adv-x="436" 
d="M190 507h52q74 0 134 -22l-11 -80q-53 19 -110 20h-51q-22 0 -37 -14.5t-15 -36.5q0 -7 1.5 -13t4 -11t6 -9.5t8 -7.5t10.5 -5l125 -44q52 -19 75.5 -51t23.5 -85q0 -52 -22 -87t-62 -51.5t-96 -16.5h-47q-79 0 -143 25l11 79q70 -23 128 -22h46q28 0 46.5 19t18.5 46
q0 22 -11.5 40.5t-29.5 24.5l-130 45q-46 17 -65.5 42t-19.5 71q0 71 41.5 107.5t118.5 36.5zM274 -153h-113v88h113v-88z" />
    <glyph glyph-name="Tdotbelow" unicode="&#x1e6c;" horiz-adv-x="612" 
d="M574 594h-199v-594h-134v594h-203v106h536v-106zM365 -153h-114v88h114v-88z" />
    <glyph glyph-name="tdotbelow" unicode="&#x1e6d;" horiz-adv-x="346" 
d="M202 500h111v-96h-111v-270q0 -22 13.5 -34t32.5 -12h65v-97h-92q-60 0 -102 38.5t-42 91.5v283h-47v96h47v110h125v-110zM227 -153h-113v88h113v-88z" />
    <glyph glyph-name="Tlinebelow" unicode="&#x1e6e;" horiz-adv-x="612" 
d="M574 594h-199v-594h-134v594h-203v106h536v-106zM473 -153h-329v67h329v-67z" />
    <glyph glyph-name="tlinebelow" unicode="&#x1e6f;" horiz-adv-x="346" 
d="M202 500h111v-96h-111v-270q0 -22 13.5 -34t32.5 -12h65v-97h-92q-60 0 -102 38.5t-42 91.5v283h-47v96h47v110h125v-110zM335 -153h-329v67h329v-67z" />
    <glyph glyph-name="Tcircumflexbelow" unicode="&#x1e70;" horiz-adv-x="612" 
d="M574 594h-199v-594h-134v594h-203v106h536v-106zM490 -208h-112l-71 81l-72 -81h-111l143 155h80z" />
    <glyph glyph-name="tcircumflexbelow" unicode="&#x1e71;" horiz-adv-x="346" 
d="M202 500h111v-96h-111v-270q0 -22 13.5 -34t32.5 -12h65v-97h-92q-60 0 -102 38.5t-42 91.5v283h-47v96h47v110h125v-110zM352 -208h-111l-71 81l-72 -81h-111l143 155h80z" />
    <glyph glyph-name="Wgrave" unicode="&#x1e80;" horiz-adv-x="916" 
d="M549 769h-95l-107 148h121zM731 0h-167l-105 495l-106 -495h-167l-151 700h141l100 -540l113 540h139l113 -540l101 540h140z" />
    <glyph glyph-name="wgrave" unicode="&#x1e81;" horiz-adv-x="718" 
d="M449 569h-95l-106 148h120zM567 0h-126l-82 303l-82 -303h-127l-122 500h128l74 -374l85 374h87l86 -374l73 374h128z" />
    <glyph glyph-name="Wacute" unicode="&#x1e82;" horiz-adv-x="916" 
d="M452 770h-94l81 147h120zM731 0h-167l-105 495l-106 -495h-167l-151 700h141l100 -540l113 540h139l113 -540l101 540h140z" />
    <glyph glyph-name="wacute" unicode="&#x1e83;" horiz-adv-x="718" 
d="M353 570h-95l81 147h121zM567 0h-126l-82 303l-82 -303h-127l-122 500h128l74 -374l85 374h87l86 -374l73 374h128z" />
    <glyph glyph-name="Wdieresis" unicode="&#x1e84;" horiz-adv-x="916" 
d="M421 798h-90v92h90v-92zM584 798h-90v92h90v-92zM731 0h-167l-105 495l-106 -495h-167l-151 700h141l100 -540l113 540h139l113 -540l101 540h140z" />
    <glyph glyph-name="wdieresis" unicode="&#x1e85;" horiz-adv-x="718" 
d="M321 598h-89v92h89v-92zM485 598h-91v92h91v-92zM567 0h-126l-82 303l-82 -303h-127l-122 500h128l74 -374l85 374h87l86 -374l73 374h128z" />
    <glyph glyph-name="Zdotbelow" unicode="&#x1e92;" horiz-adv-x="602" 
d="M554 647l-335 -540h340v-107h-516v53l335 540h-325v107h501v-53zM366 -153h-113v88h113v-88z" />
    <glyph glyph-name="zdotbelow" unicode="&#x1e93;" horiz-adv-x="451" 
d="M411 434l-238 -342h243v-92h-386v67l238 341h-228v92h371v-66zM294 -153h-113v88h113v-88z" />
    <glyph glyph-name="adotbelow" unicode="&#x1ea1;" horiz-adv-x="508" 
d="M87 396l-14 91q100 21 172 21q40 0 75.5 -9t67.5 -28t51 -55t19 -85v-331h-104l-5 45q-89 -52 -162 -52q-68 0 -112 39.5t-45 106.5v17q1 41 18 70.5t47 44t61.5 21t69.5 6.5q52 0 107 -11v40q0 31 -19 52t-41.5 27.5t-46.5 6.5q-57 0 -139 -17zM333 109v121q-36 7 -84 7
q-101 0 -101 -71v-27q0 -30 20 -49.5t52 -19.5q49 0 113 39zM311 -157h-113v88h113v-88z" />
    <glyph glyph-name="Acircumflexdotbelow" unicode="&#x1eac;" horiz-adv-x="686" 
d="M527 762h-111l-71 81l-72 -81h-111l142 155h80zM646 0h-140l-51 166h-224l-50 -166h-141l219 700h168zM250 273h186l-93 317zM395 -153h-113v88h113v-88z" />
    <glyph glyph-name="acircumflexdotbelow" unicode="&#x1ead;" horiz-adv-x="508" 
d="M438 562h-111l-71 81l-72 -81h-111l142 155h80zM87 396l-14 91q100 21 172 21q40 0 75.5 -9t67.5 -28t51 -55t19 -85v-331h-104l-5 45q-89 -52 -162 -52q-45 0 -80 17.5t-55.5 51t-21.5 77.5v17q1 41 18 70.5t47 44t61.5 21t69.5 6.5q52 0 107 -11v40q0 31 -19 52
t-41.5 27.5t-46.5 6.5q-57 0 -139 -17zM333 109v121q-36 7 -84 7q-101 0 -101 -71v-27q0 -30 20 -49.5t52 -19.5q49 0 113 39zM311 -157h-113v88h113v-88z" />
    <glyph glyph-name="Edotbelow" unicode="&#x1eb8;" horiz-adv-x="545" 
d="M501 593h-295v-185h257v-107h-257v-194h295v-107h-431v700h431v-107zM341 -153h-114v88h114v-88z" />
    <glyph glyph-name="edotbelow" unicode="&#x1eb9;" horiz-adv-x="509" 
d="M40 169v163q0 47 20.5 82.5t53.5 55t69 29t72 9.5q31 0 60 -5.5t57.5 -18.5t50 -33t35 -50.5t13.5 -68.5v-114h-314v-57q0 -29 17.5 -48t38.5 -25.5t43 -6.5q54 0 188 17l13 -83q-110 -22 -195 -22q-41 0 -78 9t-70.5 28t-53.5 55t-20 84zM354 283v57q0 29 -17.5 48.5
t-38 25.5t-43.5 6q-36 0 -67 -19.5t-31 -60.5v-57h197zM310 -153h-113v88h113v-88z" />
    <glyph glyph-name="Etilde" unicode="&#x1ebc;" horiz-adv-x="545" 
d="M402 907l52 -54q-52 -54 -99 -60q-35 -3 -70 20q-3 2 -11 7.5t-11.5 7.5t-10 5.5t-11.5 5t-11 1.5q-18 0 -66 -39l-49 55q68 64 116 64q16 0 31 -5t22 -9.5t21 -15.5q24 -17 45 -16q18 2 52 33zM501 593h-295v-185h257v-107h-257v-194h295v-107h-431v700h431v-107z" />
    <glyph glyph-name="etilde" unicode="&#x1ebd;" horiz-adv-x="509" 
d="M371 707l52 -54q-52 -54 -99 -60q-35 -3 -70 20q-3 2 -11 7.5t-11.5 7.5t-10 5.5t-11.5 5t-11 1.5q-17 0 -66 -39l-49 55q69 64 116 64q7 0 14 -1t12 -2t11.5 -4t10 -4.5t9.5 -6t8.5 -6t8.5 -6.5q24 -17 45 -16q18 2 52 33zM40 169v163q0 47 20.5 82.5t53.5 55t69 29
t72 9.5q39 0 75 -9.5t68.5 -29t52.5 -55t20 -82.5v-114h-314v-57q0 -29 17.5 -48t38.5 -25.5t43 -6.5q54 0 188 17l13 -83q-110 -22 -195 -22q-41 0 -78 9t-70.5 28t-53.5 55t-20 84zM354 283v57q0 29 -17.5 48.5t-38 25.5t-43.5 6q-36 0 -67 -19.5t-31 -60.5v-57h197z" />
    <glyph glyph-name="Ecircumflexdotbelow" unicode="&#x1ec6;" horiz-adv-x="545" 
d="M467 762h-111l-71 81l-72 -81h-111l142 155h80zM501 593h-295v-185h257v-107h-257v-194h295v-107h-431v700h431v-107zM341 -153h-114v88h114v-88z" />
    <glyph glyph-name="ecircumflexdotbelow" unicode="&#x1ec7;" horiz-adv-x="509" 
d="M436 562h-111l-71 81l-72 -81h-111l142 155h80zM40 169v163q0 47 20.5 82.5t53.5 55t69 29t72 9.5q31 0 60 -5.5t57.5 -18.5t50 -33t35 -50.5t13.5 -68.5v-114h-314v-57q0 -29 17.5 -48t38.5 -25.5t43 -6.5q54 0 188 17l13 -83q-110 -22 -195 -22q-41 0 -78 9t-70.5 28
t-53.5 55t-20 84zM354 283v57q0 29 -17.5 48.5t-38 25.5t-43.5 6q-36 0 -67 -19.5t-31 -60.5v-57h197zM310 -153h-113v88h113v-88z" />
    <glyph glyph-name="Idotbelow" unicode="&#x1eca;" horiz-adv-x="285" 
d="M210 0h-135v700h135v-700zM203 -153h-114v88h114v-88z" />
    <glyph glyph-name="idotbelow" unicode="&#x1ecb;" horiz-adv-x="252" 
d="M193 574h-134v96h134v-96zM189 0h-125v500h125v-500zM183 -153h-113v88h113v-88z" />
    <glyph glyph-name="Odotbelow" unicode="&#x1ecc;" horiz-adv-x="655" 
d="M310 708h33q105 0 181 -68.5t76 -173.5v-233q0 -105 -73.5 -173t-183.5 -68h-33q-76 0 -134 31.5t-89.5 86t-31.5 123.5v233q0 107 73 174.5t182 67.5zM338 601h-22q-53 0 -90 -37t-37 -94v-241q0 -59 37 -94.5t90 -35.5h22q52 0 89.5 35.5t37.5 94.5v241q0 57 -38 94
t-89 37zM384 -158h-113v88h113v-88z" />
    <glyph glyph-name="odotbelow" unicode="&#x1ecd;" horiz-adv-x="521" 
d="M40 174v152q0 60 32.5 102.5t80.5 61t107 18.5q95 0 157.5 -46t62.5 -136v-152q0 -90 -63 -136.5t-157 -46.5q-93 0 -156.5 47.5t-63.5 135.5zM359 175v149q0 43 -27.5 64.5t-71.5 21.5t-71 -21.5t-27 -64.5v-149q0 -42 27 -64t71 -22t71.5 21.5t27.5 64.5zM316 -153
h-114v88h114v-88z" />
    <glyph glyph-name="Ocircumflexdotbelow" unicode="&#x1ed8;" horiz-adv-x="655" 
d="M510 762h-111l-71 81l-71 -81h-112l142 155h80zM310 708h33q105 0 181 -68.5t76 -173.5v-233q0 -105 -73.5 -173t-183.5 -68h-33q-114 0 -184.5 68t-70.5 173v233q0 107 73 174.5t182 67.5zM338 601h-22q-35 0 -63.5 -16.5t-46 -46.5t-17.5 -68v-241q0 -59 37 -94.5
t90 -35.5h22q52 0 89.5 35.5t37.5 94.5v241q0 28 -10.5 53t-28 42t-41 26.5t-47.5 9.5zM384 -158h-113v88h113v-88z" />
    <glyph glyph-name="ocircumflexdotbelow" unicode="&#x1ed9;" horiz-adv-x="521" 
d="M442 562h-111l-72 81l-71 -81h-111l142 155h80zM40 174v152q0 45 18.5 81t50 57.5t70 32.5t81.5 11q95 0 157.5 -46t62.5 -136v-152q0 -90 -63 -136.5t-157 -46.5q-93 0 -156.5 47.5t-63.5 135.5zM359 175v149q0 43 -27.5 64.5t-71.5 21.5q-29 0 -50.5 -8.5t-34.5 -28.5
t-13 -49v-149q0 -21 7.5 -38t21 -27.5t31 -15.5t38.5 -5q44 0 71.5 21.5t27.5 64.5zM316 -153h-114v88h114v-88z" />
    <glyph glyph-name="Udotbelow" unicode="&#x1ee4;" 
d="M607 700v-476q0 -74 -36 -128t-92 -79t-125 -25h-32q-110 0 -181 61t-71 171v476h135v-476q0 -59 35.5 -92t88.5 -33h21q51 -1 87 33t36 92v476h134zM395 -158h-113v88h113v-88z" />
    <glyph glyph-name="udotbelow" unicode="&#x1ee5;" horiz-adv-x="531" 
d="M478 0h-103l-4 39q-77 -48 -142 -48q-54 0 -95 22t-62.5 60.5t-21.5 86.5v340h119v-329q0 -37 25.5 -60t64.5 -23q37 0 95 28v384h124v-500zM333 -153h-114v88h114v-88z" />
    <glyph glyph-name="Ygrave" unicode="&#x1ef2;" horiz-adv-x="647" 
d="M414 769h-94l-107 148h121zM391 287v-287h-135v288l-223 412h144l146 -289l147 289h144z" />
    <glyph glyph-name="ygrave" unicode="&#x1ef3;" horiz-adv-x="534" 
d="M356 569h-94l-106 148h120zM476 500v-512q0 -48 -18.5 -83.5t-49.5 -55t-65 -29t-72 -9.5q-78 0 -200 25l14 86q102 -20 160 -20q15 0 31 4t34 12.5t29.5 27t11.5 43.5v51q-76 -44 -140 -45q-69 0 -116 45.5t-47 124.5v335h118v-329q0 -35 25 -59t61 -24q41 0 99 28v384
h125z" />
    <glyph glyph-name="endash" unicode="&#x2013;" horiz-adv-x="562" 
d="M522 219h-482v96h482v-96z" />
    <glyph glyph-name="emdash" unicode="&#x2014;" horiz-adv-x="733" 
d="M693 219h-653v96h653v-96z" />
    <glyph glyph-name="quoteleft" unicode="&#x2018;" horiz-adv-x="212" 
d="M140 674h32v-110h-133v69l55 106h78z" />
    <glyph glyph-name="quoteright" unicode="&#x2019;" horiz-adv-x="211" 
d="M173 669l-56 -105h-77l32 64h-32v111h133v-70z" />
    <glyph glyph-name="quotesinglbase" unicode="&#x201a;" horiz-adv-x="211" 
d="M173 38l-56 -105h-77l32 64h-32v110h133v-69z" />
    <glyph glyph-name="quotedblleft" unicode="&#x201c;" horiz-adv-x="376" 
d="M141 674h32v-110h-133v69l55 106h78zM303 674h32v-110h-133v69l56 106h77z" />
    <glyph glyph-name="quotedblright" unicode="&#x201d;" horiz-adv-x="375" 
d="M173 669l-55 -105h-78l33 64h-33v111h133v-70zM336 669l-56 -105h-78l33 64h-33v111h134v-70z" />
    <glyph glyph-name="quotedblbase" unicode="&#x201e;" horiz-adv-x="375" 
d="M174 38l-56 -105h-78l33 64h-33v110h134v-69zM335 38l-55 -105h-78l32 64h-32v110h133v-69z" />
    <glyph glyph-name="dagger" unicode="&#x2020;" horiz-adv-x="396" 
d="M260 499h103v-103h-103v-506h-124v506h-103v103h103v201h124v-201z" />
    <glyph glyph-name="daggerdbl" unicode="&#x2021;" horiz-adv-x="397" 
d="M261 499h102v-103h-102v-202h102v-103h-102v-201h-125v201h-102v103h102v202h-102v103h102v201h125v-201z" />
    <glyph glyph-name="bullet" unicode="&#x2022;" horiz-adv-x="358" 
d="M179.5 448q59.5 0 99.5 -40.5t40 -99.5q0 -30 -10.5 -56.5t-29 -45t-44.5 -29.5t-56 -11q-59 0 -99.5 41t-40.5 101q0 59 40.5 99.5t100 40.5z" />
    <glyph glyph-name="ellipsis" unicode="&#x2026;" horiz-adv-x="631" 
d="M174 0h-134v107h134v-107zM382 0h-133v107h133v-107zM591 0h-134v107h134v-107z" />
    <glyph glyph-name="perthousand" unicode="&#x2030;" horiz-adv-x="1042" 
d="M178 -17h-88l457 734h87zM153 706h28q44 0 78.5 -27t34.5 -74v-165q0 -47 -34.5 -74t-79.5 -27h-27q-43 0 -78 26.5t-35 74.5v165q0 47 35 74t78 27zM169 648h-3q-21 0 -37.5 -11t-16.5 -34v-161q0 -23 16.5 -34t37.5 -11h3q21 0 37 11.5t15 33.5v161q0 22 -15.5 33
t-36.5 12zM860 361h29q44 0 78.5 -27.5t34.5 -73.5v-166q0 -31 -17.5 -54.5t-42.5 -34.5t-53 -11h-28q-44 0 -78.5 26.5t-34.5 73.5v166q0 47 34.5 74t77.5 27zM550 361h30q44 0 78 -27.5t34 -73.5v-166q0 -46 -34.5 -73t-78.5 -27h-28q-44 0 -78.5 26.5t-34.5 73.5v166
q0 47 34.5 74t77.5 27zM567 302h-4q-13 0 -24 -3.5t-20 -14.5t-9 -27v-160q0 -23 16 -34t36 -11h4q21 0 37.5 11t15.5 34v160q0 23 -15.5 34t-36.5 11zM877 302h-4q-13 0 -24 -3.5t-20 -14.5t-9 -27v-160q0 -16 8.5 -26.5t20 -14.5t23.5 -4h4q21 0 37.5 11t15.5 34v160
q0 23 -15.5 34t-36.5 11z" />
    <glyph glyph-name="guilsinglleft" unicode="&#x2039;" horiz-adv-x="258" 
d="M213 335l-75 -59l75 -59v-106l-179 143v44l179 142v-105z" />
    <glyph glyph-name="guilsinglright" unicode="&#x203a;" horiz-adv-x="258" 
d="M225 298v-44l-180 -143v106l75 59l-75 59v105z" />
    <glyph glyph-name="fraction" unicode="&#x2044;" horiz-adv-x="493" 
d="M127 -17h-87l326 733h87z" />
    <glyph glyph-name="Euro" unicode="&#x20ac;" horiz-adv-x="547" 
d="M328 708h27q66 0 149 -20l-7 -99q-78 12 -142 12h-20q-49 0 -84 -31.5t-39 -79.5v-28h239v-74h-242v-72h212v-74h-208v-32q4 -48 38.5 -79.5t83.5 -31.5h20q64 1 142 13l7 -99q-83 -21 -149 -21h-27q-101 0 -172 59t-80 157v34h-71v74h69v72h-69v74h71v31q9 98 80 156.5
t172 58.5z" />
    <glyph glyph-name="trademark" unicode="&#x2122;" horiz-adv-x="736" 
d="M696 345h-77l-7 208l-69 -128h-44l-70 128l-8 -208h-76l13 355h74l88 -173l87 173h76zM315 639h-99v-294h-78v294h-100v61h277v-61z" />
    <glyph glyph-name="oneeighth" unicode="&#x215b;" horiz-adv-x="652" 
d="M173 -17h-86l325 733h87zM181 341h-73v284l-46 -12l-20 61l84 25h55v-358zM466 362h38q41 0 70 -27.5t29 -65.5v-23q0 -38 -30 -59q35 -21 35 -64v-35q0 -26 -13 -47.5t-36 -34t-50 -12.5h-49q-27 0 -50 12.5t-36 34.5t-13 48v35q0 21 12 38.5t24 24.5q-31 21 -31 59v23
q0 38 29 65.5t71 27.5zM496 304h-21q-16 0 -27 -10t-11 -25v-24q0 -15 11 -25.5t26 -10.5h23q15 0 25.5 10.5t10.5 25.5v24q0 15 -11 25t-26 10zM498 166h-26q-16 0 -27 -10.5t-11 -25.5v-42q0 -16 11 -26.5t26 -10.5h27q16 0 26.5 10.5t10.5 26.5v42q0 15 -10.5 25.5
t-26.5 10.5z" />
    <glyph glyph-name="threeeighths" unicode="&#x215c;" horiz-adv-x="695" 
d="M225 -17h-87l325 733h87zM140 708h32q26 -1 47.5 -13t34.5 -32.5t13 -45.5v-25q0 -37 -33 -59q17 -10 26.5 -27t9.5 -35v-41q0 -24 -13 -45t-35 -33t-48 -12h-34q-53 0 -89 22l12 53q34 -14 82 -15h17q15 0 24.5 9.5t9.5 22.5v39q0 9 -4.5 16.5t-12 11.5t-17.5 4h-39v57
h39q15 0 24.5 9t9.5 23v22q0 29 -34 33h-16q-49 0 -83 -12l-13 52q39 21 90 21zM517 362h39q41 0 69.5 -27t28.5 -66v-22q0 -38 -30 -59q35 -22 35 -64v-36q0 -39 -28.5 -66t-70.5 -27h-49q-41 0 -70 27t-29 66v36q0 21 12 39t24 24q-31 21 -31 60v22q0 39 29 66t71 27z
M547 305h-21q-11 0 -19.5 -5t-13.5 -13t-5 -18v-23q0 -16 11 -26t26 -10h23q15 0 25.5 10.5t10.5 25.5v23q0 8 -3 14.5t-8 11t-11.5 7.5t-14.5 3zM549 166h-26q-16 0 -27 -10t-11 -26v-42q0 -15 11 -25.5t26 -10.5h27q10 0 19 4.5t14 13t5 18.5v42q0 16 -11 26t-27 10z" />
    <glyph glyph-name="fiveeighths" unicode="&#x215d;" horiz-adv-x="695" 
d="M225 -17h-87l325 733h87zM251 640h-122l-6 -69h48q40 -2 68.5 -27.5t28.5 -61.5v-54q0 -26 -13.5 -47t-35.5 -33t-48 -12h-35q-60 0 -94 26l12 52q32 -18 83 -18h22q10 0 18.5 4.5t13 12t4.5 17.5v46q0 10 -5 17.5t-13 12t-18 4.5h-82l-31 22l18 167h187v-59zM517 362h39
q41 0 69.5 -27t28.5 -66v-22q0 -38 -30 -59q35 -22 35 -64v-36q0 -39 -28.5 -66t-70.5 -27h-49q-41 0 -70 27t-29 66v36q0 21 12 39t24 24q-31 21 -31 60v22q0 39 29 66t71 27zM547 305h-21q-16 0 -27 -10.5t-11 -25.5v-23q0 -16 11 -26t26 -10h23q15 0 25.5 10.5t10.5 25.5
v23q0 15 -10.5 25.5t-26.5 10.5zM549 166h-26q-11 0 -19.5 -4.5t-13.5 -12.5t-5 -19v-42q0 -15 11 -25.5t26 -10.5h27q16 0 27 10.5t11 25.5v42q0 11 -5 19t-13.5 12.5t-19.5 4.5z" />
    <glyph glyph-name="seveneighths" unicode="&#x215e;" horiz-adv-x="634" 
d="M160 -17h-87l326 733h87zM150 340h-81l116 295h-142v64h249zM452 362h39q41 0 69.5 -27.5t28.5 -65.5v-23q0 -38 -30 -59q35 -21 35 -64v-35q0 -40 -28.5 -67t-70.5 -27h-49q-27 0 -50 12.5t-36 34t-13 47.5v35q0 21 12 39t24 25q-31 21 -31 59v23q0 38 29 65.5t71 27.5z
M482 304h-21q-11 0 -19.5 -4.5t-13.5 -12.5t-5 -18v-24q0 -15 11 -25.5t26 -10.5h23q15 0 25.5 10.5t10.5 25.5v24q0 10 -5 18t-13.5 12.5t-18.5 4.5zM484 166h-26q-16 0 -27 -10.5t-11 -25.5v-42q0 -16 11 -26.5t26 -10.5h27q16 0 27 10.5t11 26.5v42q0 15 -11 25.5
t-27 10.5z" />
    <glyph glyph-name="partialdiff" unicode="&#x2202;" horiz-adv-x="873" 
 />
    <glyph glyph-name="emptyset" unicode="&#x2205;" horiz-adv-x="600" 
 />
    <glyph glyph-name="product" unicode="&#x220f;" horiz-adv-x="873" 
 />
    <glyph glyph-name="summation" unicode="&#x2211;" horiz-adv-x="873" 
 />
    <glyph glyph-name="minus" unicode="&#x2212;" horiz-adv-x="558" 
d="M518 247h-478v104h478v-104z" />
    <glyph glyph-name="radical" unicode="&#x221a;" horiz-adv-x="873" 
 />
    <glyph glyph-name="infinity" unicode="&#x221e;" horiz-adv-x="873" 
 />
    <glyph glyph-name="integral" unicode="&#x222b;" horiz-adv-x="873" 
 />
    <glyph glyph-name="approxequal" unicode="&#x2248;" horiz-adv-x="588" 
d="M130 305l-91 12q1 79 48.5 132t121.5 53q35 0 59 -14t49 -41q39 -42 70 -42q28 0 48 24.5t23 63.5l92 -9q-3 -75 -46 -128.5t-110 -53.5q-8 0 -17 1.5t-16 3t-15 5.5t-13 6t-12 8t-10.5 8.5t-10.5 9.5l-9 9t-8.5 9.5t-7.5 8.5q-33 35 -62 35q-5 0 -10 -1
q-29 -3 -49.5 -30.5t-23.5 -69.5zM130 72l-91 13q1 78 48.5 131t121.5 53q36 0 60 -14.5t50 -42.5q37 -40 68 -40q28 0 48 24.5t23 63.5l92 -9q-2 -49 -21.5 -90t-54.5 -66.5t-80 -25.5q-17 0 -33.5 5.5t-25.5 9.5t-24.5 18t-17 16t-17.5 19q-34 36 -63 36q-22 0 -40 -12
t-29.5 -35.5t-13.5 -53.5z" />
    <glyph glyph-name="notequal" unicode="&#x2260;" horiz-adv-x="530" 
d="M381 433h119v-104h-165l-36 -81h201v-104h-247l-65 -144h-97l65 144h-119v104h165l36 81h-201v104h247l71 161h97z" />
    <glyph glyph-name="lessequal" unicode="&#x2264;" horiz-adv-x="435" 
d="M400 500l-274 -117l274 -116v-115l-367 157v149l367 157v-115zM400 -8h-367v103h367v-103z" />
    <glyph glyph-name="greaterequal" unicode="&#x2265;" horiz-adv-x="435" 
d="M402 458v-149l-367 -157v115l274 116l-274 117v115zM402 -8h-367v103h367v-103z" />
    <glyph glyph-name="lozenge" unicode="&#x25ca;" horiz-adv-x="873" 
 />
    <glyph glyph-name="s_t" unicode="&#xfb06;" horiz-adv-x="754" 
d="M166 507h59q11 0 20 -2q-31 33 -31 76q0 64 59.5 104.5t140.5 40.5q52 0 96.5 -17.5t72 -51.5t27.5 -79v-78h112v-96h-112v-270q0 -22 13.5 -34t32.5 -12h66v-97h-92q-60 0 -102 38.5t-42 91.5v438q-1 32 -26 53t-58 21t-59.5 -21.5t-26.5 -54.5q0 -13 5 -25t14 -21
t21 -14l19 -12l-10 -80q-53 19 -110 20h-52q-22 0 -36.5 -15t-14.5 -36q0 -16 8 -29t21 -17l125 -44q53 -19 76.5 -51t23.5 -85q0 -77 -47.5 -116t-132.5 -39h-48q-79 0 -142 25l11 79q70 -23 127 -22h46q28 0 46.5 19t18.5 46q0 22 -11 40.5t-30 24.5l-129 45
q-47 17 -66 42t-19 71q0 66 36 105t100 39z" />
    <glyph glyph-name="uni00540068" horiz-adv-x="1125" 
d="M759 700v-214q59 22 126 22q73 0 125 -43t52 -126v-339h-118v328q0 24 -11 41.5t-28 26t-34 12.5t-34 4q-46 0 -78 -7v-405h-125v593h-266v-593h-135v593h-203v107h729z" />
    <glyph glyph-name="uni00630068" horiz-adv-x="934" 
d="M40 165v168q0 41 15 73t40 51.5t51.5 31t56.5 15.5q12 2 29 2q16 0 33 -1q-13 13 -21 34t-8 41q0 45 32.5 79t79.5 50t98 16q74 0 134 -27v-212q60 22 127 22q73 0 125 -43t52 -126v-339h-119v328q0 24 -10.5 41.5t-27.5 26t-34 12.5t-35 4q-45 0 -78 -7v-405h-124v621
q-18 11 -40 11q-33 0 -56 -21t-23 -53q0 -21 12.5 -38.5t32.5 -26.5l-6 -96q-58 13 -105 13q-42 0 -75 -21.5t-33 -67.5v-145q0 -47 33 -68.5t76 -21.5q45 0 104 13l7 -94q-76 -16 -134 -16q-30 0 -58.5 5.5t-56 19t-48.5 33t-33.5 50.5t-12.5 68z" />
    <glyph glyph-name="uni00630074" horiz-adv-x="743" 
d="M40 165v168q0 41 15 73t40 52t52 31t56 16q12 1 29 1q15 0 32 -1q-29 33 -29 75q0 62 59 103.5t132 41.5q53 0 99 -22.5t74 -64.5v-138h111v-96h-111v-270q0 -15 6.5 -25.5t16.5 -15.5t22 -5h66v-97h-92q-58 0 -101 38t-43 92v482q-23 29 -60 29q-32 0 -54.5 -21.5
t-22.5 -52.5q0 -21 12.5 -38.5t32.5 -26.5l-6 -96q-58 13 -105 13q-42 0 -75 -21.5t-33 -67.5v-145q0 -47 33 -68.5t76 -21.5q45 0 104 13l7 -94q-76 -16 -134 -16q-30 0 -58.5 5.5t-56 19t-48.5 33t-33.5 50.5t-12.5 68z" />
    <glyph glyph-name="uni00660062" horiz-adv-x="858" 
d="M485 708v-222q59 22 127 22q46 0 85 -17t65 -56.5t26 -95.5v-180q0 -47 -22 -85t-61.5 -59.5t-88.5 -21.5q-77 0 -148 45l-5 -38h-103v611h-115q-12 0 -22 -5t-16.5 -16t-6.5 -26v-64h111v-96h-111v-404h-125v404h-47v96h47v78q0 54 43 92t101 38h266zM670 174v155
q0 23 -11 40.5t-28 26t-34 12.5t-35 4q-45 0 -78 -6v-287q54 -29 99 -29q37 0 62 24.5t25 59.5z" />
    <glyph glyph-name="uni00660066006A" horiz-adv-x="922" 
d="M647 611h-66q-12 0 -22 -5t-16.5 -16t-6.5 -26v-64h324v-558q0 -35 -19.5 -65t-52.5 -48t-73 -18h-48v97h22q19 0 32 12.5t13 34.5v449h-198v-404h-125v404h-211v-404h-125v404h-47v96h47v78q0 53 42 91.5t102 38.5h92v-97h-66q-12 0 -22 -5t-16.5 -16t-6.5 -26v-64h211
v78q0 53 42 91.5t102 38.5h92v-97z" />
    <glyph glyph-name="uni00660068" horiz-adv-x="875" 
d="M514 708v-222q60 22 127 22q73 0 125 -43t52 -126v-339h-119v328q0 24 -10.5 41.5t-28 26t-34.5 12.5t-34 4q-45 0 -78 -7v-405h-125v611h-146q-12 0 -22 -5t-16.5 -16t-6.5 -26v-64h111v-96h-111v-404h-125v404h-47v96h47v78q0 54 43 92t101 38h297z" />
    <glyph glyph-name="uni0066006A" horiz-adv-x="586" 
d="M311 611h-66q-12 0 -22 -5t-16.5 -16t-6.5 -26v-64h323v-558q0 -35 -19 -65t-52 -48t-73 -18h-48v97h22q19 0 32 12.5t13 34.5v449h-198v-404h-125v404h-47v96h47v78q0 53 42 91.5t102 38.5h92v-97z" />
    <glyph glyph-name="uni0066006B" horiz-adv-x="860" 
d="M521 296l178 204h132l-201 -236l204 -264h-131l-182 219v-219h-125v612h-151q-19 0 -32 -12.5t-13 -34.5v-65h111v-96h-111v-404h-125v404h-47v96h47v78q0 53 42 91.5t102 38.5h302v-412z" />
    <glyph glyph-name="uni00730070" horiz-adv-x="934" 
d="M166 507h59h1q8 0 18 -2q-29 33 -29 76q0 64 55 104.5t130 40.5q90 0 143 -51q40 -39 40 -97v-116q70 46 147 46t125 -48t48 -119v-176q0 -37 -10.5 -66.5t-28.5 -48.5t-41.5 -31.5t-47 -17.5t-48.5 -5q-65 0 -127 23v-201h-124v739q0 33 -23.5 54.5t-55.5 21.5
q-20 0 -38 -9.5t-30 -27t-12 -39.5q0 -20 11 -36.5t28 -23.5l19 -12l-10 -80q-53 19 -110 20h-52q-22 0 -36.5 -14.5t-14.5 -36.5q0 -16 8 -29t21 -17l125 -44q53 -19 76.5 -51t23.5 -85q0 -77 -47.5 -116t-132.5 -39h-48q-79 0 -142 25l11 79q70 -23 127 -22h46
q28 0 46.5 19t18.5 46q0 22 -11 40.5t-30 24.5l-129 45q-32 11 -50 25t-26.5 35.5t-8.5 52.5q0 66 36 105t100 39zM786 172v155q0 22 -11.5 41.5t-31.5 30.5t-44 11q-45 0 -98 -29v-286q30 -7 77 -7q17 0 34.5 4t34.5 13t28 26t11 41z" />
    <glyph glyph-name="zero.lf" horiz-adv-x="536" 
d="M224 680h94q72 0 122.5 -48.5t50.5 -119.5v-349q0 -71 -50.5 -120t-122.5 -49h-94q-77 0 -128 48.5t-51 120.5v349q0 72 51.5 120t127.5 48zM297 573h-55q-21 0 -38.5 -10t-27 -27t-9.5 -39v-319q0 -34 21.5 -55.5t53.5 -21.5h55q31 0 52 21.5t21 55.5v319q0 33 -21 54.5
t-52 21.5z" />
    <glyph glyph-name="one.lf" horiz-adv-x="358" 
d="M283 0h-129v557l-97 -29l-30 100l171 52h85v-680z" />
    <glyph glyph-name="two.lf" horiz-adv-x="521" 
d="M237 682h61q48 0 88.5 -22t64 -60t23.5 -84v-21q0 -46 -27 -87t-73 -65l-146 -78q-26 -13 -42 -36.5t-16 -53.5v-80h304v-95h-426v190q0 103 109 160l157 82q40 22 40 63v12q0 19 -9.5 35t-26 25.5t-36.5 9.5h-43q-87 0 -151 -24l-13 94q67 35 162 35z" />
    <glyph glyph-name="three.lf" horiz-adv-x="520" 
d="M215 682h61q73 0 124.5 -48.5t51.5 -117.5v-37q0 -40 -21 -70.5t-54 -45.5q36 -16 58 -50t22 -73v-79q0 -46 -23.5 -84.5t-64 -60.5t-88.5 -22h-66q-98 0 -162 38l19 84q61 -24 152 -24h35q33 0 55 21t22 52v76q0 31 -22 52.5t-55 21.5h-67v90h67q22 0 39.5 10t27.5 26.5
t10 37.5v32q0 15 -6 28.5t-16 23.5t-24 16t-31 6h-33q-97 0 -155 -22l-18 84q67 35 162 35z" />
    <glyph glyph-name="four.lf" horiz-adv-x="539" 
d="M150 236h161l31 205h84v-205h88v-97h-88v-139h-115v139h-286v63l188 478h112z" />
    <glyph glyph-name="five.lf" horiz-adv-x="507" 
d="M418 583h-234l-12 -151h95q74 0 127.5 -48t53.5 -113v-110q0 -71 -51.5 -119t-124.5 -48h-66q-109 0 -170 43l18 85q60 -31 153 -30h44q12 0 24 3.5t21.5 10t16 15.5t10.5 20.5t4 23.5v95q-1 30 -22.5 50.5t-52.5 21.5h-162l-47 38l32 310h343v-97z" />
    <glyph glyph-name="six.lf" horiz-adv-x="555" 
d="M276 680l62 1q58 0 144 -19v-93q-79 13 -143 14h-57q-41 0 -68 -27t-27 -70v-70q64 12 94 12h66q69 0 115 -45t46 -123v-97q0 -75 -51 -122t-123 -47h-92q-83 0 -131 50.5t-48 144.5v291q0 91 60 145.5t153 54.5zM313 331h-56q-43 0 -73 -19v-144q0 -34 21.5 -55.5
t54.5 -21.5h53q30 0 51 22t21 55v86q0 22 -9.5 39.5t-26 27.5t-36.5 10z" />
    <glyph glyph-name="seven.lf" horiz-adv-x="508" 
d="M213 0h-135l230 583h-282v97h455z" />
    <glyph glyph-name="eight.lf" horiz-adv-x="573" 
d="M250 682h74q74 0 125.5 -48t51.5 -117v-40q0 -39 -20.5 -69.5t-52.5 -45.5q38 -15 60 -49t22 -74v-80q0 -69 -51.5 -117.5t-124.5 -48.5h-95q-73 0 -124.5 49t-51.5 117v80q0 11 1.5 21t5 19.5t8 18.5t10 17t12 15t14 13t15.5 11t16 9q-34 16 -53 46.5t-19 67.5v40
q1 69 52.5 117t124.5 48zM308 585h-42q-32 0 -53.5 -21t-21.5 -53v-34q0 -20 9.5 -37t27 -26.5t38.5 -9.5h45q32 0 52.5 21t20.5 52v34q0 21 -10 38t-27 26.5t-39 9.5zM313 314h-52q-33 0 -54.5 -21.5t-21.5 -52.5v-76q0 -32 21.5 -53t54.5 -21h52q21 0 38.5 10t27 26.5
t9.5 37.5v76q0 31 -21.5 52.5t-53.5 21.5z" />
    <glyph glyph-name="nine.lf" horiz-adv-x="555" 
d="M221 680h92q83 0 131 -50t48 -144v-291q0 -91 -60 -146t-153 -55h-62q-58 0 -144 18v93q78 -13 143 -13h57q41 0 68 26.5t27 70.5v83q-63 -12 -94 -12h-65q-70 0 -115.5 45t-45.5 124v82q0 75 50.5 122t122.5 47zM295 583h-53q-30 0 -51 -21.5t-21 -54.5v-73
q0 -22 9.5 -39.5t26 -27.5t36.5 -10h57q42 0 72 19v131q0 22 -10 39.5t-27 27t-39 9.5z" />
    <glyph glyph-name="zero.osf" horiz-adv-x="532" 
d="M224 518h90q71 0 121 -48t50 -118v-193q0 -70 -50.5 -118.5t-120.5 -48.5h-90q-50 0 -90.5 22t-63.5 60t-23 85v193q0 71 51 118.5t126 47.5zM294 427h-53q-35 0 -57.5 -24t-22.5 -59v-178q0 -36 22.5 -59.5t57.5 -23.5h53q33 0 55 23.5t22 59.5v178q0 23 -10 42
t-27.5 30t-39.5 11z" />
    <glyph glyph-name="one.osf" horiz-adv-x="477" 
d="M309 0h-115v386l-94 -29l-28 93l163 50h74v-500z" />
    <glyph glyph-name="two.osf" horiz-adv-x="511" 
d="M222 510h54q72 0 123 -43t51 -106q0 -83 -98 -127l-127 -56q-54 -22 -56 -62v-29h281v-87h-396v111q0 73 102 122l140 66q41 17 41 52q0 28 -21.5 48.5t-52.5 21.5h-32q-88 0 -144 -22l-18 80q62 31 153 31z" />
    <glyph glyph-name="three.osf" horiz-adv-x="520" 
d="M214 509h62q73 0 124.5 -48.5t51.5 -117.5v-37q0 -40 -21.5 -70.5t-54.5 -45.5q37 -16 59 -50t22 -73v-79q0 -46 -24 -84.5t-64.5 -60.5t-87.5 -22h-67q-99 0 -161 38l18 84q60 -24 152 -24h36q33 0 54.5 21t21.5 52v76q0 31 -21.5 52.5t-54.5 21.5h-68v90h68
q33 0 54.5 21.5t21.5 52.5v32q0 20 -10 37t-27.5 27t-38.5 10h-34q-97 0 -155 -22l-18 84q67 35 162 35z" />
    <glyph glyph-name="four.osf" horiz-adv-x="539" 
d="M150 79h161l31 205h84v-205h88v-97h-88v-139h-115v139h-286v63l188 478h112z" />
    <glyph glyph-name="five.osf" horiz-adv-x="507" 
d="M418 403h-234l-12 -151h95q74 0 127.5 -48t53.5 -113v-110q0 -71 -51.5 -119t-124.5 -48h-66q-108 0 -170 43l18 85q61 -32 153 -30h44q32 0 54 21t22 52v95q-1 30 -22.5 50.5t-52.5 21.5h-162l-47 38l32 310h343v-97z" />
    <glyph glyph-name="six.osf" horiz-adv-x="555" 
d="M276 680l62 1q58 0 144 -19v-93q-79 13 -143 14h-57q-41 0 -68 -27t-27 -70v-70q64 12 94 12h66q69 0 115 -45t46 -123v-97q0 -75 -51 -122t-123 -47h-92q-83 0 -131 50.5t-48 144.5v291q0 91 60 145.5t153 54.5zM313 331h-56q-43 0 -73 -19v-144q0 -34 21.5 -55.5
t54.5 -21.5h53q30 0 51 22t21 55v86q0 22 -9.5 39.5t-26 27.5t-36.5 10z" />
    <glyph glyph-name="seven.osf" horiz-adv-x="508" 
d="M213 -158h-135l230 583h-282v98h455z" />
    <glyph glyph-name="eight.osf" horiz-adv-x="573" 
d="M250 682h74q74 0 125.5 -48t51.5 -117v-40q0 -39 -20.5 -69.5t-52.5 -45.5q38 -15 60 -49t22 -74v-80q0 -69 -51.5 -117.5t-124.5 -48.5h-95q-73 0 -124.5 49t-51.5 117v80q0 11 1.5 21t5 19.5t8 18.5t10 17t12 15t14 13t15.5 11t16 9q-34 16 -53 46.5t-19 67.5v40
q1 69 52.5 117t124.5 48zM308 585h-42q-32 0 -53.5 -21t-21.5 -53v-34q0 -20 9.5 -37t27 -26.5t38.5 -9.5h45q32 0 52.5 21t20.5 52v34q0 21 -10 38t-27 26.5t-39 9.5zM313 314h-52q-33 0 -54.5 -21.5t-21.5 -52.5v-76q0 -32 21.5 -53t54.5 -21h52q21 0 38.5 10t27 26.5
t9.5 37.5v76q0 31 -21.5 52.5t-53.5 21.5z" />
    <glyph glyph-name="nine.osf" horiz-adv-x="555" 
d="M221 518h92q83 0 131 -50.5t48 -144.5v-291q0 -91 -60 -146t-153 -55h-62q-60 0 -144 19v92q84 -13 143 -13h57q41 0 68 26.5t27 70.5v83q-64 -12 -94 -12h-65q-70 0 -115.5 45t-45.5 124v82q0 75 50.5 122.5t122.5 47.5zM295 421h-53q-30 0 -51 -22t-21 -55v-73
q0 -22 9.5 -39.5t26 -27.5t36.5 -10h57q42 0 72 19v131q0 34 -21.5 55.5t-54.5 21.5z" />
    <glyph glyph-name="zero.tf" horiz-adv-x="536" 
d="M224 680h94q72 0 122.5 -48.5t50.5 -119.5v-349q0 -71 -50.5 -120t-122.5 -49h-94q-77 0 -128 48.5t-51 120.5v349q0 72 51.5 120t127.5 48zM297 573h-55q-21 0 -38.5 -10t-27 -27t-9.5 -39v-319q0 -34 21.5 -55.5t53.5 -21.5h55q31 0 52 21.5t21 55.5v319q0 33 -21 54.5
t-52 21.5z" />
    <glyph glyph-name="one.tf" horiz-adv-x="483" 
d="M315 0h-129v557l-97 -29l-30 100l171 52h85v-680z" />
    <glyph glyph-name="two.tf" horiz-adv-x="521" 
d="M237 682h61q48 0 88.5 -22t64 -60t23.5 -84v-21q0 -46 -27 -87t-73 -65l-146 -78q-26 -13 -42 -36.5t-16 -53.5v-80h304v-95h-426v190q0 103 109 160l157 82q40 22 40 63v12q0 19 -9.5 35t-26 25.5t-36.5 9.5h-43q-87 0 -151 -24l-13 94q67 35 162 35z" />
    <glyph glyph-name="three.tf" horiz-adv-x="520" 
d="M215 682h61q73 0 124.5 -48.5t51.5 -117.5v-37q0 -40 -21 -70.5t-54 -45.5q36 -16 58 -50t22 -73v-79q0 -46 -23.5 -84.5t-64 -60.5t-88.5 -22h-66q-98 0 -162 38l19 84q61 -24 152 -24h35q33 0 55 21t22 52v76q0 31 -22 52.5t-55 21.5h-67v90h67q22 0 39.5 10t27.5 26.5
t10 37.5v32q0 15 -6 28.5t-16 23.5t-24 16t-31 6h-33q-97 0 -155 -22l-18 84q67 35 162 35z" />
    <glyph glyph-name="four.tf" horiz-adv-x="539" 
d="M150 236h161l31 205h84v-205h88v-97h-88v-139h-115v139h-286v63l188 478h112z" />
    <glyph glyph-name="five.tf" horiz-adv-x="507" 
d="M418 583h-234l-12 -151h95q74 0 127.5 -48t53.5 -113v-110q0 -71 -51.5 -119t-124.5 -48h-66q-109 0 -170 43l18 85q60 -31 153 -30h44q12 0 24 3.5t21.5 10t16 15.5t10.5 20.5t4 23.5v95q-1 30 -22.5 50.5t-52.5 21.5h-162l-47 38l32 310h343v-97z" />
    <glyph glyph-name="six.tf" horiz-adv-x="555" 
d="M276 680l62 1q58 0 144 -19v-93q-79 13 -143 14h-57q-41 0 -68 -27t-27 -70v-70q64 12 94 12h66q69 0 115 -45t46 -123v-97q0 -75 -51 -122t-123 -47h-92q-83 0 -131 50.5t-48 144.5v291q0 91 60 145.5t153 54.5zM313 331h-56q-43 0 -73 -19v-144q0 -34 21.5 -55.5
t54.5 -21.5h53q30 0 51 22t21 55v86q0 22 -9.5 39.5t-26 27.5t-36.5 10z" />
    <glyph glyph-name="seven.tf" horiz-adv-x="508" 
d="M213 0h-135l230 583h-282v97h455z" />
    <glyph glyph-name="eight.tf" horiz-adv-x="573" 
d="M250 682h74q74 0 125.5 -48t51.5 -117v-40q0 -39 -20.5 -69.5t-52.5 -45.5q38 -15 60 -49t22 -74v-80q0 -69 -51.5 -117.5t-124.5 -48.5h-95q-73 0 -124.5 49t-51.5 117v80q0 11 1.5 21t5 19.5t8 18.5t10 17t12 15t14 13t15.5 11t16 9q-34 16 -53 46.5t-19 67.5v40
q1 69 52.5 117t124.5 48zM308 585h-42q-32 0 -53.5 -21t-21.5 -53v-34q0 -20 9.5 -37t27 -26.5t38.5 -9.5h45q32 0 52.5 21t20.5 52v34q0 21 -10 38t-27 26.5t-39 9.5zM313 314h-52q-33 0 -54.5 -21.5t-21.5 -52.5v-76q0 -32 21.5 -53t54.5 -21h52q21 0 38.5 10t27 26.5
t9.5 37.5v76q0 31 -21.5 52.5t-53.5 21.5z" />
    <glyph glyph-name="nine.tf" horiz-adv-x="555" 
d="M221 680h92q83 0 131 -50t48 -144v-291q0 -91 -60 -146t-153 -55h-62q-58 0 -144 18v93q80 -13 143 -13h57q41 0 68 26.5t27 70.5v83q-63 -12 -94 -12h-65q-70 0 -115.5 45t-45.5 124v82q0 75 50.5 122t122.5 47zM295 583h-53q-30 0 -51 -21.5t-21 -54.5v-73
q0 -22 9.5 -39.5t26 -27.5t36.5 -10h57q42 0 72 19v131q0 22 -10 39.5t-27 27t-39 9.5z" />
    <glyph glyph-name="zero.tosf" horiz-adv-x="532" 
d="M224 518h90q71 0 121 -48t50 -118v-193q0 -70 -50.5 -118.5t-120.5 -48.5h-90q-50 0 -90.5 22t-63.5 60t-23 85v193q0 71 51 118.5t126 47.5zM294 427h-53q-35 0 -57.5 -24t-22.5 -59v-178q0 -36 22.5 -59.5t57.5 -23.5h53q33 0 55 23.5t22 59.5v178q0 23 -10 42
t-27.5 30t-39.5 11z" />
    <glyph glyph-name="one.tosf" horiz-adv-x="476" 
d="M309 0h-115v386l-94 -29l-28 93l163 50h74v-500z" />
    <glyph glyph-name="two.tosf" horiz-adv-x="521" 
d="M222 510h54q72 0 123 -43t51 -106q0 -83 -98 -127l-127 -56q-54 -22 -56 -62v-29h281v-87h-396v111q0 73 102 122l140 66q41 17 41 52q0 28 -21.5 48.5t-52.5 21.5h-32q-88 0 -144 -22l-18 80q62 31 153 31z" />
    <glyph glyph-name="three.tosf" horiz-adv-x="520" 
d="M214 509h62q73 0 124.5 -48.5t51.5 -117.5v-37q0 -40 -21.5 -70.5t-54.5 -45.5q37 -16 59 -50t22 -73v-79q0 -46 -24 -84.5t-64.5 -60.5t-87.5 -22h-67q-99 0 -161 38l18 84q60 -24 152 -24h36q33 0 54.5 21t21.5 52v76q0 31 -21.5 52.5t-54.5 21.5h-68v90h68
q33 0 54.5 21.5t21.5 52.5v32q0 20 -10 37t-27.5 27t-38.5 10h-34q-97 0 -155 -22l-18 84q67 35 162 35z" />
    <glyph glyph-name="four.tosf" horiz-adv-x="539" 
d="M150 79h161l31 205h84v-205h88v-97h-88v-139h-115v139h-286v63l188 478h112z" />
    <glyph glyph-name="five.tosf" horiz-adv-x="507" 
d="M418 403h-234l-12 -151h95q74 0 127.5 -48t53.5 -113v-110q0 -71 -51.5 -119t-124.5 -48h-66q-108 0 -170 43l18 85q61 -32 153 -30h44q32 0 54 21t22 52v95q-1 30 -22.5 50.5t-52.5 21.5h-162l-47 38l32 310h343v-97z" />
    <glyph glyph-name="six.tosf" horiz-adv-x="555" 
d="M276 680l62 1q58 0 144 -19v-93q-79 13 -143 14h-57q-41 0 -68 -27t-27 -70v-70q64 12 94 12h66q69 0 115 -45t46 -123v-97q0 -75 -51 -122t-123 -47h-92q-83 0 -131 50.5t-48 144.5v291q0 91 60 145.5t153 54.5zM313 331h-56q-43 0 -73 -19v-144q0 -34 21.5 -55.5
t54.5 -21.5h53q30 0 51 22t21 55v86q0 22 -9.5 39.5t-26 27.5t-36.5 10z" />
    <glyph glyph-name="seven.tosf" horiz-adv-x="508" 
d="M213 -158h-135l230 583h-282v98h455z" />
    <glyph glyph-name="eight.tosf" horiz-adv-x="573" 
d="M250 682h74q74 0 125.5 -48t51.5 -117v-40q0 -39 -20.5 -69.5t-52.5 -45.5q38 -15 60 -49t22 -74v-80q0 -69 -51.5 -117.5t-124.5 -48.5h-95q-73 0 -124.5 49t-51.5 117v80q0 11 1.5 21t5 19.5t8 18.5t10 17t12 15t14 13t15.5 11t16 9q-34 16 -53 46.5t-19 67.5v40
q1 69 52.5 117t124.5 48zM308 585h-42q-32 0 -53.5 -21t-21.5 -53v-34q0 -20 9.5 -37t27 -26.5t38.5 -9.5h45q32 0 52.5 21t20.5 52v34q0 21 -10 38t-27 26.5t-39 9.5zM313 314h-52q-33 0 -54.5 -21.5t-21.5 -52.5v-76q0 -32 21.5 -53t54.5 -21h52q21 0 38.5 10t27 26.5
t9.5 37.5v76q0 31 -21.5 52.5t-53.5 21.5z" />
    <glyph glyph-name="nine.tosf" horiz-adv-x="555" 
d="M221 518h92q83 0 131 -50.5t48 -144.5v-291q0 -91 -60 -146t-153 -55h-62q-60 0 -144 19v92q84 -13 143 -13h57q41 0 68 26.5t27 70.5v83q-64 -12 -94 -12h-65q-70 0 -115.5 45t-45.5 124v82q0 75 50.5 122.5t122.5 47.5zM295 421h-53q-30 0 -51 -22t-21 -55v-73
q0 -22 9.5 -39.5t26 -27.5t36.5 -10h57q42 0 72 19v131q0 34 -21.5 55.5t-54.5 21.5z" />
    <glyph glyph-name="zero.dnom" horiz-adv-x="322" 
d="M146 362h29q44 0 78 -27.5t34 -73.5v-166q0 -46 -34 -73t-79 -27h-28q-43 0 -77.5 26.5t-34.5 73.5v166q0 47 34.5 74t77.5 27zM163 303h-4q-13 0 -24.5 -3.5t-20 -14.5t-8.5 -27v-160q0 -16 8.5 -26.5t19.5 -14.5t24 -4h4q21 0 37 11t16 34v160q0 23 -16 34t-36 11z" />
    <glyph glyph-name="one.dnom" horiz-adv-x="217" 
d="M177 0h-73v285l-46 -13l-19 61l83 26h55v-359z" />
    <glyph glyph-name="two.dnom" horiz-adv-x="315" 
d="M144 364h32q13 0 25.5 -3.5t23 -9t19 -14t14.5 -18t9.5 -21.5t3.5 -24v-10q0 -26 -14.5 -48t-38.5 -35l-74 -39q-27 -13 -27 -41v-42h154v-59h-228v109q0 55 59 86l78 41q18 9 18 27v7q0 12 -9 20.5t-23 8.5h-20q-45 0 -82 -14l-7 59q35 20 87 20z" />
    <glyph glyph-name="three.dnom" horiz-adv-x="310" 
d="M138 363h33q39 -1 67 -27t28 -63v-25q0 -37 -33 -59q17 -10 26 -27.5t9 -35.5v-40q0 -37 -28 -63.5t-67 -26.5h-35q-53 0 -89 22l12 53q35 -15 83 -15h17q9 0 17 4.5t12 11.5t4 16v39q0 13 -9.5 22.5t-23.5 9.5h-40v57h40q14 0 23.5 9t9.5 23v22q0 29 -34 33h-16
q-49 0 -82 -13l-13 52q38 21 89 21z" />
    <glyph glyph-name="four.dnom" horiz-adv-x="347" 
d="M116 133h77l15 106h53v-106h44v-65h-44v-70h-70v70h-155v40l96 251h72z" />
    <glyph glyph-name="five.dnom" horiz-adv-x="340" 
d="M271 299h-122l-6 -69h47q41 -2 69 -27.5t28 -61.5v-54q0 -39 -28.5 -65.5t-67.5 -26.5h-35q-60 0 -94 26l12 52q31 -18 83 -18h22q10 0 18 4.5t13 12t5 17.5v46q0 6 -2 11t-5.5 9t-8 7t-9.5 5t-11 2h-82l-31 22l18 167h187v-59z" />
    <glyph glyph-name="six.dnom" horiz-adv-x="317" 
d="M151 363h32q35 0 83 -11v-63q-50 8 -83 9h-29q-16 0 -28 -10.5t-13 -28.5v-31q27 4 41 4h32q41 0 67 -25.5t26 -69.5v-47q0 -40 -28 -67.5t-70 -27.5h-48q-43 0 -71.5 27.5t-28.5 67.5v161q0 51 34 81.5t84 30.5zM170 180h-28q-24 0 -36 -8v-82q0 -11 4.5 -19.5t13 -13
t19.5 -4.5h27q15 0 25.5 10.5t10.5 26.5v53q0 16 -10.5 26.5t-25.5 10.5z" />
    <glyph glyph-name="seven.dnom" horiz-adv-x="317" 
d="M151 -1h-81l116 295h-142v64h249z" />
    <glyph glyph-name="eight.dnom" horiz-adv-x="314" 
d="M136 362h39q27 0 49.5 -12.5t36 -34t13.5 -46.5v-23q0 -38 -31 -59q36 -21 36 -64v-35q0 -40 -29 -67t-71 -27h-49q-41 0 -69.5 27t-28.5 67v35q0 15 6 29t14 22.5t16 12.5q-32 21 -32 59v23q1 25 14 46.5t36 34t50 12.5zM167 304h-22q-10 0 -19 -4.5t-14 -12.5t-5 -18
v-24q0 -15 11 -25.5t27 -10.5h22q16 0 26 10.5t10 25.5v24q0 15 -10.5 25t-25.5 10zM169 166h-27q-16 0 -26.5 -10.5t-10.5 -25.5v-42q0 -16 10.5 -26.5t26.5 -10.5h26q16 0 27 10.5t11 26.5v42q0 15 -11 25.5t-26 10.5z" />
    <glyph glyph-name="nine.dnom" horiz-adv-x="317" 
d="M131 363h47q28 0 51.5 -12.5t36.5 -34.5t13 -48v-161q0 -51 -34 -81.5t-84 -30.5h-33q-40 0 -82 11v63q46 -8 82 -9h29q16 0 28 10.5t14 27.5v38q-13 -5 -41 -5h-30q-41 0 -68 26.5t-27 68.5v42q0 39 28 67t70 28zM169 305h-27q-10 0 -18.5 -4.5t-13 -13.5t-4.5 -19v-48
q0 -10 4.5 -19t12.5 -13.5t18 -4.5h29q24 0 36 9v76q0 11 -5 19.5t-13.5 13t-18.5 4.5z" />
    <glyph glyph-name="zero.numr" horiz-adv-x="322" 
d="M146 703h29q44 0 78 -27t34 -74v-165q0 -47 -34.5 -74t-78.5 -27h-27q-20 0 -39.5 6t-36.5 18.5t-27 32t-10 44.5v165q0 47 34.5 74t77.5 27zM162 644h-3q-21 0 -37 -10.5t-16 -33.5v-161q0 -16 9 -26.5t20.5 -14.5t23.5 -4h4q21 0 36.5 11.5t15.5 33.5v161q0 22 -16 33
t-37 11z" />
    <glyph glyph-name="one.numr" horiz-adv-x="217" 
d="M177 341h-73v285l-46 -12l-19 61l83 25h55v-359z" />
    <glyph glyph-name="two.numr" horiz-adv-x="315" 
d="M150 706h31q40 0 68 -26t28 -63v-11q0 -25 -15 -47.5t-39 -35.5l-74 -39q-27 -13 -27 -41v-42h155v-59h-229v109q0 56 59 86l78 41q18 10 18 28v6q0 13 -9 21.5t-23 8.5h-20q-45 0 -81 -15l-8 59q35 20 88 20z" />
    <glyph glyph-name="three.numr" horiz-adv-x="310" 
d="M138 708h33q25 -1 47 -13t35 -32.5t13 -45.5v-25q0 -37 -33 -59q11 -7 19 -17.5t12 -22t4 -22.5v-41q0 -37 -28 -63.5t-67 -26.5h-35q-53 0 -89 22l12 53q35 -14 83 -15h17q9 0 17 4.5t12 11.5t4 16v39q0 9 -4 16.5t-12 11.5t-17 4h-40v57h40q14 0 23.5 9t9.5 23v22
q0 29 -34 33h-16q-49 0 -82 -12l-13 52q38 21 89 21z" />
    <glyph glyph-name="four.numr" horiz-adv-x="347" 
d="M116 474h77l15 106h53v-106h44v-65h-44v-70h-70v70h-155v40l96 250h72z" />
    <glyph glyph-name="five.numr" horiz-adv-x="340" 
d="M275 640h-123l-5 -69h47q41 -2 69 -27.5t28 -61.5v-54q0 -39 -28.5 -65.5t-67.5 -26.5h-35q-61 0 -95 26l13 52q31 -18 82 -18h23q15 0 25 9.5t10 24.5v46q0 14 -10.5 24t-24.5 10h-83l-30 22l17 167h188v-59z" />
    <glyph glyph-name="six.numr" horiz-adv-x="317" 
d="M151 706h32q35 0 83 -11v-63q-50 8 -83 9h-29q-16 0 -28 -10.5t-13 -28.5v-31q19 4 41 4h32q41 0 67 -25.5t26 -68.5v-48q0 -40 -28 -67.5t-70 -27.5h-48q-28 0 -51 12.5t-36 34.5t-13 48v161q0 34 16 60t42.5 39t59.5 13zM170 524h-28q-24 0 -36 -9v-82q0 -11 4.5 -19.5
t13 -13t19.5 -4.5h27q15 0 25.5 10.5t10.5 26.5v53q0 16 -10.5 27t-25.5 11z" />
    <glyph glyph-name="seven.numr" horiz-adv-x="317" 
d="M151 340h-83l116 295h-143v64h252z" />
    <glyph glyph-name="eight.numr" horiz-adv-x="314" 
d="M136 706h39q27 0 49.5 -12.5t35.5 -34t13 -46.5v-22q0 -39 -30 -59q36 -22 36 -64v-36q0 -39 -29 -66.5t-71 -27.5h-49q-20 0 -38.5 7.5t-31.5 20t-20.5 30t-7.5 36.5v36q0 21 11.5 39t24.5 24q-32 21 -32 60v22q1 39 30 66t70 27zM167 649h-22q-16 0 -27 -10.5
t-11 -25.5v-23q0 -16 11 -26.5t27 -10.5h22q10 1 18.5 5.5t13 13t4.5 18.5v23q0 15 -10.5 25.5t-25.5 10.5zM169 510h-27q-16 0 -26.5 -10t-10.5 -26v-42q0 -15 10.5 -25.5t26.5 -10.5h26q16 0 27 10.5t11 25.5v42q0 10 -5 18.5t-13.5 13t-18.5 4.5z" />
    <glyph glyph-name="nine.numr" horiz-adv-x="317" 
d="M131 706h47q43 0 72 -27.5t29 -67.5v-161q0 -51 -34 -81.5t-84 -30.5h-33q-40 0 -82 11v63q46 -8 82 -9h29q16 0 28 10.5t14 28.5v37q-13 -5 -41 -5h-30q-26 0 -48 12t-34.5 33.5t-12.5 49.5v42q0 26 12.5 47.5t35 34.5t50.5 13zM169 648h-27q-10 0 -18.5 -4.5t-13 -13.5
t-4.5 -19v-48q0 -10 4.5 -18.5t12.5 -13.5t18 -5h29q24 0 36 9v76q0 16 -10.5 26.5t-26.5 10.5z" />
    </font>
</defs>
</svg>
