<?xml version="1.0" standalone="no"?>
<!DOCTYPE svg PUBLIC "-//W3C//DTD SVG 1.1//EN" "http://www.w3.org/Graphics/SVG/1.1/DTD/svg11.dtd" >
<svg xmlns="http://www.w3.org/2000/svg" xmlns:xlink="http://www.w3.org/1999/xlink" version="1.1">
<metadata>
Created by FontForge 20150318 at Mon Nov 23 10:37:48 2015
 By uniteet7
Copyright (c) 2010 by Jonathan Hill. All rights reserved.
</metadata>
<defs>
<font id="TheNorthernBlockNorpethUltra" horiz-adv-x="557" >
  <font-face 
    font-family="TheNorthernBlockNorpethUltra"
    font-weight="900"
    font-stretch="normal"
    units-per-em="1000"
    panose-1="0 0 10 0 0 0 0 0 0 0"
    ascent="750"
    descent="-250"
    x-height="500"
    cap-height="700"
    bbox="-106 -272 1109 1162"
    underline-thickness="50"
    underline-position="-50"
    unicode-range="U+0020-FB06"
  />
<missing-glyph horiz-adv-x="500" 
d="M0 0v700h500v-700h-500zM250 395l170 255h-340zM280 350l170 -255v510zM80 50h340l-170 255zM50 605v-510l170 255z" />
    <glyph glyph-name="f_f" unicode="ff" horiz-adv-x="795" 
d="M769 532h-75q-6 0 -10 -1t-8 -6.5t-4 -16.5v-8h97v-174h-97v-326h-233v326h-144v-326h-233v326h-51v174h51v35q0 72 60.5 122.5t141.5 50.5h128v-176h-75q-6 0 -10 -1t-8 -6.5t-4 -16.5v-8h144v35q0 72 60.5 122.5t141.5 50.5h128v-176z" />
    <glyph glyph-name="fi" unicode="fi" horiz-adv-x="721" 
d="M396 532h-75q-6 0 -10 -1t-8 -6.5t-4 -16.5v-8h388v-500h-232v326h-156v-326h-233v326h-51v174h51v35q0 70 59 121.5t143 51.5h128v-176z" />
    <glyph glyph-name="fl" unicode="fl" horiz-adv-x="699" 
d="M669 1h-232v532h-120q-6 0 -10 -1t-8 -6.5t-4 -16.5v-8h97v-174h-97v-326h-233v326h-51v174h51v35q0 72 60.5 122.5t141.5 50.5h405v-708z" />
    <glyph glyph-name="f_f_i" unicode="ffi" horiz-adv-x="1137" 
d="M1103 0h-232v326h-156v-326h-233v326h-183v-326h-233v326h-51v174h51v35q0 70 59 121.5t143 51.5h128v-176h-75q-6 0 -10 -1t-8 -6.5t-4 -16.5v-8h183v35q0 70 59 121.5t143 51.5h128v-176h-75q-6 0 -10 -1t-8 -6.5t-4 -16.5v-8h388v-500z" />
    <glyph glyph-name="f_f_l" unicode="ffl" horiz-adv-x="1076" 
d="M1046 0h-232v532h-120q-6 0 -10 -1t-8 -6.5t-4 -16.5v-8h97v-174h-97v-326h-233v326h-144v-326h-233v326h-51v174h51v35q0 72 60.5 122.5t141.5 50.5h124v-176h-71q-6 0 -10 -1t-8 -6.5t-4 -16.5v-8h144v35q0 72 60.5 122.5t141.5 50.5h405v-708z" />
    <glyph glyph-name=".notdef" horiz-adv-x="500" 
d="M0 0v700h500v-700h-500zM250 395l170 255h-340zM280 350l170 -255v510zM80 50h340l-170 255zM50 605v-510l170 255z" />
    <glyph glyph-name=".null" horiz-adv-x="0" 
 />
    <glyph glyph-name="nonmarkingreturn" horiz-adv-x="333" 
 />
    <glyph glyph-name="space" unicode=" " horiz-adv-x="300" 
 />
    <glyph glyph-name="exclam" unicode="!" horiz-adv-x="305" 
d="M261 200h-212l-10 500h232zM275 0h-240v161h240v-161z" />
    <glyph glyph-name="quotedbl" unicode="&#x22;" horiz-adv-x="525" 
d="M231 464h-185l-16 245h217zM479 464h-185l-17 245h218z" />
    <glyph glyph-name="numbersign" unicode="#" horiz-adv-x="640" 
d="M548 468h52v-131h-79l-16 -68h95v-131h-123l-29 -139h-168l27 139h-46l-29 -139h-169l27 139h-50v131h77l17 68h-94v131h120l45 197h171l-45 -197h47l48 197h173zM308 337l-16 -68h39l16 68h-39z" />
    <glyph glyph-name="dollar" unicode="$" horiz-adv-x="606" 
d="M381 784v-75q77 -5 142 -25l-21 -199q-90 23 -172 25h-22q-19 0 -19 -15v-2q0 -13 12 -17l118 -40q66 -23 97 -44t45.5 -55.5t14.5 -96.5l-1 -6q-1 -108 -45.5 -163.5t-135.5 -71.5l-13 -3v-74h-156v69q-108 6 -182 29l19 200q72 -19 123.5 -25.5t115.5 -5.5
q9 0 14.5 5.5t5.5 13.5v9q0 12 -12 16l-129 41q-48 17 -73 30t-44.5 33t-26 47t-6.5 71v5q0 112 45 171t141 74l9 1v78h156z" />
    <glyph glyph-name="percent" unicode="%" horiz-adv-x="785" 
d="M239 -18h-154l458 735h153zM144 706h51q47 0 80.5 -30.5t33.5 -75.5v-166q0 -45 -33.5 -75.5t-80.5 -30.5h-51q-47 0 -80.5 30.5t-33.5 75.5v166q0 45 33.5 75.5t80.5 30.5zM171 608h-3q-14 0 -12 -13v-156q0 -14 12 -14h3q14 0 12 14v156q0 13 -12 13zM590 371h51
q31 0 57 -14t41.5 -38t15.5 -54v-166q0 -45 -33.5 -75.5t-80.5 -30.5h-51q-47 0 -80.5 30.5t-33.5 75.5v166q0 45 33.5 75.5t80.5 30.5zM617 273h-3q-13 0 -12 -13v-156q0 -14 12 -14h3q14 0 12 14v156q0 13 -12 13z" />
    <glyph glyph-name="ampersand" unicode="&#x26;" horiz-adv-x="747" 
d="M285 704h11q59 0 105.5 -23.5t70.5 -60t24 -77.5v-36q0 -64 -63 -118l-4 -3l30 -37q2 8 2 18v9h184l-19 -218q-1 -16 -8 -37l99 -121h-263l-8 10q-52 -16 -88 -16h-78q-72 0 -129.5 28.5t-89 77t-31.5 105.5v32q0 41 22 82t62 74l14 12l-18 21q-26 44 -26 81v36
q0 64 57 112.5t144 48.5zM294 546h-5q-7 0 -11.5 -5t-4.5 -11v-31v-1q0 -12 10 -18l8 -5l10 5q8 6 8 19v31q0 6 -4.5 11t-10.5 5zM270 227l-4 -4q-11 -10 -11 -24v-19q0 -10 3.5 -18t9 -11.5t11.5 -3.5h45q5 0 8 2z" />
    <glyph glyph-name="quotesingle" unicode="'" horiz-adv-x="277" 
d="M231 464h-185l-16 245h217z" />
    <glyph glyph-name="parenleft" unicode="(" horiz-adv-x="384" 
d="M173 794l181 -100q-91 -307 -91 -403q0 -55 36.5 -212.5t49.5 -195.5l-174 -85q-40 66 -92.5 243.5t-52.5 249.5q0 83 47 233t96 270z" />
    <glyph glyph-name="parenright" unicode=")" horiz-adv-x="384" 
d="M30 694l181 100q49 -120 96 -270t47 -233q0 -72 -52.5 -249.5t-92.5 -243.5l-175 85q14 38 50.5 195.5t36.5 212.5q0 96 -91 403z" />
    <glyph glyph-name="asterisk" unicode="*" horiz-adv-x="408" 
d="M256 656l37 39l75 -75l-91 -91l91 -90l-75 -74l-37 37v-54h-104v54l-38 -37l-74 74l90 90l-90 91l74 75l38 -39v54h104v-54z" />
    <glyph glyph-name="plus" unicode="+" horiz-adv-x="604" 
d="M397 381h177v-190h-177v-177h-190v177h-177v190h177v177h190v-177z" />
    <glyph glyph-name="comma" unicode="," horiz-adv-x="299" 
d="M269 69l-98 -184h-141l56 109h-56v192h239v-117z" />
    <glyph glyph-name="hyphen" unicode="-" horiz-adv-x="523" 
d="M493 214h-463v174h463v-174z" />
    <glyph glyph-name="period" unicode="." horiz-adv-x="299" 
d="M269 0h-239v186h239v-186z" />
    <glyph glyph-name="slash" unicode="/" horiz-adv-x="505" 
d="M184 -1h-174l312 701h174z" />
    <glyph glyph-name="zero" unicode="0" horiz-adv-x="583" 
d="M252 681h86q85 0 145 -54.5t60 -134.5v-307q0 -81 -60 -136t-145 -55h-86q-91 0 -151.5 54.5t-60.5 136.5v307q0 82 61.5 135.5t150.5 53.5zM295 484h-7q-21 0 -21 -23v-247q0 -24 21 -24h7q22 0 22 24v247q0 23 -22 23z" />
    <glyph glyph-name="one" unicode="1" horiz-adv-x="419" 
d="M381 0h-241v453l-71 -22l-55 184l215 66h152v-681z" />
    <glyph glyph-name="two" unicode="2" horiz-adv-x="559" 
d="M243 683h73q85 0 145 -54.5t60 -134.5v-19q0 -51 -31.5 -100t-85.5 -78l-106 -57q-12 -6 -21.5 -20t-9.5 -32v-17h254v-171h-481v219q0 110 124 175l127 67q6 3 7 13v2q-1 15 -15 15h-35q-93 0 -151 -11l-28 165q33 16 84 27t90 11z" />
    <glyph glyph-name="three" unicode="3" horiz-adv-x="552" 
d="M224 683h73q85 0 145 -54.5t60 -134.5v-34q0 -61 -54 -99q30 -16 47 -47t17 -64v-64q0 -83 -60.5 -137.5t-144.5 -54.5h-83q-40 0 -91 12.5t-82 30.5l27 152q69 -17 164 -18h22q22 0 22 23v57q0 24 -22 24h-87v161h87q22 0 22 24v23q0 24 -22 24h-18q-110 -1 -169 -13
l-27 151q33 16 84 27t90 11z" />
    <glyph glyph-name="four" unicode="4" horiz-adv-x="586" 
d="M246 294h39l64 159h148v-159h74v-176h-74v-117h-212v117h-270v107l182 456h204z" />
    <glyph glyph-name="five" unicode="5" horiz-adv-x="526" 
d="M462 504h-185l-7 -55h9q88 0 152 -54t64 -128v-82q0 -83 -60.5 -137.5t-144.5 -54.5h-83q-46 0 -102 15t-87 40l26 153q66 -31 165 -31h38q22 0 22 23v52q-2 20 -19 20h-145l-73 73l44 342h386v-176z" />
    <glyph glyph-name="six" unicode="6" horiz-adv-x="583" 
d="M320 681h26q56 0 166 -25v-166q-86 13 -163 14h-16q-27 0 -44.5 -16.5t-17.5 -49.5v-4q28 6 66 6h25q82 0 131.5 -47t49.5 -142v-66q0 -88 -60 -139.5t-146 -51.5h-85q-104 0 -158 58.5t-54 184.5v189q0 121 78.5 188t201.5 67zM295 264h-7q-22 0 -22 -24v-46
q0 -24 22 -24h7q21 0 21 24v46q0 24 -21 24z" />
    <glyph glyph-name="seven" unicode="7" horiz-adv-x="553" 
d="M271 0h-250l199 504h-209v177h528z" />
    <glyph glyph-name="eight" unicode="8" horiz-adv-x="583" 
d="M256 679h72q85 0 145 -54.5t60 -134.5v-34q0 -18 -4.5 -34t-12.5 -28t-17.5 -21t-19.5 -15q30 -16 47 -47.5t17 -64.5v-64q0 -81 -60 -136t-145 -55h-92q-86 0 -146 56t-60 135v64q0 36 19.5 66t45.5 46q-55 31 -55 98v34q2 81 61.5 135t144.5 54zM295 503h-6
q-22 0 -22 -24v-23q0 -23 22 -23h6q22 0 22 23v23q0 24 -22 24zM295 271h-6q-22 0 -22 -24v-56q0 -24 22 -24h6q22 0 22 24v56q0 24 -22 24z" />
    <glyph glyph-name="nine" unicode="9" horiz-adv-x="583" 
d="M246 681h85q69 0 115.5 -24.5t71.5 -79t25 -139.5v-189q0 -121 -78.5 -188t-201.5 -67h-26q-56 0 -166 25v166q86 -13 163 -14h16q27 0 44.5 16.5t17.5 49.5v4q-28 -6 -66 -6h-25q-54 0 -93.5 19t-63.5 62.5t-24 107.5v66q0 88 60 139.5t146 51.5zM295 505h-7
q-21 0 -21 -24v-46q0 -24 21 -24h7q22 0 22 24v46q0 24 -22 24z" />
    <glyph glyph-name="colon" unicode=":" horiz-adv-x="299" 
d="M269 281h-239v186h239v-186zM269 0h-239v186h239v-186z" />
    <glyph glyph-name="semicolon" unicode=";" horiz-adv-x="299" 
d="M269 281h-239v186h239v-186zM269 69l-98 -184h-141l56 109h-56v192h239v-117z" />
    <glyph glyph-name="less" unicode="&#x3c;" horiz-adv-x="506" 
d="M476 343l-226 -60l226 -61v-239l-446 169v262l446 168v-239z" />
    <glyph glyph-name="equal" unicode="=" horiz-adv-x="604" 
d="M574 268h-544v190h544v-190zM574 44h-544v190h544v-190z" />
    <glyph glyph-name="greater" unicode="&#x3e;" horiz-adv-x="506" 
d="M476 414v-262l-446 -169v239l225 61l-225 60v239z" />
    <glyph glyph-name="question" unicode="?" horiz-adv-x="551" 
d="M243 710h73q85 0 145 -54.5t60 -134.5v-19q0 -25 -8.5 -51t-23.5 -49t-37 -43.5t-48 -34.5l-106 -57q-12 -6 -21.5 -20t-9.5 -32v-14h-227v45q0 110 124 175l127 67q6 3 6 13v2q0 15 -14 15h-35q-93 0 -152 -11l-27 165q33 16 84 27t90 11zM275 0h-240v161h240v-161z" />
    <glyph glyph-name="at" unicode="@" horiz-adv-x="814" 
d="M262 674h290q95 0 163.5 -67.5t68.5 -163.5v-102q0 -74 -44.5 -134.5t-113.5 -86.5h-186l-8 19q-44 -25 -93 -25q-48 0 -80 26.5t-33 79.5v3q2 100 133 100q12 0 26 -1q17 -1 25 -3v8q0 23 -28 23q-37 0 -105 -14l-20 112q93 20 150 20q163 0 163 -134v-59h18
q36 20 36 62v106q0 35 -20.5 54t-51.5 19h-290q-32 0 -52 -19t-20 -54v-325q0 -30 21 -51.5t51 -21.5h146q53 0 122 31v-156q-75 -34 -122 -34h-146q-63 0 -116 30.5t-84.5 84t-31.5 117.5v325q0 96 68 163.5t164 67.5zM410 251l-15 1q-20 -1 -20 -14v-18q0 -12 10 -13
q9 0 25 8v36z" />
    <glyph glyph-name="A" unicode="A" horiz-adv-x="753" 
d="M723 0h-263l-17 100h-133l-16 -100h-264l187 700h319zM342 296h69l-34 210z" />
    <glyph glyph-name="B" unicode="B" horiz-adv-x="641" 
d="M40 700h398q76 0 116.5 -43.5t40.5 -121.5v-16q0 -112 -87 -153q108 -31 108 -170v-17q0 -80 -41 -129.5t-116 -49.5h-419v700zM291 515v-84h40q27 0 27 28v27q0 14 -7.5 21.5t-19.5 7.5h-40zM291 280v-84h55q26 0 26 29v27q0 9 -3 15.5t-9 9.5t-14 3h-55z" />
    <glyph glyph-name="C" unicode="C" horiz-adv-x="539" 
d="M315 710h26q77 0 173 -29l-15 -179q-85 11 -159 12h-12q-52 0 -52 -62v-204q0 -62 52 -62h12q74 1 159 12l15 -179q-96 -29 -173 -29h-26q-60 0 -111.5 16t-92 48t-63.5 83.5t-23 117.5v190q0 66 23 117.5t63.5 83.5t92 48t111.5 16z" />
    <glyph glyph-name="D" unicode="D" horiz-adv-x="657" 
d="M50 701h292q125 0 207.5 -67.5t82.5 -197.5v-171q0 -130 -82.5 -197.5t-207.5 -67.5h-292v701zM303 504v-307h25q52 0 52 61v185q0 61 -52 61h-25z" />
    <glyph glyph-name="E" unicode="E" horiz-adv-x="549" 
d="M520 504h-237v-54h207v-196h-207v-58h237v-196h-490v700h490v-196z" />
    <glyph glyph-name="F" unicode="F" horiz-adv-x="542" 
d="M520 504h-237v-63h207v-196h-207v-245h-253v700h490v-196z" />
    <glyph glyph-name="G" unicode="G" horiz-adv-x="648" 
d="M316 710h27q123 0 248 -39l-34 -183q-124 26 -228 26q-53 0 -53 -62v-204q0 -61 48 -61l6 -1q26 0 59 12v50h-61v174h275v-359q-145 -73 -260 -73h-27q-137 0 -214 68t-77 197v190q0 40 8 75t22 61.5t34.5 48t45 36.5t54 25t61 14.5t66.5 4.5z" />
    <glyph glyph-name="H" unicode="H" horiz-adv-x="678" 
d="M638 0h-252v247h-95v-247h-251v700h251v-257h95v257h252v-700z" />
    <glyph glyph-name="I" unicode="I" horiz-adv-x="331" 
d="M291 0h-251v700h251v-700z" />
    <glyph glyph-name="J" unicode="J" horiz-adv-x="461" 
d="M421 701v-446q0 -130 -82.5 -197.5t-207.5 -67.5h-116v197h102q52 0 52 61v453h252z" />
    <glyph glyph-name="K" unicode="K" horiz-adv-x="697" 
d="M478 350l194 -350h-294l-101 228v-228h-247v701h247v-225l93 225h285z" />
    <glyph glyph-name="L" unicode="L" horiz-adv-x="573" 
d="M302 195h246v-195h-498v699h252v-504z" />
    <glyph glyph-name="M" unicode="M" horiz-adv-x="800" 
d="M770 0h-247l-7 245l-49 -115h-132l-49 115l-10 -245h-246l25 700h248l97 -243l93 243h249z" />
    <glyph glyph-name="N" unicode="N" horiz-adv-x="679" 
d="M649 0h-241l-131 268v-268h-247v700h240l131 -273v273h248v-700z" />
    <glyph glyph-name="O" unicode="O" horiz-adv-x="665" 
d="M317 710h28q80 0 145.5 -29.5t107.5 -91t42 -144.5v-190q0 -119 -81.5 -192t-213.5 -73h-28q-137 0 -214.5 73.5t-77.5 191.5v190q0 125 81.5 195t210.5 70zM333 514h-4q-53 -1 -53 -62v-204q0 -61 54 -62h3q25 1 40.5 13.5t15.5 48.5v204q0 61 -56 62z" />
    <glyph glyph-name="P" unicode="P" horiz-adv-x="644" 
d="M50 700h332q114 0 175.5 -65.5t61.5 -183.5v-50q0 -118 -61.5 -183.5t-175.5 -65.5h-81v-152h-251v700zM301 500v-148h40q27 0 27 29v90q0 29 -27 29h-40z" />
    <glyph glyph-name="Q" unicode="Q" horiz-adv-x="689" 
d="M322 710h28q124 0 209.5 -70.5t85.5 -194.5v-190q0 -130 -95 -203l122 -121l-250 -6l-64 65h-22h-14q-137 0 -214.5 73.5t-77.5 191.5v190q0 125 82 195t210 70zM338 514h-4q-53 -1 -53 -62v-204q0 -61 53 -62h4q25 1 40.5 13.5t15.5 48.5v204q0 61 -56 62z" />
    <glyph glyph-name="R" unicode="R" horiz-adv-x="676" 
d="M40 700h333q114 0 175.5 -65.5t61.5 -183.5v-48q0 -116 -61 -182l102 -221h-292l-46 154h-22v-154h-251v700zM292 500v-149h40q27 0 27 28v92q0 29 -27 29h-40z" />
    <glyph glyph-name="S" unicode="S" horiz-adv-x="605" 
d="M30 455v5q0 133 64.5 192t202.5 59q81 0 130 -6t96 -21l-21 -199q-98 25 -194 25q-19 0 -19 -15v-2q0 -13 12 -17l118 -40q66 -23 97 -44t45.5 -55.5t14.5 -96.5l-1 -6q0 -70 -19 -118t-57.5 -75.5t-90.5 -39t-126 -11.5q-144 0 -239 30l19 200q72 -19 123.5 -25.5
t115.5 -5.5q9 0 14.5 5.5t5.5 13.5v9q0 12 -12 16l-129 41q-48 17 -73 30t-44.5 33t-26 47t-6.5 71z" />
    <glyph glyph-name="T" unicode="T" horiz-adv-x="650" 
d="M625 506h-174v-506h-252v506h-174v194h600v-194z" />
    <glyph glyph-name="U" unicode="U" horiz-adv-x="666" 
d="M631 700v-462q0 -55 -16 -98.5t-42.5 -71t-64.5 -45.5t-79 -25.5t-88 -7.5h-24q-63 0 -113.5 13t-90 41.5t-61.5 77.5t-22 116v462h251v-462q0 -19 4.5 -30t13 -15.5t14.5 -5.5t16 -1h4q11 0 17 1t14 5.5t11.5 16t3.5 29.5v462h252z" />
    <glyph glyph-name="V" unicode="V" horiz-adv-x="734" 
d="M541 0h-349l-167 700h264l78 -521l78 521h264z" />
    <glyph glyph-name="W" unicode="W" horiz-adv-x="1054" 
d="M897 0h-317l-52 328l-53 -328h-317l-134 700h264l43 -421l66 421h261l67 -421l43 421h263z" />
    <glyph glyph-name="X" unicode="X" horiz-adv-x="733" 
d="M516 350l207 -350h-263l-94 186l-93 -186h-263l207 350l-207 350h263l93 -187l94 187h263z" />
    <glyph glyph-name="Y" unicode="Y" horiz-adv-x="732" 
d="M492 255v-255h-252v255l-215 445h268l73 -217l73 217h268z" />
    <glyph glyph-name="Z" unicode="Z" horiz-adv-x="651" 
d="M616 613l-258 -417h268v-196h-601v87l258 417h-238v196h571v-87z" />
    <glyph glyph-name="bracketleft" unicode="[" horiz-adv-x="365" 
d="M335 576h-73v-576h73v-174h-305v924h305v-174z" />
    <glyph glyph-name="backslash" unicode="\" horiz-adv-x="505" 
d="M496 -1h-174l-312 701h174z" />
    <glyph glyph-name="bracketright" unicode="]" horiz-adv-x="365" 
d="M335 -174h-305v174h73v576h-73v174h305v-924z" />
    <glyph glyph-name="asciicircum" unicode="^" horiz-adv-x="688" 
d="M658 314h-218l-96 225l-96 -225h-218l213 386h202z" />
    <glyph glyph-name="underscore" unicode="_" horiz-adv-x="684" 
d="M654 -207h-624v168h624v-168z" />
    <glyph glyph-name="grave" unicode="`" horiz-adv-x="363" 
d="M333 531h-169l-134 186h201z" />
    <glyph glyph-name="a" unicode="a" horiz-adv-x="541" 
d="M89 316l-29 163q135 30 218 30q238 0 238 -197v-312h-189l-12 28q-64 -36 -136 -36q-70 0 -116.5 38.5t-47.5 116.5v4q2 145 194 145q18 0 37 -1q25 -2 37 -4v12q0 34 -41 34q-54 0 -153 -21zM283 139v53q-7 1 -20 1q-16 0 -23.5 -4t-7.5 -16v-26q0 -18 14 -19
q14 0 37 11z" />
    <glyph glyph-name="b" unicode="b" 
d="M267 700v-219q46 28 106 28q32 0 60 -9.5t52 -30t38 -56.5t14 -85v-160q0 -77 -49.5 -126.5t-134.5 -49.5q-73 0 -121 36l-10 -28h-187v700h232zM317 197v110q0 24 -24 27q-5 1 -12.5 1t-14.5 -1v-158q16 -7 24 -7t14.5 3.5t9.5 10t3 14.5z" />
    <glyph glyph-name="c" unicode="c" horiz-adv-x="404" 
d="M20 182v132q0 53 19 92t52 60.5t73 32t87 10.5q68 0 138 -19l-15 -170q-49 13 -78 13q-50 0 -49 -41v-87q0 -41 49 -41q29 0 78 13l15 -170q-72 -19 -135 -19q-48 0 -88 10t-74 31.5t-53 60.5t-19 92z" />
    <glyph glyph-name="d" unicode="d" 
d="M522 0h-187l-10 28q-47 -36 -121 -36q-85 0 -134.5 49.5t-49.5 126.5v160q0 49 14 85t37.5 56.5t51.5 30t60 9.5q60 0 107 -29v220h232v-700zM290 176v157q-7 1 -15 1q-36 0 -36 -28v-110q0 -12 7.5 -19.5t19.5 -7.5q8 0 24 7z" />
    <glyph glyph-name="e" unicode="e" horiz-adv-x="524" 
d="M20 187v127q0 51 21.5 90t57.5 61t77 33t85 11q49 0 91.5 -11t77 -33.5t54.5 -61t20 -89.5v-125h-267v-17q0 -22 25 -22q66 0 209 14l27 -147q-120 -24 -212 -24q-266 0 -266 194zM288 300v29q0 22 -26 22q-25 0 -25 -22v-29h51z" />
    <glyph glyph-name="f" unicode="f" horiz-adv-x="416" 
d="M396 532h-75q-6 0 -10 -1t-8 -6.5t-4 -16.5v-8h97v-174h-97v-326h-233v326h-51v174h51v35q0 70 59 121.5t143 51.5h128v-176z" />
    <glyph glyph-name="g" unicode="g" horiz-adv-x="552" 
d="M20 181v150q0 77 49.5 126.5t134.5 49.5q73 0 121 -36l10 28h187v-513q0 -196 -236 -196q-86 0 -220 30l29 154q101 -21 154 -21q41 0 41 34v41q-46 -28 -106 -28q-69 0 -116.5 43.5t-47.5 137.5zM291 166v158q-16 7 -24 7q-12 0 -20 -8t-8 -20v-110q0 -24 24 -27
q4 -1 12 -1t16 1z" />
    <glyph glyph-name="h" unicode="h" 
d="M262 700v-220q47 29 108 29q31 0 59 -9.5t52 -30t37.5 -56.5t13.5 -85v-328h-218v306q0 25 -25 27q-10 2 -27 0v-333h-232v700h232z" />
    <glyph glyph-name="i" unicode="i" horiz-adv-x="305" 
d="M275 539h-240v161h240v-161zM271 0h-232v500h232v-500z" />
    <glyph glyph-name="j" unicode="j" horiz-adv-x="310" 
d="M275 539h-239v161h239v-161zM272 500v-535q0 -70 -59 -122t-143 -52h-70v176h17q6 0 10 1t8 6.5t4 16.5v509h233z" />
    <glyph glyph-name="k" unicode="k" horiz-adv-x="588" 
d="M267 316l66 184h238l-98 -234l105 -266h-237l-74 190v-190h-232v700h232v-384z" />
    <glyph glyph-name="l" unicode="l" horiz-adv-x="297" 
d="M267 0h-232v700h232v-700z" />
    <glyph glyph-name="m" unicode="m" horiz-adv-x="795" 
d="M208 500l9 -28q46 36 118 36q67 0 112 -35q50 35 129 35q90 0 142 -50t52 -130v-328h-208v306q0 25 -23 27q-10 2 -29 0l1 -17v-316h-209v306q0 25 -23 27q-10 2 -28 0v-333h-221v500h178z" />
    <glyph glyph-name="n" unicode="n" 
d="M217 500l10 -28q48 36 121 36q85 0 134.5 -50t49.5 -130v-328h-218v306q0 25 -25 27q-10 2 -27 0v-333h-232v500h187z" />
    <glyph glyph-name="o" unicode="o" horiz-adv-x="544" 
d="M20 187v127q0 51 22.5 90t59.5 61t80 33t89 11q51 0 95 -11t80 -33.5t57 -61t21 -89.5v-127q0 -50 -21 -89t-57.5 -61.5t-80.5 -33.5t-94 -11q-66 0 -121.5 20.5t-92.5 66t-37 108.5zM298 190v121q0 22 -27 22q-25 0 -25 -22v-121q0 -22 25 -22q27 0 27 22z" />
    <glyph glyph-name="p" unicode="p" 
d="M222 500l10 -28q46 36 121 36q56 0 98.5 -23t64 -63t21.5 -90v-151q0 -94 -47 -137.5t-116 -43.5q-60 2 -107 29v-231h-232v702h187zM319 194v110q0 12 -8 20t-20 8q-7 0 -23 -7v-158q6 -1 14 -1q37 0 37 28z" />
    <glyph glyph-name="q" unicode="q" horiz-adv-x="552" 
d="M20 181v151q0 77 49.5 126.5t134.5 49.5q75 0 121 -36l10 28h187v-702h-232v231q-47 -27 -107 -29q-69 0 -116 43.5t-47 137.5zM289 167v158q-16 7 -23 7q-12 0 -20 -8t-8 -20v-110q0 -24 25 -27q4 -1 12 -1t14 1z" />
    <glyph glyph-name="r" unicode="r" horiz-adv-x="373" 
d="M358 324h-73q-23 0 -23 -22v-302h-232v500h187l10 -54q11 15 25.5 26.5t29.5 19.5t30.5 12t30.5 4h15v-184z" />
    <glyph glyph-name="s" unicode="s" horiz-adv-x="458" 
d="M227 507h12q102 -1 169 -19l-13 -146q-67 17 -129 18h-10q-15 0 -15 -11q0 -10 9 -13l85 -27q69 -24 91 -49.5t22 -87.5q0 -99 -55 -138.5t-172 -39.5h-10q-112 1 -185 25l12 142q88 -22 165 -22h7q15 1 15 17q0 11 -9 14l-93 29q-47 16 -67.5 29t-30.5 35.5t-10 64.5
q0 95 51.5 137t160.5 42z" />
    <glyph glyph-name="t" unicode="t" horiz-adv-x="431" 
d="M303 500h98v-174h-98v-136q0 -16 6.5 -20t16.5 -4h75v-176h-128q-84 0 -143 52t-59 122v162h-51v174h51v120h232v-120z" />
    <glyph glyph-name="u" unicode="u" 
d="M527 0h-188l-10 28q-48 -36 -120 -36q-85 0 -134.5 50t-49.5 130v328h219v-306q0 -24 24 -27q4 -1 12 -1t15 1v333h232v-500z" />
    <glyph glyph-name="v" unicode="v" horiz-adv-x="564" 
d="M435 0h-306l-119 500h239l33 -311l33 311h239z" />
    <glyph glyph-name="w" unicode="w" horiz-adv-x="826" 
d="M697 0h-236l-48 143l-48 -143h-237l-118 500h238l32 -286l55 286h155l56 -286l31 286h239z" />
    <glyph glyph-name="x" unicode="x" horiz-adv-x="590" 
d="M452 250l128 -250h-243l-44 128l-44 -128h-239l128 250l-118 250h239l34 -131l34 131h243z" />
    <glyph glyph-name="y" unicode="y" horiz-adv-x="558" 
d="M528 500v-513q0 -196 -236 -196q-86 0 -220 30l29 154q101 -21 153 -21q41 0 41 34v41q-45 -27 -106 -29q-69 0 -116.5 43.5t-47.5 137.5v319h219v-306q0 -24 24 -27q4 -1 12.5 -1t14.5 1v333h233z" />
    <glyph glyph-name="z" unicode="z" horiz-adv-x="497" 
d="M467 387l-181 -222h191v-165h-457v115l183 220h-163v166h427v-114z" />
    <glyph glyph-name="braceleft" unicode="{" horiz-adv-x="470" 
d="M440 587h-67q-9 0 -15 -5.5t-6 -14.5v-190q0 -46 -27 -86q27 -43 27 -83v-188q0 -9 6 -15t15 -6h67v-163h-156q-28 0 -46.5 1.5t-43 9t-39 21.5t-25 41.5t-10.5 65.5v208q0 9 -5.5 14.5t-14.5 5.5h-70v180h70q9 0 14.5 5.5t5.5 14.5v208q0 59 48 99t116 40h156v-163z" />
    <glyph glyph-name="bar" unicode="|" horiz-adv-x="293" 
d="M263 -111h-233v861h233v-861z" />
    <glyph glyph-name="braceright" unicode="}" horiz-adv-x="470" 
d="M30 750h157q67 0 115 -40t48 -99v-208q0 -9 6 -14.5t15 -5.5h69v-179h-69q-9 0 -15 -6t-6 -15v-208q0 -38 -10.5 -65t-25 -41.5t-39 -22t-43 -9t-45.5 -1.5h-157v163h68q9 0 14.5 6t5.5 15v188q0 40 27 83q-27 40 -27 86v190q0 9 -5.5 14.5t-14.5 5.5h-68v163z" />
    <glyph glyph-name="asciitilde" unicode="~" horiz-adv-x="605" 
d="M194 170l-164 24q-3 99 52 165.5t148 66.5q36 0 59.5 -12t46.5 -37q22 -23 40 -23q16 0 25 17.5t9 50.5l165 -16q0 -62 -20.5 -115.5t-64 -89t-101.5 -35.5q-14 0 -27 2.5t-24.5 8.5t-19.5 10t-18.5 13.5t-14 13t-13 14t-10.5 11.5q-15 17 -31 17q-7 0 -13 -5
q-23 -16 -24 -81z" />
    <glyph glyph-name="exclamdown" unicode="&#xa1;" horiz-adv-x="305" 
d="M275 376h-240v161h240v-161zM271 -163h-232l10 500h212z" />
    <glyph glyph-name="cent" unicode="&#xa2;" horiz-adv-x="404" 
d="M283 568v-60q53 -4 106 -18l-15 -170q-49 13 -78 13q-50 0 -49 -41v-87q0 -41 49 -41q29 0 78 13l15 -170q-58 -15 -106 -18v-57h-156v79q-12 5 -23 11q-83 49 -84 160v132q0 119 95 167l12 5v82h156z" />
    <glyph glyph-name="sterling" unicode="&#xa3;" horiz-adv-x="616" 
d="M96 437v58q0 80 62.5 140t155.5 71q10 2 41 2q53 0 113 -13.5t93 -26.5l-23 -167q-70 15 -161 16h-21q-15 0 -21 -4.5t-6 -17.5v-58h131v-190h-131v-57h247v-190h-526v190h46v57h-46v190h46z" />
    <glyph glyph-name="currency" unicode="&#xa4;" horiz-adv-x="600" 
 />
    <glyph glyph-name="yen" unicode="&#xa5;" horiz-adv-x="732" 
d="M610 499h38v-190h-130l-17 -35h147v-189h-156v-85h-252v85h-156v189h147l-17 35h-130v190h38l-97 201h268l73 -217l73 217h268z" />
    <glyph glyph-name="brokenbar" unicode="&#xa6;" horiz-adv-x="293" 
d="M263 396h-233v354h233v-354zM263 -111h-233v354h233v-354z" />
    <glyph glyph-name="section" unicode="&#xa7;" horiz-adv-x="539" 
d="M30 485v5q0 116 56.5 168t178.5 52q69 0 111 -5t88 -18l-19 -175q-86 22 -170 22q-17 0 -17 -13v-2q0 -11 10 -15l104 -35q58 -20 85 -38.5t39.5 -49t12.5 -84.5v-5q-1 -81 -29 -128q29 -34 29 -114v-5q-1 -120 -63.5 -167.5t-193.5 -47.5q-124 0 -210 26l16 176
q111 -29 211 -27q7 0 12 4.5t5 12.5v7q0 11 -10 14l-114 36q-42 16 -64 27t-39 29t-23 41.5t-6 61.5v5q0 85 31 136q-30 30 -31 106zM284 285l-21 11q-14 -3 -14 -16v-3q0 -10 10 -15l26 -14l2 -1q9 6 9 17v3q0 12 -12 18z" />
    <glyph glyph-name="dieresis" unicode="&#xa8;" horiz-adv-x="425" 
d="M181 563h-151v154h151v-154zM395 563h-151v154h151v-154z" />
    <glyph glyph-name="copyright" unicode="&#xa9;" horiz-adv-x="780" 
d="M390 710q73 0 139.5 -28.5t115 -76.5t77 -115t28.5 -140q0 -98 -48.5 -181t-131 -131t-180.5 -48t-181 48t-131 131t-48 181q0 73 28.5 140t76.5 115t115 76.5t140 28.5zM389.5 585q-95.5 0 -164.5 -69t-69 -164.5t69 -164t165 -68.5t164.5 68.5t68.5 164t-69 164.5
t-164.5 69zM384 535h14q39 0 89 -15l-9 -92q-43 5 -81 6h-6q-27 0 -27 -32v-104q0 -32 27 -32h6q38 1 81 6l9 -92q-50 -15 -89 -15h-14q-64 0 -106 35t-42 101v98q0 34 11.5 60.5t32.5 42.5t47.5 24.5t56.5 8.5z" />
    <glyph glyph-name="ordfeminine" unicode="&#xaa;" horiz-adv-x="394" 
d="M79 577l-19 109q90 20 145 20q159 0 159 -131v-208h-126l-8 19q-43 -25 -91 -25q-30 0 -53.5 10.5t-39 34.5t-16.5 59v3q2 96 129 96q12 0 25 -1q17 -1 25 -2v8q0 22 -28 22q-36 0 -102 -14zM209 495h-20q-6 -1 -9 -2t-4 -3.5t-1 -7.5v-18q0 -12 10 -12q9 0 24 8v35z" />
    <glyph glyph-name="guillemotleft" unicode="&#xab;" horiz-adv-x="606" 
d="M275 312l-50 -39l50 -39v-187l-245 194v65l245 193v-187zM566 312l-50 -39l50 -39v-187l-244 194v65l244 193v-187z" />
    <glyph glyph-name="logicalnot" unicode="&#xac;" horiz-adv-x="913" 
 />
    <glyph glyph-name="registered" unicode="&#xae;" horiz-adv-x="780" 
d="M390 710q73 0 139.5 -28.5t115 -76.5t77 -115t28.5 -140q0 -98 -48.5 -181t-131 -131t-180.5 -48t-181 48t-131 131t-48 181q0 73 28.5 140t76.5 115t115 76.5t140 28.5zM389.5 585q-95.5 0 -164.5 -69t-69 -164.5t69 -164t165 -68.5t164.5 68.5t68.5 164t-69 164.5
t-164.5 69zM250 520h158q54 0 83 -31t29 -87v-23q0 -55 -29 -86l48 -105h-138l-22 73h-10v-73h-119v332zM369 425v-71h19q13 0 13 14v43q0 14 -13 14h-19z" />
    <glyph glyph-name="macron" unicode="&#xaf;" horiz-adv-x="409" 
d="M379 566h-349v134h349v-134z" />
    <glyph glyph-name="degree" unicode="&#xb0;" horiz-adv-x="348" 
d="M174 750q65 0 104.5 -40t39.5 -105q0 -64 -40 -103.5t-104 -39.5t-104 39.5t-40 103.5q0 65 40 105t104 40zM174 640q-10 0 -17.5 -4.5t-12 -12.5t-4.5 -18q0 -14 9.5 -22.5t24.5 -8.5q14 0 23.5 8.5t9.5 22.5q0 15 -9.5 25t-23.5 10z" />
    <glyph glyph-name="plusminus" unicode="&#xb1;" horiz-adv-x="604" 
d="M397 553h177v-190h-177v-132h-190v132h-177v190h177v132h190v-132zM574 0h-544v191h544v-191z" />
    <glyph glyph-name="twosuperior" unicode="&#xb2;" horiz-adv-x="346" 
d="M161 706h39q47 0 80 -30t33 -74v-10q0 -28 -17.5 -55t-47.5 -43l-56 -31q-15 -8 -15 -25v-6h136v-97h-264v120q0 60 68 96l65 34q4 3 4 6v2q0 4 -6 4h-17q-52 0 -84 -6l-15 93q17 9 46 15.5t51 6.5z" />
    <glyph glyph-name="threesuperior" unicode="&#xb3;" horiz-adv-x="354" 
d="M153 706h40q47 0 80 -30t33 -75v-18q0 -32 -26 -53q32 -21 32 -60v-34q0 -45 -33.5 -76t-80.5 -31h-45q-14 0 -32 3.5t-35.5 9t-28.5 12.5l15 87q39 -10 92 -10h11q8 0 8 9v31q0 9 -8 9h-50v93h50q8 0 8 10v12q0 10 -8 10h-11q-61 0 -93 -8l-15 87q11 6 28.5 11t36 8
t32.5 3z" />
    <glyph glyph-name="acute" unicode="&#xb4;" horiz-adv-x="363" 
d="M199 532h-169l102 185h201z" />
    <glyph glyph-name="paragraph" unicode="&#xb6;" horiz-adv-x="776" 
d="M746 511h-30v-674h-233v674h-40v-674h-233v382l-9 1q-81 14 -131 72.5t-50 127.5v76q0 80 63.5 142t160.5 62h502v-189z" />
    <glyph glyph-name="periodcentered" unicode="&#xb7;" horiz-adv-x="299" 
d="M269 211h-239v186h239v-186z" />
    <glyph glyph-name="cedilla" unicode="&#xb8;" horiz-adv-x="287" 
d="M161 -18h5q37 0 64 -29.5t27 -67.5v-20q0 -47 -31 -77.5t-74 -30.5h-122v108h113q11 0 11 9v2q0 9 -11 9h-73v117h91v-20z" />
    <glyph glyph-name="onesuperior" unicode="&#xb9;" horiz-adv-x="265" 
d="M235 335h-126v240l-34 -7l-32 102l99 30h93v-365z" />
    <glyph glyph-name="ordmasculine" unicode="&#xba;" horiz-adv-x="396" 
d="M30 492v84q0 45 26.5 75.5t63 42.5t78.5 12q26 0 50.5 -4.5t46 -14.5t37.5 -24.5t25 -36.5t9 -50v-84q0 -45 -25 -75.5t-61.5 -43t-81.5 -12.5q-69 0 -118.5 34t-49.5 97zM215 493v81q0 15 -17 15t-17 -15v-81q0 -14 17 -14t17 14z" />
    <glyph glyph-name="guillemotright" unicode="&#xbb;" horiz-adv-x="606" 
d="M285 306v-65l-245 -194v187l50 39l-50 39v187zM576 306v-65l-244 -194v187l50 39l-50 39v187z" />
    <glyph glyph-name="onequarter" unicode="&#xbc;" horiz-adv-x="719" 
d="M243 -18h-154l327 735h153zM214 335h-126v240l-34 -7l-32 102l98 30h94v-365zM514 168h19l31 82h85v-82h35v-109h-35v-59h-120v59h-152v65l90 241h123z" />
    <glyph glyph-name="onehalf" unicode="&#xbd;" horiz-adv-x="735" 
d="M270 -18h-154l327 735h153zM240 335h-126v240l-34 -7l-32 102l100 30h92v-365zM562 371h39q47 0 80 -29.5t33 -74.5v-10q0 -28 -17.5 -55t-47.5 -43l-56 -30q-15 -8 -15 -25v-6h136v-98h-265v120q0 61 69 96l65 35q4 2 4 5v2q0 5 -6 5h-17q-52 0 -84 -7l-15 94
q17 8 46 14.5t51 6.5z" />
    <glyph glyph-name="threequarters" unicode="&#xbe;" horiz-adv-x="757" 
d="M281 -18h-154l327 735h153zM126 706h39q47 0 80.5 -30t33.5 -75v-18q0 -32 -27 -53q32 -21 32 -60v-34q0 -45 -33.5 -76t-80.5 -31h-44q-23 0 -52 7.5t-45 17.5l15 87q39 -10 92 -10h11q8 0 8 9v31q0 9 -8 9h-50v93h50q8 0 8 10v12q0 10 -8 10h-10q-61 0 -93 -8l-16 87
q17 9 46.5 15.5t51.5 6.5zM543 168h19l31 82h86v-82h35v-109h-35v-59h-120v59h-153v65l90 241h123z" />
    <glyph glyph-name="questiondown" unicode="&#xbf;" horiz-adv-x="551" 
d="M516 378h-240v161h240v-161zM510 338v-45q1 -110 -123 -175l-127 -67q-6 -3 -7 -13v-2q1 -15 15 -15h35q93 0 151 11l28 -165q-33 -16 -84 -27t-90 -11h-73q-85 0 -145 54.5t-60 134.5v19q0 51 31.5 100t85.5 78l106 57q31 17 31 52v14h226z" />
    <glyph glyph-name="Agrave" unicode="&#xc0;" horiz-adv-x="753" 
d="M509 731h-169l-134 186h201zM723 0h-263l-17 100h-133l-16 -100h-264l187 700h319zM342 296h69l-34 211z" />
    <glyph glyph-name="Aacute" unicode="&#xc1;" horiz-adv-x="753" 
d="M396 732h-169l102 185h201zM723 0h-263l-17 100h-133l-16 -100h-264l187 700h319zM342 296h69l-34 211z" />
    <glyph glyph-name="Acircumflex" unicode="&#xc2;" horiz-adv-x="753" 
d="M617 732h-196l-42 52l-42 -53h-197l171 186h133zM723 0h-263l-17 100h-133l-16 -100h-264l187 700h319zM342 296h69l-34 211z" />
    <glyph glyph-name="Atilde" unicode="&#xc3;" horiz-adv-x="753" 
d="M499 933l88 -95q-86 -91 -161 -91q-30 0 -56 16q-7 4 -15.5 11t-14.5 10.5t-13 3.5q-10 0 -27 -11.5t-29 -22.5l-12 -11l-89 95q35 36 77.5 62.5t75.5 29.5q8 0 14.5 -0.5t11.5 -1t11 -3t9 -3.5t8.5 -4.5t7.5 -4.5t8 -5t7 -5q17 -11 30 -11q7 0 14 2.5t15.5 8.5t14 10
t15 11.5t10.5 8.5zM723 0h-263l-17 100h-133l-16 -100h-264l187 700h319zM342 296h69l-34 210z" />
    <glyph glyph-name="Adieresis" unicode="&#xc4;" horiz-adv-x="753" 
d="M346 763h-151v154h151v-154zM560 763h-151v154h151v-154zM723 0h-263l-17 100h-133l-16 -100h-264l187 700h319zM342 296h69l-34 211z" />
    <glyph glyph-name="Aring" unicode="&#xc5;" horiz-adv-x="753" 
d="M377 951q49 0 84 -34.5t35 -80.5q0 -51 -34.5 -85t-84.5 -34q-49 0 -82.5 34t-33.5 85q0 46 34 80.5t82 34.5zM377 861q-11 0 -18 -7.5t-7 -17.5t7 -17.5t18 -7.5t18 7.5t7 17.5t-7 17.5t-18 7.5zM723 0h-263l-17 100h-133l-16 -100h-264l187 700h319zM342 296h69
l-34 211z" />
    <glyph glyph-name="AE" unicode="&#xc6;" horiz-adv-x="897" 
d="M867 504h-237v-54h207v-196h-207v-58h237v-196h-490v100h-67l-16 -100h-264l187 700h650v-196zM332 296h55l-10 211z" />
    <glyph glyph-name="Ccedilla" unicode="&#xc7;" horiz-adv-x="539" 
d="M315 710h26q77 0 173 -29l-15 -179q-85 11 -159 12h-12q-52 0 -52 -62v-204q0 -62 52 -62h12q74 1 159 12l15 -179q-96 -29 -173 -29h-26q-15 0 -42 2v-10h5q37 0 64 -29.5t27 -67.5v-20q0 -47 -31 -77.5t-74 -30.5h-122v108h113q11 0 11 9v2q0 9 -11 9h-73v128
q-73 29 -115 90t-42 152v190q0 66 23 117.5t63.5 83.5t92 48t111.5 16z" />
    <glyph glyph-name="Egrave" unicode="&#xc8;" horiz-adv-x="549" 
d="M399 731h-169l-134 186h201zM520 504h-237v-54h207v-196h-207v-58h237v-196h-490v700h490v-196z" />
    <glyph glyph-name="Eacute" unicode="&#xc9;" horiz-adv-x="549" 
d="M286 732h-169l102 185h201zM520 504h-237v-54h207v-196h-207v-58h237v-196h-490v700h490v-196z" />
    <glyph glyph-name="Ecircumflex" unicode="&#xca;" horiz-adv-x="549" 
d="M507 732h-196l-42 52l-42 -53h-197l171 186h133zM520 504h-237v-54h207v-196h-207v-58h237v-196h-490v700h490v-196z" />
    <glyph glyph-name="Edieresis" unicode="&#xcb;" horiz-adv-x="549" 
d="M236 763h-151v154h151v-154zM450 763h-151v154h151v-154zM520 504h-237v-54h207v-196h-207v-58h237v-196h-490v700h490v-196z" />
    <glyph glyph-name="Igrave" unicode="&#xcc;" horiz-adv-x="331" 
d="M297 731h-169l-134 186h201zM291 0h-251v700h251v-700z" />
    <glyph glyph-name="Iacute" unicode="&#xcd;" horiz-adv-x="331" 
d="M183 732h-169l102 185h201zM291 0h-251v700h251v-700z" />
    <glyph glyph-name="Icircumflex" unicode="&#xce;" horiz-adv-x="331" 
d="M404 732h-196l-42 52l-42 -53h-197l171 186h133zM291 0h-251v700h251v-700z" />
    <glyph glyph-name="Idieresis" unicode="&#xcf;" horiz-adv-x="331" 
d="M133 763h-151v154h151v-154zM347 763h-151v154h151v-154zM291 0h-251v700h251v-700z" />
    <glyph glyph-name="Eth" unicode="&#xd0;" horiz-adv-x="657" 
d="M50 701h292q125 0 207.5 -67.5t82.5 -197.5v-171q0 -130 -82.5 -197.5t-207.5 -67.5h-292v285h-50v131h50v285zM303 504v-88h44v-131h-44v-88h25q52 0 52 61v185q0 61 -52 61h-25z" />
    <glyph glyph-name="Ntilde" unicode="&#xd1;" horiz-adv-x="679" 
d="M460 933l88 -95q-86 -91 -161 -91q-30 0 -56 16q-3 2 -6.5 4.5t-6 4.5t-5.5 4t-5 3.5t-4.5 3t-5 2.5l-5 2t-5.5 1q-10 0 -27 -11.5t-29 -22.5l-12 -11l-88 95q35 36 77 62.5t76 29.5q7 0 13.5 -0.5t11.5 -1t11 -3t9 -3.5t9 -4.5t7.5 -4.5l7.5 -5t7 -5q17 -11 31 -11
q5 0 11.5 2.5t12 5.5t12.5 8t11.5 9t11.5 9.5t9 6.5zM649 0h-241l-131 268v-268h-247v700h240l131 -273v273h248v-700z" />
    <glyph glyph-name="Ograve" unicode="&#xd2;" horiz-adv-x="665" 
d="M463 731h-169l-134 186h201zM317 710h28q80 0 145.5 -29.5t107.5 -91t42 -144.5v-190q0 -119 -81.5 -192t-213.5 -73h-28q-137 0 -214.5 73.5t-77.5 191.5v190q0 125 81.5 195t210.5 70zM333 514h-4q-53 -1 -53 -62v-204q0 -61 54 -62h3q25 1 40.5 13.5t15.5 48.5v204
q0 61 -56 62z" />
    <glyph glyph-name="Oacute" unicode="&#xd3;" horiz-adv-x="665" 
d="M350 732h-169l102 185h201zM317 710h28q80 0 145.5 -29.5t107.5 -91t42 -144.5v-190q0 -119 -81.5 -192t-213.5 -73h-28q-137 0 -214.5 73.5t-77.5 191.5v190q0 125 81.5 195t210.5 70zM333 514h-4q-53 -1 -53 -62v-204q0 -61 54 -62h3q25 1 40.5 13.5t15.5 48.5v204
q0 61 -56 62z" />
    <glyph glyph-name="Ocircumflex" unicode="&#xd4;" horiz-adv-x="665" 
d="M571 732h-196l-42 52l-42 -53h-197l171 186h133zM317 710h28q80 0 145.5 -29.5t107.5 -91t42 -144.5v-190q0 -119 -81.5 -192t-213.5 -73h-28q-137 0 -214.5 73.5t-77.5 191.5v190q0 84 39 144.5t104 90.5t149 30zM333 514h-4q-53 -1 -53 -62v-204q0 -61 54 -62h3
q25 1 40.5 13.5t15.5 48.5v204q0 61 -56 62z" />
    <glyph glyph-name="Otilde" unicode="&#xd5;" horiz-adv-x="665" 
d="M452 933l89 -95q-86 -91 -162 -91q-29 0 -55 16q-7 4 -15.5 11t-14.5 10.5t-13 3.5q-11 0 -28 -11.5t-29 -22.5l-12 -11l-88 95q35 36 77.5 62.5t75.5 29.5h12t11.5 -1t9.5 -2t9 -3.5t8 -3.5t7.5 -4t6.5 -4t6.5 -4.5t6.5 -4.5q17 -11 30 -11q6 0 13.5 2.5t16 8.5t14 10
t14.5 11.5t10 8.5zM317 710h28q80 0 145.5 -29.5t107.5 -91t42 -144.5v-190q0 -119 -81.5 -192t-213.5 -73h-28q-137 0 -214.5 73.5t-77.5 191.5v190q0 84 39 144.5t104 90.5t149 30zM333 514h-4q-53 -1 -53 -62v-204q0 -61 54 -62h3q25 1 40.5 13.5t15.5 48.5v204
q0 61 -56 62z" />
    <glyph glyph-name="Odieresis" unicode="&#xd6;" horiz-adv-x="665" 
d="M300 763h-151v154h151v-154zM514 763h-151v154h151v-154zM317 710h28q80 0 145.5 -29.5t107.5 -91t42 -144.5v-190q0 -119 -81.5 -192t-213.5 -73h-28q-137 0 -214.5 73.5t-77.5 191.5v190q0 125 81.5 195t210.5 70zM333 514h-4q-53 -1 -53 -62v-204q0 -61 54 -62h3
q25 1 40.5 13.5t15.5 48.5v204q0 61 -56 62z" />
    <glyph glyph-name="multiply" unicode="&#xd7;" horiz-adv-x="579" 
d="M549 411l-124 -125l124 -125l-134 -135l-125 125l-125 -125l-135 135l125 125l-125 125l135 135l125 -125l125 125z" />
    <glyph glyph-name="Oslash" unicode="&#xd8;" horiz-adv-x="705" 
d="M614 750l-46 -105q92 -74 92 -200v-190q0 -119 -81.5 -192t-213.5 -73h-28q-30 0 -58 4l-19 -44h-169l46 102q-92 72 -92 203v190q0 125 82 195t210 70h28q32 0 62 -5l20 45h167zM296 411l46 102q-46 -5 -46 -61v-41zM409 288l-44 -101q44 5 44 61v40z" />
    <glyph glyph-name="Ugrave" unicode="&#xd9;" horiz-adv-x="666" 
d="M459 731h-169l-134 186h201zM631 700v-462q0 -55 -16 -98.5t-42.5 -71t-64.5 -45.5t-79 -25.5t-88 -7.5h-24q-63 0 -113.5 13t-90 41.5t-61.5 77.5t-22 116v462h251v-462q0 -19 4.5 -30t13 -15.5t14.5 -5.5t16 -1h4q11 0 17 1t14 5.5t11.5 16t3.5 29.5v462h252z" />
    <glyph glyph-name="Uacute" unicode="&#xda;" horiz-adv-x="666" 
d="M346 732h-169l102 185h201zM631 700v-462q0 -55 -16 -98.5t-42.5 -71t-64.5 -45.5t-79 -25.5t-88 -7.5h-24q-63 0 -113.5 13t-90 41.5t-61.5 77.5t-22 116v462h251v-462q0 -19 4.5 -30t13 -15.5t14.5 -5.5t16 -1h4q11 0 17 1t14 5.5t11.5 16t3.5 29.5v462h252z" />
    <glyph glyph-name="Ucircumflex" unicode="&#xdb;" horiz-adv-x="666" 
d="M567 732h-196l-43 52l-41 -53h-197l171 186h133zM631 700v-462q0 -55 -16 -98.5t-42.5 -71t-64.5 -45.5t-79 -25.5t-88 -7.5h-24q-50 0 -92 8t-78.5 26.5t-62 46.5t-40 70.5t-14.5 96.5v462h251v-462q0 -19 4.5 -30t13 -15.5t14.5 -5.5t16 -1h4q11 0 17 1t14 5.5t11.5 16
t3.5 29.5v462h252z" />
    <glyph glyph-name="Udieresis" unicode="&#xdc;" horiz-adv-x="666" 
d="M296 763h-151v154h151v-154zM510 763h-151v154h151v-154zM631 700v-462q0 -55 -16 -98.5t-42.5 -71t-64.5 -45.5t-79 -25.5t-88 -7.5h-24q-63 0 -113.5 13t-90 41.5t-61.5 77.5t-22 116v462h251v-462q0 -19 4.5 -30t13 -15.5t14.5 -5.5t16 -1h4q11 0 17 1t14 5.5t11.5 16
t3.5 29.5v462h252z" />
    <glyph glyph-name="Yacute" unicode="&#xdd;" horiz-adv-x="732" 
d="M384 732h-169l102 185h201zM492 255v-255h-252v255l-215 445h268l73 -217l73 217h268z" />
    <glyph glyph-name="Thorn" unicode="&#xde;" horiz-adv-x="659" 
d="M301 624h81q114 0 175.5 -65.5t61.5 -183.5v-50q0 -118 -61.5 -183.5t-175.5 -65.5h-81v-76h-251v700h251v-76zM301 424v-148h40q27 0 27 29v90q0 29 -27 29h-40z" />
    <glyph glyph-name="germandbls" unicode="&#xdf;" horiz-adv-x="635" 
d="M259 708h133q87 0 147 -56t61 -136v-45q0 -31 -14 -56t-28 -34l-13 -9q7 -4 18 -12t29 -37t18 -65v-71q0 -81 -60 -137.5t-148 -56.5h-110v174h77q24 0 24 26v69q0 26 -24 26h-39v156h39q24 0 24 26v36q0 26 -24 26h-87q-24 0 -24 -26v-506h-208v516q2 80 62 136t147 56z
" />
    <glyph glyph-name="agrave" unicode="&#xe0;" horiz-adv-x="541" 
d="M404 531h-169l-134 186h201zM89 316l-29 163q135 30 218 30q238 0 238 -197v-312h-189l-12 28q-64 -36 -136 -36q-70 0 -116.5 38.5t-47.5 116.5v4q2 145 194 145q18 0 37 -1q25 -2 37 -4v12q0 34 -41 34q-54 0 -153 -21zM283 139v53q-7 1 -20 1q-16 0 -23.5 -4t-7.5 -16
v-26q0 -18 14 -19q14 0 37 11z" />
    <glyph glyph-name="aacute" unicode="&#xe1;" horiz-adv-x="541" 
d="M291 532h-169l102 185h201zM89 316l-29 163q135 30 218 30q238 0 238 -197v-312h-189l-12 28q-64 -36 -136 -36q-70 0 -116.5 38.5t-47.5 116.5v4q2 145 194 145q18 0 37 -1q25 -2 37 -4v12q0 34 -41 34q-54 0 -153 -21zM283 139v53q-7 1 -20 1q-16 0 -23.5 -4t-7.5 -16
v-26q0 -18 14 -19q14 0 37 11z" />
    <glyph glyph-name="acircumflex" unicode="&#xe2;" horiz-adv-x="541" 
d="M512 532h-196l-43 52l-41 -53h-197l171 186h133zM89 316l-29 163q135 30 218 30q238 0 238 -197v-312h-189l-12 28q-64 -36 -136 -36q-70 0 -116.5 38.5t-47.5 116.5v4q2 145 194 145q18 0 37 -1q25 -2 37 -4v12q0 34 -41 34q-54 0 -153 -21zM283 139v53q-7 1 -20 1
q-16 0 -23.5 -4t-7.5 -16v-26q0 -18 14 -19q14 0 37 11z" />
    <glyph glyph-name="atilde" unicode="&#xe3;" horiz-adv-x="541" 
d="M393 733l89 -95q-87 -91 -162 -91q-30 0 -55 16q-8 4 -16.5 11t-14 10.5t-13.5 3.5q-10 0 -27 -11.5t-29 -22.5l-12 -11l-88 95q35 36 77.5 62.5t75.5 29.5h12t11.5 -1t9.5 -2t8.5 -3.5t7.5 -3.5t7.5 -4t7 -4t7 -4.5t5.5 -4.5q17 -11 31 -11q6 0 13 2.5t16 8.5t14 10
t14.5 11.5t10.5 8.5zM89 316l-29 163q135 30 218 30q238 0 238 -197v-312h-189l-12 28q-64 -36 -136 -36q-70 0 -116.5 38.5t-47.5 116.5v4q2 145 194 145q18 0 37 -1q25 -2 37 -4v12q0 34 -41 34q-54 0 -153 -21zM283 139v53q-6 1 -20 1q-16 0 -23.5 -4t-7.5 -16v-26
q0 -18 14 -19q14 0 37 11z" />
    <glyph glyph-name="adieresis" unicode="&#xe4;" horiz-adv-x="541" 
d="M241 563h-151v154h151v-154zM455 563h-151v154h151v-154zM89 316l-29 163q135 30 218 30q238 0 238 -197v-312h-189l-12 28q-64 -36 -136 -36q-70 0 -116.5 38.5t-47.5 116.5v4q2 145 194 145q18 0 37 -1q25 -2 37 -4v12q0 34 -41 34q-54 0 -153 -21zM283 139v53
q-7 1 -20 1q-16 0 -23.5 -4t-7.5 -16v-26q0 -18 14 -19q14 0 37 11z" />
    <glyph glyph-name="aring" unicode="&#xe5;" horiz-adv-x="541" 
d="M272 751q24 0 46.5 -9.5t38 -25.5t25 -37t9.5 -43q0 -51 -34.5 -85t-84.5 -34q-49 0 -82.5 34t-33.5 85q0 46 34 80.5t82 34.5zM272 661q-10 0 -17.5 -7.5t-7.5 -17.5t7.5 -17.5t17.5 -7.5t17.5 7.5t7.5 17.5t-7.5 17.5t-17.5 7.5zM89 316l-29 163q135 30 218 30
q238 0 238 -197v-312h-189l-12 28q-64 -36 -136 -36q-70 0 -116.5 38.5t-47.5 116.5v4q2 145 194 145q18 0 37 -1q25 -2 37 -4v12q0 34 -41 34q-54 0 -153 -21zM283 139v53q-7 1 -20 1q-16 0 -23.5 -4t-7.5 -16v-26q0 -18 14 -19q14 0 37 11z" />
    <glyph glyph-name="ae" unicode="&#xe6;" horiz-adv-x="913" 
d="M89 316l-29 163q135 30 218 30q130 0 189 -60q68 60 183 60q48 0 90.5 -11t77 -33.5t55 -61t20.5 -89.5v-118h-268v-24q0 -22 25 -22q66 0 209 14l27 -147q-120 -24 -212 -24q-96 0 -158 26v-19h-189l-12 28q-64 -36 -136 -36q-70 0 -116.5 38.5t-47.5 116.5v4
q2 145 194 145q18 0 37 -1q25 -2 37 -4v12q0 34 -41 34q-54 0 -153 -21zM676 291v38q0 22 -26 22q-25 0 -25 -22v-38h51zM283 139v53q-6 1 -20 1q-16 0 -23.5 -4t-7.5 -16v-26q0 -18 14 -19q14 0 37 11z" />
    <glyph glyph-name="ccedilla" unicode="&#xe7;" horiz-adv-x="404" 
d="M20 182v132q0 53 19 92t52 60.5t73 32t87 10.5q68 0 138 -19l-15 -170q-49 13 -78 13q-50 0 -49 -41v-87q0 -41 49 -41q29 0 78 13l15 -170q-62 -16 -120 -19h-6v-6h5q37 0 64 -29.5t27 -67.5v-20q0 -47 -31 -77.5t-74 -30.5h-122v108h113q11 0 11 9v2q0 9 -11 9h-73v111
q-69 16 -110.5 61.5t-41.5 124.5z" />
    <glyph glyph-name="egrave" unicode="&#xe8;" horiz-adv-x="524" 
d="M391 531h-169l-134 186h201zM20 187v127q0 51 21.5 90t57.5 61t77 33t85 11q49 0 91.5 -11t77 -33.5t54.5 -61t20 -89.5v-125h-267v-17q0 -22 25 -22q66 0 209 14l27 -147q-120 -24 -212 -24q-266 0 -266 194zM288 300v29q0 22 -26 22q-25 0 -25 -22v-29h51z" />
    <glyph glyph-name="eacute" unicode="&#xe9;" horiz-adv-x="524" 
d="M278 532h-169l102 185h201zM20 187v127q0 51 21.5 90t57.5 61t77 33t85 11q49 0 91.5 -11t77 -33.5t54.5 -61t20 -89.5v-125h-267v-17q0 -22 25 -22q66 0 209 14l27 -147q-120 -24 -212 -24q-266 0 -266 194zM288 300v29q0 22 -26 22q-25 0 -25 -22v-29h51z" />
    <glyph glyph-name="ecircumflex" unicode="&#xea;" horiz-adv-x="524" 
d="M498 532h-196l-42 52l-42 -53h-197l172 186h133zM20 187v127q0 51 21.5 90t57.5 61t77 33t85 11q49 0 91.5 -11t77 -33.5t54.5 -61t20 -89.5v-125h-267v-17q0 -22 25 -22q66 0 209 14l27 -147q-120 -24 -212 -24q-266 0 -266 194zM288 300v29q0 22 -26 22q-25 0 -25 -22
v-29h51z" />
    <glyph glyph-name="edieresis" unicode="&#xeb;" horiz-adv-x="524" 
d="M227 563h-150v154h150v-154zM441 563h-151v154h151v-154zM20 187v127q0 51 21.5 90t57.5 61t77 33t85 11q49 0 91.5 -11t77 -33.5t54.5 -61t20 -89.5v-125h-267v-17q0 -22 25 -22q66 0 209 14l27 -147q-120 -24 -212 -24q-266 0 -266 194zM288 300v29q0 22 -26 22
q-25 0 -25 -22v-29h51z" />
    <glyph glyph-name="igrave" unicode="&#xec;" horiz-adv-x="311" 
d="M289 531h-169l-134 186h201zM271 0h-232v500h232v-500z" />
    <glyph glyph-name="iacute" unicode="&#xed;" horiz-adv-x="311" 
d="M176 532h-169l102 185h201zM271 0h-232v500h232v-500z" />
    <glyph glyph-name="icircumflex" unicode="&#xee;" horiz-adv-x="311" 
d="M397 532h-196l-42 52l-42 -53h-197l171 186h133zM271 0h-232v500h232v-500z" />
    <glyph glyph-name="idieresis" unicode="&#xef;" horiz-adv-x="311" 
d="M126 563h-151v154h151v-154zM340 563h-151v154h151v-154zM271 0h-232v500h232v-500z" />
    <glyph glyph-name="eth" unicode="&#xf0;" horiz-adv-x="561" 
d="M543 684l-56 -44q56 -65 56 -165v-290q0 -82 -61.5 -136.5t-150.5 -54.5h-85q-57 0 -104.5 25t-74.5 69t-27 97v66q0 80 59 134t143 55h10q33 0 60 -6v69l-54 -42l-60 75l52 41h-11q-79 -1 -168 -14v142q110 25 166 25h26q83 0 147 -31l75 58zM317 194v46q0 24 -22 24h-7
q-21 0 -21 -24v-46q0 -24 21 -24h7q22 0 22 24z" />
    <glyph glyph-name="ntilde" unicode="&#xf1;" 
d="M401 733l89 -95q-87 -91 -162 -91q-30 0 -56 16q-7 4 -15.5 11t-14.5 10.5t-13 3.5q-10 0 -27 -11.5t-29 -22.5l-12 -11l-88 95q35 36 77 62.5t76 29.5q7 0 13.5 -0.5t11.5 -1t11 -3t9 -3.5t9 -4.5t7.5 -4.5l7.5 -5t7 -5q17 -11 31 -11q6 0 13 2.5t15.5 8.5t14 10
t15 11.5t10.5 8.5zM217 500l10 -28q48 36 121 36q85 0 134.5 -50t49.5 -130v-328h-218v306q0 25 -25 27q-10 2 -27 0v-333h-232v500h187z" />
    <glyph glyph-name="ograve" unicode="&#xf2;" horiz-adv-x="544" 
d="M400 531h-169l-134 186h201zM20 187v127q0 67 39.5 112.5t94 64t117.5 18.5q108 0 180.5 -48t72.5 -147v-127q0 -98 -73.5 -146.5t-179.5 -48.5q-103 0 -177 51t-74 144zM298 190v121q0 22 -27 22q-25 0 -25 -22v-121q0 -22 25 -22q27 0 27 22z" />
    <glyph glyph-name="oacute" unicode="&#xf3;" horiz-adv-x="544" 
d="M287 532h-169l102 185h201zM20 187v127q0 67 39.5 112.5t94 64t117.5 18.5q108 0 180.5 -48t72.5 -147v-127q0 -98 -73.5 -146.5t-179.5 -48.5q-103 0 -177 51t-74 144zM298 190v121q0 22 -27 22q-25 0 -25 -22v-121q0 -22 25 -22q27 0 27 22z" />
    <glyph glyph-name="ocircumflex" unicode="&#xf4;" horiz-adv-x="544" 
d="M508 532h-196l-42 52l-42 -53h-197l171 186h133zM20 187v127q0 67 39.5 112.5t94 64t117.5 18.5q108 0 180.5 -48t72.5 -147v-127q0 -98 -73.5 -146.5t-179.5 -48.5q-103 0 -177 51t-74 144zM298 190v121q0 22 -27 22q-25 0 -25 -22v-121q0 -22 25 -22q27 0 27 22z" />
    <glyph glyph-name="otilde" unicode="&#xf5;" horiz-adv-x="544" 
d="M389 733l89 -95q-87 -91 -162 -91q-29 0 -55 16q-7 4 -15.5 11t-14.5 10.5t-14 3.5q-10 0 -27 -11.5t-29 -22.5l-12 -11l-88 95q35 36 77.5 62.5t75.5 29.5h12t11.5 -1t9.5 -2t9 -3.5t8 -3.5t7.5 -4t6.5 -4t6.5 -4.5t5.5 -4.5q17 -11 31 -11q6 0 13.5 2.5t16 8.5t13.5 10
t14.5 11.5t10.5 8.5zM20 187v127q0 51 22.5 90t59.5 61t80 33t89 11q51 0 95 -11t80 -33.5t57 -61t21 -89.5v-127q0 -40 -14 -73.5t-38 -55.5t-56.5 -37.5t-68.5 -22t-76 -6.5q-66 0 -121.5 20.5t-92.5 66t-37 108.5zM298 190v121q0 22 -27 22q-25 0 -25 -22v-121
q0 -22 25 -22q27 0 27 22z" />
    <glyph glyph-name="odieresis" unicode="&#xf6;" horiz-adv-x="544" 
d="M237 563h-151v154h151v-154zM451 563h-151v154h151v-154zM20 187v127q0 67 39.5 112.5t94 64t117.5 18.5q108 0 180.5 -48t72.5 -147v-127q0 -98 -73.5 -146.5t-179.5 -48.5q-103 0 -177 51t-74 144zM298 190v121q0 22 -27 22q-25 0 -25 -22v-121q0 -22 25 -22
q27 0 27 22z" />
    <glyph glyph-name="divide" unicode="&#xf7;" horiz-adv-x="603" 
d="M422 444h-241v200h241v-200zM573 227h-543v190h543v-190zM422 0h-241v199h241v-199z" />
    <glyph glyph-name="oslash" unicode="&#xf8;" horiz-adv-x="564" 
d="M460 551l-31 -71q105 -50 105 -166v-127q0 -50 -21 -89t-57.5 -61.5t-80.5 -33.5t-94 -11q-34 0 -67 6l-22 -49h-88l33 74q-107 53 -107 164v127q0 51 22.5 90t59.5 61t80 33t89 11q37 0 71 -6l21 48h87zM256 290l19 42q-19 -2 -19 -21v-21zM308 208l-18 -39q18 3 18 21
v18z" />
    <glyph glyph-name="ugrave" unicode="&#xf9;" 
d="M406 531h-169l-133 186h200zM527 0h-188l-10 28q-48 -36 -120 -36q-85 0 -134.5 50t-49.5 130v328h219v-306q0 -24 24 -27q4 -1 12 -1t15 1v333h232v-500z" />
    <glyph glyph-name="uacute" unicode="&#xfa;" 
d="M294 532h-169l102 185h201zM527 0h-188l-10 28q-48 -36 -120 -36q-85 0 -134.5 50t-49.5 130v328h219v-306q0 -24 24 -27q4 -1 12 -1t15 1v333h232v-500z" />
    <glyph glyph-name="ucircumflex" unicode="&#xfb;" 
d="M514 532h-196l-42 52l-42 -53h-197l172 186h133zM527 0h-188l-10 28q-48 -36 -120 -36q-85 0 -134.5 50t-49.5 130v328h219v-306q0 -24 24 -27q4 -1 12 -1t15 1v333h232v-500z" />
    <glyph glyph-name="udieresis" unicode="&#xfc;" 
d="M243 563h-150v154h150v-154zM457 563h-151v154h151v-154zM527 0h-188l-10 28q-48 -36 -120 -36q-85 0 -134.5 50t-49.5 130v328h219v-306q0 -24 24 -27q4 -1 12 -1t15 1v333h232v-500z" />
    <glyph glyph-name="yacute" unicode="&#xfd;" horiz-adv-x="558" 
d="M295 532h-169l102 185h201zM528 500v-513q0 -196 -236 -196q-86 0 -220 30l29 154q101 -21 153 -21q41 0 41 34v41q-45 -27 -106 -29q-69 0 -116.5 43.5t-47.5 137.5v319h219v-306q0 -24 24 -27q4 -1 12.5 -1t14.5 1v333h233z" />
    <glyph glyph-name="thorn" unicode="&#xfe;" horiz-adv-x="602" 
d="M247 700v-228q46 36 121 36q56 0 98.5 -23t64 -63t21.5 -90v-151q0 -94 -47 -137.5t-116 -43.5q-60 2 -107 29v-231h-232v902h197zM334 194v110q0 12 -8 20t-20 8q-7 0 -23 -7v-158q6 -1 14 -1q37 0 37 28z" />
    <glyph glyph-name="ydieresis" unicode="&#xff;" horiz-adv-x="558" 
d="M244 563h-150v154h150v-154zM458 563h-151v154h151v-154zM528 500v-513q0 -196 -236 -196q-86 0 -220 30l29 154q101 -21 153 -21q41 0 41 34v41q-45 -27 -106 -29q-69 0 -116.5 43.5t-47.5 137.5v319h219v-306q0 -24 24 -27q4 -1 12.5 -1t14.5 1v333h233z" />
    <glyph glyph-name="Amacron" unicode="&#x100;" horiz-adv-x="753" 
d="M553 766h-349v134h349v-134zM723 0h-263l-17 100h-133l-16 -100h-264l187 700h319zM342 296h69l-34 211z" />
    <glyph glyph-name="amacron" unicode="&#x101;" horiz-adv-x="541" 
d="M448 566h-349v134h349v-134zM89 316l-29 163q135 30 218 30q238 0 238 -197v-312h-189l-12 28q-64 -36 -136 -36q-70 0 -116.5 38.5t-47.5 116.5v4q2 145 194 145q18 0 37 -1q25 -2 37 -4v12q0 34 -41 34q-54 0 -153 -21zM283 139v53q-7 1 -20 1q-16 0 -23.5 -4t-7.5 -16
v-26q0 -18 14 -19q14 0 37 11z" />
    <glyph glyph-name="Abreve" unicode="&#x102;" horiz-adv-x="753" 
d="M415 917h145q0 -50 -14 -89.5t-47 -66t-81 -26.5h-66q-46 0 -78 26t-46 66t-14 90h145q0 -27 5 -36t19 -9h7q10 0 15 4.5t7.5 14t2.5 26.5zM723 0h-263l-17 100h-133l-16 -100h-264l187 700h319zM342 296h69l-34 210z" />
    <glyph glyph-name="abreve" unicode="&#x103;" horiz-adv-x="541" 
d="M309 717h145q0 -50 -14 -89.5t-47 -66t-81 -26.5h-66q-68 0 -103 52.5t-35 129.5h145q0 -27 5.5 -36t19.5 -9h7q7 0 11.5 2.5t7.5 7.5t4 13.5t1 21.5zM89 316l-29 163q135 30 218 30q238 0 238 -197v-312h-189l-12 28q-64 -36 -136 -36q-70 0 -116.5 38.5t-47.5 116.5v4
q2 145 194 145q18 0 37 -1q25 -2 37 -4v12q0 34 -41 34q-54 0 -153 -21zM283 139v53q-7 1 -20 1q-16 0 -23.5 -4t-7.5 -16v-26q0 -18 14 -19q14 0 37 11z" />
    <glyph glyph-name="Aogonek" unicode="&#x104;" horiz-adv-x="753" 
d="M723 0h-249q-6 0 -10 -4t-4 -10v-5q0 -6 4 -10t10 -4h100v-110h-136q-48 0 -81 27t-33 77v37q0 51 33 76.5t81 25.5h5l-6 37h-121l-22 -137h-264l187 700h319zM345 311h64l-32 195z" />
    <glyph glyph-name="aogonek" unicode="&#x105;" horiz-adv-x="541" 
d="M89 316l-29 163q135 30 218 30q238 0 238 -197v-338h-41q-4 0 -7.5 -2t-5 -5t-1.5 -7v-5q0 -3 1 -5.5t3 -4.5t4.5 -3t5.5 -1h100v-110h-136q-48 0 -81 27t-33 77v37q0 12 2 28l-12 28q-64 -36 -136 -36q-70 0 -116.5 38.5t-47.5 116.5v4q2 145 194 145q18 0 37 -1
q25 -2 37 -4v12q0 34 -41 34q-54 0 -153 -21zM283 139v53q-7 1 -20 1q-16 0 -23.5 -4t-7.5 -16v-26q0 -18 14 -19q14 0 37 11z" />
    <glyph glyph-name="Cacute" unicode="&#x106;" horiz-adv-x="539" 
d="M330 732h-169l102 185h201zM315 710h26q77 0 173 -29l-15 -179q-85 11 -159 12h-12q-52 0 -52 -62v-204q0 -62 52 -62h12q74 1 159 12l15 -179q-96 -29 -173 -29h-26q-40 0 -76 7t-68.5 21t-59 36.5t-46 51t-30 67t-10.5 82.5v190q0 66 23 117.5t63.5 83.5t92 48
t111.5 16z" />
    <glyph glyph-name="cacute" unicode="&#x107;" horiz-adv-x="404" 
d="M263 532h-169l102 185h201zM20 182v132q0 53 19 92t52 60.5t73 32t87 10.5q68 0 138 -19l-15 -170q-49 13 -78 13q-50 0 -49 -41v-87q0 -41 49 -41q29 0 78 13l15 -170q-72 -19 -135 -19q-48 0 -88 10t-74 31.5t-53 60.5t-19 92z" />
    <glyph glyph-name="Cdotaccent" unicode="&#x10a;" horiz-adv-x="539" 
d="M386 763h-151v154h151v-154zM315 710h26q77 0 173 -29l-15 -179q-85 11 -159 12h-12q-52 0 -52 -62v-204q0 -62 52 -62h12q74 1 159 12l15 -179q-96 -29 -173 -29h-26q-40 0 -76 7t-68.5 21t-59 36.5t-46 51t-30 67t-10.5 82.5v190q0 66 23 117.5t63.5 83.5t92 48
t111.5 16z" />
    <glyph glyph-name="cdotaccent" unicode="&#x10b;" horiz-adv-x="404" 
d="M319 563h-151v154h151v-154zM20 182v132q0 53 19 92t52 60.5t73 32t87 10.5q68 0 138 -19l-15 -170q-49 13 -78 13q-50 0 -49 -41v-87q0 -41 49 -41q29 0 78 13l15 -170q-72 -19 -135 -19q-48 0 -88 10t-74 31.5t-53 60.5t-19 92z" />
    <glyph glyph-name="Ccaron" unicode="&#x10c;" horiz-adv-x="539" 
d="M379 732h-133l-172 185h196l42 -52l42 52h197zM315 710h26q77 0 173 -29l-15 -179q-85 11 -159 12h-12q-52 0 -52 -62v-204q0 -62 52 -62h12q74 1 159 12l15 -179q-96 -29 -173 -29h-26q-40 0 -76 7t-68.5 21t-59 36.5t-46 51t-30 67t-10.5 82.5v190q0 66 23 117.5
t63.5 83.5t92 48t111.5 16z" />
    <glyph glyph-name="ccaron" unicode="&#x10d;" horiz-adv-x="404" 
d="M312 532h-133l-172 185h196l42 -52l42 52h197zM20 182v132q0 53 19 92t52 60.5t73 32t87 10.5q68 0 138 -19l-15 -170q-49 13 -78 13q-50 0 -49 -41v-87q0 -41 49 -41q29 0 78 13l15 -170q-72 -19 -135 -19q-48 0 -88 10t-74 31.5t-53 60.5t-19 92z" />
    <glyph glyph-name="Dcaron" unicode="&#x10e;" horiz-adv-x="657" 
d="M403 731h-133l-172 185h196l42 -52l42 52h197zM50 701h292q125 0 207.5 -67.5t82.5 -197.5v-171q0 -130 -82.5 -197.5t-207.5 -67.5h-292v701zM303 504v-307h25q52 0 52 61v185q0 61 -52 61h-25z" />
    <glyph glyph-name="dcaron" unicode="&#x10f;" horiz-adv-x="761" 
d="M522 0h-187l-10 28q-47 -36 -121 -36q-85 0 -134.5 49.5t-49.5 126.5v160q0 49 14 85t37.5 56.5t51.5 30t60 9.5q60 0 107 -29v220h232v-700zM731 612l-73 -137h-104l41 81h-41v143h177v-87zM290 176v157q-7 1 -15 1q-36 0 -36 -28v-110q0 -12 7.5 -19.5t19.5 -7.5
q8 0 24 7z" />
    <glyph glyph-name="Dcroat" unicode="&#x110;" horiz-adv-x="657" 
d="M50 701h292q125 0 207.5 -67.5t82.5 -197.5v-171q0 -130 -82.5 -197.5t-207.5 -67.5h-292v285h-50v131h50v285zM303 504v-88h44v-131h-44v-88h25q52 0 52 61v185q0 61 -52 61h-25z" />
    <glyph glyph-name="dcroat" unicode="&#x111;" horiz-adv-x="572" 
d="M572 534h-50v-534h-187l-10 28q-47 -36 -121 -36q-85 0 -134.5 49.5t-49.5 126.5v160q0 49 14 85t37.5 56.5t51.5 30t60 9.5q60 0 107 -29v54h-67v134h67v32h232v-32h50v-134zM290 176v157q-7 1 -15 1q-36 0 -36 -28v-110q0 -12 7.5 -19.5t19.5 -7.5q8 0 24 7z" />
    <glyph glyph-name="Emacron" unicode="&#x112;" horiz-adv-x="549" 
d="M443 766h-349v134h349v-134zM520 504h-237v-54h207v-196h-207v-58h237v-196h-490v700h490v-196z" />
    <glyph glyph-name="emacron" unicode="&#x113;" horiz-adv-x="524" 
d="M435 566h-349v134h349v-134zM20 187v127q0 51 21.5 90t57.5 61t77 33t85 11q49 0 91.5 -11t77 -33.5t54.5 -61t20 -89.5v-125h-267v-17q0 -22 25 -22q66 0 209 14l27 -147q-120 -24 -212 -24q-266 0 -266 194zM288 300v29q0 22 -26 22q-25 0 -25 -22v-29h51z" />
    <glyph glyph-name="Edotaccent" unicode="&#x116;" horiz-adv-x="549" 
d="M342 763h-151v154h151v-154zM520 504h-237v-54h207v-196h-207v-58h237v-196h-490v700h490v-196z" />
    <glyph glyph-name="edotaccent" unicode="&#x117;" horiz-adv-x="524" 
d="M333 563h-150v154h150v-154zM20 187v127q0 51 21.5 90t57.5 61t77 33t85 11q49 0 91.5 -11t77 -33.5t54.5 -61t20 -89.5v-125h-267v-17q0 -22 25 -22q66 0 209 14l27 -147q-120 -24 -212 -24q-266 0 -266 194zM288 300v29q0 22 -26 22q-25 0 -25 -22v-29h51z" />
    <glyph glyph-name="Eogonek" unicode="&#x118;" horiz-adv-x="549" 
d="M520 504h-237v-54h207v-196h-207v-58h237v-197h-125q-6 0 -10 -4t-4 -10v-5q0 -3 1 -5.5t3 -4.5t4.5 -3t5.5 -1h100v-110h-136q-47 0 -80.5 27t-33.5 77v10v30h-215v700h490v-196z" />
    <glyph glyph-name="eogonek" unicode="&#x119;" horiz-adv-x="524" 
d="M20 187v127q0 51 21.5 90t57.5 61t77 33t85 11q49 0 91.5 -11t77 -33.5t54.5 -61t20 -89.5v-125h-267v-17q0 -22 25 -22q66 0 209 14l27 -147q-15 -4 -77 -14q-15 -2 -15 -14v-5q0 -6 4.5 -10t10.5 -4h99v-110h-136q-47 0 -80.5 27t-33.5 77v6v23h-9q-241 9 -241 194z
M288 300v29q0 22 -26 22q-25 0 -25 -22v-29h51z" />
    <glyph glyph-name="Ecaron" unicode="&#x11a;" horiz-adv-x="549" 
d="M335 732h-133l-172 185h196l42 -52l42 52h197zM520 504h-237v-54h207v-196h-207v-58h237v-196h-490v700h490v-196z" />
    <glyph glyph-name="ecaron" unicode="&#x11b;" horiz-adv-x="524" 
d="M327 532h-133l-172 185h196l42 -52l42 52h197zM20 187v127q0 51 21.5 90t57.5 61t77 33t85 11q49 0 91.5 -11t77 -33.5t54.5 -61t20 -89.5v-125h-267v-17q0 -22 25 -22q66 0 209 14l27 -147q-120 -24 -212 -24q-266 0 -266 194zM288 300v29q0 22 -26 22q-25 0 -25 -22
v-29h51z" />
    <glyph glyph-name="Gbreve" unicode="&#x11e;" horiz-adv-x="648" 
d="M365 917h145q0 -50 -14 -89.5t-47 -66t-81 -26.5h-66q-46 0 -78 26t-46 66t-14 90h145q0 -27 5.5 -36t19.5 -9h6q14 0 19.5 10t5.5 35zM316 710h27q123 0 248 -39l-34 -183q-124 26 -228 26q-53 0 -53 -62v-204q0 -61 48 -61l6 -1q26 0 59 12v50h-61v174h275v-359
q-145 -73 -260 -73h-27q-137 0 -214 68t-77 197v190q0 40 8 75t22 61.5t34.5 48t45 36.5t54 25t61 14.5t66.5 4.5z" />
    <glyph glyph-name="gbreve" unicode="&#x11f;" horiz-adv-x="552" 
d="M307 717h145q0 -50 -14 -89.5t-47 -66t-81 -26.5h-66q-68 0 -103 52.5t-35 129.5h145q0 -27 5.5 -36t19.5 -9h6q10 0 15 4.5t7.5 14t2.5 26.5zM20 181v150q0 77 49.5 126.5t134.5 49.5q73 0 121 -36l10 28h187v-513q0 -196 -236 -196q-86 0 -220 30l29 154
q101 -21 154 -21q41 0 41 34v41q-46 -28 -106 -28q-69 0 -116.5 43.5t-47.5 137.5zM291 166v158q-16 7 -24 7q-12 0 -20 -8t-8 -20v-110q0 -24 24 -27q4 -1 12 -1t16 1z" />
    <glyph glyph-name="Gdotaccent" unicode="&#x120;" horiz-adv-x="648" 
d="M402 763h-151v154h151v-154zM316 710h27q123 0 248 -39l-34 -183q-124 26 -228 26q-53 0 -53 -62v-204q0 -61 48 -61l6 -1q26 0 59 12v50h-61v174h275v-359q-145 -73 -260 -73h-27q-137 0 -214 68t-77 197v190q0 40 8 75t22 61.5t34.5 48t45 36.5t54 25t61 14.5t66.5 4.5
z" />
    <glyph glyph-name="gdotaccent" unicode="&#x121;" horiz-adv-x="552" 
d="M345 563h-151v154h151v-154zM20 181v150q0 77 49.5 126.5t134.5 49.5q73 0 121 -36l10 28h187v-513q0 -196 -236 -196q-86 0 -220 30l29 154q101 -21 154 -21q41 0 41 34v41q-46 -28 -106 -28q-69 0 -116.5 43.5t-47.5 137.5zM291 166v158q-16 7 -24 7q-12 0 -20 -8
t-8 -20v-110q0 -24 24 -27q4 -1 12 -1t16 1z" />
    <glyph glyph-name="Gcommaaccent" unicode="&#x122;" horiz-adv-x="648" 
d="M316 710h27q123 0 248 -39l-34 -183q-124 26 -228 26q-53 0 -53 -62v-204q0 -61 48 -61l6 -1q26 0 59 12v50h-61v174h275v-359q-145 -73 -260 -73h-27q-137 0 -214 68t-77 197v190q0 40 8 75t22 61.5t34.5 48t45 36.5t54 25t61 14.5t66.5 4.5zM392 -135l-73 -137h-104
l41 81h-41v143h177v-87z" />
    <glyph glyph-name="gcommaaccent" unicode="&#x123;" horiz-adv-x="552" 
d="M318 717h42v-143h-178v87l73 137h105zM20 181v150q0 77 49.5 126.5t134.5 49.5q73 0 121 -36l10 28h187v-513q0 -196 -236 -196q-86 0 -220 30l29 154q101 -21 154 -21q41 0 41 34v41q-46 -28 -106 -28q-32 0 -60 9.5t-52 30t-38 56.5t-14 85zM291 166v158q-16 7 -24 7
q-12 0 -20 -8t-8 -20v-110q0 -24 24 -27q4 -1 12 -1t16 1z" />
    <glyph glyph-name="Hbar" unicode="&#x126;" horiz-adv-x="676" 
d="M637 661h39v-177h-39v-484h-252v247h-94v-247h-252v484h-39v177h39v39h252v-39h94v39h252v-39zM291 484v-41h94v41h-94z" />
    <glyph glyph-name="hbar" unicode="&#x127;" horiz-adv-x="590" 
d="M280 678h85v-151h-85v-47q47 29 108 29q31 0 59 -9.5t52 -30t37.5 -56.5t13.5 -85v-328h-218v306q0 25 -25 27q-10 2 -27 0v-333h-232v527h-63v151h63v22h232v-22z" />
    <glyph glyph-name="Itilde" unicode="&#x128;" horiz-adv-x="331" 
d="M286 933l88 -95q-86 -91 -161 -91q-30 0 -56 16q-6 3 -12.5 8.5t-10.5 8.5t-9 5.5t-11 2.5q-10 0 -27 -11.5t-29 -22.5l-12 -11l-89 95q36 36 78 62.5t76 29.5q7 0 13.5 -0.5t11.5 -1t11 -3t9 -3.5t9 -4.5t7.5 -4.5l7.5 -5t7 -5q17 -11 31 -11q5 0 11.5 2.5t12 5.5
t12.5 8t11.5 9t11.5 9.5t9 6.5zM291 0h-251v700h251v-700z" />
    <glyph glyph-name="itilde" unicode="&#x129;" horiz-adv-x="311" 
d="M279 733l88 -95q-86 -91 -161 -91q-30 0 -56 16q-7 4 -15.5 11t-14.5 10.5t-13 3.5q-5 0 -11 -2.5t-12.5 -6.5t-13 -9t-12.5 -9.5t-10 -8.5t-7 -6l-3 -3l-88 95q35 36 77.5 62.5t75.5 29.5h12.5t11 -1t9.5 -2t9 -3.5t8 -3.5t7.5 -4t6.5 -4t6.5 -4.5t6.5 -4.5
q17 -11 30 -11q6 0 13.5 2.5t16 8.5t14 10t14.5 11.5t11 8.5zM271 0h-232v500h232v-500z" />
    <glyph glyph-name="Imacron" unicode="&#x12a;" horiz-adv-x="331" 
d="M340 766h-349v134h349v-134zM291 0h-251v700h251v-700z" />
    <glyph glyph-name="imacron" unicode="&#x12b;" horiz-adv-x="311" 
d="M333 566h-349v134h349v-134zM271 0h-232v500h232v-500z" />
    <glyph glyph-name="Iogonek" unicode="&#x12e;" horiz-adv-x="311" 
d="M281 0h-237q-6 0 -10 -4t-4 -10v-5q0 -6 4 -10t10 -4h100v-110h-136q-47 0 -80.5 27t-33.5 77v37q0 51 33 76.5t81 25.5h22v600h251v-700z" />
    <glyph glyph-name="iogonek" unicode="&#x12f;" horiz-adv-x="311" 
d="M275 539h-240v161h240v-161zM271 0h-216q-6 0 -10 -4t-4 -10v-4q0 -6 4 -10t10 -4h100v-110h-136q-47 0 -80.5 27t-33.5 77v37q0 51 33 76.5t81 25.5h20v399h232v-500z" />
    <glyph glyph-name="Idotaccent" unicode="&#x130;" horiz-adv-x="331" 
d="M240 763h-151v154h151v-154zM291 0h-251v700h251v-700z" />
    <glyph glyph-name="dotlessi" unicode="&#x131;" horiz-adv-x="311" 
d="M271 0h-232v500h232v-500z" />
    <glyph glyph-name="IJ" unicode="&#x132;" horiz-adv-x="792" 
d="M752 701v-446q0 -130 -82.5 -197.5t-207.5 -67.5h-116v197h102q52 0 52 61v453h252zM291 0h-251v700h251v-700z" />
    <glyph glyph-name="ij" unicode="&#x133;" horiz-adv-x="615" 
d="M275 539h-240v161h240v-161zM580 539h-239v161h239v-161zM271 0h-232v500h232v-500zM577 500v-535q0 -70 -59 -122t-143 -52h-70v176h17q6 0 10 1t8 6.5t4 16.5v509h233z" />
    <glyph glyph-name="Kcommaaccent" unicode="&#x136;" horiz-adv-x="697" 
d="M478 350l194 -350h-294l-101 228v-228h-247v701h247v-225l93 225h285zM423 -135l-73 -137h-105l42 81h-42v143h178v-87z" />
    <glyph glyph-name="kcommaaccent" unicode="&#x137;" horiz-adv-x="588" 
d="M267 316l66 184h238l-98 -234l105 -266h-237l-74 190v-190h-232v700h232v-384zM408 -135l-73 -137h-105l42 81h-42v143h178v-87z" />
    <glyph glyph-name="Lacute" unicode="&#x139;" horiz-adv-x="573" 
d="M295 740h-169l102 185h201zM302 195h246v-195h-498v699h252v-504z" />
    <glyph glyph-name="lacute" unicode="&#x13a;" horiz-adv-x="292" 
d="M164 750h-170l102 185h202zM262 0h-232v700h232v-700z" />
    <glyph glyph-name="Lcommaaccent" unicode="&#x13b;" horiz-adv-x="573" 
d="M302 195h246v-195h-498v699h252v-504zM423 -135l-73 -137h-105l42 81h-42v143h178v-87z" />
    <glyph glyph-name="lcommaaccent" unicode="&#x13c;" horiz-adv-x="297" 
d="M267 0h-232v700h232v-700zM240 -135l-73 -137h-105l42 81h-42v143h178v-87z" />
    <glyph glyph-name="Lcaron" unicode="&#x13d;" horiz-adv-x="573" 
d="M302 195h246v-195h-498v699h252v-504zM545 612l-73 -137h-104l41 81h-41v143h177v-87z" />
    <glyph glyph-name="lcaron" unicode="&#x13e;" horiz-adv-x="486" 
d="M262 0h-232v700h232v-700zM466 611l-73 -137h-104l41 81h-41v143h177v-87z" />
    <glyph glyph-name="Ldot" unicode="&#x13f;" horiz-adv-x="578" 
d="M302 195h246v-195h-498v699h252v-504zM547 272h-198v148h198v-148z" />
    <glyph glyph-name="ldot" unicode="&#x140;" horiz-adv-x="520" 
d="M262 0h-232v700h232v-700zM491 272h-198v148h198v-148z" />
    <glyph glyph-name="Lslash" unicode="&#x141;" horiz-adv-x="593" 
d="M317 530l80 45v-204l-80 -46v-130h246v-195h-498v182l-65 -36v206l65 36v311h252v-169z" />
    <glyph glyph-name="lslash" unicode="&#x142;" horiz-adv-x="397" 
d="M315 529l82 46v-204l-82 -47v-324h-232v192l-83 -46v206l83 46v302h232v-171z" />
    <glyph glyph-name="Nacute" unicode="&#x143;" horiz-adv-x="679" 
d="M358 732h-169l102 185h201zM649 0h-241l-131 268v-268h-247v700h240l131 -273v273h248v-700z" />
    <glyph glyph-name="nacute" unicode="&#x144;" 
d="M298 532h-168l102 185h200zM217 500l10 -28q48 36 121 36q85 0 134.5 -50t49.5 -130v-328h-218v306q0 25 -25 27q-10 2 -27 0v-333h-232v500h187z" />
    <glyph glyph-name="Ncommaaccent" unicode="&#x145;" horiz-adv-x="679" 
d="M649 0h-241l-131 268v-268h-247v700h240l131 -273v273h248v-700zM429 -135l-73 -137h-105l42 81h-42v143h178v-87z" />
    <glyph glyph-name="ncommaaccent" unicode="&#x146;" 
d="M217 500l10 -28q48 36 121 36q85 0 134.5 -50t49.5 -130v-328h-218v306q0 25 -25 27q-10 2 -27 0v-333h-232v500h187zM370 -135l-73 -137h-105l42 81h-42v143h178v-87z" />
    <glyph glyph-name="Ncaron" unicode="&#x147;" horiz-adv-x="679" 
d="M407 732h-133l-172 185h196l42 -52l42 52h197zM649 0h-241l-131 268v-268h-247v700h240l131 -273v273h248v-700z" />
    <glyph glyph-name="ncaron" unicode="&#x148;" 
d="M348 532h-134l-172 185h196l42 -52l42 52h198zM217 500l10 -28q48 36 121 36q85 0 134.5 -50t49.5 -130v-328h-218v306q0 25 -25 27q-10 2 -27 0v-333h-232v500h187z" />
    <glyph glyph-name="Eng" unicode="&#x14a;" horiz-adv-x="679" 
d="M649 700v-700q0 -98 -55 -153.5t-147 -55.5h-109v176h56q19 0 22 17l-139 284v-268h-247v700h240l131 -273v273h248z" />
    <glyph glyph-name="eng" unicode="&#x14b;" horiz-adv-x="600" 
d="M235 500l10 -28q48 36 121 36q85 0 134.5 -50t49.5 -130v-363q0 -70 -58.5 -122t-143.5 -52h-95v176h56q7 0 10.5 1t7.5 6.5t4 16.5v321q-2 19 -24 21q-10 2 -27 0v-333h-232v500h187z" />
    <glyph glyph-name="Omacron" unicode="&#x14c;" horiz-adv-x="665" 
d="M507 766h-349v134h349v-134zM317 710h28q80 0 145.5 -29.5t107.5 -91t42 -144.5v-190q0 -119 -81.5 -192t-213.5 -73h-28q-137 0 -214.5 73.5t-77.5 191.5v190q0 125 81.5 195t210.5 70zM333 514h-4q-53 -1 -53 -62v-204q0 -61 54 -62h3q25 1 40.5 13.5t15.5 48.5v204
q0 61 -56 62z" />
    <glyph glyph-name="omacron" unicode="&#x14d;" horiz-adv-x="544" 
d="M444 566h-349v134h349v-134zM20 187v127q0 67 39.5 112.5t94 64t117.5 18.5q108 0 180.5 -48t72.5 -147v-127q0 -98 -73.5 -146.5t-179.5 -48.5q-103 0 -177 51t-74 144zM298 190v121q0 22 -27 22q-25 0 -25 -22v-121q0 -22 25 -22q27 0 27 22z" />
    <glyph glyph-name="Ohungarumlaut" unicode="&#x150;" horiz-adv-x="665" 
d="M233 729h-169l102 186h201zM493 729h-169l102 186h201zM317 710h28q80 0 145.5 -29.5t107.5 -91t42 -144.5v-190q0 -119 -81.5 -192t-213.5 -73h-28q-137 0 -214.5 73.5t-77.5 191.5v190q0 125 81.5 195t210.5 70zM333 514h-4q-53 -1 -53 -62v-204q0 -61 54 -62h3
q25 1 40.5 13.5t15.5 48.5v204q0 61 -56 62z" />
    <glyph glyph-name="ohungarumlaut" unicode="&#x151;" horiz-adv-x="544" 
d="M170 529h-169l102 186h201zM430 529h-169l102 186h201zM20 187v127q0 67 39.5 112.5t94 64t117.5 18.5q108 0 180.5 -48t72.5 -147v-127q0 -98 -73.5 -146.5t-179.5 -48.5q-103 0 -177 51t-74 144zM298 190v121q0 22 -27 22q-25 0 -25 -22v-121q0 -22 25 -22q27 0 27 22z
" />
    <glyph glyph-name="OE" unicode="&#x152;" horiz-adv-x="975" 
d="M317 710h28q58 0 110 -17v7h490v-196h-237v-54h207v-196h-207v-58h237v-196h-490v6q-49 -16 -110 -16h-28q-137 0 -214.5 73.5t-77.5 191.5v190q0 125 81.5 195t210.5 70zM333 514h-4q-53 -1 -53 -62v-204q0 -61 54 -62h3q12 0 20.5 2.5t17.5 8.5t13.5 19t4.5 32v204
q0 61 -56 62z" />
    <glyph glyph-name="oe" unicode="&#x153;" horiz-adv-x="814" 
d="M20 187v127q0 51 22.5 90t59.5 61t80 33t89 11q85 0 146 -28q59 28 134 28q49 0 91 -11t77 -33.5t55 -61t20 -89.5v-118h-268v-24q0 -22 25 -22q67 0 210 14l26 -147q-119 -24 -211 -24q-99 0 -162 27q-61 -28 -143 -28q-66 0 -121.5 20.5t-92.5 66t-37 108.5zM577 291
v38q0 22 -26 22q-25 0 -25 -22v-38h51zM298 190v121q0 22 -27 22q-25 0 -25 -22v-121q0 -22 25 -22q27 0 27 22z" />
    <glyph glyph-name="Racute" unicode="&#x154;" horiz-adv-x="676" 
d="M332 732h-169l102 185h201zM40 700h333q114 0 175.5 -65.5t61.5 -183.5v-48q0 -116 -61 -182l102 -221h-292l-46 154h-22v-154h-251v700zM292 500v-149h40q27 0 27 28v92q0 29 -27 29h-40z" />
    <glyph glyph-name="racute" unicode="&#x155;" horiz-adv-x="373" 
d="M213 532h-169l102 185h201zM358 324h-73q-23 0 -23 -22v-302h-232v500h187l10 -54q11 15 25.5 26.5t29.5 19.5t30.5 12t30.5 4h15v-184z" />
    <glyph glyph-name="Rcommaaccent" unicode="&#x156;" horiz-adv-x="676" 
d="M40 700h333q114 0 175.5 -65.5t61.5 -183.5v-48q0 -116 -61 -182l102 -221h-292l-46 154h-22v-154h-251v700zM292 500v-149h40q27 0 27 28v92q0 29 -27 29h-40zM413 -135l-73 -137h-105l42 81h-42v143h178v-87z" />
    <glyph glyph-name="rcommaaccent" unicode="&#x157;" horiz-adv-x="373" 
d="M358 324h-73q-23 0 -23 -22v-302h-232v500h187l10 -54q11 15 25.5 26.5t29.5 19.5t30.5 12t30.5 4h15v-184zM280 -135l-73 -137h-104l41 81h-41v143h177v-87z" />
    <glyph glyph-name="Rcaron" unicode="&#x158;" horiz-adv-x="676" 
d="M381 732h-133l-172 185h196l42 -52l42 52h197zM40 700h333q114 0 175.5 -65.5t61.5 -183.5v-48q0 -116 -61 -182l102 -221h-292l-46 154h-22v-154h-251v700zM292 500v-149h40q27 0 27 28v92q0 29 -27 29h-40z" />
    <glyph glyph-name="rcaron" unicode="&#x159;" horiz-adv-x="373" 
d="M262 532h-133l-172 185h196l42 -52l42 52h197zM358 324h-73q-23 0 -23 -22v-302h-232v500h187l10 -54q11 15 25.5 26.5t29.5 19.5t30.5 12t30.5 4h15v-184z" />
    <glyph glyph-name="Sacute" unicode="&#x15a;" horiz-adv-x="605" 
d="M314 732h-169l102 185h201zM30 455v5q0 133 64.5 192t202.5 59q81 0 130 -6t96 -21l-21 -199q-98 25 -194 25q-19 0 -19 -15v-2q0 -13 12 -17l118 -40q66 -23 97 -44t45.5 -55.5t14.5 -96.5l-1 -6q0 -70 -19 -118t-57.5 -75.5t-90.5 -39t-126 -11.5q-144 0 -239 30
l19 200q72 -19 123.5 -25.5t115.5 -5.5q9 0 14.5 5.5t5.5 13.5v9q0 12 -12 16l-129 41q-48 17 -73 30t-44.5 33t-26 47t-6.5 71z" />
    <glyph glyph-name="sacute" unicode="&#x15b;" horiz-adv-x="458" 
d="M245 532h-169l102 185h201zM227 507h12q102 -1 169 -19l-13 -146q-67 17 -129 18h-10q-15 0 -15 -11q0 -10 9 -13l85 -27q69 -24 91 -49.5t22 -87.5q0 -99 -55 -138.5t-172 -39.5h-10q-112 1 -185 25l12 142q88 -22 165 -22h7q15 1 15 17q0 11 -9 14l-93 29
q-47 16 -67.5 29t-30.5 35.5t-10 64.5q0 95 51.5 137t160.5 42z" />
    <glyph glyph-name="Scedilla" unicode="&#x15e;" horiz-adv-x="605" 
d="M30 455v5q0 133 64.5 192t202.5 59q81 0 130 -6t96 -21l-21 -199q-98 25 -194 25q-19 0 -19 -15v-2q0 -13 12 -17l118 -40q66 -23 97 -44t45.5 -55.5t14.5 -96.5l-1 -6q-1 -127 -62 -182t-188 -61h-11v-9h5q37 0 64 -29.5t27 -67.5v-20q0 -47 -31 -77.5t-74 -30.5h-122
v108h113q11 0 11 9v2q0 9 -11 9h-73v106q-106 6 -180 29l19 200q72 -19 123.5 -25.5t115.5 -5.5q9 0 14.5 5.5t5.5 13.5v9q0 12 -12 16l-129 41q-48 17 -73 30t-44.5 33t-26 47t-6.5 71z" />
    <glyph glyph-name="scedilla" unicode="&#x15f;" horiz-adv-x="458" 
d="M227 507h12q102 -1 169 -19l-13 -146q-67 17 -129 18h-10q-15 0 -15 -11q0 -10 9 -13l85 -27q69 -24 91 -49.5t22 -87.5q0 -91 -45.5 -131t-141.5 -46l-16 -1v-12h5q36 0 63.5 -29.5t27.5 -67.5v-20q0 -47 -31.5 -77.5t-73.5 -30.5h-122v108h113q11 0 11 9v2q0 9 -11 9
h-73v111l-16 1q-64 6 -112 22l12 142q88 -22 165 -22h7q15 1 15 17q0 11 -9 14l-93 29q-47 16 -67.5 29t-30.5 35.5t-10 64.5q0 95 51.5 137t160.5 42z" />
    <glyph glyph-name="Scaron" unicode="&#x160;" horiz-adv-x="605" 
d="M363 732h-133l-172 185h196l42 -52l42 52h197zM30 455v5q0 133 64.5 192t202.5 59q81 0 130 -6t96 -21l-21 -199q-98 25 -194 25q-19 0 -19 -15v-2q0 -13 12 -17l118 -40q66 -23 97 -44t45.5 -55.5t14.5 -96.5l-1 -6q0 -70 -19 -118t-57.5 -75.5t-90.5 -39t-126 -11.5
q-144 0 -239 30l19 200q72 -19 123.5 -25.5t115.5 -5.5q9 0 14.5 5.5t5.5 13.5v9q0 12 -12 16l-129 41q-48 17 -73 30t-44.5 33t-26 47t-6.5 71z" />
    <glyph glyph-name="scaron" unicode="&#x161;" horiz-adv-x="458" 
d="M294 532h-133l-172 185h196l42 -52l42 52h197zM227 507h12q102 -1 169 -19l-13 -146q-67 17 -129 18h-10q-15 0 -15 -11q0 -10 9 -13l85 -27q69 -24 91 -49.5t22 -87.5q0 -51 -14 -86t-44 -55t-70.5 -28.5t-98.5 -8.5h-10q-112 1 -185 25l12 142q88 -22 165 -22h7
q15 1 15 17q0 11 -9 14l-93 29q-47 16 -67.5 29t-30.5 35.5t-10 64.5q0 95 51.5 137t160.5 42z" />
    <glyph glyph-name="Tcedilla" unicode="&#x162;" horiz-adv-x="650" 
d="M625 506h-174v-506h-109v-18h6q36 0 63.5 -29.5t27.5 -67.5v-20q0 -47 -31.5 -77.5t-73.5 -30.5h-122v108h113q10 0 10 9v2q0 9 -11 9h-72v115h-53v506h-174v194h600v-194z" />
    <glyph glyph-name="tcedilla" unicode="&#x163;" horiz-adv-x="431" 
d="M303 500h98v-174h-98v-136q0 -11 4.5 -16.5t8 -6.5t10.5 -1h75v-176h-128q-26 0 -45 4v-12h6q36 0 63.5 -29.5t27.5 -67.5v-20q0 -47 -31.5 -77.5t-73.5 -30.5h-122v108h113q10 0 10 9v2q0 9 -11 9h-72v151q-67 52 -67 128v162h-51v174h51v120h232v-120z" />
    <glyph glyph-name="Tcaron" unicode="&#x164;" horiz-adv-x="650" 
d="M392 732h-133l-172 185h196l42 -52l42 52h197zM625 506h-174v-506h-252v506h-174v194h600v-194z" />
    <glyph glyph-name="tcaron" unicode="&#x165;" horiz-adv-x="431" 
d="M545 663l-73 -137h-104l41 81h-41v143h177v-87zM303 500h98v-174h-98v-136q0 -16 6.5 -20t16.5 -4h75v-176h-128q-84 0 -143 52t-59 122v162h-51v174h51v120h232v-120z" />
    <glyph glyph-name="Tbar" unicode="&#x166;" horiz-adv-x="620" 
d="M436 504v-98h70v-154h-70v-252h-252v252h-68v154h68v98h-174v194h600v-194h-174z" />
    <glyph glyph-name="tbar" unicode="&#x167;" horiz-adv-x="441" 
d="M313 326v-25h98v-104h-98v-7q0 -16 6.5 -20t16.5 -4h75v-176h-128q-84 0 -143 52t-59 122v33h-51v104h51v25h-51v174h51v120h232v-120h98v-174h-98z" />
    <glyph glyph-name="Utilde" unicode="&#x168;" horiz-adv-x="666" 
d="M448 933l89 -95q-87 -91 -162 -91q-30 0 -55 16q-8 4 -16.5 11t-14 10.5t-13.5 3.5q-10 0 -27 -11.5t-29 -22.5l-12 -11l-88 95q35 36 77.5 62.5t75.5 29.5q7 0 13.5 -0.5t11.5 -1t11 -3t9.5 -3.5t9 -4.5t7.5 -4.5t7.5 -5t6.5 -5q17 -11 31 -11q6 0 13 2.5t16 8.5t14 10
t14.5 11.5t10.5 8.5zM631 700v-462q0 -46 -11 -84t-31 -64.5t-46.5 -46.5t-59.5 -31t-68 -16.5t-74 -5.5h-24q-36 0 -67 4t-60.5 13t-53.5 22.5t-44 33.5t-33.5 45t-21 58t-7.5 72v462h251v-462q0 -19 4.5 -30t13 -15.5t14.5 -5.5t16 -1h4q11 0 17 1t14 5.5t11.5 16
t3.5 29.5v462h252z" />
    <glyph glyph-name="utilde" unicode="&#x169;" 
d="M396 733l88 -95q-86 -91 -161 -91q-30 0 -56 16q-7 4 -15.5 11t-14.5 10.5t-13 3.5q-10 0 -27 -11.5t-29 -22.5l-12 -11l-88 95q35 36 77 62.5t76 29.5q7 0 13.5 -0.5t11.5 -1t11 -3t9 -3.5t9 -4.5t7.5 -4.5l7.5 -5t7 -5q17 -11 31 -11q6 0 13 2.5t15.5 8.5t14 10
t15 11.5t10.5 8.5zM527 0h-188l-10 28q-48 -36 -120 -36q-85 0 -134.5 50t-49.5 130v328h219v-306q0 -24 24 -27q4 -1 12 -1t15 1v333h232v-500z" />
    <glyph glyph-name="Umacron" unicode="&#x16a;" horiz-adv-x="666" 
d="M503 766h-349v134h349v-134zM631 700v-462q0 -55 -16 -98.5t-42.5 -71t-64.5 -45.5t-79 -25.5t-88 -7.5h-24q-63 0 -113.5 13t-90 41.5t-61.5 77.5t-22 116v462h251v-462q0 -19 4.5 -30t13 -15.5t14.5 -5.5t16 -1h4q11 0 17 1t14 5.5t11.5 16t3.5 29.5v462h252z" />
    <glyph glyph-name="umacron" unicode="&#x16b;" 
d="M451 566h-349v134h349v-134zM527 0h-188l-10 28q-48 -36 -120 -36q-85 0 -134.5 50t-49.5 130v328h219v-306q0 -24 24 -27q4 -1 12 -1t15 1v333h232v-500z" />
    <glyph glyph-name="Uring" unicode="&#x16e;" horiz-adv-x="666" 
d="M327 951q24 0 46.5 -9.5t38 -25.5t25 -37t9.5 -43q0 -51 -34.5 -85t-84.5 -34q-49 0 -82.5 34t-33.5 85q0 30 15 56.5t42 42.5t59 16zM327 861q-10 0 -17.5 -7.5t-7.5 -17.5t7.5 -17.5t17.5 -7.5t17.5 7.5t7.5 17.5t-7.5 17.5t-17.5 7.5zM631 700v-462q0 -55 -16 -98.5
t-42.5 -71t-64.5 -45.5t-79 -25.5t-88 -7.5h-24q-63 0 -113.5 13t-90 41.5t-61.5 77.5t-22 116v462h251v-462q0 -19 4.5 -30t13 -15.5t14.5 -5.5t16 -1h4q11 0 17 1t14 5.5t11.5 16t3.5 29.5v462h252z" />
    <glyph glyph-name="uring" unicode="&#x16f;" 
d="M275 751q49 0 84 -34.5t35 -80.5q0 -51 -34.5 -85t-84.5 -34q-49 0 -82.5 34t-33.5 85q0 46 34 80.5t82 34.5zM275 661q-11 0 -18 -7.5t-7 -17.5t7 -17.5t18 -7.5q10 0 17 7.5t7 17.5t-7 17.5t-17 7.5zM527 0h-188l-10 28q-48 -36 -120 -36q-85 0 -134.5 50t-49.5 130
v328h219v-306q0 -24 24 -27q4 -1 12 -1t15 1v333h232v-500z" />
    <glyph glyph-name="Uhungarumlaut" unicode="&#x170;" horiz-adv-x="666" 
d="M229 729h-169l102 186h201zM489 729h-169l102 186h201zM631 700v-462q0 -55 -16 -98.5t-42.5 -71t-64.5 -45.5t-79 -25.5t-88 -7.5h-24q-63 0 -113.5 13t-90 41.5t-61.5 77.5t-22 116v462h251v-462q0 -19 4.5 -30t13 -15.5t14.5 -5.5t16 -1h4q11 0 17 1t14 5.5t11.5 16
t3.5 29.5v462h252z" />
    <glyph glyph-name="uhungarumlaut" unicode="&#x171;" 
d="M177 529h-169l102 186h200zM437 529h-169l102 186h200zM527 0h-188l-10 28q-48 -36 -120 -36q-85 0 -134.5 50t-49.5 130v328h219v-306q0 -24 24 -27q4 -1 12 -1t15 1v333h232v-500z" />
    <glyph glyph-name="Uogonek" unicode="&#x172;" horiz-adv-x="660" 
d="M631 700v-462q0 -86 -36 -140.5t-100 -80.5q-8 -3 -8 -12v-34q0 -3 1 -5.5t2.5 -4.5t4.5 -3t6 -1h100v-110h-136q-48 0 -81 27t-33 77v11v28h-26h-8q-63 0 -113.5 13t-90 41.5t-61.5 77.5t-22 116v462h251v-462q0 -19 4.5 -30t13 -15.5t14.5 -5.5t16 -1h7q10 0 16 1.5
t13 6t10.5 15.5t3.5 29v462h252z" />
    <glyph glyph-name="uogonek" unicode="&#x173;" horiz-adv-x="562" 
d="M532 -100h-147q-4 0 -7.5 -2t-5 -5t-1.5 -7v-5q0 -6 4 -10t10 -4h100v-110h-136q-48 0 -81 27t-33 77v37q0 46 27.5 71.5t69.5 30.5h4l-2 28q-48 -36 -120 -36q-85 0 -134.5 50t-49.5 130v328h219v-306q0 -24 24 -27q5 -1 12.5 -1t14.5 1v333h232v-600z" />
    <glyph glyph-name="Wcircumflex" unicode="&#x174;" horiz-adv-x="1054" 
d="M765 732h-196l-42 52l-42 -53h-197l171 186h133zM897 0h-317l-52 328l-53 -328h-317l-134 700h264l43 -421l66 421h261l67 -421l43 421h263z" />
    <glyph glyph-name="wcircumflex" unicode="&#x175;" horiz-adv-x="826" 
d="M651 532h-196l-42 52l-42 -53h-197l172 186h133zM697 0h-236l-48 143l-48 -143h-237l-118 500h238l32 -286l55 286h155l56 -286l31 286h239z" />
    <glyph glyph-name="Ycircumflex" unicode="&#x176;" horiz-adv-x="732" 
d="M604 732h-196l-42 52l-42 -53h-197l171 186h133zM492 255v-255h-252v255l-215 445h268l73 -217l73 217h268z" />
    <glyph glyph-name="ycircumflex" unicode="&#x177;" horiz-adv-x="558" 
d="M515 532h-196l-42 52l-42 -53h-197l172 186h133zM528 500v-513q0 -196 -236 -196q-86 0 -220 30l29 154q101 -21 153 -21q41 0 41 34v41q-45 -27 -106 -29q-69 0 -116.5 43.5t-47.5 137.5v319h219v-306q0 -24 24 -27q4 -1 12.5 -1t14.5 1v333h233z" />
    <glyph glyph-name="Ydieresis" unicode="&#x178;" horiz-adv-x="732" 
d="M334 763h-151v154h151v-154zM548 763h-151v154h151v-154zM492 255v-255h-252v255l-215 445h268l73 -217l73 217h268z" />
    <glyph glyph-name="Zacute" unicode="&#x179;" horiz-adv-x="651" 
d="M358 732h-169l102 185h201zM616 613l-258 -417h268v-196h-601v87l258 417h-238v196h571v-87z" />
    <glyph glyph-name="zacute" unicode="&#x17a;" horiz-adv-x="497" 
d="M267 532h-169l102 185h201zM467 387l-181 -222h191v-165h-457v115l183 220h-163v166h427v-114z" />
    <glyph glyph-name="Zdotaccent" unicode="&#x17b;" horiz-adv-x="651" 
d="M414 763h-151v154h151v-154zM616 613l-258 -417h268v-196h-601v87l258 417h-238v196h571v-87z" />
    <glyph glyph-name="zdotaccent" unicode="&#x17c;" horiz-adv-x="497" 
d="M322 563h-150v154h150v-154zM467 387l-181 -222h191v-165h-457v115l183 220h-163v166h427v-114z" />
    <glyph glyph-name="Zcaron" unicode="&#x17d;" horiz-adv-x="651" 
d="M407 732h-133l-172 185h196l42 -52l42 52h197zM616 613l-258 -417h268v-196h-601v87l258 417h-238v196h571v-87z" />
    <glyph glyph-name="zcaron" unicode="&#x17e;" horiz-adv-x="497" 
d="M316 532h-133l-172 185h196l42 -52l42 52h197zM467 387l-181 -222h191v-165h-457v115l183 220h-163v166h427v-114z" />
    <glyph glyph-name="florin" unicode="&#x192;" horiz-adv-x="416" 
d="M396 532h-75q-6 0 -10 -1t-8 -6.5t-4 -16.5v-86h97v-174h-97v-257q0 -200 -255 -200v176q6 0 10 1t8 6.5t4 16.5v257h-51v174h51v113q0 70 59 121.5t143 51.5h128v-176z" />
    <glyph glyph-name="Acaron" unicode="&#x1cd;" horiz-adv-x="753" 
d="M445 732h-133l-172 185h196l42 -52l42 52h197zM723 0h-263l-17 100h-133l-16 -100h-264l187 700h319zM342 296h69l-34 211z" />
    <glyph glyph-name="acaron" unicode="&#x1ce;" horiz-adv-x="541" 
d="M340 532h-133l-172 185h196l42 -52l42 52h197zM89 316l-29 163q135 30 218 30q238 0 238 -197v-312h-189l-12 28q-64 -36 -136 -36q-70 0 -116.5 38.5t-47.5 116.5v4q2 145 194 145q18 0 37 -1q25 -2 37 -4v12q0 34 -41 34q-54 0 -153 -21zM283 139v53q-7 1 -20 1
q-16 0 -23.5 -4t-7.5 -16v-26q0 -18 14 -19q14 0 37 11z" />
    <glyph glyph-name="Icaron" unicode="&#x1cf;" horiz-adv-x="331" 
d="M232 732h-133l-172 185h196l42 -52l42 52h197zM291 0h-251v700h251v-700z" />
    <glyph glyph-name="icaron" unicode="&#x1d0;" horiz-adv-x="311" 
d="M225 532h-133l-172 185h196l42 -52l42 52h197zM271 0h-232v500h232v-500z" />
    <glyph glyph-name="Ocaron" unicode="&#x1d1;" horiz-adv-x="665" 
d="M399 732h-133l-172 185h196l42 -52l42 52h197zM317 710h28q80 0 145.5 -29.5t107.5 -91t42 -144.5v-190q0 -119 -81.5 -192t-213.5 -73h-28q-137 0 -214.5 73.5t-77.5 191.5v190q0 125 81.5 195t210.5 70zM333 514h-4q-53 -1 -53 -62v-204q0 -61 54 -62h3q25 1 40.5 13.5
t15.5 48.5v204q0 61 -56 62z" />
    <glyph glyph-name="ocaron" unicode="&#x1d2;" horiz-adv-x="544" 
d="M336 532h-133l-172 185h196l42 -52l42 52h197zM20 187v127q0 67 39.5 112.5t94 64t117.5 18.5q108 0 180.5 -48t72.5 -147v-127q0 -98 -73.5 -146.5t-179.5 -48.5q-103 0 -177 51t-74 144zM298 190v121q0 22 -27 22q-25 0 -25 -22v-121q0 -22 25 -22q27 0 27 22z" />
    <glyph glyph-name="Ucaron" unicode="&#x1d3;" horiz-adv-x="666" 
d="M395 732h-133l-172 185h196l42 -52l42 52h197zM631 700v-462q0 -55 -16 -98.5t-42.5 -71t-64.5 -45.5t-79 -25.5t-88 -7.5h-24q-63 0 -113.5 13t-90 41.5t-61.5 77.5t-22 116v462h251v-462q0 -19 4.5 -30t13 -15.5t14.5 -5.5t16 -1h4q11 0 17 1t14 5.5t11.5 16t3.5 29.5
v462h252z" />
    <glyph glyph-name="ucaron" unicode="&#x1d4;" 
d="M343 532h-133l-172 185h196l42 -52l42 52h197zM527 0h-188l-10 28q-48 -36 -120 -36q-85 0 -134.5 50t-49.5 130v328h219v-306q0 -24 24 -27q4 -1 12 -1t15 1v333h232v-500z" />
    <glyph glyph-name="Udieresismacron" unicode="&#x1d5;" horiz-adv-x="660" 
d="M503 956h-349v134h349v-134zM296 763h-151v154h151v-154zM510 763h-151v154h151v-154zM631 700v-462q0 -55 -16 -98.5t-42.5 -71t-64.5 -45.5t-79 -25.5t-88 -7.5h-24q-63 0 -113.5 13t-90 41.5t-61.5 77.5t-22 116v462h251v-462q0 -19 4.5 -30t13 -15.5t14.5 -5.5t16 -1
h4q11 0 17 1t14 5.5t11.5 16t3.5 29.5v462h252z" />
    <glyph glyph-name="udieresismacron" unicode="&#x1d6;" horiz-adv-x="562" 
d="M456 750h-350v134h350v-134zM248 563h-150v154h150v-154zM462 563h-151v154h151v-154zM532 0h-188l-10 28q-48 -36 -120 -36q-85 0 -134.5 50t-49.5 130v328h219v-306q0 -24 24 -27q5 -1 12.5 -1t14.5 1v333h232v-500z" />
    <glyph glyph-name="Udieresisacute" unicode="&#x1d7;" horiz-adv-x="660" 
d="M346 956h-169l102 185h201zM296 763h-151v154h151v-154zM510 763h-151v154h151v-154zM631 700v-462q0 -55 -16 -98.5t-42.5 -71t-64.5 -45.5t-79 -25.5t-88 -7.5h-24q-63 0 -113.5 13t-90 41.5t-61.5 77.5t-22 116v462h251v-462q0 -19 4.5 -30t13 -15.5t14.5 -5.5t16 -1
h4q11 0 17 1t14 5.5t11.5 16t3.5 29.5v462h252z" />
    <glyph glyph-name="udieresisacute" unicode="&#x1d8;" horiz-adv-x="562" 
d="M298 750h-168l102 185h200zM248 563h-150v154h150v-154zM462 563h-151v154h151v-154zM532 0h-188l-10 28q-48 -36 -120 -36q-85 0 -134.5 50t-49.5 130v328h219v-306q0 -24 24 -27q5 -1 12.5 -1t14.5 1v333h232v-500z" />
    <glyph glyph-name="Udieresiscaron" unicode="&#x1d9;" horiz-adv-x="666" 
d="M395 956h-133l-172 185h196l42 -52l42 52h197zM296 763h-151v154h151v-154zM510 763h-151v154h151v-154zM631 700v-462q0 -55 -16 -98.5t-42.5 -71t-64.5 -45.5t-79 -25.5t-88 -7.5h-24q-63 0 -113.5 13t-90 41.5t-61.5 77.5t-22 116v462h251v-462q0 -19 4.5 -30
t13 -15.5t14.5 -5.5t16 -1h4q11 0 17 1t14 5.5t11.5 16t3.5 29.5v462h252z" />
    <glyph glyph-name="udieresiscaron" unicode="&#x1da;" horiz-adv-x="562" 
d="M348 750h-134l-172 185h196l42 -52l42 52h198zM248 563h-150v154h150v-154zM462 563h-151v154h151v-154zM532 0h-188l-10 28q-48 -36 -120 -36q-85 0 -134.5 50t-49.5 130v328h219v-306q0 -24 24 -27q5 -1 12.5 -1t14.5 1v333h232v-500z" />
    <glyph glyph-name="Udieresisgrave" unicode="&#x1db;" horiz-adv-x="660" 
d="M459 956h-169l-134 186h201zM296 763h-151v154h151v-154zM510 763h-151v154h151v-154zM631 700v-462q0 -55 -16 -98.5t-42.5 -71t-64.5 -45.5t-79 -25.5t-88 -7.5h-24q-63 0 -113.5 13t-90 41.5t-61.5 77.5t-22 116v462h251v-462q0 -19 4.5 -30t13 -15.5t14.5 -5.5t16 -1
h4q11 0 17 1t14 5.5t11.5 16t3.5 29.5v462h252z" />
    <glyph glyph-name="udieresisgrave" unicode="&#x1dc;" horiz-adv-x="562" 
d="M411 750h-169l-133 186h200zM248 563h-150v154h150v-154zM462 563h-151v154h151v-154zM532 0h-188l-10 28q-48 -36 -120 -36q-85 0 -134.5 50t-49.5 130v328h219v-306q0 -24 24 -27q5 -1 12.5 -1t14.5 1v333h232v-500z" />
    <glyph glyph-name="Adieresismacron" unicode="&#x1de;" horiz-adv-x="753" 
d="M553 957h-349v134h349v-134zM346 763h-151v154h151v-154zM560 763h-151v154h151v-154zM723 0h-263l-17 100h-133l-16 -100h-264l187 700h319zM342 296h69l-34 210z" />
    <glyph glyph-name="adieresismacron" unicode="&#x1df;" horiz-adv-x="541" 
d="M438 750h-349v134h349v-134zM231 563h-151v154h151v-154zM445 563h-151v154h151v-154zM89 316l-29 163q135 30 218 30q238 0 238 -197v-312h-189l-12 28q-64 -36 -136 -36q-70 0 -116.5 38.5t-47.5 116.5v4q2 145 194 145q18 0 37 -1q25 -2 37 -4v12q0 34 -41 34
q-54 0 -153 -21zM283 139v53q-7 1 -20 1q-16 0 -23.5 -4t-7.5 -16v-26q0 -18 14 -19q14 0 37 11z" />
    <glyph glyph-name="Gcaron" unicode="&#x1e6;" horiz-adv-x="648" 
d="M395 732h-133l-172 185h196l42 -52l42 52h197zM316 710h27q123 0 248 -39l-34 -183q-124 26 -228 26q-53 0 -53 -62v-204q0 -61 48 -61l6 -1q26 0 59 12v50h-61v174h275v-359q-145 -73 -260 -73h-27q-137 0 -214 68t-77 197v190q0 40 8 75t22 61.5t34.5 48t45 36.5t54 25
t61 14.5t66.5 4.5z" />
    <glyph glyph-name="gcaron" unicode="&#x1e7;" horiz-adv-x="552" 
d="M338 532h-133l-172 185h196l42 -52l42 52h197zM20 181v150q0 77 49.5 126.5t134.5 49.5q73 0 121 -36l10 28h187v-513q0 -196 -236 -196q-86 0 -220 30l29 154q101 -21 154 -21q41 0 41 34v41q-46 -28 -106 -28q-69 0 -116.5 43.5t-47.5 137.5zM291 166v158q-16 7 -24 7
q-12 0 -20 -8t-8 -20v-110q0 -24 24 -27q4 -1 12 -1t16 1z" />
    <glyph glyph-name="Oslashacute" unicode="&#x1fe;" horiz-adv-x="705" 
d="M328 732h-168l102 185h200zM614 750l-46 -105q92 -74 92 -200v-190q0 -119 -81.5 -192t-213.5 -73h-28q-30 0 -58 4l-19 -44h-169l46 102q-92 72 -92 203v190q0 125 82 195t210 70h28q32 0 62 -5l20 45h167zM296 411l46 102q-46 -5 -46 -61v-41zM409 288l-44 -101
q44 5 44 61v40z" />
    <glyph glyph-name="oslashacute" unicode="&#x1ff;" horiz-adv-x="564" 
d="M264 532h-169l102 185h201zM460 551l-32 -71q106 -50 106 -166v-127q0 -51 -21 -89.5t-57.5 -61t-80.5 -33.5t-94 -11q-34 0 -67 6l-22 -49h-88l33 74q-50 24 -78.5 65.5t-28.5 98.5v127q0 51 22.5 90t59.5 61t80 33t89 11q37 0 71 -6l21 48h87zM256 289l19 44
q-19 -3 -19 -22v-22zM308 210l-18 -41q18 2 18 21v20z" />
    <glyph glyph-name="Scommaaccent" unicode="&#x218;" horiz-adv-x="605" 
d="M30 455v5q0 133 64.5 192t202.5 59q81 0 130 -6t96 -21l-21 -199q-98 25 -194 25q-19 0 -19 -15v-2q0 -13 12 -17l118 -40q66 -23 97 -44t45.5 -55.5t14.5 -96.5l-1 -6q0 -70 -19 -118t-57.5 -75.5t-90.5 -39t-126 -11.5q-144 0 -239 30l19 200q72 -19 123.5 -25.5
t115.5 -5.5q9 0 14.5 5.5t5.5 13.5v9q0 12 -12 16l-129 41q-48 17 -73 30t-44.5 33t-26 47t-6.5 71zM385 -135l-73 -137h-104l41 81h-41v143h177v-87z" />
    <glyph glyph-name="scommaaccent" unicode="&#x219;" horiz-adv-x="458" 
d="M227 507h12q102 -1 169 -19l-13 -146q-67 17 -129 18h-10q-15 0 -15 -11q0 -10 9 -13l85 -27q69 -24 91 -49.5t22 -87.5q0 -99 -55 -138.5t-172 -39.5h-10q-112 1 -185 25l12 142q88 -22 165 -22h7q15 1 15 17q0 11 -9 14l-93 29q-47 16 -67.5 29t-30.5 35.5t-10 64.5
q0 95 51.5 137t160.5 42zM316 -135l-73 -137h-104l41 81h-41v143h177v-87z" />
    <glyph glyph-name="uni021A" unicode="&#x21a;" horiz-adv-x="650" 
d="M625 506h-174v-506h-252v506h-174v194h600v-194zM414 -135l-73 -137h-105l42 81h-42v143h178v-87z" />
    <glyph glyph-name="uni021B" unicode="&#x21b;" horiz-adv-x="431" 
d="M303 500h98v-174h-98v-136q0 -16 6.5 -20t16.5 -4h75v-176h-128q-84 0 -143 52t-59 122v162h-51v174h51v120h232v-120zM300 -135l-73 -137h-105l42 81h-42v143h178v-87z" />
    <glyph glyph-name="circumflex" unicode="&#x2c6;" horiz-adv-x="537" 
d="M507 532h-196l-42 52l-42 -53h-197l171 186h133z" />
    <glyph glyph-name="caron" unicode="&#x2c7;" horiz-adv-x="537" 
d="M335 532h-133l-172 185h196l42 -52l42 52h197z" />
    <glyph glyph-name="breve" unicode="&#x2d8;" horiz-adv-x="406" 
d="M231 717h145q0 -50 -14 -89.5t-47 -66t-81 -26.5h-66q-68 0 -103 52.5t-35 129.5h145q0 -27 5.5 -36t19.5 -9h6q14 0 19.5 10t5.5 35z" />
    <glyph glyph-name="dotaccent" unicode="&#x2d9;" horiz-adv-x="211" 
d="M181 563h-151v154h151v-154z" />
    <glyph glyph-name="ring" unicode="&#x2da;" horiz-adv-x="295" 
d="M146 751q49 0 84 -34.5t35 -80.5q0 -51 -34.5 -85t-84.5 -34q-49 0 -82.5 34t-33.5 85q0 46 34 80.5t82 34.5zM146 661q-10 0 -17.5 -7.5t-7.5 -17.5t7.5 -17.5t17.5 -7.5t17.5 7.5t7.5 17.5t-7.5 17.5t-17.5 7.5z" />
    <glyph glyph-name="ogonek" unicode="&#x2db;" horiz-adv-x="310" 
d="M221 -100h-41q-6 0 -10 -4t-4 -10v-5q0 -6 4 -10t10 -4h100v-110h-136q-47 0 -80.5 27t-33.5 77v37q0 51 33 76.5t81 25.5h77v-100z" />
    <glyph glyph-name="tilde" unicode="&#x2dc;" horiz-adv-x="477" 
d="M358 733l89 -95q-87 -91 -162 -91q-29 0 -55 16q-6 3 -13 8.5t-10.5 8.5t-9 5.5t-11.5 2.5q-10 0 -27 -11.5t-29 -22.5l-12 -11l-88 95q35 36 77.5 62.5t75.5 29.5q7 0 14 -0.5t12 -1t11 -3t9 -3.5t8.5 -4.5t7.5 -4.5t7.5 -5t6.5 -5q17 -11 31 -11q6 0 13.5 2.5t16 8.5
t13.5 10t14.5 11.5t10.5 8.5z" />
    <glyph glyph-name="hungarumlaut" unicode="&#x2dd;" horiz-adv-x="623" 
d="M199 529h-169l102 186h201zM459 529h-169l102 186h201z" />
    <glyph glyph-name="dotbelowcomb" unicode="&#x323;" horiz-adv-x="0" 
d="M228 -201h-198v148h198v-148z" />
    <glyph glyph-name="commaaccentcomb" unicode="&#x326;" horiz-adv-x="0" 
d="M207 -135l-73 -137h-104l41 81h-41v143h177v-87z" />
    <glyph glyph-name="circumflexbelowcomb" unicode="&#x32d;" horiz-adv-x="0" 
d="M507 -237h-197l-42 52l-42 -52h-196l172 185h133z" />
    <glyph glyph-name="macronbelowcomb" unicode="&#x331;" horiz-adv-x="0" 
d="M399 -180h-369v114h369v-114z" />
    <glyph glyph-name="Delta" unicode="&#x394;" horiz-adv-x="833" 
 />
    <glyph glyph-name="Omega" unicode="&#x3a9;" horiz-adv-x="833" 
 />
    <glyph glyph-name="mu" unicode="&#x3bc;" horiz-adv-x="833" 
 />
    <glyph glyph-name="pi" unicode="&#x3c0;" horiz-adv-x="118" 
 />
    <glyph glyph-name="uni0401" unicode="&#x401;" horiz-adv-x="549" 
d="M235 763h-150v154h150v-154zM449 763h-151v154h151v-154zM520 504h-237v-54h207v-196h-207v-58h237v-196h-490v700h490v-196z" />
    <glyph glyph-name="uni0410" unicode="&#x410;" horiz-adv-x="753" 
d="M723 0h-263l-17 100h-133l-16 -100h-264l187 700h319zM342 296h69l-34 211z" />
    <glyph glyph-name="uni0411" unicode="&#x411;" horiz-adv-x="643" 
d="M568 514h-267v-36h81q116 0 176.5 -61t60.5 -178v-12q-3 -111 -63.5 -169t-173.5 -58h-332v700h518v-186zM301 278v-78h40q12 0 19.5 7.5t7.5 21.5v20q0 14 -7.5 21.5t-19.5 7.5h-40z" />
    <glyph glyph-name="uni0412" unicode="&#x412;" horiz-adv-x="641" 
d="M40 700h398q76 0 116.5 -43.5t40.5 -121.5v-16q0 -112 -87 -153q108 -30 108 -170v-17q0 -80 -41 -129.5t-116 -49.5h-419v700zM291 515v-84h40q27 0 27 28v27q0 29 -27 29h-40zM291 280v-84h55q26 0 26 29v27q0 28 -26 28h-55z" />
    <glyph glyph-name="uni0413" unicode="&#x413;" horiz-adv-x="593" 
d="M568 514h-267v-514h-251v700h518v-186z" />
    <glyph glyph-name="uni0414" unicode="&#x414;" horiz-adv-x="811" 
d="M712 199h69v-310h-250v112h-269v-112h-250v310h54q49 0 49 63v438h597v-501zM367 502v-283q0 -8 -6 -14t-14 -6h115v303h-95z" />
    <glyph glyph-name="uni0415" unicode="&#x415;" horiz-adv-x="549" 
d="M520 504h-237v-54h207v-196h-207v-58h237v-196h-490v700h490v-196z" />
    <glyph glyph-name="uni0416" unicode="&#x416;" horiz-adv-x="1087" 
d="M812 350l265 -350h-334l-76 208v-208h-247v208l-76 -208h-334l265 350l-248 351h325l68 -205v205h247v-205l68 205h325z" />
    <glyph glyph-name="uni0417" unicode="&#x417;" horiz-adv-x="620" 
d="M244 698h133q87 0 147 -56t61 -136v-35q0 -20 -5.5 -37t-14 -28t-16.5 -19t-13 -12l-6 -3q3 -1 7 -4t15.5 -13t20 -22t15.5 -32.5t7 -42.5v-65q0 -81 -60 -137.5t-148 -56.5h-153q-90 0 -149.5 56.5t-59.5 143.5h218q0 -8 3 -14t8.5 -9t12.5 -3h87q11 0 17.5 7t6.5 19v63
q0 12 -6.5 19t-17.5 7h-109v156h109q11 0 17.5 7t6.5 19v26q0 26 -24 26h-87q-24 0 -24 -26h-208q2 88 61 145t148 57z" />
    <glyph glyph-name="uni0418" unicode="&#x418;" horiz-adv-x="679" 
d="M649 0h-247v268l-131 -268h-241v700h248v-273l131 273h240v-700z" />
    <glyph glyph-name="uni0419" unicode="&#x419;" horiz-adv-x="679" 
d="M406 750h-133l-172 185h196l42 -52l42 52h197zM649 0h-247v268l-131 -268h-241v700h248v-273l131 273h240v-700z" />
    <glyph glyph-name="uni041A" unicode="&#x41a;" horiz-adv-x="697" 
d="M478 350l194 -350h-294l-101 228v-228h-247v701h247v-225l93 225h285z" />
    <glyph glyph-name="uni041B" unicode="&#x41b;" horiz-adv-x="723" 
d="M693 0h-251v502h-96v-290q0 -94 -64.5 -156.5t-145.5 -62.5h-124v234h33q49 0 49 63v410h599v-700z" />
    <glyph glyph-name="uni041C" unicode="&#x41c;" horiz-adv-x="800" 
d="M770 0h-247l-7 245l-49 -115h-132l-49 115l-10 -245h-246l25 700h248l97 -243l93 243h249z" />
    <glyph glyph-name="uni041D" unicode="&#x41d;" horiz-adv-x="678" 
d="M638 0h-252v247h-95v-247h-251v700h251v-257h95v257h252v-700z" />
    <glyph glyph-name="uni041E" unicode="&#x41e;" horiz-adv-x="665" 
d="M317 710h28q80 0 145.5 -29.5t107.5 -91t42 -144.5v-190q0 -119 -81.5 -192t-213.5 -73h-28q-137 0 -214.5 73.5t-77.5 191.5v190q0 125 81.5 195t210.5 70zM333 514h-4q-53 -1 -53 -62v-204q0 -61 54 -62h3q25 1 40.5 13.5t15.5 48.5v204q0 61 -56 62z" />
    <glyph glyph-name="uni041F" unicode="&#x41f;" horiz-adv-x="677" 
d="M637 0h-250v502h-96v-502h-251v700h597v-700z" />
    <glyph glyph-name="uni0420" unicode="&#x420;" horiz-adv-x="644" 
d="M50 700h332q114 0 175.5 -65.5t61.5 -183.5v-50q0 -118 -61.5 -183.5t-175.5 -65.5h-81v-152h-251v700zM301 500v-148h40q27 0 27 29v90q0 29 -27 29h-40z" />
    <glyph glyph-name="uni0421" unicode="&#x421;" horiz-adv-x="539" 
d="M315 710h26q77 0 173 -29l-15 -179q-85 11 -159 12h-12q-52 0 -52 -62v-204q0 -62 52 -62h12q74 1 159 12l15 -179q-96 -29 -173 -29h-26q-60 0 -111.5 16t-92 48t-63.5 83.5t-23 117.5v190q0 66 23 117.5t63.5 83.5t92 48t111.5 16z" />
    <glyph glyph-name="uni0422" unicode="&#x422;" horiz-adv-x="650" 
d="M625 506h-174v-506h-252v506h-174v194h600v-194z" />
    <glyph glyph-name="uni0423" unicode="&#x423;" horiz-adv-x="782" 
d="M517 311v-311h-252v311l-240 389h263l103 -207l103 207h263z" />
    <glyph glyph-name="uni0424" unicode="&#x424;" horiz-adv-x="937" 
d="M594 654h81q114 0 175.5 -65.5t61.5 -183.5v-50q0 -118 -61.5 -183.5t-175.5 -65.5h-81v-106h-251v106h-81q-114 0 -175.5 65.5t-61.5 183.5v50q0 118 61.5 183.5t175.5 65.5h81v46h251v-46zM343 454h-40q-27 0 -27 -29v-90q0 -29 27 -29h40v148zM594 454v-148h40
q27 0 27 29v90q0 29 -27 29h-40z" />
    <glyph glyph-name="uni0425" unicode="&#x425;" horiz-adv-x="733" 
d="M516 350l207 -350h-263l-94 186l-93 -186h-263l207 350l-207 350h263l93 -187l94 187h263z" />
    <glyph glyph-name="uni0426" unicode="&#x426;" horiz-adv-x="751" 
d="M647 198h74v-316h-250v119h-421v700h251v-503h95v503h251v-503z" />
    <glyph glyph-name="uni0427" unicode="&#x427;" horiz-adv-x="662" 
d="M612 0h-250v215q-10 -1 -31 -1h-28q-139 0 -208.5 70.5t-69.5 184.5v231h250v-249q0 -23 3.5 -30t13.5 -7h50q11 0 15 9.5t4 34.5v242h251v-700z" />
    <glyph glyph-name="uni0428" unicode="&#x428;" horiz-adv-x="1032" 
d="M992 1h-942v700h250v-503h95v503h251v-503h95v503h251v-700z" />
    <glyph glyph-name="uni0429" unicode="&#x429;" horiz-adv-x="1107" 
d="M993 198h84v-316h-250v119h-777v700h251v-503h95v503h251v-503h95v503h251v-503z" />
    <glyph glyph-name="uni042A" unicode="&#x42a;" horiz-adv-x="721" 
d="M378 548h81q114 0 175.5 -65.5t61.5 -183.5v-50q0 -118 -61.5 -183.5t-175.5 -65.5h-332v506h-115v194h366v-152zM378 348v-148h40q27 0 27 29v90q0 29 -27 29h-40z" />
    <glyph glyph-name="uni042B" unicode="&#x42b;" horiz-adv-x="951" 
d="M301 548h81q114 0 175.5 -65.5t61.5 -183.5v-50q0 -118 -61.5 -183.5t-175.5 -65.5h-332v700h251v-152zM911 0h-251v700h251v-700zM301 348v-148h40q27 0 27 29v90q0 29 -27 29h-40z" />
    <glyph glyph-name="uni042C" unicode="&#x42c;" horiz-adv-x="644" 
d="M301 548h81q114 0 175.5 -65.5t61.5 -183.5v-50q0 -118 -61.5 -183.5t-175.5 -65.5h-332v700h251v-152zM301 348v-148h40q27 0 27 29v90q0 29 -27 29h-40z" />
    <glyph glyph-name="uni042D" unicode="&#x42d;" horiz-adv-x="540" 
d="M198 708l27 2q60 0 111.5 -16t92 -47.5t63.5 -83.5t23 -118v-190q0 -66 -23 -118t-63.5 -83.5t-92 -47.5t-111.5 -16h-27q-77 0 -173 28l16 180q80 -11 158 -12h13q52 0 52 61v17h-177v173h177v14q0 61 -52 61h-14q-77 -1 -157 -12l-16 180q96 28 173 28z" />
    <glyph glyph-name="uni042E" unicode="&#x42e;" horiz-adv-x="1002" 
d="M654 711h27q60 0 113 -17.5t94 -50t65 -83.5t24 -114v-190q0 -120 -81.5 -193t-213.5 -73h-28q-130 0 -207 67.5t-84 178.5l-1 16h-61v-252h-251v700h251v-251h61l1 10q2 60 25.5 108t62.5 79.5t91 48t112 16.5zM669 515h-4q-54 -1 -54 -62v-204q0 -61 54 -62h4
q25 1 40 13.5t15 48.5v204q0 61 -55 62z" />
    <glyph glyph-name="uni042F" unicode="&#x42f;" horiz-adv-x="676" 
d="M636 0h-251v154h-22l-46 -154h-292l102 221q-61 66 -61 182v48q0 118 61.5 183.5t175.5 65.5h333v-700zM384 500h-40q-27 0 -27 -29v-92q0 -28 27 -28h40v149z" />
    <glyph glyph-name="uni0430" unicode="&#x430;" horiz-adv-x="541" 
d="M89 316l-29 163q135 30 218 30q238 0 238 -197v-312h-189l-12 28q-64 -36 -136 -36q-70 0 -116.5 38.5t-47.5 116.5v4q2 145 194 145q18 0 37 -1q25 -2 37 -4v12q0 34 -41 34q-54 0 -153 -21zM283 139v53q-7 1 -20 1q-16 0 -23.5 -4t-7.5 -16v-26q0 -18 14 -19
q14 0 37 11z" />
    <glyph glyph-name="uni0431" unicode="&#x431;" horiz-adv-x="559" 
d="M231 707h64q80 0 195 -26v-196q-128 36 -195 36h-10q-25 0 -29 -36v-34q35 6 39 6h48q79 -2 130 -38.5t51 -108.5v-124q0 -50 -20 -88t-54.5 -61t-77 -34.5t-91.5 -11.5h-10q-65 0 -119.5 20t-91.5 64t-40 104v343q0 84 60.5 134.5t150.5 50.5zM273 275h-1q-25 0 -25 -22
v-64q0 -22 25 -22h1q25 1 25 22v64q0 22 -25 22z" />
    <glyph glyph-name="uni0432" unicode="&#x432;" horiz-adv-x="596" 
d="M35 500h383q66 0 108.5 -42t42.5 -96v-31q0 -36 -21 -69q28 -37 28 -81v-43q0 -58 -42.5 -98t-109.5 -40h-389v500zM270 351v-27h72q5 0 9 3.5t4 8.5v2q0 6 -4 9.5t-9 3.5h-72zM270 179v-26h78q4 0 7 1.5t5 4.5t2 6v2q0 5 -4 8.5t-10 3.5h-78z" />
    <glyph glyph-name="uni0433" unicode="&#x433;" horiz-adv-x="465" 
d="M445 314h-175v-314h-235v500h410v-186z" />
    <glyph glyph-name="uni0434" unicode="&#x434;" horiz-adv-x="725" 
d="M618 186h82v-285h-239v99h-197v-99h-239v285h50q33 0 33 42v272h510v-314zM334 314v-108q0 -8 -6 -14t-14 -6h79v128h-59z" />
    <glyph glyph-name="uni0435" unicode="&#x435;" horiz-adv-x="524" 
d="M20 187v127q0 51 21.5 90t57.5 61t77 33t85 11q49 0 91.5 -11t77 -33.5t54.5 -61t20 -89.5v-118h-267v-24q0 -22 25 -22q66 0 209 14l27 -147q-120 -24 -212 -24q-266 0 -266 194zM288 291v38q0 22 -26 22q-25 0 -25 -22v-38h51z" />
    <glyph glyph-name="uni0436" unicode="&#x436;" horiz-adv-x="979" 
d="M746 266l223 -266h-272l-96 139v-139h-223v139l-96 -139h-272l223 266l-216 234h273l88 -116v117h223v-117l88 116h273z" />
    <glyph glyph-name="uni0437" unicode="&#x437;" horiz-adv-x="531" 
d="M168 501h186q65 0 108 -42t43 -96v-30q0 -16 -7 -33.5t-14 -27.5l-7 -9q34 -42 34 -81v-43q0 -58 -42.5 -98t-108.5 -40h-193q-62 0 -105.5 58t-46.5 124h193q2 -26 9 -26h93q9 0 9 13v12q0 9 -9 9h-54v126h48q7 0 8 13v1q-2 14 -8 14h-87q-7 0 -9 -22h-193q2 66 46 122
t107 56z" />
    <glyph glyph-name="uni0438" unicode="&#x438;" horiz-adv-x="567" 
d="M537 0h-226v131l-93 -131h-188v500h226v-141l93 141h188v-500z" />
    <glyph glyph-name="uni0439" unicode="&#x439;" horiz-adv-x="567" 
d="M312 717h145q0 -49 -14.5 -89t-47.5 -66.5t-80 -26.5h-66q-46 0 -78.5 26t-46 66t-13.5 90h145q0 -27 5 -36t20 -9h4q8 0 13 2t8 7.5t4.5 14t1.5 21.5zM537 0h-226v131l-93 -131h-188v500h226v-141l93 141h188v-500z" />
    <glyph glyph-name="uni043A" unicode="&#x43a;" horiz-adv-x="636" 
d="M403 266l223 -266h-272l-96 139v-139h-223v501h223v-117l88 116h273z" />
    <glyph glyph-name="uni043B" unicode="&#x43b;" horiz-adv-x="618" 
d="M588 -1h-235v314h-59v-175q0 -59 -50 -102.5t-121 -43.5h-98v185h3q30 2 30 42v280h530v-500z" />
    <glyph glyph-name="uni043C" unicode="&#x43c;" horiz-adv-x="771" 
d="M386 273l109 227h236l15 -500h-235l-7 211l-55 -126h-126l-56 126l-7 -211h-235l15 500h237z" />
    <glyph glyph-name="uni043D" unicode="&#x43d;" horiz-adv-x="592" 
d="M562 0h-236v163h-59v-163h-237v500h237v-151h59v151h236v-500z" />
    <glyph glyph-name="uni043E" unicode="&#x43e;" horiz-adv-x="544" 
d="M20 187v127q0 67 39.5 112.5t94 64t117.5 18.5q108 0 180.5 -48t72.5 -147v-127q0 -98 -73.5 -146.5t-179.5 -48.5q-103 0 -177 51t-74 144zM298 190v121q0 22 -27 22q-25 0 -25 -22v-121q0 -22 25 -22q27 0 27 22z" />
    <glyph glyph-name="uni043F" unicode="&#x43f;" horiz-adv-x="590" 
d="M560 0h-235v314h-60v-314h-235v500h530v-500z" />
    <glyph glyph-name="uni0440" unicode="&#x440;" 
d="M222 500l10 -28q46 36 121 36q56 0 98.5 -23t64 -63t21.5 -90v-151q0 -94 -47 -137.5t-116 -43.5q-60 2 -107 29v-231h-232v702h187zM319 194v110q0 12 -8 20t-20 8q-7 0 -23 -7v-158q6 -1 14 -1q37 0 37 28z" />
    <glyph glyph-name="uni0441" unicode="&#x441;" horiz-adv-x="404" 
d="M20 182v132q0 53 19 92t52 60.5t73 32t87 10.5q68 0 138 -19l-15 -170q-49 13 -78 13q-50 0 -49 -41v-87q0 -41 49 -41q29 0 78 13l15 -170q-72 -19 -135 -19q-48 0 -88 10t-74 31.5t-53 60.5t-19 92z" />
    <glyph glyph-name="uni0442" unicode="&#x442;" horiz-adv-x="497" 
d="M477 314h-110v-314h-236v314h-111v186h457v-186z" />
    <glyph glyph-name="uni0443" unicode="&#x443;" horiz-adv-x="558" 
d="M528 500v-513q0 -196 -236 -196q-86 0 -220 30l29 154q101 -21 153 -21q41 0 41 34v41q-45 -27 -106 -29q-69 0 -116.5 43.5t-47.5 137.5v319h219v-306q0 -24 24 -27q4 -1 12.5 -1t14.5 1v333h233z" />
    <glyph glyph-name="uni0444" unicode="&#x444;" horiz-adv-x="812" 
d="M488 700v-228q44 36 120 36q85 0 134.5 -49.5t49.5 -126.5v-151q0 -49 -14 -85t-37.5 -56.5t-51.5 -30t-60 -9.5q-60 2 -107 29v-231h-232v231q-47 -27 -107 -29q-32 0 -60 9.5t-51.5 30t-37.5 56.5t-14 85v151q0 77 49.5 126.5t134.5 49.5q75 0 122 -36v228h162z
M289 167v158q-16 7 -23 7q-12 0 -20 -8t-8 -20v-110q0 -24 25 -27q4 -1 12 -1t14 1zM574 194v110q0 12 -8 20t-20 8q-7 0 -23 -7v-158q6 -1 14 -1q37 0 37 28z" />
    <glyph glyph-name="uni0445" unicode="&#x445;" horiz-adv-x="590" 
d="M452 250l128 -250h-243l-44 128l-44 -128h-239l128 250l-118 250h239l34 -131l34 131h243z" />
    <glyph glyph-name="uni0446" unicode="&#x446;" horiz-adv-x="667" 
d="M560 186h82v-285h-239v99h-373v500h236v-314h59v314h235v-314z" />
    <glyph glyph-name="uni0447" unicode="&#x447;" horiz-adv-x="558" 
d="M528 0h-235v160q-10 -14 -55 -14h-49q-42 0 -72.5 9.5t-49 25.5t-29.5 40.5t-14.5 49.5t-3.5 59v170h237v-168q0 -7 5 -12t12 -5h3q6 0 11 5t5 12v168h235v-500z" />
    <glyph glyph-name="uni0448" unicode="&#x448;" horiz-adv-x="835" 
d="M805 0h-775v500h235v-314h35v314h235v-314h35v314h235v-500z" />
    <glyph glyph-name="uni0449" unicode="&#x449;" horiz-adv-x="913" 
d="M806 186h82v-285h-239v99h-619v500h236v-314h34v314h236v-314h34v314h236v-314z" />
    <glyph glyph-name="uni044A" unicode="&#x44a;" horiz-adv-x="649" 
d="M348 332h115q70 0 117.5 -48t48.5 -115v-7q0 -67 -49 -114.5t-117 -47.5h-348v313h-90v187h323v-168zM348 197v-62h59q12 0 21.5 8t9.5 19v7q0 13 -9 20.5t-22 7.5h-59z" />
    <glyph glyph-name="uni044B" unicode="&#x44b;" horiz-adv-x="855" 
d="M268 333h115q68 0 116.5 -47.5t49.5 -115.5v-7q0 -68 -49.5 -115t-116.5 -47h-348v500h233v-168zM825 0h-232v500h232v-500zM268 198v-62h59q13 0 22 9t9 21v2q0 14 -9 22t-22 8h-59z" />
    <glyph glyph-name="uni044C" unicode="&#x44c;" horiz-adv-x="569" 
d="M268 333h115q68 0 116.5 -47.5t49.5 -115.5v-7q0 -68 -49.5 -115t-116.5 -47h-348v500h233v-168zM268 198v-62h59q13 0 22 9t9 21v2q0 14 -9 22t-22 8h-59z" />
    <glyph glyph-name="uni044D" unicode="&#x44d;" horiz-adv-x="405" 
d="M30 317l-15 170q68 18 135 18q107 0 171 -47.5t64 -147.5v-128q0 -100 -64 -147.5t-170 -47.5q-64 0 -136 19l15 170q48 -13 79 -13q46 0 56 25l1 2h-95v114h95v1q-9 25 -57 25q-31 0 -79 -13z" />
    <glyph glyph-name="uni044E" unicode="&#x44e;" horiz-adv-x="808" 
d="M286 342l1 5q9 57 48 94.5t89.5 52t112.5 14.5q49 0 93 -12t80 -35t57 -61t21 -87v-126q0 -63 -36.5 -108.5t-92 -66.5t-122.5 -21q-62 0 -113 15.5t-89.5 52t-47.5 90.5l-1 7h-24v-156h-232v500h232v-158h24zM561 189v121q0 22 -25 22q-26 0 -26 -22v-121q0 -22 26 -22
q25 0 25 22z" />
    <glyph glyph-name="uni044F" unicode="&#x44f;" horiz-adv-x="611" 
d="M581 0h-233v130h-5l-81 -130h-252l157 189q-45 17 -72.5 53.5t-27.5 83.5v14q0 67 49.5 113.5t116.5 46.5h348v-500zM348 365h-59q-8 0 -15 -3.5t-11.5 -10.5t-4.5 -14v-6q0 -12 9 -20t22 -8h59v62z" />
    <glyph glyph-name="uni0451" unicode="&#x451;" horiz-adv-x="524" 
d="M227 563h-150v154h150v-154zM441 563h-151v154h151v-154zM20 187v127q0 51 21.5 90t57.5 61t77 33t85 11q49 0 91.5 -11t77 -33.5t54.5 -61t20 -89.5v-118h-267v-24q0 -22 25 -22q66 0 209 14l27 -147q-120 -24 -212 -24q-266 0 -266 194zM288 291v38q0 22 -26 22
q-25 0 -25 -22v-38h51z" />
    <glyph glyph-name="Bdotbelow" unicode="&#x1e04;" horiz-adv-x="641" 
d="M40 700h398q76 0 116.5 -43.5t40.5 -121.5v-16q0 -112 -87 -153q108 -30 108 -170v-17q0 -80 -41 -129.5t-116 -49.5h-419v700zM291 515v-84h40q27 0 27 28v27q0 29 -27 29h-40zM291 280v-84h55q26 0 26 29v27q0 28 -26 28h-55zM416 -201h-198v148h198v-148z" />
    <glyph glyph-name="bdotbelow" unicode="&#x1e05;" 
d="M267 700v-219q46 28 106 28q32 0 60 -9.5t52 -30t38 -56.5t14 -85v-160q0 -77 -49.5 -126.5t-134.5 -49.5q-73 0 -121 36l-10 -28h-187v700h232zM317 197v110q0 24 -24 27q-5 1 -12.5 1t-14.5 -1v-158q16 -7 24 -7t14.5 3.5t9.5 10t3 14.5zM382 -201h-198v148h198v-148z
" />
    <glyph glyph-name="Ddotbelow" unicode="&#x1e0c;" horiz-adv-x="657" 
d="M50 701h292q125 0 207.5 -67.5t82.5 -197.5v-171q0 -130 -82.5 -197.5t-207.5 -67.5h-292v701zM303 504v-307h25q52 0 52 61v185q0 61 -52 61h-25zM416 -201h-198v148h198v-148z" />
    <glyph glyph-name="ddotbelow" unicode="&#x1e0d;" 
d="M522 0h-187l-10 28q-47 -36 -121 -36q-85 0 -134.5 49.5t-49.5 126.5v160q0 49 14 85t37.5 56.5t51.5 30t60 9.5q60 0 107 -29v220h232v-700zM290 176v157q-7 1 -15 1q-36 0 -36 -28v-110q0 -12 7.5 -19.5t19.5 -7.5q8 0 24 7zM391 -201h-198v148h198v-148z" />
    <glyph glyph-name="Dlinebelow" unicode="&#x1e0e;" horiz-adv-x="657" 
d="M50 701h292q125 0 207.5 -67.5t82.5 -197.5v-171q0 -130 -82.5 -197.5t-207.5 -67.5h-292v701zM303 504v-307h25q52 0 52 61v185q0 61 -52 61h-25zM521 -180h-369v114h369v-114z" />
    <glyph glyph-name="dlinebelow" unicode="&#x1e0f;" 
d="M522 0h-187l-10 28q-47 -36 -121 -36q-85 0 -134.5 49.5t-49.5 126.5v160q0 49 14 85t37.5 56.5t51.5 30t60 9.5q60 0 107 -29v220h232v-700zM290 176v157q-7 1 -15 1q-36 0 -36 -28v-110q0 -12 7.5 -19.5t19.5 -7.5q8 0 24 7zM476 -180h-369v114h369v-114z" />
    <glyph glyph-name="Dcircumflexbelow" unicode="&#x1e12;" horiz-adv-x="657" 
d="M50 701h292q125 0 207.5 -67.5t82.5 -197.5v-171q0 -130 -82.5 -197.5t-207.5 -67.5h-292v701zM303 504v-307h25q52 0 52 61v185q0 61 -52 61h-25zM585 -237h-197l-42 52l-42 -52h-196l172 185h133z" />
    <glyph glyph-name="dcircumflexbelow" unicode="&#x1e13;" 
d="M522 0h-187l-10 28q-47 -36 -121 -36q-85 0 -134.5 49.5t-49.5 126.5v160q0 49 14 85t37.5 56.5t51.5 30t60 9.5q60 0 107 -29v220h232v-700zM290 176v157q-7 1 -15 1q-36 0 -36 -28v-110q0 -12 7.5 -19.5t19.5 -7.5q8 0 24 7zM528 -237h-197l-42 52l-42 -52h-196
l172 185h133z" />
    <glyph glyph-name="Hdotbelow" unicode="&#x1e24;" horiz-adv-x="678" 
d="M638 0h-252v247h-95v-247h-251v700h251v-257h95v257h252v-700zM450 -201h-198v148h198v-148z" />
    <glyph glyph-name="hdotbelow" unicode="&#x1e25;" 
d="M262 700v-220q47 29 107 29q32 0 60 -9.5t51.5 -30t37.5 -56.5t14 -85v-328h-218v306q0 25 -25 27q-4 1 -12 1t-15 -1v-333h-232v700h232zM390 -201h-198v148h198v-148z" />
    <glyph glyph-name="Idieresisacute" unicode="&#x1e2e;" horiz-adv-x="311" 
d="M174 977h-170l102 185h202zM123 763h-151v154h151v-154zM337 763h-151v154h151v-154zM281 0h-251v700h251v-700z" />
    <glyph glyph-name="idieresisacute" unicode="&#x1e2f;" horiz-adv-x="311" 
d="M176 750h-169l102 185h201zM126 563h-151v154h151v-154zM340 563h-151v154h151v-154zM271 0h-232v500h232v-500z" />
    <glyph glyph-name="Ldotbelow" unicode="&#x1e36;" horiz-adv-x="573" 
d="M302 195h246v-195h-498v699h252v-504zM406 -201h-198v148h198v-148z" />
    <glyph glyph-name="ldotbelow" unicode="&#x1e37;" horiz-adv-x="297" 
d="M267 0h-232v700h232v-700zM250 -201h-198v148h198v-148z" />
    <glyph glyph-name="Lcircumflexbelow" unicode="&#x1e3c;" horiz-adv-x="573" 
d="M302 195h246v-195h-498v699h252v-504zM577 -237h-197l-42 52l-42 -52h-196l172 185h133z" />
    <glyph glyph-name="lcircumflexbelow" unicode="&#x1e3d;" horiz-adv-x="297" 
d="M267 0h-232v700h232v-700zM387 -237h-197l-42 52l-42 -52h-196l172 185h133z" />
    <glyph glyph-name="Macute" unicode="&#x1e3e;" horiz-adv-x="800" 
d="M475 740h-169l102 185h201zM770 0h-247l-7 245l-49 -115h-132l-49 115l-10 -245h-246l25 700h248l97 -243l93 243h249z" />
    <glyph glyph-name="macute" unicode="&#x1e3f;" horiz-adv-x="795" 
d="M452 532h-170l102 185h202zM208 500l9 -28q46 36 118 36q67 0 112 -35q50 35 129 35q90 0 142 -50t52 -130v-328h-208v306q0 25 -23 27q-10 2 -29 0l1 -17v-316h-209v306q0 25 -23 27q-10 2 -28 0v-333h-221v500h178z" />
    <glyph glyph-name="Ndotaccent" unicode="&#x1e44;" horiz-adv-x="679" 
d="M414 763h-151v154h151v-154zM649 0h-241l-131 268v-268h-247v700h240l131 -273v273h248v-700z" />
    <glyph glyph-name="ndotaccent" unicode="&#x1e45;" 
d="M354 563h-150v154h150v-154zM217 500l10 -28q48 36 121 36q85 0 134.5 -50t49.5 -130v-328h-218v306q0 25 -25 27q-10 2 -27 0v-333h-232v500h187z" />
    <glyph glyph-name="Ndotbelow" unicode="&#x1e46;" horiz-adv-x="679" 
d="M649 0h-241l-131 268v-268h-247v700h240l131 -273v273h248v-700zM439 -201h-198v148h198v-148z" />
    <glyph glyph-name="ndotbelow" unicode="&#x1e47;" 
d="M217 500l10 -28q48 36 121 36q85 0 134.5 -50t49.5 -130v-328h-218v306q0 25 -25 27q-10 2 -27 0v-333h-232v500h187zM380 -201h-198v148h198v-148z" />
    <glyph glyph-name="Ncircumflexbelow" unicode="&#x1e4a;" horiz-adv-x="679" 
d="M649 0h-241l-131 268v-268h-247v700h240l131 -273v273h248v-700zM576 -237h-197l-42 52l-42 -52h-196l172 185h133z" />
    <glyph glyph-name="ncircumflexbelow" unicode="&#x1e4b;" 
d="M217 500l10 -28q48 36 121 36q85 0 134.5 -50t49.5 -130v-328h-218v306q0 25 -25 27q-10 2 -27 0v-333h-232v500h187zM517 -237h-197l-42 52l-42 -52h-196l172 185h133z" />
    <glyph glyph-name="Otildeacute" unicode="&#x1e4c;" horiz-adv-x="705" 
d="M371 957h-169l102 185h201zM473 933l89 -95q-87 -91 -162 -91q-30 0 -56 16q-6 3 -12.5 8.5t-10.5 8.5t-9 5.5t-11 2.5q-10 0 -27 -11.5t-29 -22.5l-12 -11l-88 95q35 36 77 62.5t76 29.5q7 0 13.5 -0.5t11.5 -1t11 -3t9 -3.5t9 -4.5t7.5 -4.5l7.5 -5t7 -5q17 -11 31 -11
q5 0 11.5 2.5t12 5.5t12.5 8t11.5 9t11.5 9.5t9 6.5zM337 710h28q80 0 146 -29.5t107.5 -91t41.5 -144.5v-190q0 -119 -81.5 -192t-213.5 -73h-28q-136 0 -214 73.5t-78 191.5v190q0 125 82 195t210 70zM354 514h-4q-54 -1 -54 -62v-204q0 -61 54 -62h4q25 1 40 13.5
t15 48.5v204q0 61 -55 62z" />
    <glyph glyph-name="otildeacute" unicode="&#x1e4d;" horiz-adv-x="564" 
d="M297 750h-169l102 185h201zM399 733l89 -95q-87 -91 -162 -91q-29 0 -55 16q-7 4 -15.5 11t-14.5 10.5t-14 3.5q-10 0 -27 -11.5t-29 -22.5l-12 -11l-88 95q35 36 77.5 62.5t75.5 29.5h12t11.5 -1t9.5 -2t9 -3.5t8 -3.5t7.5 -4t6.5 -4t6.5 -4.5t5.5 -4.5q17 -11 31 -11
q6 0 13.5 2.5t16 8.5t13.5 10t14.5 11.5t10.5 8.5zM30 187v127q0 51 22.5 90t59.5 61t80 33t89 11q51 0 95 -11t80 -33.5t57 -61t21 -89.5v-127q0 -40 -14 -73.5t-38 -55.5t-56.5 -37.5t-68.5 -22t-76 -6.5q-66 0 -121.5 20.5t-92.5 66t-37 108.5zM308 190v121q0 22 -27 22
q-25 0 -25 -22v-121q0 -22 25 -22q27 0 27 22z" />
    <glyph glyph-name="Omacrongrave" unicode="&#x1e50;" horiz-adv-x="705" 
d="M457 956h-169l-133 186h200zM527 766h-349v134h349v-134zM337 710h28q80 0 146 -29.5t107.5 -91t41.5 -144.5v-190q0 -119 -81.5 -192t-213.5 -73h-28q-136 0 -214 73.5t-78 191.5v190q0 125 82 195t210 70zM354 514h-4q-54 -1 -54 -62v-204q0 -61 54 -62h4q9 0 16 1.5
t15 5.5t13 10.5t8 18t3 26.5v204q0 61 -55 62z" />
    <glyph glyph-name="omacrongrave" unicode="&#x1e51;" horiz-adv-x="564" 
d="M431 750h-169l-134 185h201zM454 566h-349v134h349v-134zM30 187v127q0 51 22.5 90t59.5 61t80 33t89 11q51 0 95 -11t80 -33.5t57 -61t21 -89.5v-127q0 -50 -21 -89t-57.5 -61.5t-80.5 -33.5t-94 -11q-66 0 -121.5 20.5t-92.5 66t-37 108.5zM308 190v121q0 22 -27 22
q-25 0 -25 -22v-121q0 -22 25 -22q27 0 27 22z" />
    <glyph glyph-name="Omacronacute" unicode="&#x1e52;" horiz-adv-x="705" 
d="M371 956h-169l102 185h201zM528 766h-349v134h349v-134zM337 710h28q80 0 146 -29.5t107.5 -91t41.5 -144.5v-190q0 -119 -81.5 -192t-213.5 -73h-28q-136 0 -214 73.5t-78 191.5v190q0 125 82 195t210 70zM354 514h-4q-54 -1 -54 -62v-204q0 -61 54 -62h4q9 0 16 1.5
t15 5.5t13 10.5t8 18t3 26.5v204q0 61 -55 62z" />
    <glyph glyph-name="omacronacute" unicode="&#x1e53;" horiz-adv-x="564" 
d="M297 750h-169l102 185h201zM454 566h-349v134h349v-134zM30 187v127q0 51 22.5 90t59.5 61t80 33t89 11q51 0 95 -11t80 -33.5t57 -61t21 -89.5v-127q0 -50 -21 -89t-57.5 -61.5t-80.5 -33.5t-94 -11q-66 0 -121.5 20.5t-92.5 66t-37 108.5zM308 190v121q0 22 -27 22
q-25 0 -25 -22v-121q0 -22 25 -22q27 0 27 22z" />
    <glyph glyph-name="Sdotbelow" unicode="&#x1e62;" horiz-adv-x="605" 
d="M30 455v5q0 133 64.5 192t202.5 59q81 0 130 -6t96 -21l-21 -199q-98 25 -194 25q-19 0 -19 -15v-2q0 -13 12 -17l118 -40q66 -23 97 -44t45.5 -55.5t14.5 -96.5l-1 -6q0 -70 -19 -118t-57.5 -75.5t-90.5 -39t-126 -11.5q-144 0 -239 30l19 200q72 -19 123.5 -25.5
t115.5 -5.5q9 0 14.5 5.5t5.5 13.5v9q0 12 -12 16l-129 41q-48 17 -73 30t-44.5 33t-26 47t-6.5 71zM395 -201h-197v148h197v-148z" />
    <glyph glyph-name="sdotbelow" unicode="&#x1e63;" horiz-adv-x="458" 
d="M227 507h12q102 -1 169 -19l-13 -146q-67 17 -129 18h-10q-15 0 -15 -11q0 -10 9 -13l85 -27q69 -24 91 -49.5t22 -87.5q0 -99 -55 -138.5t-172 -39.5h-10q-112 1 -185 25l12 142q88 -22 165 -22h7q15 1 15 17q0 11 -9 14l-93 29q-47 16 -67.5 29t-30.5 35.5t-10 64.5
q0 95 51.5 137t160.5 42zM326 -201h-198v148h198v-148z" />
    <glyph glyph-name="Tdotbelow" unicode="&#x1e6c;" horiz-adv-x="650" 
d="M625 506h-174v-506h-252v506h-174v194h600v-194zM424 -201h-198v148h198v-148z" />
    <glyph glyph-name="tdotbelow" unicode="&#x1e6d;" horiz-adv-x="431" 
d="M303 500h98v-174h-98v-136q0 -16 6.5 -20t16.5 -4h75v-176h-128q-84 0 -143 52t-59 122v162h-51v174h51v120h232v-120zM310 -201h-198v148h198v-148z" />
    <glyph glyph-name="Tlinebelow" unicode="&#x1e6e;" horiz-adv-x="650" 
d="M625 506h-174v-506h-252v506h-174v194h600v-194zM510 -180h-369v114h369v-114z" />
    <glyph glyph-name="tlinebelow" unicode="&#x1e6f;" horiz-adv-x="431" 
d="M303 500h98v-174h-98v-136q0 -16 6.5 -20t16.5 -4h75v-176h-128q-84 0 -143 52t-59 122v162h-51v174h51v120h232v-120zM395 -180h-369v114h369v-114z" />
    <glyph glyph-name="Tcircumflexbelow" unicode="&#x1e70;" horiz-adv-x="650" 
d="M625 506h-174v-506h-252v506h-174v194h600v-194zM561 -237h-197l-42 52l-42 -52h-196l172 185h133z" />
    <glyph glyph-name="tcircumflexbelow" unicode="&#x1e71;" horiz-adv-x="431" 
d="M303 500h98v-174h-98v-136q0 -16 6.5 -20t16.5 -4h75v-176h-128q-84 0 -143 52t-59 122v162h-51v174h51v120h232v-120zM447 -237h-197l-42 52l-42 -52h-196l172 185h133z" />
    <glyph glyph-name="Wgrave" unicode="&#x1e80;" horiz-adv-x="1054" 
d="M658 731h-169l-134 186h201zM897 0h-317l-52 328l-53 -328h-317l-134 700h264l43 -421l66 421h261l67 -421l43 421h263z" />
    <glyph glyph-name="wgrave" unicode="&#x1e81;" horiz-adv-x="826" 
d="M543 531h-169l-133 186h200zM697 0h-236l-48 143l-48 -143h-237l-118 500h238l32 -286l55 286h155l56 -286l31 286h239z" />
    <glyph glyph-name="Wacute" unicode="&#x1e82;" horiz-adv-x="1054" 
d="M545 732h-169l102 185h201zM897 0h-317l-52 328l-53 -328h-317l-134 700h264l43 -421l66 421h261l67 -421l43 421h263z" />
    <glyph glyph-name="wacute" unicode="&#x1e83;" horiz-adv-x="826" 
d="M431 532h-169l102 185h201zM697 0h-236l-48 143l-48 -143h-237l-118 500h238l32 -286l55 286h155l56 -286l31 286h239z" />
    <glyph glyph-name="Wdieresis" unicode="&#x1e84;" horiz-adv-x="1054" 
d="M495 763h-151v154h151v-154zM709 763h-151v154h151v-154zM897 0h-317l-52 328l-53 -328h-317l-134 700h264l43 -421l66 421h261l67 -421l43 421h263z" />
    <glyph glyph-name="wdieresis" unicode="&#x1e85;" horiz-adv-x="826" 
d="M380 563h-150v154h150v-154zM594 563h-151v154h151v-154zM697 0h-236l-48 143l-48 -143h-237l-118 500h238l32 -286l55 286h155l56 -286l31 286h239z" />
    <glyph glyph-name="Zdotbelow" unicode="&#x1e92;" horiz-adv-x="651" 
d="M616 613l-258 -417h268v-196h-601v87l258 417h-238v196h571v-87zM439 -201h-198v148h198v-148z" />
    <glyph glyph-name="zdotbelow" unicode="&#x1e93;" horiz-adv-x="497" 
d="M467 387l-181 -222h191v-165h-457v115l183 220h-163v166h427v-114zM372 -201h-198v148h198v-148z" />
    <glyph glyph-name="adotbelow" unicode="&#x1ea1;" horiz-adv-x="541" 
d="M89 316l-29 163q135 30 218 30q238 0 238 -197v-312h-189l-12 28q-64 -36 -136 -36q-70 0 -116.5 38.5t-47.5 116.5v4q2 145 194 145q18 0 37 -1q25 -2 37 -4v12q0 34 -41 34q-54 0 -153 -21zM283 139v53q-7 1 -20 1q-16 0 -23.5 -4t-7.5 -16v-26q0 -18 14 -19
q14 0 37 11zM371 -209h-197v148h197v-148z" />
    <glyph glyph-name="Acircumflexdotbelow" unicode="&#x1eac;" horiz-adv-x="753" 
d="M617 732h-196l-42 52l-42 -53h-197l171 186h133zM723 0h-263l-17 100h-133l-16 -100h-264l187 700h319zM342 296h69l-34 211zM466 -201h-198v148h198v-148z" />
    <glyph glyph-name="acircumflexdotbelow" unicode="&#x1ead;" horiz-adv-x="541" 
d="M512 532h-196l-43 52l-41 -53h-197l171 186h133zM89 316l-29 163q135 30 218 30q238 0 238 -197v-312h-189l-12 28q-64 -36 -136 -36q-70 0 -116.5 38.5t-47.5 116.5v4q2 145 194 145q18 0 37 -1q25 -2 37 -4v12q0 34 -41 34q-54 0 -153 -21zM283 139v53q-7 1 -20 1
q-16 0 -23.5 -4t-7.5 -16v-26q0 -18 14 -19q14 0 37 11zM371 -209h-197v148h197v-148z" />
    <glyph glyph-name="Edotbelow" unicode="&#x1eb8;" horiz-adv-x="549" 
d="M520 504h-237v-54h207v-196h-207v-58h237v-196h-490v700h490v-196zM367 -201h-198v148h198v-148z" />
    <glyph glyph-name="edotbelow" unicode="&#x1eb9;" horiz-adv-x="524" 
d="M20 187v127q0 51 21.5 90t57.5 61t77 33t85 11q49 0 91.5 -11t77 -33.5t54.5 -61t20 -89.5v-125h-267v-17q0 -22 25 -22q66 0 209 14l27 -147q-120 -24 -212 -24q-266 0 -266 194zM288 300v29q0 22 -26 22q-25 0 -25 -22v-29h51zM359 -201h-198v148h198v-148z" />
    <glyph glyph-name="Etilde" unicode="&#x1ebc;" horiz-adv-x="549" 
d="M388 933l89 -95q-87 -91 -162 -91q-30 0 -55 16q-8 4 -16.5 11t-14.5 10.5t-13 3.5q-10 0 -27 -11.5t-29 -22.5l-12 -11l-88 95q35 36 77 62.5t76 29.5q7 0 13.5 -0.5t11.5 -1t11 -3t9.5 -3.5t9 -4.5t7 -4.5l7.5 -5t7 -5q17 -11 31 -11q6 0 13 2.5t16 8.5t14 10
t14.5 11.5t10.5 8.5zM520 504h-237v-54h207v-196h-207v-58h237v-196h-490v700h490v-196z" />
    <glyph glyph-name="etilde" unicode="&#x1ebd;" horiz-adv-x="524" 
d="M380 733l89 -95q-87 -91 -162 -91q-30 0 -56 16q-7 4 -15.5 11t-14.5 10.5t-13 3.5q-10 0 -27 -11.5t-29 -22.5l-12 -11l-88 95q35 36 77 62.5t76 29.5h12t11 -1t9.5 -2t9 -3.5t7.5 -3.5t7.5 -4t6.5 -4t6.5 -4.5t6.5 -4.5q17 -11 31 -11q6 0 13 2.5t16 8.5t14 10
t14.5 11.5t10.5 8.5zM20 187v127q0 51 21.5 90t57.5 61t77 33t85 11q49 0 91.5 -11t77 -33.5t54.5 -61t20 -89.5v-125h-267v-17q0 -22 25 -22q66 0 209 14l27 -147q-120 -24 -212 -24q-266 0 -266 194zM288 300v29q0 22 -26 22q-25 0 -25 -22v-29h51z" />
    <glyph glyph-name="Ecircumflexdotbelow" unicode="&#x1ec6;" horiz-adv-x="549" 
d="M507 732h-196l-42 52l-42 -53h-197l171 186h133zM520 504h-237v-54h207v-196h-207v-58h237v-196h-490v700h490v-196zM367 -201h-198v148h198v-148z" />
    <glyph glyph-name="ecircumflexdotbelow" unicode="&#x1ec7;" horiz-adv-x="524" 
d="M498 532h-196l-42 52l-42 -53h-197l172 186h133zM20 187v127q0 51 21.5 90t57.5 61t77 33t85 11q49 0 91.5 -11t77 -33.5t54.5 -61t20 -89.5v-125h-267v-17q0 -22 25 -22q66 0 209 14l27 -147q-120 -24 -212 -24q-266 0 -266 194zM288 300v29q0 22 -26 22q-25 0 -25 -22
v-29h51zM359 -201h-198v148h198v-148z" />
    <glyph glyph-name="Idotbelow" unicode="&#x1eca;" horiz-adv-x="331" 
d="M291 0h-251v700h251v-700zM272 -201h-198v148h198v-148z" />
    <glyph glyph-name="idotbelow" unicode="&#x1ecb;" horiz-adv-x="309" 
d="M275 539h-240v161h240v-161zM271 0h-232v500h232v-500zM254 -201h-198v148h198v-148z" />
    <glyph glyph-name="Odotbelow" unicode="&#x1ecc;" horiz-adv-x="665" 
d="M317 710h28q80 0 145.5 -29.5t107.5 -91t42 -144.5v-190q0 -119 -81.5 -192t-213.5 -73h-28q-137 0 -214.5 73.5t-77.5 191.5v190q0 125 81.5 195t210.5 70zM333 514h-4q-53 -1 -53 -62v-204q0 -61 54 -62h3q25 1 40.5 13.5t15.5 48.5v204q0 61 -56 62zM429 -211h-197
v148h197v-148z" />
    <glyph glyph-name="odotbelow" unicode="&#x1ecd;" horiz-adv-x="544" 
d="M20 187v127q0 67 39.5 112.5t94 64t117.5 18.5q108 0 180.5 -48t72.5 -147v-127q0 -98 -73.5 -146.5t-179.5 -48.5q-103 0 -177 51t-74 144zM298 190v121q0 22 -27 22q-25 0 -25 -22v-121q0 -22 25 -22q27 0 27 22zM369 -201h-198v148h198v-148z" />
    <glyph glyph-name="Ocircumflexdotbelow" unicode="&#x1ed8;" horiz-adv-x="665" 
d="M571 732h-196l-42 52l-42 -53h-197l171 186h133zM317 710h28q80 0 145.5 -29.5t107.5 -91t42 -144.5v-190q0 -119 -81.5 -192t-213.5 -73h-28q-137 0 -214.5 73.5t-77.5 191.5v190q0 84 39 144.5t104 90.5t149 30zM333 514h-4q-53 -1 -53 -62v-204q0 -61 54 -62h3
q25 1 40.5 13.5t15.5 48.5v204q0 61 -56 62zM429 -211h-197v148h197v-148z" />
    <glyph glyph-name="ocircumflexdotbelow" unicode="&#x1ed9;" horiz-adv-x="544" 
d="M508 532h-196l-42 52l-42 -53h-197l171 186h133zM20 187v127q0 67 39.5 112.5t94 64t117.5 18.5q108 0 180.5 -48t72.5 -147v-127q0 -98 -73.5 -146.5t-179.5 -48.5q-103 0 -177 51t-74 144zM298 190v121q0 22 -27 22q-25 0 -25 -22v-121q0 -22 25 -22q27 0 27 22z
M369 -201h-198v148h198v-148z" />
    <glyph glyph-name="Udotbelow" unicode="&#x1ee4;" horiz-adv-x="666" 
d="M631 700v-462q0 -55 -16 -98.5t-42.5 -71t-64.5 -45.5t-79 -25.5t-88 -7.5h-24q-63 0 -113.5 13t-90 41.5t-61.5 77.5t-22 116v462h251v-462q0 -19 4.5 -30t13 -15.5t14.5 -5.5t16 -1h4q11 0 17 1t14 5.5t11.5 16t3.5 29.5v462h252zM428 -211h-198v148h198v-148z" />
    <glyph glyph-name="udotbelow" unicode="&#x1ee5;" 
d="M527 0h-188l-10 28q-48 -36 -120 -36q-85 0 -134.5 50t-49.5 130v328h219v-306q0 -24 24 -27q4 -1 12 -1t15 1v333h232v-500zM398 -201h-198v148h198v-148z" />
    <glyph glyph-name="Ygrave" unicode="&#x1ef2;" horiz-adv-x="732" 
d="M497 731h-169l-134 186h201zM492 255v-255h-252v255l-215 445h268l73 -217l73 217h268z" />
    <glyph glyph-name="ygrave" unicode="&#x1ef3;" horiz-adv-x="558" 
d="M407 531h-169l-133 186h200zM528 500v-513q0 -196 -236 -196q-86 0 -220 30l29 154q101 -21 153 -21q41 0 41 34v41q-45 -27 -106 -29q-69 0 -116.5 43.5t-47.5 137.5v319h219v-306q0 -24 24 -27q4 -1 12.5 -1t14.5 1v333h233z" />
    <glyph glyph-name="endash" unicode="&#x2013;" horiz-adv-x="655" 
d="M625 178h-595v174h595v-174z" />
    <glyph glyph-name="emdash" unicode="&#x2014;" horiz-adv-x="828" 
d="M798 178h-768v174h768v-174z" />
    <glyph glyph-name="quoteleft" unicode="&#x2018;" horiz-adv-x="299" 
d="M213 669h56v-192h-239v117l98 184h141z" />
    <glyph glyph-name="quoteright" unicode="&#x2019;" horiz-adv-x="298" 
d="M268 661l-98 -184h-140l55 109h-55v192h238v-117z" />
    <glyph glyph-name="quotesinglbase" unicode="&#x201a;" horiz-adv-x="299" 
d="M269 69l-99 -184h-140l55 109h-55v192h239v-117z" />
    <glyph glyph-name="quotedblleft" unicode="&#x201c;" horiz-adv-x="567" 
d="M213 669h56v-192h-239v117l98 184h141zM482 669h55v-192h-238v117l98 184h140z" />
    <glyph glyph-name="quotedblright" unicode="&#x201d;" horiz-adv-x="567" 
d="M268 661l-98 -184h-140l55 109h-55v192h238v-117zM537 661l-99 -184h-140l56 109h-56v192h239v-117z" />
    <glyph glyph-name="quotedblbase" unicode="&#x201e;" horiz-adv-x="566" 
d="M269 69l-98 -184h-141l56 109h-56v192h239v-117zM536 69l-99 -184h-140l55 109h-55v192h239v-117z" />
    <glyph glyph-name="dagger" unicode="&#x2020;" horiz-adv-x="473" 
d="M353 500h90v-190h-90v-420h-232v420h-91v190h91v200h232v-200z" />
    <glyph glyph-name="daggerdbl" unicode="&#x2021;" horiz-adv-x="473" 
d="M353 500h90v-190h-90v-30h90v-190h-90v-200h-232v200h-91v190h91v30h-91v190h91v200h232v-200z" />
    <glyph glyph-name="bullet" unicode="&#x2022;" horiz-adv-x="405" 
d="M203.5 476q73.5 0 122.5 -49.5t49 -122.5q0 -50 -22 -90.5t-61.5 -63t-88.5 -22.5q-74 0 -123.5 50t-49.5 126q0 73 50 122.5t123.5 49.5z" />
    <glyph glyph-name="ellipsis" unicode="&#x2026;" horiz-adv-x="827" 
d="M269 0h-239v186h239v-186zM533 0h-239v186h239v-186zM797 0h-239v186h239v-186z" />
    <glyph glyph-name="perthousand" unicode="&#x2030;" horiz-adv-x="1107" 
d="M239 -18h-154l458 735h153zM144 706h51q47 0 80.5 -30.5t33.5 -75.5v-166q0 -45 -33.5 -75.5t-80.5 -30.5h-51q-47 0 -80.5 30.5t-33.5 75.5v166q0 45 33.5 75.5t80.5 30.5zM171 608h-3q-14 0 -12 -13v-156q0 -14 12 -14h3q14 0 12 14v156q0 13 -12 13zM590 371h51
q31 0 57 -14t41.5 -38t15.5 -54v-166q0 -45 -33.5 -75.5t-80.5 -30.5h-51q-47 0 -80.5 30.5t-33.5 75.5v166q0 45 33.5 75.5t80.5 30.5zM912 371h51q47 0 80.5 -30.5t33.5 -75.5v-166q0 -45 -33.5 -75.5t-80.5 -30.5h-51q-47 0 -80.5 30.5t-33.5 75.5v166q0 45 33.5 75.5
t80.5 30.5zM617 273h-3q-13 0 -12 -13v-156q0 -14 12 -14h3q14 0 12 14v156q0 13 -12 13zM939 273h-3q-13 0 -12 -13v-156q0 -14 12 -14h3q14 0 12 14v156q0 13 -12 13z" />
    <glyph glyph-name="guilsinglleft" unicode="&#x2039;" horiz-adv-x="315" 
d="M275 312l-50 -39l50 -39v-187l-245 194v65l245 193v-187z" />
    <glyph glyph-name="guilsinglright" unicode="&#x203a;" horiz-adv-x="315" 
d="M285 306v-65l-245 -194v187l50 39l-50 39v187z" />
    <glyph glyph-name="fraction" unicode="&#x2044;" horiz-adv-x="540" 
d="M184 -18h-154l327 735h153z" />
    <glyph glyph-name="Euro" unicode="&#x20ac;" horiz-adv-x="578" 
d="M353 710h27q76 0 173 -29l-16 -179q-85 11 -159 12h-11q-32 0 -44 -23l-2 -3h169v-130h-175v-17h144v-130h-137l2 -3q12 -22 43 -22h11q74 1 159 12l16 -179q-97 -29 -173 -29h-27q-111 0 -190 54.5t-96 158.5l-1 8h-56v130h53v17h-53v130h56l1 9q17 105 96 159t190 54z
" />
    <glyph glyph-name="trademark" unicode="&#x2122;" horiz-adv-x="776" 
d="M342 595h-87v-253h-138v253h-87v105h312v-105zM746 342h-136l-3 100l-15 -35h-74l-16 35l-4 -100h-135l13 358h135l43 -110l42 110h135z" />
    <glyph glyph-name="oneeighth" unicode="&#x215b;" horiz-adv-x="760" 
d="M262 -18h-154l327 735h153zM230 335h-126v240l-34 -7l-32 102l98 30h94v-365zM557 370h37q48 0 81.5 -31t33.5 -76v-19q0 -31 -21 -51q27 -20 27 -57v-33q0 -30 -15 -55t-42 -39.5t-59 -14.5h-48q-49 0 -82.5 31.5t-33.5 77.5v33q0 14 7 28t14 21l7 7q-23 22 -23 52v19
q0 29 15.5 54t42 39t59.5 14zM577 276h-2q-13 0 -13 -13v-21q0 -13 12 -13h2q13 0 13 13v21q0 13 -12 13zM577 162h-2q-13 0 -13 -13v-46q0 -14 12 -14h2q13 0 13 14v46q0 13 -12 13z" />
    <glyph glyph-name="threeeighths" unicode="&#x215c;" horiz-adv-x="795" 
d="M313 -18h-154l327 735h153zM157 706h39q47 0 80.5 -30t33.5 -75v-18q0 -32 -27 -53q32 -21 32 -60v-34q0 -45 -33.5 -76t-80.5 -31h-44q-23 0 -52 7.5t-45 17.5l15 87q39 -10 92 -10h11q8 0 8 9v31q0 9 -8 9h-50v93h50q8 0 8 10v12q0 10 -8 10h-10q-61 0 -93 -8l-16 87
q17 9 46.5 15.5t51.5 6.5zM608 370h37q49 0 82.5 -31t33.5 -76v-19q0 -31 -22 -51q28 -20 28 -57v-33q0 -46 -34 -77.5t-83 -31.5h-48q-49 0 -82.5 31.5t-33.5 77.5v33q0 5 1 10t2.5 9.5t3.5 9t4.5 8l5 7t4.5 5.5t3.5 4t2.5 3h1q-23 22 -23 52v19q1 45 34.5 76t82.5 31z
M629 276h-3q-13 0 -13 -13v-21q0 -13 12 -13h3q12 0 12 13v21q0 13 -11 13zM629 162h-3q-13 0 -13 -13v-46q0 -14 12 -14h3q12 0 12 14v46q0 13 -11 13z" />
    <glyph glyph-name="fiveeighths" unicode="&#x215d;" horiz-adv-x="795" 
d="M313 -18h-154l327 735h153zM294 601h-98l-3 -26h6q48 -3 80 -31.5t32 -67.5v-43q0 -44 -32.5 -74t-78.5 -30h-44q-17 0 -36.5 3.5t-37.5 11t-29 16.5l15 86q35 -18 89 -18h20q8 0 8 9v27q0 8 -8 8h-76l-40 41l23 187h210v-99zM608 370h37q49 0 82.5 -31t33.5 -76v-19
q0 -31 -22 -51q28 -20 28 -57v-33q0 -46 -34 -77.5t-83 -31.5h-48q-49 0 -82.5 31.5t-33.5 77.5v33q0 9 3 18t7 15.5t8 12t7 8.5l3 2q-23 22 -23 52v19q0 29 15.5 54t42.5 39t59 14zM629 276h-3q-13 0 -13 -13v-21q0 -13 12 -13h3q12 0 12 13v21q0 13 -11 13zM629 162h-3
q-13 0 -13 -13v-46q0 -14 12 -14h3q12 0 12 14v46q0 13 -11 13z" />
    <glyph glyph-name="seveneighths" unicode="&#x215e;" horiz-adv-x="723" 
d="M234 -18h-154l327 735h153zM181 335h-141l100 256h-102v109h286zM528 370h37q48 0 81.5 -31t33.5 -76v-19q0 -31 -21 -51q27 -20 27 -57v-33q0 -30 -15 -55t-42 -39.5t-59 -14.5h-48q-49 0 -82.5 31.5t-33.5 77.5v33q0 14 7 28t14 21l7 7q-24 22 -24 52v19q1 29 16 54
t42 39t60 14zM548 276h-3q-12 0 -12 -13v-21q0 -13 11 -13h3q13 0 13 13v21q0 13 -12 13zM548 162h-3q-12 0 -12 -13v-46q0 -14 11 -14h3q13 0 13 14v46q0 13 -12 13z" />
    <glyph glyph-name="partialdiff" unicode="&#x2202;" horiz-adv-x="913" 
 />
    <glyph glyph-name="emptyset" unicode="&#x2205;" horiz-adv-x="600" 
 />
    <glyph glyph-name="product" unicode="&#x220f;" horiz-adv-x="913" 
 />
    <glyph glyph-name="summation" unicode="&#x2211;" horiz-adv-x="913" 
 />
    <glyph glyph-name="minus" unicode="&#x2212;" horiz-adv-x="604" 
d="M574 191h-544v190h544v-190z" />
    <glyph glyph-name="radical" unicode="&#x221a;" horiz-adv-x="913" 
 />
    <glyph glyph-name="infinity" unicode="&#x221e;" horiz-adv-x="913" 
 />
    <glyph glyph-name="integral" unicode="&#x222b;" horiz-adv-x="913" 
 />
    <glyph glyph-name="approxequal" unicode="&#x2248;" horiz-adv-x="605" 
d="M194 296l-164 23q-3 99 52 166t148 67q36 0 59.5 -12.5t46.5 -36.5q22 -24 40 -24q16 0 25 17.5t9 51.5l165 -16q0 -63 -20.5 -116.5t-64 -88.5t-101.5 -35q-14 0 -27 2.5t-24.5 8t-19.5 10t-18.5 14t-14 13t-13 14t-10.5 10.5q-15 17 -31 17q-7 0 -13 -4
q-23 -17 -24 -81zM193 16l-163 23q-3 99 52 165.5t148 66.5q36 0 59.5 -12t46.5 -36q22 -24 40 -24q16 0 25 17.5t9 51.5l165 -17q0 -62 -20.5 -115.5t-64 -88.5t-101.5 -35q-14 0 -27 2t-24.5 8t-19.5 10.5t-18.5 13.5t-14 13t-13 14.5t-10.5 10.5q-15 17 -31 17
q-7 0 -13 -5q-23 -16 -25 -80z" />
    <glyph glyph-name="notequal" unicode="&#x2260;" horiz-adv-x="574" 
d="M472 491h72v-190h-157l-15 -34h172v-190h-256l-35 -78h-174l35 78h-84v190h168l16 34h-184v190h268l42 92h173z" />
    <glyph glyph-name="lessequal" unicode="&#x2264;" horiz-adv-x="506" 
d="M476 510l-276 -54l276 -53v-208l-446 123v277l446 122v-207zM476 -17h-446v189h446v-189z" />
    <glyph glyph-name="greaterequal" unicode="&#x2265;" horiz-adv-x="506" 
d="M476 595v-277l-446 -123v208l276 53l-276 54v207zM476 -17h-446v189h446v-189z" />
    <glyph glyph-name="lozenge" unicode="&#x25ca;" horiz-adv-x="913" 
 />
    <glyph glyph-name="s_t" unicode="&#xfb06;" horiz-adv-x="874" 
d="M205 506h16q-16 32 -16 59q0 52 40.5 90t101.5 55.5t132 17.5q53 0 100 -10.5t84.5 -30.5t59.5 -53t23 -74v-60h98v-174h-98v-136q0 -16 6.5 -20t16.5 -4h75v-176h-128q-84 0 -143 52t-59 122v358q-2 19 -20 29t-40.5 10t-43 -11t-20.5 -33q0 -9 6 -18q5 -6 12 -12
l-13 -145q-67 17 -129 18h-10q-15 0 -15 -11q0 -10 9 -13l85 -27q69 -24 91 -49.5t22 -87.5q0 -99 -55 -138.5t-172 -39.5h-10q-112 1 -185 25l12 142q88 -22 165 -22h7q15 1 15 17q0 11 -9 14l-93 29q-67 23 -87.5 46t-20.5 83q0 43 10 75.5t30 55.5t51.5 35t73.5 12h25z
" />
    <glyph glyph-name="uni00540068" horiz-adv-x="1159" 
d="M839 700v-219q46 28 106 28q77 0 120.5 -48t43.5 -133v-328h-219v306q0 22 -24 27q-5 1 -12 1t-15 -1v-333h-232v504h-171v-504h-252v504h-174v196h829z" />
    <glyph glyph-name="uni00630068" horiz-adv-x="975" 
d="M20 182v132q0 79 40 124.5t108 61.5q16 4 34 6q-15 29 -15 56q0 44 29.5 77.5t76.5 52t97.5 27.5t99.5 9q103 0 190 -28v-219q18 12 48 20t58 8q77 0 120.5 -48t43.5 -133v-328h-219v306q0 13 -6 19t-18 8q-5 1 -12 1t-15 -1v-333h-232v554q-11 7 -25 7
q-19 0 -34.5 -11.5t-15.5 -30.5q0 -15 16 -29l-14 -173q-43 13 -79 13q-48 0 -48 -40v-87q0 -40 48 -40q31 0 79 13l15 -170q-72 -19 -136 -19q-106 0 -170 47.5t-64 147.5z" />
    <glyph glyph-name="uni00630074" horiz-adv-x="808" 
d="M20 182v132q0 41 11.5 73.5t32 54.5t46.5 36t59 22q16 4 33 6q-15 29 -15 56q0 37 23.5 69t61 52.5t83 32t91.5 11.5q71 0 132.5 -26.5t101.5 -80.5v-120h98v-174h-98v-136q0 -16 6.5 -20t16.5 -4h75v-176h-128q-81 0 -141.5 50.5t-60.5 123.5v390q-11 7 -25 7
q-19 0 -34.5 -11.5t-15.5 -30.5q0 -15 16 -29l-14 -173q-43 13 -79 13q-48 0 -48 -40v-87q0 -40 48 -40q31 0 79 13l15 -170q-72 -19 -136 -19q-106 0 -170 47.5t-64 147.5z" />
    <glyph glyph-name="uni00660062" horiz-adv-x="1009" 
d="M659 708v-227q46 28 106 28q77 0 120.5 -48t43.5 -133v-160q0 -79 -50.5 -128t-131.5 -49q-74 0 -123 37l-10 -28h-187v532h-109q-6 0 -10 -1t-8 -6.5t-4 -16.5v-8h97v-174h-97v-326h-233v326h-51v174h51v35q0 72 60.5 122.5t141.5 50.5h394zM709 197v110q0 13 -6 19
t-18 8q-5 1 -12 1t-15 -1v-158q18 -7 24 -7q8 0 14.5 3.5t9.5 10t3 14.5z" />
    <glyph glyph-name="uni00660066006A" horiz-adv-x="1142" 
d="M812 532h-75q-6 0 -10 -1t-8 -6.5t-4 -16.5v-8h389v-535q0 -70 -59 -122t-143 -52h-70v176h17q6 0 10 1t8 6.5t4 16.5v335h-156v-326h-233v326h-183v-326h-233v326h-51v174h51v35q0 70 59 121.5t143 51.5h128v-176h-75q-6 0 -10 -1t-8 -6.5t-4 -16.5v-8h183v35
q0 70 59 121.5t143 51.5h128v-176z" />
    <glyph glyph-name="uni00660068" horiz-adv-x="979" 
d="M669 708v-227q46 28 106 28q77 0 120.5 -48t43.5 -133v-328h-219v306q0 22 -24 27q-5 1 -12 1t-15 -1v-333h-232v532h-120q-6 0 -10 -1t-8 -6.5t-4 -16.5v-8h97v-174h-97v-326h-233v326h-51v174h51v35q0 72 60.5 122.5t141.5 50.5h405z" />
    <glyph glyph-name="uni0066006A" horiz-adv-x="726" 
d="M396 532h-75q-6 0 -10 -1t-8 -6.5t-4 -16.5v-8h389v-535q0 -70 -59 -122t-143 -52h-70v176h17q6 0 10 1t8 6.5t4 16.5v335h-156v-326h-233v326h-51v174h51v35q0 70 59 121.5t143 51.5h128v-176z" />
    <glyph glyph-name="uni0066006B" horiz-adv-x="1004" 
d="M683 316l66 184h238l-98 -234l105 -266h-237l-74 190v-190h-232v534h-130q-6 0 -10 -1t-8 -6.5t-4 -16.5v-8l97 -2v-174h-97v-326h-233v326h-51v174h51v35q0 70 59 121.5t143 51.5h415v-392z" />
    <glyph glyph-name="uni00730070" horiz-adv-x="1015" 
d="M205 506l15 1q-14 30 -14 58q0 39 21 71t56 51.5t78.5 30t90.5 10.5q124 0 191 -60q47 -42 47 -108v-88q46 36 121 36q56 0 98.5 -23t64 -63t21.5 -90v-151q0 -49 -14 -85t-37.5 -56.5t-51.5 -30t-60 -9.5q-60 2 -107 29v-231h-231v718q0 22 -14 33.5t-34 11.5
q-19 0 -36 -11t-17 -33q0 -9 5 -18q4 -6 10 -12l-13 -145q-67 17 -129 18h-10q-15 0 -15 -11q0 -10 9 -13l85 -27q69 -24 91 -49.5t22 -87.5q0 -99 -55 -138.5t-172 -39.5h-10q-112 1 -185 25l12 142q88 -22 165 -22h7q15 1 15 17q0 11 -9 14l-93 29q-67 23 -87.5 46
t-20.5 83q0 43 10 75.5t30 55.5t51.5 35t73.5 12h25zM777 194v110q0 12 -8 20t-20 8q-7 0 -23 -7v-158q6 -1 14 -1q37 0 37 28z" />
    <glyph glyph-name="zero.lf" horiz-adv-x="583" 
d="M252 681h86q85 0 145 -54.5t60 -134.5v-307q0 -81 -60 -136t-145 -55h-86q-91 0 -151.5 54.5t-60.5 136.5v307q0 82 61.5 135.5t150.5 53.5zM295 484h-7q-21 0 -21 -23v-247q0 -24 21 -24h7q22 0 22 24v247q0 23 -22 23z" />
    <glyph glyph-name="one.lf" horiz-adv-x="419" 
d="M381 0h-241v453l-71 -22l-55 184l215 66h152v-681z" />
    <glyph glyph-name="two.lf" horiz-adv-x="559" 
d="M243 683h73q85 0 145 -54.5t60 -134.5v-19q0 -51 -31.5 -100t-85.5 -78l-106 -57q-12 -6 -21.5 -20t-9.5 -32v-17h254v-171h-481v219q0 110 124 175l127 67q6 3 7 13v2q-1 15 -15 15h-35q-93 0 -151 -11l-28 165q33 16 84 27t90 11z" />
    <glyph glyph-name="three.lf" horiz-adv-x="552" 
d="M224 683h73q85 0 145 -54.5t60 -134.5v-34q0 -61 -54 -99q30 -16 47 -47t17 -64v-64q0 -83 -60.5 -137.5t-144.5 -54.5h-83q-40 0 -91 12.5t-82 30.5l27 152q69 -17 164 -18h22q22 0 22 23v57q0 24 -22 24h-87v161h87q22 0 22 24v23q0 24 -22 24h-18q-110 -1 -169 -13
l-27 151q33 16 84 27t90 11z" />
    <glyph glyph-name="four.lf" horiz-adv-x="586" 
d="M246 294h39l64 159h148v-159h74v-176h-74v-117h-212v117h-270v107l182 456h204z" />
    <glyph glyph-name="five.lf" horiz-adv-x="526" 
d="M462 504h-185l-7 -55h9q88 0 152 -54t64 -128v-82q0 -83 -60.5 -137.5t-144.5 -54.5h-83q-46 0 -102 15t-87 40l26 153q66 -31 165 -31h38q22 0 22 23v52q-2 20 -19 20h-145l-73 73l44 342h386v-176z" />
    <glyph glyph-name="six.lf" horiz-adv-x="583" 
d="M320 681h26q56 0 166 -25v-166q-86 13 -163 14h-16q-27 0 -44.5 -16.5t-17.5 -49.5v-4q28 6 66 6h25q82 0 131.5 -47t49.5 -142v-66q0 -88 -60 -139.5t-146 -51.5h-85q-104 0 -158 58.5t-54 184.5v189q0 121 78.5 188t201.5 67zM295 264h-7q-22 0 -22 -24v-46
q0 -24 22 -24h7q21 0 21 24v46q0 24 -21 24z" />
    <glyph glyph-name="seven.lf" horiz-adv-x="553" 
d="M271 0h-250l199 504h-209v177h528z" />
    <glyph glyph-name="eight.lf" horiz-adv-x="583" 
d="M256 679h72q85 0 145 -54.5t60 -134.5v-34q0 -18 -4.5 -34t-12.5 -28t-17.5 -21t-19.5 -15q30 -16 47 -47.5t17 -64.5v-64q0 -81 -60 -136t-145 -55h-92q-86 0 -146 56t-60 135v64q0 36 19.5 66t45.5 46q-55 31 -55 98v34q2 81 61.5 135t144.5 54zM295 503h-6
q-22 0 -22 -24v-23q0 -23 22 -23h6q22 0 22 23v23q0 24 -22 24zM295 271h-6q-22 0 -22 -24v-56q0 -24 22 -24h6q22 0 22 24v56q0 24 -22 24z" />
    <glyph glyph-name="nine.lf" horiz-adv-x="583" 
d="M246 681h85q69 0 115.5 -24.5t71.5 -79t25 -139.5v-189q0 -121 -78.5 -188t-201.5 -67h-26q-56 0 -166 25v166q83 -12 163 -14h16q27 0 44.5 16.5t17.5 49.5v4q-28 -6 -66 -6h-25q-54 0 -93.5 19t-63.5 62.5t-24 107.5v66q0 88 60 139.5t146 51.5zM295 505h-7
q-21 0 -21 -24v-46q0 -24 21 -24h7q22 0 22 24v46q0 24 -22 24z" />
    <glyph glyph-name="zero.osf" horiz-adv-x="576" 
d="M252 510h77q85 0 143 -53.5t58 -130.5v-149q0 -79 -59 -133t-142 -54h-77q-89 0 -148 53.5t-59 133.5v149q0 79 60 131.5t147 52.5zM289 346h-4q-6 -1 -12 -3.5t-10 -7.5t-6 -11.5t-2 -13.5v-119q0 -8 2 -15t6.5 -12t10 -7.5t12.5 -2.5h3q32 0 32 37v119q0 35 -32 36z
" />
    <glyph glyph-name="one.osf" horiz-adv-x="496" 
d="M364 0h-212v290l-65 -20l-51 169l198 61h130v-500z" />
    <glyph glyph-name="two.osf" horiz-adv-x="539" 
d="M223 508h59q77 0 133.5 -42.5t56.5 -106.5q0 -90 -108 -140l-66 -30q-29 -12 -31 -29l-1 -5h206v-155h-418v152q0 39 29 69.5t84 60.5l92 51q3 1 3 6q1 7 -7 7h-14q-89 0 -141 -11l-26 146q18 7 45 13t55 10t49 4z" />
    <glyph glyph-name="three.osf" horiz-adv-x="552" 
d="M224 510h73q85 0 145 -54.5t60 -134.5v-34q0 -61 -54 -99q30 -16 47 -47t17 -64v-64q0 -83 -60.5 -137.5t-144.5 -54.5h-83q-40 0 -91 12t-82 31l27 152q67 -17 164 -18h22q22 0 22 23v57q0 24 -22 24h-87v161h87q22 0 22 24v23q0 24 -22 24h-18q-110 -1 -169 -13
l-27 151q33 16 84 27t90 11z" />
    <glyph glyph-name="four.osf" horiz-adv-x="586" 
d="M246 133h39l64 159h148v-159h74v-176h-74v-117h-212v117h-270v107l182 456h204z" />
    <glyph glyph-name="five.osf" horiz-adv-x="526" 
d="M462 324h-185l-7 -55h9q88 0 152 -54t64 -128v-82q0 -83 -60.5 -137.5t-144.5 -54.5h-83q-46 0 -102 15t-87 40l26 153q66 -31 165 -31h38q22 0 22 23v52q-2 20 -19 20h-145l-73 73l44 342h386v-176z" />
    <glyph glyph-name="six.osf" horiz-adv-x="583" 
d="M320 681h26q56 0 166 -25v-166q-86 13 -163 14h-16q-27 0 -44.5 -16.5t-17.5 -49.5v-4q28 6 66 6h25q82 0 131.5 -47t49.5 -142v-66q0 -88 -60 -139.5t-146 -51.5h-85q-104 0 -158 58.5t-54 184.5v189q0 121 78.5 188t201.5 67zM295 264h-7q-22 0 -22 -24v-46
q0 -24 22 -24h7q21 0 21 24v46q0 24 -21 24z" />
    <glyph glyph-name="seven.osf" horiz-adv-x="553" 
d="M271 -162h-250l199 504h-209v177h528z" />
    <glyph glyph-name="eight.osf" horiz-adv-x="583" 
d="M256 679h72q85 0 145 -54.5t60 -134.5v-34q0 -18 -4.5 -34t-12.5 -28t-17.5 -21t-19.5 -15q30 -16 47 -47.5t17 -64.5v-64q0 -81 -60 -136t-145 -55h-92q-86 0 -146 56t-60 135v64q0 36 19.5 66t45.5 46q-55 31 -55 98v34q2 81 61.5 135t144.5 54zM295 503h-6
q-22 0 -22 -24v-23q0 -23 22 -23h6q22 0 22 23v23q0 24 -22 24zM295 271h-6q-22 0 -22 -24v-56q0 -24 22 -24h6q22 0 22 24v56q0 24 -22 24z" />
    <glyph glyph-name="nine.osf" horiz-adv-x="583" 
d="M246 509h85q69 0 115.5 -24.5t71.5 -79t25 -139.5v-189q0 -81 -37 -139.5t-100 -87t-143 -28.5h-26q-56 0 -166 25v166q83 -12 163 -14h16q27 0 44.5 16.5t17.5 49.5v4q-28 -6 -66 -6h-25q-54 0 -93.5 19t-63.5 62.5t-24 107.5v66q0 88 60 139.5t146 51.5zM295 333h-7
q-21 0 -21 -24v-46q0 -24 21 -24h7q22 0 22 24v46q0 24 -22 24z" />
    <glyph glyph-name="zero.tf" horiz-adv-x="583" 
d="M252 681h86q85 0 145 -54.5t60 -134.5v-307q0 -81 -60 -136t-145 -55h-86q-91 0 -151.5 54.5t-60.5 136.5v307q0 82 61.5 135.5t150.5 53.5zM295 484h-7q-21 0 -21 -23v-247q0 -24 21 -24h7q22 0 22 24v247q0 23 -22 23z" />
    <glyph glyph-name="one.tf" horiz-adv-x="507" 
d="M376 0h-241v453l-71 -22l-55 184l215 66h152v-681z" />
    <glyph glyph-name="two.tf" horiz-adv-x="559" 
d="M243 683h73q85 0 145 -54.5t60 -134.5v-19q0 -51 -31.5 -100t-85.5 -78l-106 -57q-12 -6 -21.5 -20t-9.5 -32v-17h254v-171h-481v219q0 110 124 175l127 67q6 3 7 13v2q-1 15 -15 15h-35q-93 0 -151 -11l-28 165q33 16 84 27t90 11z" />
    <glyph glyph-name="three.tf" horiz-adv-x="552" 
d="M224 683h73q85 0 145 -54.5t60 -134.5v-34q0 -61 -54 -99q30 -16 47 -47t17 -64v-64q0 -83 -60.5 -137.5t-144.5 -54.5h-83q-40 0 -91 12.5t-82 30.5l27 152q69 -17 164 -18h22q22 0 22 23v57q0 24 -22 24h-87v161h87q22 0 22 24v23q0 24 -22 24h-18q-110 -1 -169 -13
l-27 151q33 16 84 27t90 11z" />
    <glyph glyph-name="four.tf" horiz-adv-x="586" 
d="M246 294h39l64 159h148v-159h74v-176h-74v-117h-212v117h-270v107l182 456h204z" />
    <glyph glyph-name="five.tf" horiz-adv-x="526" 
d="M462 504h-185l-7 -55h9q88 0 152 -54t64 -128v-82q0 -83 -60.5 -137.5t-144.5 -54.5h-83q-46 0 -102 15t-87 40l26 153q66 -31 165 -31h38q22 0 22 23v52q-2 20 -19 20h-145l-73 73l44 342h386v-176z" />
    <glyph glyph-name="six.tf" horiz-adv-x="583" 
d="M320 681h26q56 0 166 -25v-166q-86 13 -163 14h-16q-27 0 -44.5 -16.5t-17.5 -49.5v-4q28 6 66 6h25q82 0 131.5 -47t49.5 -142v-66q0 -88 -60 -139.5t-146 -51.5h-85q-104 0 -158 58.5t-54 184.5v189q0 121 78.5 188t201.5 67zM295 264h-7q-22 0 -22 -24v-46
q0 -24 22 -24h7q21 0 21 24v46q0 24 -21 24z" />
    <glyph glyph-name="seven.tf" horiz-adv-x="553" 
d="M271 0h-250l199 504h-209v177h528z" />
    <glyph glyph-name="eight.tf" horiz-adv-x="583" 
d="M256 679h72q85 0 145 -54.5t60 -134.5v-34q0 -18 -4.5 -34t-12.5 -28t-17.5 -21t-19.5 -15q30 -16 47 -47.5t17 -64.5v-64q0 -81 -60 -136t-145 -55h-92q-86 0 -146 56t-60 135v64q0 36 19.5 66t45.5 46q-55 31 -55 98v34q2 81 61.5 135t144.5 54zM295 503h-6
q-22 0 -22 -24v-23q0 -23 22 -23h6q22 0 22 23v23q0 24 -22 24zM295 271h-6q-22 0 -22 -24v-56q0 -24 22 -24h6q22 0 22 24v56q0 24 -22 24z" />
    <glyph glyph-name="nine.tf" horiz-adv-x="583" 
d="M246 681h85q69 0 115.5 -24.5t71.5 -79t25 -139.5v-189q0 -121 -78.5 -188t-201.5 -67h-26q-56 0 -166 25v166q86 -13 163 -14h16q27 0 44.5 16.5t17.5 49.5v4q-28 -6 -66 -6h-25q-54 0 -93.5 19t-63.5 62.5t-24 107.5v66q0 88 60 139.5t146 51.5zM295 505h-7
q-21 0 -21 -24v-46q0 -24 21 -24h7q22 0 22 24v46q0 24 -22 24z" />
    <glyph glyph-name="zero.tosf" horiz-adv-x="576" 
d="M252 510h77q85 0 143 -53.5t58 -130.5v-149q0 -79 -59 -133t-142 -54h-77q-89 0 -148 53.5t-59 133.5v149q0 79 60 131.5t147 52.5zM289 346h-4q-6 -1 -12 -3.5t-10 -7.5t-6 -11.5t-2 -13.5v-119q0 -8 2 -15t6.5 -12t10 -7.5t12.5 -2.5h3q32 0 32 37v119q0 35 -32 36z
" />
    <glyph glyph-name="one.tosf" horiz-adv-x="494" 
d="M364 0h-212v290l-65 -20l-51 169l198 61h130v-500z" />
    <glyph glyph-name="two.tosf" horiz-adv-x="559" 
d="M223 508h59q77 0 133.5 -42.5t56.5 -106.5q0 -90 -108 -140l-66 -30q-29 -12 -31 -29l-1 -5h206v-155h-418v152q0 39 29 69.5t84 60.5l92 51q3 1 3 6q1 7 -7 7h-14q-89 0 -141 -11l-26 146q18 7 45 13t55 10t49 4z" />
    <glyph glyph-name="three.tosf" horiz-adv-x="552" 
d="M224 510h73q85 0 145 -54.5t60 -134.5v-34q0 -61 -54 -99q30 -16 47 -47t17 -64v-64q0 -83 -60.5 -137.5t-144.5 -54.5h-83q-40 0 -91 12t-82 31l27 152q67 -17 164 -18h22q22 0 22 23v57q0 24 -22 24h-87v161h87q22 0 22 24v23q0 24 -22 24h-18q-110 -1 -169 -13
l-27 151q33 16 84 27t90 11z" />
    <glyph glyph-name="four.tosf" horiz-adv-x="586" 
d="M246 133h39l64 159h148v-159h74v-176h-74v-117h-212v117h-270v107l182 456h204z" />
    <glyph glyph-name="five.tosf" horiz-adv-x="526" 
d="M462 324h-185l-7 -55h9q88 0 152 -54t64 -128v-82q0 -83 -60.5 -137.5t-144.5 -54.5h-83q-46 0 -102 15t-87 40l26 153q66 -31 165 -31h38q22 0 22 23v52q-2 20 -19 20h-145l-73 73l44 342h386v-176z" />
    <glyph glyph-name="six.tosf" horiz-adv-x="583" 
d="M320 681h26q56 0 166 -25v-166q-86 13 -163 14h-16q-27 0 -44.5 -16.5t-17.5 -49.5v-4q28 6 66 6h25q82 0 131.5 -47t49.5 -142v-66q0 -88 -60 -139.5t-146 -51.5h-85q-104 0 -158 58.5t-54 184.5v189q0 121 78.5 188t201.5 67zM295 264h-7q-22 0 -22 -24v-46
q0 -24 22 -24h7q21 0 21 24v46q0 24 -21 24z" />
    <glyph glyph-name="seven.tosf" horiz-adv-x="553" 
d="M271 -162h-250l199 504h-209v177h528z" />
    <glyph glyph-name="eight.tosf" horiz-adv-x="583" 
d="M256 679h72q85 0 145 -54.5t60 -134.5v-34q0 -18 -4.5 -34t-12.5 -28t-17.5 -21t-19.5 -15q30 -16 47 -47.5t17 -64.5v-64q0 -81 -60 -136t-145 -55h-92q-86 0 -146 56t-60 135v64q0 36 19.5 66t45.5 46q-55 31 -55 98v34q2 81 61.5 135t144.5 54zM295 503h-6
q-22 0 -22 -24v-23q0 -23 22 -23h6q22 0 22 23v23q0 24 -22 24zM295 271h-6q-22 0 -22 -24v-56q0 -24 22 -24h6q22 0 22 24v56q0 24 -22 24z" />
    <glyph glyph-name="nine.tosf" horiz-adv-x="583" 
d="M246 509h85q69 0 115.5 -24.5t71.5 -79t25 -139.5v-189q0 -81 -37 -139.5t-100 -87t-143 -28.5h-26q-56 0 -166 25v166q83 -12 163 -14h16q27 0 44.5 16.5t17.5 49.5v4q-28 -6 -66 -6h-25q-54 0 -93.5 19t-63.5 62.5t-24 107.5v66q0 88 60 139.5t146 51.5zM295 333h-7
q-21 0 -21 -24v-46q0 -24 21 -24h7q22 0 22 24v46q0 24 -22 24z" />
    <glyph glyph-name="zero.dnom" horiz-adv-x="318" 
d="M133 371h51q47 0 80.5 -30.5t33.5 -75.5v-166q0 -45 -33.5 -75.5t-80.5 -30.5h-51q-47 0 -80.5 30.5t-33.5 75.5v166q0 45 33.5 75.5t80.5 30.5zM160 273h-3q-14 0 -12 -13v-156q0 -14 12 -14h3q14 0 12 14v156q0 13 -12 13z" />
    <glyph glyph-name="one.dnom" horiz-adv-x="265" 
d="M235 0h-126v240l-34 -7l-32 102l99 30h93v-365z" />
    <glyph glyph-name="two.dnom" horiz-adv-x="346" 
d="M150 371h39q47 0 80 -29.5t33 -74.5v-10q0 -14 -4.5 -28t-12.5 -27t-20.5 -24t-26.5 -19l-57 -30q-15 -8 -15 -25v-6h136v-98h-264v120q0 61 68 96l65 35q5 2 5 5v2q0 5 -7 5h-16q-52 0 -84 -7l-16 94q17 8 46 14.5t51 6.5z" />
    <glyph glyph-name="three.dnom" horiz-adv-x="347" 
d="M153 371h40q47 0 80 -30t33 -75v-18q0 -32 -26 -53q32 -21 32 -60v-35q0 -44 -33.5 -75t-80.5 -31h-45q-22 0 -51 7t-45 18l15 87q39 -10 92 -11h11q8 0 8 10v30q0 10 -8 10h-50v93h50q8 0 8 10v12q0 10 -8 10h-11q-61 -1 -93 -8l-15 87q17 9 46 15.5t51 6.5z" />
    <glyph glyph-name="four.dnom" horiz-adv-x="368" 
d="M162 168h19l31 82h85v-82h35v-109h-35v-59h-120v59h-152v65l90 241h123z" />
    <glyph glyph-name="five.dnom" horiz-adv-x="354" 
d="M281 266h-98l-3 -26h6q47 -3 79.5 -31.5t32.5 -67.5v-43q0 -44 -32.5 -74t-78.5 -30h-44q-27 0 -57 8.5t-46 22.5l15 86q35 -18 89 -18h20q8 0 8 9v27q0 8 -8 8h-76l-41 41l24 187h210v-99z" />
    <glyph glyph-name="six.dnom" horiz-adv-x="326" 
d="M172 371h14q37 0 96 -15v-104q-59 8 -96 8h-7q-16 0 -21 -15v-1q6 1 23 1h11q48 0 77 -27.5t29 -80.5v-34q0 -46 -33.5 -77.5t-83.5 -31.5h-44q-53 0 -86 31t-33 78v125q0 69 44 106t110 37zM159 161h-2q-13 0 -13 -12v-46q0 -14 12 -14h2q13 0 13 14v46q0 12 -12 12z
" />
    <glyph glyph-name="seven.dnom" horiz-adv-x="333" 
d="M183 0h-141l100 256h-102v109h286z" />
    <glyph glyph-name="eight.dnom" horiz-adv-x="318" 
d="M137 370h37q48 0 81.5 -31t33.5 -76v-19q0 -31 -21 -51q27 -20 27 -57v-33q0 -46 -33.5 -77.5t-82.5 -31.5h-48q-49 0 -82.5 31.5t-33.5 77.5v33q0 14 7 28t14 21l7 7q-23 22 -23 52v19q0 29 15.5 54t42 39t59.5 14zM157 276h-3q-12 0 -12 -13v-21q0 -13 11 -13h3
q13 0 13 13v21q0 13 -12 13zM157 162h-3q-12 0 -12 -13v-46q0 -14 11 -14h3q13 0 13 14v46q0 13 -12 13z" />
    <glyph glyph-name="nine.dnom" horiz-adv-x="326" 
d="M134 371h44q35 0 62.5 -14.5t42.5 -39.5t15 -55v-125q0 -69 -44.5 -106t-110.5 -37h-14q-37 0 -96 15v104q58 -7 95 -8h8q16 0 21 14l1 2q-7 -1 -24 -1h-4q-50 0 -81 29t-31 79v34q0 46 33.5 77.5t82.5 31.5zM160 276h-3q-13 0 -13 -14v-46q0 -13 12 -13h3q12 0 12 13v46
q0 14 -11 14z" />
    <glyph glyph-name="zero.numr" horiz-adv-x="318" 
d="M133 706h51q47 0 80.5 -30.5t33.5 -75.5v-166q0 -45 -33.5 -75.5t-80.5 -30.5h-51q-47 0 -80.5 30.5t-33.5 75.5v166q0 45 33.5 75.5t80.5 30.5zM160 608h-3q-14 0 -12 -13v-156q0 -14 12 -14h3q14 0 12 14v156q0 13 -12 13z" />
    <glyph glyph-name="one.numr" horiz-adv-x="265" 
d="M235 335h-126v240l-34 -7l-32 102l99 30h93v-365z" />
    <glyph glyph-name="two.numr" horiz-adv-x="346" 
d="M161 706h39q47 0 80 -30t33 -74v-10q0 -28 -17.5 -55t-47.5 -43l-56 -31q-15 -8 -15 -25v-6h136v-97h-264v120q0 60 68 96l65 34q4 3 4 6v2q0 4 -6 4h-17q-52 0 -84 -6l-15 93q17 9 46 15.5t51 6.5z" />
    <glyph glyph-name="three.numr" horiz-adv-x="347" 
d="M153 706h40q47 0 80 -30t33 -75v-18q0 -32 -26 -53q32 -21 32 -60v-34q0 -45 -33.5 -76t-80.5 -31h-45q-14 0 -32 3.5t-35.5 9t-28.5 12.5l15 87q39 -10 92 -10h11q8 0 8 9v31q0 9 -8 9h-50v93h50q8 0 8 10v12q0 10 -8 10h-11q-61 0 -93 -8l-15 87q11 6 28.5 11t36 8
t32.5 3z" />
    <glyph glyph-name="four.numr" horiz-adv-x="368" 
d="M162 503h19l31 81h85v-81h35v-109h-35v-59h-120v59h-152v65l90 241h123z" />
    <glyph glyph-name="five.numr" horiz-adv-x="354" 
d="M288 601h-97l-3 -26h5q48 -3 80.5 -31.5t32.5 -67.5v-43q0 -44 -32.5 -74t-79.5 -30h-43q-18 0 -37 3.5t-37.5 11t-29.5 16.5l15 86q36 -18 90 -18h20q8 0 8 9v27q-1 8 -9 8h-76l-40 41l24 187h209v-99z" />
    <glyph glyph-name="six.numr" horiz-adv-x="326" 
d="M172 706h14q37 0 96 -15v-104q-59 8 -96 8h-7q-16 0 -21 -15v-1q6 1 23 1h11q48 0 77 -27.5t29 -80.5v-34q0 -46 -33.5 -77.5t-83.5 -31.5h-44q-53 0 -86 31t-33 78v125q0 69 44 106t110 37zM159 496h-2q-13 0 -13 -12v-46q0 -14 12 -14h2q13 0 13 14v46q0 12 -12 12z
" />
    <glyph glyph-name="seven.numr" horiz-adv-x="333" 
d="M183 335h-146l100 256h-102v109h291z" />
    <glyph glyph-name="eight.numr" horiz-adv-x="318" 
d="M137 706h37q32 0 58.5 -14.5t41.5 -39t15 -54.5v-18q0 -32 -21 -51q27 -21 27 -58v-33q0 -45 -33.5 -76.5t-82.5 -31.5h-48q-49 0 -82.5 31.5t-33.5 76.5v33q0 15 7 29t14 21l7 7q-23 21 -23 52v18q0 46 33.5 77t83.5 31zM157 611h-3q-12 0 -12 -13v-20q0 -14 11 -14h3
q13 0 13 14v20q0 13 -12 13zM157 498h-3q-12 0 -12 -13v-47q0 -14 11 -14h3q13 0 13 14v47q0 13 -12 13z" />
    <glyph glyph-name="nine.numr" horiz-adv-x="326" 
d="M134 706h44q53 0 86.5 -31t33.5 -78v-125q0 -69 -44.5 -106t-110.5 -37h-14q-37 0 -96 15v105q59 -8 95 -9h8q16 0 21 14l1 2q-7 -1 -24 -1l-4 1q-32 0 -57.5 12t-40 37t-14.5 58v34q0 46 33.5 77.5t82.5 31.5zM160 611h-3q-13 0 -13 -14v-46q0 -12 12 -12h3q12 0 12 12
v46q0 14 -11 14z" />
    </font>
</defs>
</svg>
