<?xml version="1.0" standalone="no"?>
<!DOCTYPE svg PUBLIC "-//W3C//DTD SVG 1.1//EN" "http://www.w3.org/Graphics/SVG/1.1/DTD/svg11.dtd" >
<svg xmlns="http://www.w3.org/2000/svg" xmlns:xlink="http://www.w3.org/1999/xlink" version="1.1">
<metadata>
Created by FontForge 20150318 at Mon Nov 23 10:40:21 2015
 By uniteet7
Copyright (c) 2010 by Jonathan Hill. All rights reserved.
</metadata>
<defs>
<font id="TheNorthernBlockNorpethExtraBold" horiz-adv-x="512" >
  <font-face 
    font-family="TheNorthernBlockNorpethExtraBold"
    font-weight="800"
    font-stretch="normal"
    units-per-em="1000"
    panose-1="0 0 9 0 0 0 0 0 0 0"
    ascent="750"
    descent="-250"
    x-height="500"
    cap-height="700"
    bbox="-76 -230 1073 1093"
    underline-thickness="50"
    underline-position="-50"
    unicode-range="U+0020-FB06"
  />
<missing-glyph horiz-adv-x="500" 
d="M0 0v700h500v-700h-500zM250 395l170 255h-340zM280 350l170 -255v510zM80 50h340l-170 255zM50 605v-510l170 255z" />
    <glyph glyph-name="f_f" unicode="ff" horiz-adv-x="686" 
d="M657 592h-68q-11 0 -19.5 -4t-14.5 -14t-6 -24v-50h108v-115h-108v-385h-151v385h-175v-385h-152v385h-48v115h48v67q0 59 47.5 100t111.5 41h100v-116h-68q-10 0 -18.5 -4t-14.5 -14t-6 -24v-50h175v67q0 39 22 71.5t58 51t78 18.5h101v-116z" />
    <glyph glyph-name="fi" unicode="fi" horiz-adv-x="619" 
d="M332 592h-68q-17 0 -28.5 -10.5t-11.5 -31.5v-50h341v-500h-151v385h-190v-385h-152v385h-47v115h47v67q0 57 46.5 99t112.5 42h101v-116z" />
    <glyph glyph-name="fl" unicode="fl" horiz-adv-x="570" 
d="M533 1h-151v591h-120q-7 0 -14 -2t-13 -7t-9 -13t-3 -19v-50h107v-115h-107v-385h-152v385h-48v115h48v67q0 38 22 71t58.5 51.5t78.5 18.5h303v-708z" />
    <glyph glyph-name="f_f_i" unicode="ffi" horiz-adv-x="974" 
d="M921 0h-152v385h-190v-385h-151v385h-204v-385h-152v385h-47v115h47v67q0 57 46.5 99t112.5 42h101v-116h-68q-8 0 -15 -2.5t-12.5 -7.5t-9 -13t-3.5 -19v-50h204v67q0 57 46 99t112 42h101v-116h-68q-10 0 -19 -4t-14.5 -14t-5.5 -24v-50h341v-500z" />
    <glyph glyph-name="f_f_l" unicode="ffl" horiz-adv-x="896" 
d="M859 0h-151v592h-120q-10 0 -18.5 -4t-14.5 -14t-6 -24v-50h107v-115h-107v-385h-152v385h-174v-385h-152v385h-48v115h48v67q0 59 47.5 100t111.5 41h98v-116h-66q-10 0 -18.5 -4t-14.5 -14t-6 -24v-50h174v67q0 59 47.5 100t111.5 41h303v-708z" />
    <glyph glyph-name=".notdef" horiz-adv-x="500" 
d="M0 0v700h500v-700h-500zM250 395l170 255h-340zM280 350l170 -255v510zM80 50h340l-170 255zM50 605v-510l170 255z" />
    <glyph glyph-name=".null" horiz-adv-x="0" 
 />
    <glyph glyph-name="nonmarkingreturn" horiz-adv-x="333" 
 />
    <glyph glyph-name="space" unicode=" " horiz-adv-x="300" 
 />
    <glyph glyph-name="exclam" unicode="!" horiz-adv-x="233" 
d="M187 177h-139l-6 523h151zM198 0h-160v111h160v-111z" />
    <glyph glyph-name="quotedbl" unicode="&#x22;" horiz-adv-x="402" 
d="M169 501h-121l-10 205h141zM354 501h-122l-10 205h142z" />
    <glyph glyph-name="numbersign" unicode="#" horiz-adv-x="586" 
d="M481 461h64v-89h-82l-28 -131h110v-88h-129l-33 -154h-111l31 154h-86l-32 -154h-112l31 154h-63v88h81l30 131h-111v89h128l48 217h114l-49 -217h87l50 217h115zM267 372l-29 -131h82l28 131h-81z" />
    <glyph glyph-name="dollar" unicode="$" horiz-adv-x="551" 
d="M327 771v-63q85 -3 146 -28l-13 -132q-69 28 -164 29h-32q-26 0 -43.5 -16.5t-17.5 -39.5v-10q0 -35 35 -53l144 -61q75 -30 104 -67t29 -110v-14q-1 -94 -47 -146.5t-129 -62.5l-11 -2v-62h-104v59q-108 4 -181 31l12 131q60 -19 108.5 -26t117.5 -7q29 1 49 20.5
t20 48.5v15q0 40 -39 59l-151 63q-71 28 -98 60.5t-27 99.5v12q0 91 44.5 144t126.5 62l17 1v65h104z" />
    <glyph glyph-name="percent" unicode="%" horiz-adv-x="742" 
d="M192 -18h-104l456 735h104zM150 706h33q45 0 79 -28t34 -74v-166q0 -46 -34 -74t-79 -28h-33q-44 0 -78.5 28t-34.5 74v166q0 46 34 74t79 28zM168 638h-3q-17 0 -30.5 -9t-12.5 -28v-160q0 -10 4 -17.5t10.5 -11.5t13.5 -6t15 -2h3q18 0 30.5 9.5t12.5 27.5v160
q0 18 -12.5 27.5t-30.5 9.5zM559 363h34q45 0 79 -28t34 -74v-165q0 -47 -34 -75t-79 -28h-34q-20 0 -40 7t-36.5 19.5t-26.5 32.5t-10 44v165q0 47 34.5 74.5t78.5 27.5zM578 295h-3q-18 0 -31 -9t-12 -28v-159q0 -13 6.5 -22t15.5 -12.5t20 -3.5h3q18 0 31 9.5t13 28.5
v159q0 19 -13 28t-30 9z" />
    <glyph glyph-name="ampersand" unicode="&#x26;" horiz-adv-x="678" 
d="M260 703h10q71 0 117.5 -42t46.5 -97v-40q0 -56 -52 -101l-33 -30l103 -136q4 14 4 30v28h122l-12 -157q-1 -23 -10 -49l87 -109h-172l-25 33q-49 -39 -108 -39h-83q-62 0 -112.5 26t-78 70t-27.5 97v35q0 39 19.5 77t53.5 68l43 39l-35 47q-23 36 -23 71v40
q0 56 47 97.5t118 41.5zM268 597h-7q-12 0 -22 -5.5t-15.5 -15t-5.5 -20.5v-37q0 -19 12 -29l29 -36l36 31q16 12 16 34v37q0 16 -12.5 28.5t-30.5 12.5zM245 289l-37 -33q-26 -23 -26 -58v-27q0 -9 2 -18t5.5 -16.5t8.5 -14t11 -11.5t13 -8.5t14.5 -5.5t15.5 -2h64
q34 0 53 31z" />
    <glyph glyph-name="quotesingle" unicode="'" horiz-adv-x="216" 
d="M169 501h-121l-10 205h141z" />
    <glyph glyph-name="parenleft" unicode="(" horiz-adv-x="311" 
d="M158 759l117 -65q-25 -73 -57.5 -200t-32.5 -199q0 -65 37 -215t51 -191l-113 -55q-29 46 -77.5 215t-48.5 246q0 85 42.5 226t81.5 238z" />
    <glyph glyph-name="parenright" unicode=")" horiz-adv-x="311" 
d="M36 694l117 65q22 -54 47.5 -128.5t51 -175.5t25.5 -160q0 -77 -48.5 -246t-77.5 -215l-113 55q15 41 51.5 191t36.5 215q0 72 -32.5 199t-57.5 200z" />
    <glyph glyph-name="asterisk" unicode="*" horiz-adv-x="380" 
d="M226 622l61 63l52 -52l-99 -98l99 -98l-52 -51l-61 61v-88h-72v88l-62 -61l-51 51l98 98l-98 98l51 52l62 -63v88h72v-88z" />
    <glyph glyph-name="plus" unicode="+" horiz-adv-x="559" 
d="M342 359h184v-126h-184v-184h-125v184h-185v126h185v184h125v-184z" />
    <glyph glyph-name="comma" unicode="," horiz-adv-x="232" 
d="M197 46l-66 -125h-94l39 75h-39v131h160v-81z" />
    <glyph glyph-name="hyphen" unicode="-" horiz-adv-x="456" 
d="M418 248h-380v115h380v-115z" />
    <glyph glyph-name="period" unicode="." horiz-adv-x="234" 
d="M197 0h-159v127h159v-127z" />
    <glyph glyph-name="slash" unicode="/" horiz-adv-x="466" 
d="M136 -1h-116l311 701h116z" />
    <glyph glyph-name="zero" unicode="0" horiz-adv-x="547" 
d="M231 681h92q75 0 128 -50t53 -124v-338q0 -74 -53 -124.5t-128 -50.5h-92q-80 0 -134 50t-54 125v338q0 49 25 89t68 62.5t95 22.5zM297 551h-44q-26 0 -44 -17.5t-18 -45.5v-302q0 -28 17.5 -45.5t44.5 -17.5h44q26 0 43 17.5t17 45.5v302q0 28 -17 45.5t-43 17.5z" />
    <glyph glyph-name="one" unicode="1" horiz-adv-x="373" 
d="M307 0h-156v532l-91 -28l-36 121l182 56h101v-681z" />
    <glyph glyph-name="two" unicode="2" horiz-adv-x="530" 
d="M238 682h65q76 0 129.5 -49.5t53.5 -121.5v-21q0 -47 -28.5 -90t-76.5 -69l-136 -72q-14 -7 -25.5 -18.5t-18.5 -27.5t-7 -35v-65h292v-113h-440v197q0 105 113 164l149 78q32 17 32 51v10q0 24 -16.5 40t-41.5 16h-40q-88 0 -152 -21l-17 111q70 36 165 36z" />
    <glyph glyph-name="three" unicode="3" horiz-adv-x="528" 
d="M217 682h64q76 0 129.5 -49.5t53.5 -121.5v-37q0 -38 -19.5 -67t-50.5 -45q35 -16 56 -49t21 -70v-76q0 -73 -54 -123t-130 -50h-70q-99 0 -164 39l20 101q64 -23 155 -23h33q27 0 44.5 17.5t17.5 43.5v71q0 27 -17.5 44.5t-44.5 17.5h-73v108h73q27 0 44.5 17.5
t17.5 43.5v30q0 27 -17.5 44.5t-44.5 17.5h-30q-100 0 -159 -20l-20 100q70 36 165 36z" />
    <glyph glyph-name="four" unicode="4" horiz-adv-x="551" 
d="M173 250h132l39 194h99v-194h85v-116h-85v-133h-138v133h-282v74l186 473h135z" />
    <glyph glyph-name="five" unicode="5" 
d="M429 564h-222l-11 -128h74q78 0 134 -49t56 -117v-103q0 -49 -25 -89t-67 -62.5t-91 -22.5h-71q-48 0 -96 12t-78 35l20 101q61 -31 155 -30h43q18 0 32.5 8t22.5 21.5t8 31.5v84q-1 25 -18.5 42t-42.5 18h-159l-53 46l36 318h353v-116z" />
    <glyph glyph-name="six" unicode="6" horiz-adv-x="562" 
d="M287 681h53q57 0 149 -20v-111q-81 13 -147 14h-47q-38 0 -63 -24.5t-25 -65.5v-53q55 10 88 10h55q73 0 119.5 -45.5t46.5 -127.5v-89q0 -78 -53 -126.5t-128 -48.5h-90q-89 0 -138.5 52.5t-49.5 154.5v266q0 98 65 156t165 58zM309 315h-45q-38 0 -60 -20v-121
q0 -19 8 -33.5t22.5 -22.5t32.5 -8h42q25 0 42 18t17 46v77q0 27 -17 45.5t-42 18.5z" />
    <glyph glyph-name="seven" unicode="7" horiz-adv-x="519" 
d="M227 0h-163l223 564h-265v117h473z" />
    <glyph glyph-name="eight" unicode="8" horiz-adv-x="575" 
d="M251 681h74q76 0 129.5 -49.5t53.5 -121.5v-38q0 -38 -19 -67.5t-48 -43.5q35 -16 56 -49t21 -71v-76q0 -72 -53.5 -122t-129.5 -50h-94q-38 0 -72 13.5t-58.5 36.5t-39 55t-14.5 67v76q0 27 11 51.5t28.5 42t38.5 26.5q-32 17 -49.5 46t-17.5 65v38q1 72 54.5 121.5
t128.5 49.5zM305 565h-33q-28 0 -45.5 -17.5t-17.5 -44.5v-31q0 -26 17.5 -43.5t45.5 -17.5h35q27 0 44 17.5t17 43.5v31q0 27 -18 44.5t-45 17.5zM308 303h-40q-28 0 -45.5 -17.5t-17.5 -43.5v-72q0 -26 17.5 -43.5t45.5 -17.5h40q28 0 45.5 17.5t17.5 43.5v72q0 17 -8 31
t-22.5 22t-32.5 8z" />
    <glyph glyph-name="nine" unicode="9" horiz-adv-x="562" 
d="M227 681h90q59 0 100.5 -22.5t64.5 -69.5t23 -115v-266q0 -98 -65 -156t-165 -58h-53q-57 0 -149 20v111q81 -13 147 -14h47q38 0 62.5 24.5t24.5 65.5v63q-54 -10 -87 -10h-55q-73 0 -119.5 45.5t-46.5 127.5v79q0 78 53 126.5t128 48.5zM295 564h-42q-25 0 -42 -18
t-17 -45v-67q0 -27 17 -45.5t42 -18.5h45q38 0 60 20v111q0 28 -17.5 45.5t-45.5 17.5z" />
    <glyph glyph-name="colon" unicode=":" horiz-adv-x="226" 
d="M193 300v-173h-160v173h160z" />
    <glyph glyph-name="semicolon" unicode=";" horiz-adv-x="227" 
d="M194 301h-160v127h160v-127zM194 46l-67 -125h-93l38 75h-38v131h160v-81z" />
    <glyph glyph-name="less" unicode="&#x3c;" horiz-adv-x="455" 
d="M419 410l-243 -105l243 -105v-157l-387 177v171l387 176v-157z" />
    <glyph glyph-name="equal" unicode="=" horiz-adv-x="566" 
d="M530 325h-494v125h494v-125zM530 131h-494v125h494v-125z" />
    <glyph glyph-name="greater" unicode="&#x3e;" horiz-adv-x="455" 
d="M423 391v-171l-386 -177v157l243 105l-243 105v157z" />
    <glyph glyph-name="question" unicode="?" horiz-adv-x="501" 
d="M221 708h65q37 0 70.5 -13t58.5 -36t39.5 -54.5t14.5 -67.5v-20q0 -24 -7.5 -47.5t-21 -44t-33 -38t-43.5 -29.5l-94 -51q-23 -12 -37.5 -32.5t-14.5 -48.5v-26h-148v45q0 105 113 164l108 57q32 16 32 50v10q0 16 -7.5 28.5t-20.5 20t-30 7.5h-40q-88 0 -152 -21
l-17 111q70 36 165 36zM225 0h-160v111h160v-111z" />
    <glyph glyph-name="at" unicode="@" horiz-adv-x="758" 
d="M256 644h246q91 0 154.5 -63.5t63.5 -154.5v-108q0 -47 -19.5 -90t-54 -73.5t-77.5 -45.5h-132l-5 28q-57 -33 -108 -33q-47 0 -78.5 27.5t-31.5 76.5v9q1 100 137 100q35 0 67 -6v22q0 27 -19.5 39t-42.5 12q-40 0 -100 -13l-13 76q76 17 128 17q24 0 45 -4t41 -13
t35 -23.5t23.5 -36.5t8.5 -50v-124h21q31 12 50 39.5t19 63.5v110q0 51 -32 82t-80 31h-246q-48 0 -80 -31t-32 -82v-307q0 -48 32.5 -80.5t79.5 -32.5h157q44 0 96 22v-104q-56 -24 -96 -24h-157q-59 0 -109.5 29t-79.5 79t-29 111v307q0 91 63.5 154.5t154.5 63.5z
M418 191v72q-23 3 -48 3q-57 0 -57 -40v-18q0 -18 11 -28.5t29 -10.5q27 0 65 22z" />
    <glyph glyph-name="A" unicode="A" horiz-adv-x="702" 
d="M665 0h-171l-42 150h-202l-42 -150h-170l211 700h205zM272 279h158l-79 290z" />
    <glyph glyph-name="B" unicode="B" horiz-adv-x="640" 
d="M67 700h353q47 0 82 -20t53.5 -56t18.5 -83v-30q0 -105 -87 -146q50 -15 77.5 -55.5t27.5 -102.5v-40q0 -74 -41.5 -120.5t-112.5 -46.5h-371v700zM230 578v-170h125q28 0 46.5 18.5t18.5 47.5v37q0 14 -5 26.5t-13.5 21.5t-21 14t-25.5 5h-125zM230 308v-179h139
q28 0 46.5 18.5t18.5 47.5v46q0 30 -18.5 48.5t-46.5 18.5h-139z" />
    <glyph glyph-name="C" unicode="C" horiz-adv-x="531" 
d="M310 709h27q69 0 155 -23l-9 -118q-80 11 -146 12h-18q-46 0 -77 -30.5t-31 -83.5v-232q0 -53 31 -83.5t77 -30.5h18q66 1 146 13l9 -119q-84 -22 -155 -22h-27q-112 0 -187 66t-75 181v223q0 115 75 181t187 66z" />
    <glyph glyph-name="D" unicode="D" horiz-adv-x="655" 
d="M73 701h271q111 0 187 -67t76 -181v-206q0 -115 -75.5 -181t-187.5 -66h-271v701zM237 571v-442h99q29 0 53.5 13t39.5 39t15 62v215q0 34 -15 60.5t-39.5 39.5t-53.5 13h-99z" />
    <glyph glyph-name="E" unicode="E" horiz-adv-x="546" 
d="M505 571h-281v-153h245v-128h-245v-161h281v-129h-444v700h444v-129z" />
    <glyph glyph-name="F" unicode="F" horiz-adv-x="542" 
d="M505 571h-281v-158h245v-129h-245v-284h-163v700h444v-129z" />
    <glyph glyph-name="G" unicode="G" horiz-adv-x="635" 
d="M311 708h27q124 0 220 -36l-21 -122q-94 30 -218 30q-49 0 -78.5 -30t-29.5 -85v-231q0 -34 12 -59.5t35.5 -40t57.5 -14.5h16q58 0 98 19v147h-102v115h241v-350q-59 -32 -111.5 -46t-117.5 -14h-29q-82 0 -141 29.5t-90.5 85.5t-31.5 132v223q0 120 72 183.5t191 63.5z
" />
    <glyph glyph-name="H" unicode="H" horiz-adv-x="684" 
d="M618 0h-164v285h-224v-285h-163v700h163v-286h224v286h164v-700z" />
    <glyph glyph-name="I" unicode="I" horiz-adv-x="296" 
d="M229 0h-162v700h162v-700z" />
    <glyph glyph-name="J" unicode="J" horiz-adv-x="454" 
d="M387 700v-461q0 -115 -75.5 -181t-187.5 -66h-99v129h91q46 0 77 30t31 83v466h163z" />
    <glyph glyph-name="K" unicode="K" horiz-adv-x="665" 
d="M349 349l285 -349h-194l-219 267v-267h-160v701h160v-268l214 268h188z" />
    <glyph glyph-name="L" unicode="L" horiz-adv-x="557" 
d="M236 128h287v-128h-450v699h163v-571z" />
    <glyph glyph-name="M" unicode="M" horiz-adv-x="813" 
d="M756 0h-160l-14 405l-130 -251h-90l-130 251l-16 -405h-159l25 700h161l163 -336l161 336h162z" />
    <glyph glyph-name="N" unicode="N" horiz-adv-x="679" 
d="M623 0h-158l-248 421v-421h-160v700h157l248 -425v425h161v-700z" />
    <glyph glyph-name="O" unicode="O" horiz-adv-x="657" 
d="M312 708h32q70 0 130.5 -29.5t97.5 -87t37 -130.5v-223q0 -108 -75 -177.5t-190 -69.5h-32q-120 0 -192 69.5t-72 177.5v223q0 111 75 179t189 68zM337 580h-18q-29 -1 -53.5 -14.5t-39.5 -39.5t-15 -61v-231q0 -53 31.5 -83.5t76.5 -30.5h18q45 0 77.5 30t32.5 84v231
q0 52 -33 83t-77 32z" />
    <glyph glyph-name="P" unicode="P" horiz-adv-x="636" 
d="M73 700h315q95 0 149 -57.5t54 -152.5v-68q0 -97 -54 -153.5t-149 -56.5h-152v-212h-163v700zM236 569v-226h127q29 0 47.5 18.5t18.5 48.5v92q0 28 -19 47.5t-47 19.5h-127z" />
    <glyph glyph-name="Q" unicode="Q" horiz-adv-x="672" 
d="M315 708h32q109 0 187 -68.5t78 -178.5v-223q0 -64 -29.5 -117t-79.5 -85l121 -121l-165 -3l-83 83q-19 -4 -37 -4h-24q-120 0 -192 69.5t-72 177.5v223q0 74 35 130.5t95 86.5t134 30zM340 580h-18q-22 0 -41.5 -8.5t-34.5 -22.5t-23.5 -36t-8.5 -48v-231
q0 -36 15.5 -62.5t39.5 -39t53 -12.5h18q45 0 77.5 30t32.5 84v231q0 21 -6 39.5t-16.5 32t-24.5 23.5t-30 15t-33 5z" />
    <glyph glyph-name="R" unicode="R" horiz-adv-x="659" 
d="M67 700h316q94 0 148.5 -57.5t54.5 -152.5v-67q0 -58 -25 -103t-67 -66l117 -254h-188l-83 213h-111v-213h-162v700zM230 569v-227h128q28 0 46.5 18.5t18.5 47.5v94q0 28 -18.5 47.5t-46.5 19.5h-128z" />
    <glyph glyph-name="S" unicode="S" horiz-adv-x="563" 
d="M41 487v12q0 113 63 161.5t176 48.5q46 0 78 -2.5t62.5 -9t59.5 -17.5l-14 -132q-67 29 -182 29q-29 0 -52 -12.5t-23 -43.5v-10q0 -35 35 -53l145 -61q75 -30 103.5 -67t28.5 -110v-14q-2 -215 -245 -215q-140 0 -227 32l12 131q60 -19 108.5 -26t118.5 -7q29 1 49 20.5
t20 48.5v15q0 40 -40 59l-151 63q-70 28 -97 60.5t-28 99.5z" />
    <glyph glyph-name="T" unicode="T" horiz-adv-x="621" 
d="M587 573h-193v-573h-164v573h-195v127h552v-127z" />
    <glyph glyph-name="U" unicode="U" horiz-adv-x="677" 
d="M613 700v-472q0 -60 -21.5 -106t-58.5 -74t-83 -42.5t-99 -14.5h-30q-115 0 -187.5 60.5t-72.5 176.5v472h162v-472q0 -36 15.5 -61t38.5 -36t52 -11h17q44 0 74 27.5t30 80.5v472h163z" />
    <glyph glyph-name="V" unicode="V" horiz-adv-x="673" 
d="M448 0h-223l-190 700h171l130 -577l132 577h171z" />
    <glyph glyph-name="W" unicode="W" horiz-adv-x="950" 
d="M771 0h-203l-92 454l-93 -454h-204l-147 700h171l87 -511l101 511h169l101 -511l87 511h170z" />
    <glyph glyph-name="X" unicode="X" horiz-adv-x="654" 
d="M424 350l206 -350h-171l-132 241l-132 -241h-171l206 350l-206 350h171l132 -242l132 242h171z" />
    <glyph glyph-name="Y" unicode="Y" horiz-adv-x="668" 
d="M415 279v-279h-163v280l-221 420h174l129 -271l129 271h174z" />
    <glyph glyph-name="Z" unicode="Z" horiz-adv-x="614" 
d="M569 639l-316 -510h322v-129h-537v61l317 510h-304v129h518v-61z" />
    <glyph glyph-name="bracketleft" unicode="[" horiz-adv-x="299" 
d="M269 635h-81v-674h81v-115h-231v904h231v-115z" />
    <glyph glyph-name="backslash" unicode="\" horiz-adv-x="466" 
d="M447 -1h-116l-311 701h116z" />
    <glyph glyph-name="bracketright" unicode="]" horiz-adv-x="299" 
d="M261 -154h-231v115h81v674h-81v115h231v-904z" />
    <glyph glyph-name="asciicircum" unicode="^" horiz-adv-x="612" 
d="M577 351h-144l-127 242l-127 -242h-144l204 349h134z" />
    <glyph glyph-name="underscore" unicode="_" horiz-adv-x="619" 
d="M581 -166h-543v111h543v-111z" />
    <glyph glyph-name="grave" unicode="`" horiz-adv-x="294" 
d="M259 560h-113l-113 157h140z" />
    <glyph glyph-name="a" unicode="a" horiz-adv-x="516" 
d="M87 377l-18 108q109 24 184 24q43 0 80 -9.5t69.5 -29.5t51 -56.5t18.5 -86.5v-327h-124l-8 41q-82 -48 -155 -48q-68 0 -113 39t-46 109v14q3 142 197 142q50 0 98 -9v33q0 21 -9 36t-24 23t-29 11.5t-29 3.5q-57 0 -143 -18zM321 117v104q-30 5 -68 5q-85 0 -85 -58
v-27q0 -13 4.5 -23.5t12 -18t18.5 -11.5t23 -4q40 0 95 33z" />
    <glyph glyph-name="b" unicode="b" horiz-adv-x="534" 
d="M203 700v-215q56 24 122 24q31 0 60.5 -9t55.5 -28.5t41.5 -54t15.5 -81.5v-175q0 -73 -49 -121t-129 -48q-73 0 -139 43l-6 -35h-123v700h151zM355 179v144q0 35 -24.5 52t-55.5 18q-42 1 -73 -5v-255q45 -24 79 -24q33 0 53.5 20.5t20.5 49.5z" />
    <glyph glyph-name="c" unicode="c" horiz-adv-x="415" 
d="M35 170v158q0 49 19.5 86t52 56.5t68.5 29t75 9.5q64 0 134 -17l-9 -113q-57 13 -97 13q-39 0 -67 -18.5t-28 -58.5v-132q0 -40 28 -58.5t67 -18.5q41 0 97 13l9 -113q-73 -17 -134 -17q-31 0 -60 5.5t-57.5 18.5t-49.5 33.5t-34.5 52t-13.5 71.5z" />
    <glyph glyph-name="d" unicode="d" horiz-adv-x="534" 
d="M482 0h-123l-7 35q-65 -43 -138 -43q-80 0 -129.5 48t-49.5 121v176q0 46 16 80.5t42 53.5t55 28.5t60 9.5q66 0 123 -25v216h151v-700zM330 133v255q-26 5 -63 5q-14 0 -28 -3.5t-28.5 -10.5t-23.5 -21.5t-9 -34.5v-144q0 -29 20.5 -49.5t53.5 -20.5q34 0 78 24z" />
    <glyph glyph-name="e" unicode="e" 
d="M35 173v155q0 47 21 83.5t54.5 57t70.5 30.5t76 10q41 0 78.5 -10t70.5 -30.5t53 -56.5t20 -84v-117h-302v-47q0 -35 25 -50.5t56 -15.5q55 0 193 16l16 -99q-113 -22 -196 -22q-36 0 -68 5t-63.5 18t-54 33t-36.5 52t-14 72zM338 287v50q0 35 -25 50.5t-56 15.5
q-19 0 -36 -5.5t-30.5 -21t-13.5 -39.5v-50h161z" />
    <glyph glyph-name="f" unicode="f" horiz-adv-x="356" 
d="M332 592h-68q-8 0 -15 -2.5t-12.5 -7.5t-9 -13t-3.5 -19v-50h108v-115h-108v-385h-152v385h-47v115h47v67q0 57 46.5 99t112.5 42h101v-116z" />
    <glyph glyph-name="g" unicode="g" horiz-adv-x="531" 
d="M35 171v168q0 73 50 120.5t132 47.5q75 0 135 -28l6 20h123v-508q0 -50 -18 -86.5t-49.5 -56.5t-67.5 -29.5t-77 -9.5q-82 0 -205 26l18 103q102 -21 163 -21q19 1 36.5 6.5t33.5 23t16 44.5v46q-67 -38 -129 -38q-71 0 -119 44.5t-48 127.5zM331 129v254q-32 8 -72 8
q-34 0 -57.5 -19.5t-23.5 -50.5v-142q0 -31 21 -50.5t54 -19.5q26 0 78 20z" />
    <glyph glyph-name="h" unicode="h" horiz-adv-x="542" 
d="M202 700v-216q56 25 123 25q31 0 60 -9.5t55 -28.5t41.5 -53.5t15.5 -80.5v-337h-142v323q0 15 -5.5 27t-13.5 19.5t-19 13t-21.5 7.5t-21.5 3q-41 0 -72 -5v-388h-151v700h151z" />
    <glyph glyph-name="i" unicode="i" horiz-adv-x="263" 
d="M214 566h-160v111h160v-111zM209 0h-151v500h151v-500z" />
    <glyph glyph-name="j" unicode="j" horiz-adv-x="264" 
d="M212 566h-159v111h159v-111zM208 500v-552q0 -58 -46 -100t-112 -42h-54v117h21q17 0 28.5 10t11.5 31v536h151z" />
    <glyph glyph-name="k" unicode="k" horiz-adv-x="539" 
d="M205 301l150 199h159l-176 -236l180 -264h-158l-155 212v-212h-151v700h151v-399z" />
    <glyph glyph-name="l" unicode="l" horiz-adv-x="252" 
d="M205 0h-151v700h151v-700z" />
    <glyph glyph-name="m" unicode="m" horiz-adv-x="815" 
d="M166 500l6 -36q67 45 134 45q77 0 127 -50q80 50 152 50q84 0 134.5 -48.5t50.5 -123.5v-337h-136v323q0 31 -21 50.5t-52.5 19.5t-85.5 -25q7 -19 7 -39v-329h-136v323q0 32 -21 51t-54 19q-31 0 -78 -22v-371h-144v500h117z" />
    <glyph glyph-name="n" unicode="n" horiz-adv-x="540" 
d="M172 500l6 -36q69 45 141 45q79 0 127.5 -49t48.5 -123v-337h-142v323q0 20 -9.5 36t-26 25t-36.5 9q-33 0 -81 -22v-371h-151v500h123z" />
    <glyph glyph-name="o" unicode="o" horiz-adv-x="526" 
d="M35 177v146q0 47 19.5 83.5t52.5 58t72.5 32.5t83.5 11q63 0 113 -18.5t82.5 -61.5t32.5 -105v-146q0 -62 -33 -105t-83 -61.5t-112 -18.5t-112.5 19.5t-83 62.5t-32.5 103zM344 179v142q0 36 -22.5 53t-58.5 17t-58 -17.5t-22 -52.5v-142q0 -35 22.5 -53t57.5 -18
q36 0 58.5 17.5t22.5 53.5z" />
    <glyph glyph-name="p" unicode="p" horiz-adv-x="536" 
d="M177 500l6 -35q64 43 138 43q81 0 130 -48t49 -121v-170q0 -37 -10.5 -67t-27.5 -49.5t-40 -32t-46.5 -18t-48.5 -5.5q-67 2 -122 24v-208h-151v687h123zM358 177v144q0 30 -21.5 50t-54.5 20q-32 0 -76 -24v-255q24 -4 61 -4q21 0 39.5 5t35 21.5t16.5 42.5z" />
    <glyph glyph-name="q" unicode="q" horiz-adv-x="531" 
d="M35 169v170q0 47 21.5 85.5t62 61t92.5 22.5q78 0 141 -43l6 35h123v-687h-150v208q-55 -22 -123 -24q-25 0 -48.5 5.5t-46.5 18t-40 32t-27.5 49.5t-10.5 67zM330 112v255q-44 24 -80 24q-20 0 -37 -9.5t-26 -25.5t-9 -35v-144q0 -35 24.5 -51.5t55.5 -17.5q42 -1 72 4z
" />
    <glyph glyph-name="r" unicode="r" horiz-adv-x="341" 
d="M316 384h-55q-19 0 -37 -9t-24 -22v-353h-151v500h123l6 -51q23 24 55.5 40t64.5 16h18v-121z" />
    <glyph glyph-name="s" unicode="s" horiz-adv-x="442" 
d="M199 507h42q81 0 143 -21l-12 -97q-55 19 -114 20h-42q-18 0 -30 -12t-12 -29q0 -29 24 -38l116 -40q56 -20 79 -50.5t23 -85.5q0 -161 -191 -161h-39q-89 1 -152 25l11 95q75 -23 137 -22h36q24 0 38.5 15.5t14.5 37.5q0 18 -9 32.5t-24 20.5l-121 40q-51 19 -71 43.5
t-20 74.5q0 152 173 152z" />
    <glyph glyph-name="t" unicode="t" horiz-adv-x="367" 
d="M226 500h109v-115h-109v-237q0 -21 12 -31t29 -10h68v-117h-101q-66 0 -112 42.5t-46 99.5v253h-48v115h48v113h150v-113z" />
    <glyph glyph-name="u" unicode="u" horiz-adv-x="537" 
d="M490 0h-123l-7 36q-65 -43 -127 -44q-86 -4 -137.5 45t-51.5 126v337h143v-323q0 -31 21 -50.5t54 -19.5q30 0 77 22v371h151v-500z" />
    <glyph glyph-name="v" unicode="v" horiz-adv-x="516" 
d="M357 0h-197l-139 500h156l81 -372l81 372h156z" />
    <glyph glyph-name="w" unicode="w" horiz-adv-x="744" 
d="M599 0h-153l-74 264l-74 -264h-154l-120 500h154l64 -353l78 353h103l79 -353l63 353h155z" />
    <glyph glyph-name="x" unicode="x" horiz-adv-x="533" 
d="M368 250l143 -250h-159l-87 168l-87 -168h-157l144 250l-137 250h156l81 -170l81 170h159z" />
    <glyph glyph-name="y" unicode="y" horiz-adv-x="540" 
d="M489 500v-512q0 -50 -18.5 -86.5t-50 -56.5t-67.5 -29.5t-77 -9.5q-78 0 -205 26l18 103q106 -22 163 -20q31 0 58 17.5t27 55.5v49q-69 -40 -131 -40q-44 0 -80.5 18t-60 58t-23.5 96v331h143v-323q0 -30 20.5 -50t51.5 -20q33 0 80 22v371h152z" />
    <glyph glyph-name="z" unicode="z" horiz-adv-x="462" 
d="M425 423l-224 -314h230v-109h-403v79l224 311h-212v111h385v-78z" />
    <glyph glyph-name="braceleft" unicode="{" horiz-adv-x="413" 
d="M379 642h-64q-14 0 -23.5 -9.5t-9.5 -24.5v-215q0 -58 -47 -96q47 -40 47 -95v-214q0 -15 9.5 -25t23.5 -10h64v-108h-119q-26 0 -46 4.5t-40 15.5t-31 35.5t-11 59.5v226q0 22 -15.5 37t-38.5 16h-45v118h45q15 0 27.5 7t19.5 19t7 26v226q0 49 37.5 82t90.5 33h119
v-108z" />
    <glyph glyph-name="bar" unicode="|" horiz-adv-x="226" 
d="M189 -111h-151v861h151v-861z" />
    <glyph glyph-name="braceright" unicode="}" horiz-adv-x="413" 
d="M33 750h120q26 0 49.5 -9t41 -24t27.5 -36.5t10 -45.5v-226q0 -22 15.5 -36.5t38.5 -15.5h45v-118h-45q-15 -1 -27.5 -8t-19.5 -19t-7 -26v-226q0 -35 -11 -59.5t-31 -35.5t-40 -15.5t-46 -4.5h-120v108h65q14 0 23 10t9 25v214q0 55 48 95q-48 38 -48 96v215
q0 15 -9 24.5t-23 9.5h-65v108z" />
    <glyph glyph-name="asciitilde" unicode="~" horiz-adv-x="593" 
d="M145 163l-108 15q0 84 49.5 140.5t127.5 56.5q36 0 60 -14t49 -41q33 -36 61 -36q25 0 42.5 22.5t19.5 60.5l110 -11q-2 -80 -47 -138t-116 -58q-9 0 -18 1.5t-16 3t-15 5.5l-13 6.5t-12.5 8t-10.5 8.5t-10 9.5t-9 8.5t-8.5 9.5t-7.5 8.5q-29 31 -55 31q-6 0 -11 -1
q-25 -4 -42 -30t-20 -66z" />
    <glyph glyph-name="exclamdown" unicode="&#xa1;" horiz-adv-x="233" 
d="M198 426h-160v112h160v-112zM193 -163h-151l6 524h139z" />
    <glyph glyph-name="cent" unicode="&#xa2;" horiz-adv-x="404" 
d="M269 574v-66q52 -2 110 -16l-10 -113q-56 13 -98 13q-38 0 -66 -19t-27 -58v-132q0 -40 28.5 -58.5t65.5 -18.5q42 0 98 13l9 -113q-64 -15 -110 -16v-64h-104v77l-21 7q-52 17 -83 58.5t-31 101.5v158q0 63 33 105.5t87 57.5q6 2 15 4v79h104z" />
    <glyph glyph-name="sterling" unicode="&#xa3;" horiz-adv-x="576" 
d="M99 410v106q0 74 56.5 128t140.5 62q9 2 35 2q75 0 177 -29l-15 -112q-68 15 -147 16l-23 -1q-33 -2 -52.5 -19.5t-19.5 -46.5v-106h145v-125h-145v-160h287v-125h-490v125h51v160h-51v125h51z" />
    <glyph glyph-name="currency" unicode="&#xa4;" horiz-adv-x="600" 
 />
    <glyph glyph-name="yen" unicode="&#xa5;" horiz-adv-x="669" 
d="M509 464h79v-125h-140l-22 -38l-4 -16h166v-125h-172v-160h-163v160h-172v125h165l-4 16l-21 38h-140v125h79l-128 236h174l128 -271l129 271h174z" />
    <glyph glyph-name="brokenbar" unicode="&#xa6;" horiz-adv-x="226" 
d="M189 412h-151v338h151v-338zM189 -111h-151v337h151v-337z" />
    <glyph glyph-name="section" unicode="&#xa7;" horiz-adv-x="489" 
d="M35 514v10q0 185 210 185q110 0 176 -26l-12 -116q-59 26 -160 26q-26 0 -46 -11t-20 -38v-9q0 -31 31 -47l126 -54q45 -17 69.5 -35.5t36 -47t11.5 -72.5v-12q0 -77 -39 -124q39 -38 39 -112v-12q-2 -189 -215 -189q-120 0 -200 27l11 116q52 -17 94.5 -23t104.5 -6
q13 0 24 4.5t19 12.5t13 19.5t5 24.5v13q0 35 -35 52l-133 55q-62 24 -85.5 53t-24.5 88v10q0 81 51 128q-50 36 -51 110zM283 315l-65 33q-41 -10 -41 -49v-9q0 -31 31 -47l79 -41l6 -3q25 18 25 50v11q0 36 -35 55z" />
    <glyph glyph-name="dieresis" unicode="&#xa8;" horiz-adv-x="356" 
d="M143 590h-105v107h105v-107zM318 590h-105v107h105v-107z" />
    <glyph glyph-name="copyright" unicode="&#xa9;" horiz-adv-x="795" 
d="M397.5 710q73.5 0 140 -28.5t114.5 -76.5t76.5 -115t28.5 -140q0 -98 -48 -181t-131 -131t-180.5 -48t-180.5 48t-131 131t-48 181q0 73 28.5 140t76.5 115t114.5 76.5t140 28.5zM398 625q-75 0 -138 -36.5t-100 -100t-37 -137.5q0 -113 80.5 -193.5t194 -80.5t194 80.5
t80.5 193.5t-80.5 193.5t-193.5 80.5zM391 541h14q37 0 84 -12l-5 -64q-43 6 -79 7h-10q-24 0 -40 -16t-16 -44v-124q0 -19 7.5 -32.5t20.5 -20.5t28 -7h10q36 0 79 7l5 -64q-47 -12 -84 -12h-14q-38 0 -69.5 15t-51 45.5t-19.5 70.5v119q0 41 19.5 71.5t51 45.5t69.5 15z
" />
    <glyph glyph-name="ordfeminine" unicode="&#xaa;" horiz-adv-x="365" 
d="M77 615l-12 75q74 16 120 16q62 0 102 -28t40 -90v-207h-85l-5 24q-50 -29 -97 -29q-21 0 -39.5 6t-32.5 18t-22 30.5t-8 41.5v8q1 98 140 93q16 0 46 -6v17q0 21 -15 32.5t-39 11.5q-34 0 -93 -13zM224 458v62q-20 3 -40 3q-49 0 -49 -34v-17q0 -14 9 -23.5t24 -9.5
q23 0 56 19z" />
    <glyph glyph-name="guillemotleft" unicode="&#xab;" horiz-adv-x="515" 
d="M229 329l-69 -54l69 -54v-126l-195 156v49l195 155v-126zM471 329l-69 -54l69 -54v-126l-195 156v49l195 155v-126z" />
    <glyph glyph-name="logicalnot" unicode="&#xac;" horiz-adv-x="882" 
 />
    <glyph glyph-name="registered" unicode="&#xae;" horiz-adv-x="795" 
d="M397.5 710q73.5 0 140 -28.5t114.5 -76.5t76.5 -115t28.5 -140q0 -98 -48 -181t-131 -131t-180.5 -48t-180.5 48t-131 131t-48 181q0 73 28.5 140t76.5 115t114.5 76.5t140 28.5zM398 625q-75 0 -138 -36.5t-100 -100t-37 -137.5q0 -113 80.5 -193.5t194 -80.5t194 80.5
t80.5 193.5t-80.5 193.5t-193.5 80.5zM264 530h161q47 0 74.5 -29t27.5 -77v-34q0 -20 -6 -37t-16.5 -29.5t-24.5 -19.5l60 -130h-94l-43 110h-58v-110h-81v356zM346 464v-115h67q14 0 23.5 9.5t9.5 24.5v47q0 15 -9.5 24.5t-23.5 9.5h-67z" />
    <glyph glyph-name="macron" unicode="&#xaf;" horiz-adv-x="402" 
d="M364 610h-326v90h326v-90z" />
    <glyph glyph-name="degree" unicode="&#xb0;" horiz-adv-x="343" 
d="M172 750q60 0 97.5 -37.5t37.5 -98.5q0 -60 -37.5 -97t-97.5 -37t-97.5 37t-37.5 97q0 61 37.5 98.5t97.5 37.5zM172 674q-27 0 -43.5 -16.5t-16.5 -43.5q0 -26 16.5 -41.5t43.5 -15.5q26 0 42.5 15.5t16.5 41.5q0 18 -7.5 31.5t-21 21t-30.5 7.5z" />
    <glyph glyph-name="plusminus" unicode="&#xb1;" horiz-adv-x="569" 
d="M347 465h185v-125h-185v-157h-125v157h-184v125h184v156h125v-156zM532 0h-494v125h494v-125z" />
    <glyph glyph-name="twosuperior" unicode="&#xb2;" horiz-adv-x="322" 
d="M152 706h34q27 0 50 -12t36 -33.5t13 -47.5v-10q0 -27 -15 -50t-41 -37l-70 -37q-23 -11 -23 -37v-33h149v-68h-237v111q0 57 61 89l75 39q15 8 15 22v5q0 11 -7 17.5t-18 6.5h-20q-46 0 -82 -13l-10 68q37 20 90 20z" />
    <glyph glyph-name="threesuperior" unicode="&#xb3;" horiz-adv-x="323" 
d="M142 707h34q20 0 38.5 -7.5t32 -20t21.5 -29.5t8 -37v-23q0 -36 -32 -58q17 -10 26 -27t9 -35v-38q0 -40 -29.5 -67.5t-70.5 -27.5h-37q-54 0 -91 23l13 61q36 -13 85 -13h15q8 0 14.5 3.5t9.5 9.5t3 13v37q0 12 -7.5 19t-19.5 7h-42v66h42q6 0 11 2t8.5 5.5t5.5 8.5
t2 11v20q0 24 -27 27h-15q-51 0 -85 -11l-13 60q39 21 91 21z" />
    <glyph glyph-name="acute" unicode="&#xb4;" horiz-adv-x="294" 
d="M147 561h-112l86 156h140z" />
    <glyph glyph-name="paragraph" unicode="&#xb6;" horiz-adv-x="680" 
d="M644 576h-33v-739h-152v739h-69v-739h-152v417h-41q-74 9 -121.5 61t-47.5 119v84q0 71 56 126.5t139 55.5h421v-124z" />
    <glyph glyph-name="periodcentered" unicode="&#xb7;" horiz-adv-x="234" 
d="M197 244h-159v127h159v-127z" />
    <glyph glyph-name="cedilla" unicode="&#xb8;" horiz-adv-x="260" 
d="M138 -28h10q31 0 53.5 -24.5t22.5 -56.5v-16q0 -38 -25 -63t-59 -25h-104v74h98q8 0 13.5 5t5.5 14v5q0 9 -5.5 14t-13.5 5h-59v97h63v-29z" />
    <glyph glyph-name="onesuperior" unicode="&#xb9;" horiz-adv-x="229" 
d="M191 340h-85v273l-44 -11l-22 71l87 27h64v-360z" />
    <glyph glyph-name="ordmasculine" unicode="&#xba;" horiz-adv-x="370" 
d="M38 491v98q0 25 9 45.5t24 33.5t34.5 22t39.5 12.5t40 3.5q38 0 70 -11t55 -38t23 -68v-98q0 -40 -23 -67.5t-55 -38.5t-70 -11q-58 0 -102.5 29.5t-44.5 87.5zM232 492v96q0 20 -14 29t-33 9q-18 0 -32.5 -9t-14.5 -29v-96q0 -20 14.5 -29t32.5 -9q19 0 33 9t14 29z" />
    <glyph glyph-name="guillemotright" unicode="&#xbb;" horiz-adv-x="515" 
d="M235 300v-49l-195 -156v126l69 54l-69 54v126zM477 300v-49l-195 -156v126l69 54l-69 54v126z" />
    <glyph glyph-name="onequarter" unicode="&#xbc;" horiz-adv-x="641" 
d="M183 -18h-103l326 735h103zM183 339h-86v274l-43 -11l-23 71l87 27h65v-361zM423 142h59l19 97h60v-97h42v-76h-42v-66h-82v66h-150v47l94 247h85z" />
    <glyph glyph-name="onehalf" unicode="&#xbd;" horiz-adv-x="669" 
d="M200 -18h-104l327 735h103zM199 340h-85v273l-44 -11l-22 71l87 27h64v-360zM507 365h33q41 0 70.5 -26.5t29.5 -66.5v-10q0 -26 -15.5 -49.5t-41.5 -36.5l-69 -37q-24 -12 -24 -38v-33h150v-68h-238v112q0 56 61 88l76 39q14 8 14 23v5q0 10 -7 16.5t-18 6.5h-20
q-46 0 -82 -12l-9 67q37 20 90 20z" />
    <glyph glyph-name="threequarters" unicode="&#xbe;" horiz-adv-x="690" 
d="M232 -17h-103l326 734h103zM125 707h34q41 -1 70 -28t29 -66v-23q0 -36 -31 -58q17 -10 26 -27t9 -35v-38q0 -40 -29.5 -67.5t-70.5 -27.5h-37q-54 0 -91 23l12 61q36 -13 86 -13h15q12 0 19.5 7.5t7.5 18.5v37q0 12 -7.5 19t-19.5 7h-42v66h42q12 0 19.5 7.5t7.5 19.5
v20q0 24 -27 27h-15q-51 0 -85 -11l-14 60q40 21 92 21zM466 142h59l19 97h60v-97h42v-76h-42v-66h-82v66h-150v47l94 248h85z" />
    <glyph glyph-name="questiondown" unicode="&#xbf;" horiz-adv-x="501" 
d="M436 429h-160v112h160v-112zM430 341v-46q1 -105 -112 -164l-108 -56q-32 -17 -32 -50v-11q0 -23 16.5 -39t41.5 -17h41q88 0 151 21l17 -111q-69 -36 -165 -36h-64q-76 0 -129.5 49.5t-53.5 121.5v21q0 48 28.5 90.5t75.5 68.5l95 50q14 8 25.5 19t18.5 27.5t7 34.5v27
h147z" />
    <glyph glyph-name="Agrave" unicode="&#xc0;" horiz-adv-x="702" 
d="M453 760h-113l-113 157h140zM665 0h-171l-42 150h-202l-41 -150h-171l211 700h205zM272 279h158l-79 290z" />
    <glyph glyph-name="Aacute" unicode="&#xc1;" horiz-adv-x="702" 
d="M352 761h-112l86 156h140zM665 0h-171l-42 150h-202l-41 -150h-171l211 700h205zM272 279h158l-79 290z" />
    <glyph glyph-name="Acircumflex" unicode="&#xc2;" horiz-adv-x="702" 
d="M549 755h-132l-64 74l-64 -75h-133l150 163h92zM665 0h-171l-42 150h-202l-41 -150h-171l211 700h205zM272 279h158l-79 290z" />
    <glyph glyph-name="Atilde" unicode="&#xc3;" horiz-adv-x="702" 
d="M471 914l61 -65q-65 -67 -120 -67q-31 0 -61 19q-4 2 -13 8.5t-13.5 9.5t-11.5 5.5t-14 2.5q-5 0 -12 -2.5t-13 -6t-13.5 -9t-12 -9.5t-10 -8.5l-5.5 -4.5l-59 64q70 68 123 72q17 0 32.5 -5t22.5 -9.5t22 -14.5q23 -17 42 -16q18 2 55 36zM665 0h-171l-42 150h-202
l-42 -150h-170l211 700h205zM272 279h158l-79 290z" />
    <glyph glyph-name="Adieresis" unicode="&#xc4;" horiz-adv-x="702" 
d="M317 790h-106v107h106v-107zM492 790h-105v107h105v-107zM665 0h-171l-42 150h-202l-41 -150h-171l211 700h205zM272 279h158l-79 290z" />
    <glyph glyph-name="Aring" unicode="&#xc5;" horiz-adv-x="702" 
d="M351 951q30 0 55 -15t39 -39t14 -51q0 -46 -31 -77t-77 -31q-44 0 -74.5 31t-30.5 77q0 27 14 51t38 39t53 15zM351.5 887q-17.5 0 -29.5 -12t-12 -29q0 -12 5.5 -21.5t15 -15t20.5 -5.5q18 0 30 12t12 30q0 17 -12 29t-29.5 12zM665 0h-171l-42 150h-202l-41 -150h-171
l211 700h205zM272 279h158l-79 290z" />
    <glyph glyph-name="AE" unicode="&#xc6;" horiz-adv-x="838" 
d="M796 571h-281v-153h245v-128h-245v-161h281v-129h-445v150h-101l-41 -150h-171l211 700h547v-129zM266 279h92l-7 290z" />
    <glyph glyph-name="Ccedilla" unicode="&#xc7;" horiz-adv-x="531" 
d="M310 709h27q69 0 155 -23l-9 -118q-80 11 -146 12h-18q-30 0 -54 -13t-39 -39t-15 -62v-232q0 -53 31 -83.5t77 -30.5h18q66 1 146 13l9 -119q-84 -22 -155 -22h-27q-20 0 -31 1v-21h10q30 0 53 -24.5t23 -56.5v-16q0 -38 -25 -63t-60 -25h-104v74h99q7 0 13 5t6 14v5
q0 9 -6 14t-13 5h-60v103q-75 22 -121 83t-46 149v223q0 115 75 181t187 66z" />
    <glyph glyph-name="Egrave" unicode="&#xc8;" horiz-adv-x="546" 
d="M381 760h-113l-113 157h140zM505 571h-281v-153h246v-128h-246v-161h281v-129h-444v700h444v-129z" />
    <glyph glyph-name="Eacute" unicode="&#xc9;" horiz-adv-x="546" 
d="M280 761h-112l85 156h141zM505 571h-281v-153h246v-128h-246v-161h281v-129h-444v700h444v-129z" />
    <glyph glyph-name="Ecircumflex" unicode="&#xca;" horiz-adv-x="546" 
d="M477 755h-132l-64 74l-64 -75h-133l150 163h92zM505 571h-281v-153h246v-128h-246v-161h281v-129h-444v700h444v-129z" />
    <glyph glyph-name="Edieresis" unicode="&#xcb;" horiz-adv-x="546" 
d="M244 790h-105v107h105v-107zM420 790h-105v107h105v-107zM505 571h-281v-153h246v-128h-246v-161h281v-129h-444v700h444v-129z" />
    <glyph glyph-name="Igrave" unicode="&#xcc;" horiz-adv-x="296" 
d="M249 760h-113l-113 157h140zM229 0h-162v700h162v-700z" />
    <glyph glyph-name="Iacute" unicode="&#xcd;" horiz-adv-x="296" 
d="M148 761h-113l86 156h140zM229 0h-162v700h162v-700z" />
    <glyph glyph-name="Icircumflex" unicode="&#xce;" horiz-adv-x="296" 
d="M344 755h-131l-65 74l-64 -75h-132l149 163h93zM229 0h-162v700h162v-700z" />
    <glyph glyph-name="Idieresis" unicode="&#xcf;" horiz-adv-x="296" 
d="M112 790h-105v107h105v-107zM288 790h-105v107h105v-107zM229 0h-162v700h162v-700z" />
    <glyph glyph-name="Eth" unicode="&#xd0;" horiz-adv-x="655" 
d="M73 701h271q111 0 187 -67t76 -181v-206q0 -115 -75.5 -181t-187.5 -66h-271v292h-54v88h54v321zM237 571v-191h91v-88h-91v-163h99q29 0 53.5 13t39.5 39t15 62v215q0 34 -15 60.5t-39.5 39.5t-53.5 13h-99z" />
    <glyph glyph-name="Ntilde" unicode="&#xd1;" horiz-adv-x="679" 
d="M458 914l61 -65q-65 -67 -120 -67q-31 0 -61 19q-4 2 -13 8.5t-13.5 9.5t-11.5 5.5t-14 2.5q-5 0 -12 -2.5t-13 -6t-13.5 -9t-12 -9.5t-10 -8.5l-5.5 -4.5l-59 64q70 68 123 72q17 0 32.5 -5t22.5 -9.5t22 -14.5q23 -17 42 -16q18 2 55 36zM623 0h-158l-248 421v-421
h-160v700h157l248 -425v425h161v-700z" />
    <glyph glyph-name="Ograve" unicode="&#xd2;" horiz-adv-x="657" 
d="M429 760h-113l-113 157h140zM311 708h33q70 0 130.5 -29.5t97.5 -87t37 -130.5v-223q0 -108 -75 -177.5t-190 -69.5h-32q-120 0 -192 69.5t-72 177.5v223q0 111 75 179t188 68zM337 580h-18q-45 -1 -76.5 -32t-31.5 -83v-231q0 -36 15.5 -62.5t39.5 -39t53 -12.5h18
q45 0 77.5 30t32.5 84v231q0 52 -33 83t-77 32z" />
    <glyph glyph-name="Oacute" unicode="&#xd3;" horiz-adv-x="657" 
d="M329 761h-113l86 156h140zM312 708h32q70 0 130.5 -29.5t97.5 -87t37 -130.5v-223q0 -108 -75 -177.5t-190 -69.5h-32q-120 0 -192 69.5t-72 177.5v223q0 111 75 179t189 68zM337 580h-18q-45 -1 -76.5 -32t-31.5 -83v-231q0 -36 15.5 -62.5t39.5 -39t53 -12.5h18
q45 0 77.5 30t32.5 84v231q0 35 -16 61.5t-41 40t-53 13.5z" />
    <glyph glyph-name="Ocircumflex" unicode="&#xd4;" horiz-adv-x="657" 
d="M525 755h-132l-64 74l-64 -75h-132l149 163h93zM312 708h32q70 0 130.5 -29.5t97.5 -87t37 -130.5v-223q0 -108 -75 -177.5t-190 -69.5h-32q-80 0 -140 32t-92 88t-32 127v223q0 111 75 179t189 68zM337 580h-18q-29 -1 -53.5 -14.5t-39.5 -39.5t-15 -61v-231
q0 -53 31.5 -83.5t76.5 -30.5h18q21 0 40.5 7.5t35 21t25 36t9.5 49.5v231q0 52 -33 83t-77 32z" />
    <glyph glyph-name="Otilde" unicode="&#xd5;" horiz-adv-x="657" 
d="M447 914l61 -65q-65 -67 -120 -67q-31 0 -61 19q-4 2 -13 8.5t-13.5 9.5t-11.5 5.5t-14 2.5q-5 0 -12 -2.5t-13 -6t-13.5 -9t-12 -9.5t-10 -8.5l-5.5 -4.5l-59 64q70 68 123 72q13 0 24 -2t21.5 -7.5t15 -8.5l16.5 -11q23 -17 42 -16q18 2 55 36zM311 708h33
q70 0 130.5 -29.5t97.5 -87t37 -130.5v-223q0 -108 -75 -177.5t-190 -69.5h-33q-119 0 -191 69.5t-72 177.5v223q0 111 75 179t188 68zM337 580h-18q-45 -1 -76.5 -32t-31.5 -83v-231q0 -53 31.5 -83.5t76.5 -30.5h18q45 0 77.5 30t32.5 84v231q0 52 -33 83t-77 32z" />
    <glyph glyph-name="Odieresis" unicode="&#xd6;" horiz-adv-x="657" 
d="M293 790h-105v107h105v-107zM468 790h-105v107h105v-107zM311 708h33q70 0 130.5 -29.5t97.5 -87t37 -130.5v-223q0 -108 -75 -177.5t-190 -69.5h-32q-120 0 -192 69.5t-72 177.5v223q0 111 75 179t188 68zM337 580h-18q-29 -1 -53.5 -14.5t-39.5 -39.5t-15 -61v-231
q0 -36 15.5 -62.5t39.5 -39t53 -12.5h18q45 0 77.5 30t32.5 84v231q0 52 -33 83t-77 32z" />
    <glyph glyph-name="multiply" unicode="&#xd7;" 
d="M475 426l-130 -130l130 -130l-88 -89l-131 130l-130 -130l-89 89l131 130l-131 130l89 89l130 -131l131 131z" />
    <glyph glyph-name="Oslash" unicode="&#xd8;" horiz-adv-x="682" 
d="M575 750l-44 -99q91 -72 91 -190v-223q0 -108 -75.5 -177.5t-190.5 -69.5h-32q-43 0 -81 10l-23 -51h-112l42 95q-89 70 -89 193v223q0 111 74.5 179t188.5 68h32q43 0 83 -11l24 53h112zM223 465v-231q0 -11 2 -21l160 361q-17 6 -36 6h-17q-30 -1 -54.5 -14.5
t-39.5 -39.5t-15 -61zM459 234v231q0 11 -1 21l-160 -361q16 -5 34 -5h17q46 0 78 30t32 84z" />
    <glyph glyph-name="Ugrave" unicode="&#xd9;" horiz-adv-x="677" 
d="M436 760h-113l-113 157h140zM613 700v-472q0 -60 -21.5 -106t-58.5 -74t-83 -42.5t-99 -14.5h-30q-115 0 -187.5 60.5t-72.5 176.5v472h162v-472q0 -53 30.5 -80.5t75.5 -27.5h17q14 0 26.5 3t24.5 8.5t21.5 14.5t16.5 20.5t11 27.5t4 34v472h163z" />
    <glyph glyph-name="Uacute" unicode="&#xda;" horiz-adv-x="677" 
d="M336 761h-113l86 156h140zM613 700v-472q0 -48 -14 -87.5t-38.5 -67t-58 -46.5t-71.5 -27.5t-80 -8.5h-30q-115 0 -187.5 60.5t-72.5 176.5v472h162v-472q0 -36 15.5 -61t38.5 -36t52 -11h17q44 0 74 27.5t30 80.5v472h163z" />
    <glyph glyph-name="Ucircumflex" unicode="&#xdb;" horiz-adv-x="677" 
d="M532 755h-132l-64 74l-64 -75h-132l149 163h93zM613 700v-472q0 -48 -14 -87.5t-38.5 -67t-58 -46.5t-71.5 -27.5t-80 -8.5h-30q-115 0 -187.5 60.5t-72.5 176.5v472h162v-472q0 -53 30.5 -80.5t75.5 -27.5h17q44 0 74 27.5t30 80.5v472h163z" />
    <glyph glyph-name="Udieresis" unicode="&#xdc;" horiz-adv-x="677" 
d="M300 790h-105v107h105v-107zM475 790h-105v107h105v-107zM613 700v-472q0 -60 -21.5 -106t-58.5 -74t-83 -42.5t-99 -14.5h-30q-115 0 -187.5 60.5t-72.5 176.5v472h162v-472q0 -53 30.5 -80.5t75.5 -27.5h17q14 0 26.5 3t24.5 8.5t21.5 14.5t16.5 20.5t11 27.5t4 34v472
h163z" />
    <glyph glyph-name="Yacute" unicode="&#xdd;" horiz-adv-x="668" 
d="M334 761h-112l85 156h141zM415 279v-279h-163v280l-221 420h174l129 -271l129 271h174z" />
    <glyph glyph-name="Thorn" unicode="&#xde;" horiz-adv-x="621" 
d="M232 600h132q63 0 109 -26t70 -73.5t24 -110.5v-47q0 -97 -54 -154t-149 -57h-132v-132h-163v700h163v-100zM232 469v-206h107q19 0 34 8.5t23.5 24t8.5 34.5v72q0 28 -19 47.5t-47 19.5h-107z" />
    <glyph glyph-name="germandbls" unicode="&#xdf;" horiz-adv-x="605" 
d="M255 707h111q78 0 131.5 -50.5t53.5 -122.5v-53q0 -43 -23 -72.5t-45 -38.5q14 -5 30.5 -18.5t32 -41.5t15.5 -62v-78q0 -73 -53.5 -123.5t-131.5 -50.5h-133v115h113q27 0 45 18t18 44v78q0 27 -18 45t-45 18h-33v104h31q27 0 44.5 18t17.5 44v48q0 27 -18.5 45
t-45.5 18h-83q-13 0 -25 -5t-20.5 -13t-13.5 -20t-5 -25v-528h-136v534q1 72 54.5 122.5t131.5 50.5z" />
    <glyph glyph-name="agrave" unicode="&#xe0;" horiz-adv-x="516" 
d="M360 560h-113l-113 157h140zM87 377l-18 108q109 24 184 24q43 0 80 -9.5t69.5 -29.5t51 -56.5t18.5 -86.5v-327h-124l-8 41q-82 -48 -155 -48q-68 0 -113 39t-46 109v14q3 142 197 142q50 0 98 -9v33q0 21 -9 36t-24 23t-29 11.5t-29 3.5q-57 0 -143 -18zM321 117v104
q-30 5 -68 5q-85 0 -85 -58v-27q0 -13 4.5 -23.5t12 -18t18.5 -11.5t23 -4q40 0 95 33z" />
    <glyph glyph-name="aacute" unicode="&#xe1;" horiz-adv-x="516" 
d="M260 561h-113l86 156h140zM87 377l-18 108q109 24 184 24q43 0 80 -9.5t69.5 -29.5t51 -56.5t18.5 -86.5v-327h-124l-8 41q-82 -48 -155 -48q-68 0 -113 39t-46 109v14q3 142 197 142q50 0 98 -9v33q0 21 -9 36t-24 23t-29 11.5t-29 3.5q-57 0 -143 -18zM321 117v104
q-30 5 -68 5q-85 0 -85 -58v-27q0 -13 4.5 -23.5t12 -18t18.5 -11.5t23 -4q40 0 95 33z" />
    <glyph glyph-name="acircumflex" unicode="&#xe2;" horiz-adv-x="516" 
d="M456 555h-132l-64 74l-64 -75h-133l150 163h93zM87 377l-18 108q109 24 184 24q43 0 80 -9.5t69.5 -29.5t51 -56.5t18.5 -86.5v-327h-124l-8 41q-82 -48 -155 -48q-68 0 -113 39.5t-46 108.5v14q3 142 197 142q50 0 98 -9v33q0 21 -9 36t-24 23t-29 11.5t-29 3.5
q-57 0 -143 -18zM321 117v104q-30 5 -68 5q-85 0 -85 -58v-27q0 -9 2 -16.5t5.5 -13.5t9 -11t12 -8.5t14 -5.5t15.5 -2q40 0 95 33z" />
    <glyph glyph-name="atilde" unicode="&#xe3;" horiz-adv-x="516" 
d="M378 714l61 -65q-65 -67 -120 -67q-31 0 -61 19q-4 2 -13 8.5t-13.5 9.5t-11.5 5.5t-14 2.5q-5 0 -12 -2.5t-13 -6t-13.5 -9t-12 -9.5t-10 -8.5l-5.5 -4.5l-59 64q70 68 123 72q13 0 24 -2t21.5 -7.5t15 -8.5l16.5 -11q23 -17 42 -16q18 2 55 36zM87 377l-18 108
q109 24 184 24q43 0 80 -9.5t69.5 -29.5t51 -56.5t18.5 -86.5v-327h-124l-8 41q-82 -48 -155 -48q-68 0 -113 39.5t-46 108.5v14q3 142 197 142q50 0 98 -9v33q0 27 -16.5 44.5t-35.5 23.5t-39 6q-57 0 -143 -18zM321 117v104q-30 5 -68 5q-85 0 -85 -58v-27
q0 -26 16.5 -41.5t41.5 -15.5q40 0 95 33z" />
    <glyph glyph-name="adieresis" unicode="&#xe4;" horiz-adv-x="516" 
d="M223 590h-104v107h104v-107zM399 590h-105v107h105v-107zM87 377l-18 108q109 24 184 24q43 0 80 -9.5t69.5 -29.5t51 -56.5t18.5 -86.5v-327h-124l-8 41q-82 -48 -155 -48q-68 0 -113 39.5t-46 108.5v14q3 142 197 142q50 0 98 -9v33q0 27 -16.5 44.5t-35.5 23.5t-39 6
q-57 0 -143 -18zM321 117v104q-30 5 -68 5q-85 0 -85 -58v-27q0 -26 16.5 -41.5t41.5 -15.5q40 0 95 33z" />
    <glyph glyph-name="aring" unicode="&#xe5;" horiz-adv-x="516" 
d="M258 751q30 0 55 -15t39 -39t14 -51q0 -46 -31 -77t-77 -31q-44 0 -74.5 31t-30.5 77q0 42 31 73.5t74 31.5zM258.5 687q-17.5 0 -29.5 -12t-12 -29q0 -18 12 -30t29 -12q9 0 16.5 3.5t13.5 9t9 13t3 16.5q0 17 -12 29t-29.5 12zM87 377l-18 108q109 24 184 24
q43 0 80 -9.5t69.5 -29.5t51 -56.5t18.5 -86.5v-327h-124l-8 41q-82 -48 -155 -48q-68 0 -113 39t-46 109v14q3 142 197 142q50 0 98 -9v33q0 21 -9 36t-24 23t-29 11.5t-29 3.5q-57 0 -143 -18zM321 117v104q-30 5 -68 5q-85 0 -85 -58v-27q0 -13 4.5 -23.5t12 -18
t18.5 -11.5t23 -4q40 0 95 33z" />
    <glyph glyph-name="ae" unicode="&#xe6;" horiz-adv-x="875" 
d="M87 377l-18 108q109 24 184 24q27 0 53 -4.5t51 -13t46 -23.5t35 -35q29 38 79 57t102 19q33 0 63.5 -6t59.5 -19.5t51 -34t35 -51.5t13 -70v-112h-302v-52q0 -35 25.5 -50.5t55.5 -15.5q55 0 193 16l17 -99q-113 -22 -197 -22q-108 0 -161 47v-40h-124l-8 41
q-82 -48 -155 -48q-68 0 -113 39t-46 109v14q3 142 197 142q50 0 98 -9v33q0 21 -9 36t-24 23t-29 11.5t-29 3.5q-57 0 -143 -18zM700 282v55q0 35 -25 50.5t-56 15.5q-30 0 -55 -16t-25 -50v-55h161zM321 117v104q-30 5 -68 5q-85 0 -85 -58v-27q0 -26 16.5 -41.5
t41.5 -15.5q40 0 95 33z" />
    <glyph glyph-name="ccedilla" unicode="&#xe7;" horiz-adv-x="415" 
d="M35 170v158q0 49 19.5 86t52 56.5t68.5 29t75 9.5q64 0 134 -17l-9 -113q-57 13 -97 13q-39 0 -67 -18.5t-28 -58.5v-132q0 -40 28 -58.5t67 -18.5q41 0 97 13l9 -113q-66 -15 -128 -17h-5v-17h10q30 0 53 -24.5t23 -56.5v-16q0 -38 -25 -63t-60 -25h-104v74h99q7 0 13 5
t6 14v5q0 9 -6 14t-13 5h-60v91q-65 14 -108 56.5t-44 118.5z" />
    <glyph glyph-name="egrave" unicode="&#xe8;" 
d="M355 560h-113l-113 157h140zM35 173v155q0 47 21 83.5t54.5 57t70.5 30.5t76 10q32 0 62.5 -6t60 -19.5t51.5 -34t35 -51.5t13 -70v-117h-302v-47q0 -35 25 -50.5t56 -15.5q55 0 193 16l16 -99q-113 -22 -196 -22q-36 0 -68 5t-63.5 18t-54 33t-36.5 52t-14 72zM338 287
v50q0 35 -25 50.5t-56 15.5q-30 0 -55 -16t-25 -50v-50h161z" />
    <glyph glyph-name="eacute" unicode="&#xe9;" 
d="M255 561h-113l86 156h140zM35 173v155q0 47 21 83.5t54.5 57t70.5 30.5t76 10q41 0 78.5 -10t70.5 -30.5t53 -56.5t20 -84v-117h-302v-47q0 -24 14 -40t31 -21t36 -5q55 0 193 16l16 -99q-113 -22 -196 -22q-36 0 -68 5t-63.5 18t-54 33t-36.5 52t-14 72zM338 287v50
q0 35 -25 50.5t-56 15.5q-30 0 -55 -16t-25 -50v-50h161z" />
    <glyph glyph-name="ecircumflex" unicode="&#xea;" 
d="M451 555h-132l-64 74l-64 -75h-132l149 163h93zM35 173v155q0 47 21 83.5t54.5 57t70.5 30.5t76 10q32 0 62.5 -6t60 -19.5t51.5 -34t35 -51.5t13 -70v-117h-302v-47q0 -35 25 -50.5t56 -15.5q55 0 193 16l16 -99q-113 -22 -196 -22q-36 0 -68 5t-63.5 18t-54 33
t-36.5 52t-14 72zM338 287v50q0 35 -25 50.5t-56 15.5q-30 0 -55 -16t-25 -50v-50h161z" />
    <glyph glyph-name="edieresis" unicode="&#xeb;" 
d="M219 590h-105v107h105v-107zM395 590h-106v107h106v-107zM35 173v155q0 47 21 83.5t54.5 57t70.5 30.5t76 10q32 0 62.5 -6t60 -19.5t51.5 -34t35 -51.5t13 -70v-117h-302v-47q0 -35 25 -50.5t56 -15.5q55 0 193 16l16 -99q-113 -22 -196 -22q-36 0 -68 5t-63.5 18
t-54 33t-36.5 52t-14 72zM338 287v50q0 35 -25 50.5t-56 15.5q-30 0 -55 -16t-25 -50v-50h161z" />
    <glyph glyph-name="igrave" unicode="&#xec;" horiz-adv-x="237" 
d="M220 560h-112l-114 157h141zM194 0h-151v500h151v-500z" />
    <glyph glyph-name="iacute" unicode="&#xed;" horiz-adv-x="237" 
d="M120 561h-113l86 156h140zM194 0h-151v500h151v-500z" />
    <glyph glyph-name="icircumflex" unicode="&#xee;" horiz-adv-x="237" 
d="M317 555h-132l-64 74l-64 -75h-133l149 163h93zM194 0h-151v500h151v-500z" />
    <glyph glyph-name="idieresis" unicode="&#xef;" horiz-adv-x="237" 
d="M84 590h-105v107h105v-107zM260 590h-105v107h105v-107zM194 0h-151v500h151v-500z" />
    <glyph glyph-name="eth" unicode="&#xf0;" horiz-adv-x="549" 
d="M520 687l-62 -48q43 -54 43 -132v-338q0 -75 -54.5 -125t-133.5 -50h-90q-50 0 -91.5 23t-65.5 63t-24 89v89q0 73 52 122.5t127 50.5h46q29 0 83 -10v106q0 14 -3 27l-81 -63l-42 53l84 64q-20 11 -45 11h-44q-67 -1 -151 -14v96q93 20 150 20h53q80 0 138 -37l71 54z
M353 174v121q-21 20 -60 20h-44q-25 0 -42.5 -18.5t-17.5 -45.5v-77q0 -28 17.5 -46t42.5 -18h42q28 0 45 18t17 46z" />
    <glyph glyph-name="ntilde" unicode="&#xf1;" horiz-adv-x="540" 
d="M390 714l60 -65q-64 -67 -119 -67q-32 0 -61 19q-5 2 -14 8.5t-13 9.5t-11.5 5.5t-13.5 2.5t-12.5 -2.5t-12.5 -6t-13.5 -9t-12 -9.5t-10 -8.5t-6.5 -4.5l-59 64q71 68 124 72q13 0 23.5 -2t21.5 -7.5t15.5 -8.5t15.5 -11q23 -17 43 -16q18 2 55 36zM172 500l6 -36
q69 45 141 45q79 0 127.5 -49t48.5 -123v-337h-142v323q0 20 -9.5 36t-26 25t-36.5 9q-33 0 -81 -22v-371h-151v500h123z" />
    <glyph glyph-name="ograve" unicode="&#xf2;" horiz-adv-x="526" 
d="M362 560h-113l-113 157h140zM35 177v146q0 47 19.5 83.5t52.5 58t72.5 32.5t83.5 11q63 0 113 -18.5t82.5 -61.5t32.5 -105v-146q0 -62 -33 -105t-83 -61.5t-112 -18.5t-112.5 19.5t-83 62.5t-32.5 103zM344 179v142q0 36 -22.5 53.5t-58.5 17.5t-58.5 -18t-22.5 -53
v-142q0 -35 22.5 -53t58.5 -18t58.5 17.5t22.5 53.5z" />
    <glyph glyph-name="oacute" unicode="&#xf3;" horiz-adv-x="526" 
d="M261 561h-112l86 156h140zM35 177v146q0 47 19.5 83.5t52.5 58t72.5 32.5t83.5 11q63 0 113 -18.5t82.5 -61.5t32.5 -105v-146q0 -62 -33 -105t-83 -61.5t-112 -18.5t-112.5 19.5t-83 62.5t-32.5 103zM344 179v142q0 36 -22.5 53.5t-58.5 17.5t-58.5 -18t-22.5 -53v-142
q0 -35 22.5 -53t58.5 -18t58.5 17.5t22.5 53.5z" />
    <glyph glyph-name="ocircumflex" unicode="&#xf4;" horiz-adv-x="526" 
d="M458 555h-132l-64 74l-64 -75h-133l150 163h92zM35 177v146q0 47 19.5 83.5t52.5 58t72.5 32.5t83.5 11q63 0 113 -18.5t82.5 -61.5t32.5 -105v-146q0 -62 -33 -105t-83 -61.5t-112 -18.5t-112.5 19.5t-83 62.5t-32.5 103zM344 179v142q0 36 -22.5 53.5t-58.5 17.5
t-58.5 -18t-22.5 -53v-142q0 -35 22.5 -53t58.5 -18t58.5 17.5t22.5 53.5z" />
    <glyph glyph-name="otilde" unicode="&#xf5;" horiz-adv-x="526" 
d="M380 714l60 -65q-64 -67 -119 -67q-31 0 -61 19q-4 2 -13 8.5t-13.5 9.5t-12 5.5t-13.5 2.5q-5 0 -12 -2.5t-13 -6t-13.5 -9t-12 -9.5t-10 -8.5t-6.5 -4.5l-59 64q71 68 124 72q17 0 32.5 -5t22.5 -9.5t22 -14.5q22 -17 42 -16q18 2 55 36zM35 177v146q0 47 19.5 83.5
t52.5 58t72.5 32.5t83.5 11q63 0 113 -18.5t82.5 -61.5t32.5 -105v-146q0 -62 -33 -105t-83 -61.5t-112 -18.5t-112.5 19.5t-83 62.5t-32.5 103zM344 179v142q0 36 -22.5 53t-58.5 17t-58 -17.5t-22 -52.5v-142q0 -35 22.5 -53t57.5 -18q36 0 58.5 17.5t22.5 53.5z" />
    <glyph glyph-name="odieresis" unicode="&#xf6;" horiz-adv-x="526" 
d="M226 590h-106v107h106v-107zM401 590h-105v107h105v-107zM35 177v146q0 47 19.5 83.5t52.5 58t72.5 32.5t83.5 11q63 0 113 -18.5t82.5 -61.5t32.5 -105v-146q0 -62 -33 -105t-83 -61.5t-112 -18.5t-112.5 19.5t-83 62.5t-32.5 103zM344 179v142q0 36 -22.5 53.5
t-58.5 17.5t-58.5 -18t-22.5 -53v-142q0 -35 22.5 -53t58.5 -18t58.5 17.5t22.5 53.5z" />
    <glyph glyph-name="divide" unicode="&#xf7;" horiz-adv-x="554" 
d="M358 453h-161v135h161v-135zM524 255h-494v126h494v-126zM358 49h-161v135h161v-135z" />
    <glyph glyph-name="oslash" unicode="&#xf8;" horiz-adv-x="539" 
d="M435 550l-32 -70q94 -48 94 -157v-146q0 -62 -32.5 -105t-83 -61.5t-112.5 -18.5q-41 0 -79 9l-23 -52h-63l33 73q-96 49 -96 155v146q0 47 19.5 83.5t52.5 58t72.5 32.5t83.5 11q43 0 80 -9l23 51h63zM189 321v-142q0 -16 5 -29l106 238q-14 3 -31 3q-36 0 -58 -17.5
t-22 -52.5zM350 179v142q0 16 -5 28l-105 -237q13 -4 29 -4q36 0 58.5 17.5t22.5 53.5z" />
    <glyph glyph-name="ugrave" unicode="&#xf9;" horiz-adv-x="537" 
d="M367 560h-113l-112 157h139zM490 0h-123l-7 36q-65 -43 -127 -44q-86 -4 -137.5 45t-51.5 126v337h143v-323q0 -31 21 -50.5t54 -19.5q30 0 77 22v371h151v-500z" />
    <glyph glyph-name="uacute" unicode="&#xfa;" horiz-adv-x="537" 
d="M267 561h-113l86 156h141zM490 0h-123l-7 36q-65 -43 -127 -44q-86 -4 -137.5 45t-51.5 126v337h143v-323q0 -31 21 -50.5t54 -19.5q30 0 77 22v371h151v-500z" />
    <glyph glyph-name="ucircumflex" unicode="&#xfb;" horiz-adv-x="537" 
d="M463 555h-132l-64 74l-64 -75h-132l149 163h93zM490 0h-123l-7 36q-65 -43 -127 -44q-86 -4 -137.5 45t-51.5 126v337h143v-323q0 -31 21 -50.5t54 -19.5q30 0 77 22v371h151v-500z" />
    <glyph glyph-name="udieresis" unicode="&#xfc;" horiz-adv-x="537" 
d="M231 590h-105v107h105v-107zM406 590h-105v107h105v-107zM490 0h-123l-7 36q-65 -43 -127 -44q-86 -4 -137.5 45t-51.5 126v337h143v-323q0 -31 21 -50.5t54 -19.5q30 0 77 22v371h151v-500z" />
    <glyph glyph-name="yacute" unicode="&#xfd;" horiz-adv-x="540" 
d="M269 561h-113l86 156h140zM489 500v-512q0 -40 -12.5 -71.5t-33 -52t-48.5 -33.5t-57 -19t-62 -6q-78 0 -205 26l18 103q106 -22 163 -20q31 0 58 17.5t27 55.5v49q-69 -40 -131 -40q-44 0 -80.5 18t-60 58t-23.5 96v331h143v-323q0 -20 9.5 -36t26 -25t36.5 -9
q33 0 80 22v371h152z" />
    <glyph glyph-name="thorn" unicode="&#xfe;" horiz-adv-x="563" 
d="M193 706v-238q64 43 140 43q53 0 93.5 -22.5t62 -61t21.5 -85.5v-170q0 -37 -11 -67t-28 -49.5t-40 -32t-46.5 -18t-47.5 -5.5q-67 1 -123 24v-225h-151v907h130zM367 180v144q0 29 -20.5 49.5t-51.5 20.5q-36 0 -80 -23v-256q24 -4 61 -4q35 0 63 16t28 53z" />
    <glyph glyph-name="ydieresis" unicode="&#xff;" horiz-adv-x="540" 
d="M233 590h-105v107h105v-107zM408 590h-105v107h105v-107zM489 500v-512q0 -40 -12.5 -71.5t-33 -52t-48.5 -33.5t-57 -19t-62 -6q-78 0 -205 26l18 103q106 -22 163 -20q31 0 58 17.5t27 55.5v49q-69 -40 -131 -40q-69 0 -116.5 44.5t-47.5 127.5v331h143v-323
q0 -20 9.5 -36t26 -25t36.5 -9q33 0 80 22v371h152z" />
    <glyph glyph-name="Amacron" unicode="&#x100;" horiz-adv-x="702" 
d="M516 810h-327v90h327v-90zM665 0h-171l-42 150h-202l-41 -150h-171l211 700h205zM272 279h158l-79 290z" />
    <glyph glyph-name="amacron" unicode="&#x101;" horiz-adv-x="516" 
d="M423 610h-327v90h327v-90zM87 377l-18 108q109 24 184 24q43 0 80 -9.5t69.5 -29.5t51 -56.5t18.5 -86.5v-327h-124l-8 41q-82 -48 -155 -48q-68 0 -113 39t-46 109v14q3 142 197 142q50 0 98 -9v33q0 21 -9 36t-24 23t-29 11.5t-29 3.5q-57 0 -143 -18zM321 117v104
q-30 5 -68 5q-85 0 -85 -58v-27q0 -13 4.5 -23.5t12 -18t18.5 -11.5t23 -4q40 0 95 33z" />
    <glyph glyph-name="Abreve" unicode="&#x102;" horiz-adv-x="702" 
d="M413 919h98q-3 -62 -34.5 -104t-87.5 -42h-65q-55 0 -86.5 42t-32.5 104h97q2 -54 42 -54h28q36 0 41 54zM665 0h-171l-42 150h-202l-42 -150h-170l211 700h205zM272 279h158l-79 290z" />
    <glyph glyph-name="abreve" unicode="&#x103;" horiz-adv-x="516" 
d="M320 719h97q-1 -40 -14.5 -72.5t-41.5 -53t-65 -20.5h-65q-55 0 -86.5 42t-32.5 104h97q2 -54 42 -54h28q36 0 41 54zM87 377l-18 108q109 24 184 24q43 0 80 -9.5t69.5 -29.5t51 -56.5t18.5 -86.5v-327h-124l-8 41q-82 -48 -155 -48q-68 0 -113 39t-45 109l-1 14
q3 142 197 142q50 0 98 -9v33q0 21 -9 36t-24 23t-29 11.5t-29 3.5q-57 0 -143 -18zM321 117v104q-30 5 -68 5q-85 0 -85 -58v-27q0 -13 4.5 -23.5t12 -18t18.5 -11.5t23 -4q40 0 95 33z" />
    <glyph glyph-name="Aogonek" unicode="&#x104;" horiz-adv-x="702" 
d="M665 0h-171q-8 0 -14.5 -4t-10.5 -11t-4 -15v-8q0 -13 8.5 -21.5t20.5 -8.5h101v-76h-124q-40 0 -68.5 25t-28.5 69v27q0 44 28.5 68t68.5 24h10l-32 104h-195l-46 -173h-170l211 700h205zM274 288h154l-77 281z" />
    <glyph glyph-name="aogonek" unicode="&#x105;" horiz-adv-x="516" 
d="M87 377l-18 108q109 24 184 24q43 0 80 -9.5t69.5 -29.5t51 -56.5t18.5 -86.5v-343h-35q-11 0 -19.5 -8.5t-8.5 -21.5v-8q0 -13 8.5 -21.5t19.5 -8.5h101v-76h-123q-40 0 -68.5 25t-28.5 68v28q0 17 8 30t20 17v3l-6 30q-82 -48 -155 -48q-68 0 -113 39t-46 109v14
q3 142 197 142q50 0 98 -9v33q0 21 -9 36t-24 23t-29 11.5t-29 3.5q-57 0 -143 -18zM321 117v104q-30 5 -68 5q-85 0 -85 -58v-27q0 -13 4.5 -23.5t12 -18t18.5 -11.5t23 -4q40 0 95 33z" />
    <glyph glyph-name="Cacute" unicode="&#x106;" horiz-adv-x="531" 
d="M306 761h-113l86 156h140zM310 709h27q69 0 155 -23l-9 -118q-80 11 -146 12h-18q-46 0 -77 -30.5t-31 -83.5v-232q0 -27 8.5 -48.5t23.5 -36t34.5 -22t41.5 -7.5h18q66 1 146 13l9 -119q-84 -22 -155 -22h-27q-112 0 -187 66t-75 181v223q0 115 75 181t187 66z" />
    <glyph glyph-name="cacute" unicode="&#x107;" horiz-adv-x="415" 
d="M242 561h-112l86 156h140zM35 170v158q0 49 19.5 86t52 56.5t68.5 29t75 9.5q64 0 134 -17l-9 -113q-57 13 -97 13q-39 0 -67 -18.5t-28 -58.5v-132q0 -40 28 -58.5t67 -18.5q41 0 97 13l9 -113q-73 -17 -134 -17q-39 0 -75 9.5t-68.5 29t-52 56.5t-19.5 86z" />
    <glyph glyph-name="Cdotaccent" unicode="&#x10a;" horiz-adv-x="531" 
d="M357 790h-105v107h105v-107zM310 709h27q69 0 155 -23l-9 -118q-80 11 -146 12h-18q-46 0 -77 -30.5t-31 -83.5v-232q0 -53 31 -83.5t77 -30.5h18q66 1 146 13l9 -119q-84 -22 -155 -22h-27q-112 0 -187 66t-75 181v223q0 115 75 181t187 66z" />
    <glyph glyph-name="cdotaccent" unicode="&#x10b;" horiz-adv-x="415" 
d="M294 590h-105v107h105v-107zM35 170v158q0 49 19.5 86t52 56.5t68.5 29t75 9.5q64 0 134 -17l-9 -113q-57 13 -97 13q-39 0 -67 -18.5t-28 -58.5v-132q0 -40 28 -58.5t67 -18.5q40 0 97 13l9 -113q-73 -17 -134 -17q-31 0 -60 5.5t-57.5 18.5t-49.5 33.5t-34.5 52
t-13.5 71.5z" />
    <glyph glyph-name="Ccaron" unicode="&#x10c;" horiz-adv-x="531" 
d="M352 755h-93l-149 162h131l65 -74l64 74h132zM310 709h27q69 0 155 -23l-9 -118q-80 11 -146 12h-18q-46 0 -77 -30.5t-31 -83.5v-232q0 -35 15 -61.5t39 -39.5t54 -13h18q66 1 146 13l9 -119q-84 -22 -155 -22h-27q-112 0 -187 66t-75 181v223q0 115 75 181t187 66z" />
    <glyph glyph-name="ccaron" unicode="&#x10d;" horiz-adv-x="415" 
d="M289 555h-93l-150 162h132l64 -74l65 74h132zM35 170v158q0 49 19.5 86t52 56.5t68.5 29t75 9.5q64 0 134 -17l-9 -113q-57 13 -97 13q-39 0 -67 -18.5t-28 -58.5v-132q0 -40 28 -58.5t67 -18.5q41 0 97 13l9 -113q-73 -17 -134 -17q-39 0 -75 9.5t-68.5 29t-52 56.5
t-19.5 86z" />
    <glyph glyph-name="Dcaron" unicode="&#x10e;" horiz-adv-x="655" 
d="M371 754h-93l-150 162h132l64 -73l64 73h133zM73 701h271q72 0 131 -29t95.5 -86t36.5 -133v-206q0 -115 -75.5 -181t-187.5 -66h-271v701zM237 571v-442h99q29 0 53.5 13t39.5 39t15 62v215q0 34 -15 60.5t-39.5 39.5t-53.5 13h-99z" />
    <glyph glyph-name="dcaron" unicode="&#x10f;" horiz-adv-x="675" 
d="M482 0h-123l-7 35q-66 -43 -140 -43q-79 0 -128 48.5t-49 120.5v176q0 46 16 80.5t42 53.5t55 28.5t60 9.5q66 0 123 -25v216h151v-700zM653 637l-51 -96h-70l29 59h-29v100h121v-63zM331 133v255q-27 5 -64 5q-20 0 -38.5 -5.5t-34.5 -22t-16 -42.5v-144
q0 -29 20.5 -49.5t51.5 -20.5q36 0 81 24z" />
    <glyph glyph-name="Dcroat" unicode="&#x110;" horiz-adv-x="655" 
d="M73 701h271q111 0 187 -67t76 -181v-206q0 -115 -75.5 -181t-187.5 -66h-271v292h-54v88h54v321zM237 571v-191h91v-88h-91v-163h99q29 0 53.5 13t39.5 39t15 62v215q0 34 -15 60.5t-39.5 39.5t-53.5 13h-99z" />
    <glyph glyph-name="dcroat" unicode="&#x111;" horiz-adv-x="543" 
d="M557 559h-75v-559h-123l-7 35q-66 -43 -140 -43q-79 0 -128 48.5t-49 120.5v176q0 46 16 80.5t42 53.5t55 28.5t60 9.5q66 0 123 -25v75h-101v90h101v51h151v-51h75v-90zM330 133v255q-26 5 -63 5q-14 0 -28 -3.5t-28.5 -10.5t-23.5 -21.5t-9 -34.5v-144
q0 -29 20.5 -49.5t51.5 -20.5q36 0 80 24z" />
    <glyph glyph-name="Emacron" unicode="&#x112;" horiz-adv-x="546" 
d="M444 810h-327v90h327v-90zM505 571h-281v-153h246v-128h-246v-161h281v-129h-444v700h444v-129z" />
    <glyph glyph-name="emacron" unicode="&#x113;" 
d="M418 610h-326v90h326v-90zM35 173v155q0 47 21 83.5t54.5 57t70.5 30.5t76 10q32 0 62.5 -6t60 -19.5t51.5 -34t35 -51.5t13 -70v-117h-302v-47q0 -35 25 -50.5t56 -15.5q55 0 193 16l16 -99q-113 -22 -196 -22q-36 0 -68 5t-63.5 18t-54 33t-36.5 52t-14 72zM338 287v50
q0 35 -25 50.5t-56 15.5q-30 0 -55 -16t-25 -50v-50h161z" />
    <glyph glyph-name="Edotaccent" unicode="&#x116;" horiz-adv-x="546" 
d="M332 790h-105v107h105v-107zM505 571h-281v-153h246v-128h-246v-161h281v-129h-444v700h444v-129z" />
    <glyph glyph-name="edotaccent" unicode="&#x117;" 
d="M306 590h-105v107h105v-107zM35 173v155q0 47 21 83.5t54.5 57t70.5 30.5t76 10q32 0 62.5 -6t60 -19.5t51.5 -34t35 -51.5t13 -70v-117h-302v-47q0 -35 25 -50.5t56 -15.5q55 0 193 16l16 -99q-113 -22 -196 -22q-36 0 -68 5t-63.5 18t-54 33t-36.5 52t-14 72zM338 287
v50q0 35 -25 50.5t-56 15.5q-30 0 -55 -16t-25 -50v-50h161z" />
    <glyph glyph-name="Eogonek" unicode="&#x118;" horiz-adv-x="546" 
d="M505 571h-281v-153h245v-128h-245v-161h281v-130h-121q-12 0 -20 -8.5t-8 -21.5v-8q0 -13 8 -21.5t20 -8.5h101v-75h-123q-41 0 -69.5 24.5t-28.5 68.5v11q0 20 9 40h-212v700h444v-129z" />
    <glyph glyph-name="eogonek" unicode="&#x119;" 
d="M35 173v155q0 47 21 83.5t54.5 57t70.5 30.5t76 10q32 0 62.5 -6t60 -19.5t51.5 -34t35 -51.5t13 -70v-117h-302v-47q0 -35 25 -50.5t56 -15.5q57 0 193 16l16 -99q-34 -7 -85 -14q-11 -1 -18.5 -9.5t-7.5 -20.5v-8q0 -13 8 -21.5t20 -8.5h101v-75h-123q-41 0 -69.5 24.5
t-28.5 68.5v9q0 17 7 33h-14q-35 1 -65.5 7t-59.5 19.5t-50 33.5t-34 51t-13 69zM338 287v50q0 35 -25 50.5t-56 15.5q-30 0 -55 -16t-25 -50v-50h161z" />
    <glyph glyph-name="Ecaron" unicode="&#x11a;" horiz-adv-x="546" 
d="M327 755h-93l-150 162h132l64 -74l64 74h133zM505 571h-281v-153h246v-128h-246v-161h281v-129h-444v700h444v-129z" />
    <glyph glyph-name="ecaron" unicode="&#x11b;" 
d="M302 555h-93l-150 162h132l64 -74l64 74h132zM35 173v155q0 47 21 83.5t54.5 57t70.5 30.5t76 10q41 0 78.5 -10t70.5 -30.5t53 -56.5t20 -84v-117h-302v-47q0 -35 25 -50.5t56 -15.5q55 0 193 16l16 -99q-113 -22 -196 -22q-36 0 -68 5t-63.5 18t-54 33t-36.5 52t-14 72
zM338 287v50q0 35 -25 50.5t-56 15.5q-19 0 -36 -5.5t-30.5 -21t-13.5 -39.5v-50h161z" />
    <glyph glyph-name="Gbreve" unicode="&#x11e;" horiz-adv-x="635" 
d="M389 919h97q-2 -62 -34 -104t-87 -42h-65q-55 0 -86.5 42t-32.5 104h97q2 -54 42 -54h27q37 0 42 54zM311 708h27q124 0 220 -36l-21 -122q-94 30 -218 30q-49 0 -78.5 -30t-29.5 -85v-231q0 -34 12 -59.5t35.5 -40t57.5 -14.5h16q58 0 98 19v147h-102v115h241v-350
q-59 -32 -111.5 -46t-117.5 -14h-29q-124 1 -193.5 66.5t-69.5 180.5v223q0 120 72 183.5t191 63.5z" />
    <glyph glyph-name="gbreve" unicode="&#x11f;" horiz-adv-x="531" 
d="M322 719h98q-3 -62 -34.5 -104t-87.5 -42h-64q-55 0 -86.5 42t-33.5 104h98q2 -54 41 -54h28q37 0 41 54zM35 171v168q0 73 50 120.5t132 47.5q75 0 135 -28l6 20h123v-508q0 -50 -18 -86.5t-49.5 -56.5t-67.5 -29.5t-77 -9.5q-82 0 -205 26l18 103q102 -21 163 -21
q19 1 36.5 6.5t33.5 23t16 44.5v46q-67 -38 -129 -38q-71 0 -119 44.5t-48 127.5zM331 129v254q-32 8 -72 8q-34 0 -57.5 -19.5t-23.5 -50.5v-142q0 -31 21 -50.5t54 -19.5q26 0 78 20z" />
    <glyph glyph-name="Gdotaccent" unicode="&#x120;" horiz-adv-x="635" 
d="M380 790h-105v107h105v-107zM311 708h27q124 0 220 -36l-21 -122q-94 30 -218 30q-49 0 -78.5 -30t-29.5 -85v-231q0 -52 27.5 -82.5t77.5 -31.5h16q58 0 98 19v147h-102v115h241v-350q-59 -32 -111.5 -46t-117.5 -14h-29q-124 1 -193.5 66.5t-69.5 180.5v223
q0 120 72 183.5t191 63.5z" />
    <glyph glyph-name="gdotaccent" unicode="&#x121;" horiz-adv-x="531" 
d="M314 590h-105v107h105v-107zM35 171v168q0 73 50 120.5t132 47.5q75 0 135 -28l6 20h123v-508q0 -50 -18 -86.5t-49.5 -56.5t-67.5 -29.5t-77 -9.5q-82 0 -205 26l18 103q102 -21 163 -21q19 1 36.5 6.5t33.5 23t16 44.5v46q-67 -38 -129 -38q-71 0 -119 44.5t-48 127.5z
M331 129v254q-32 8 -72 8q-34 0 -57.5 -19.5t-23.5 -50.5v-142q0 -31 21 -50.5t54 -19.5q26 0 78 20z" />
    <glyph glyph-name="Gcommaaccent" unicode="&#x122;" horiz-adv-x="635" 
d="M311 708h27q124 0 220 -36l-21 -122q-94 30 -218 30q-49 0 -78.5 -30t-29.5 -85v-231q0 -34 12 -59.5t35.5 -40t57.5 -14.5h16q58 0 98 19v147h-102v115h241v-350q-59 -32 -111.5 -46t-117.5 -14h-29q-82 0 -141 29.5t-90.5 85.5t-31.5 132v223q0 120 72 183.5t191 63.5z
M374 -135l-51 -95h-71l29 58h-29v100h122v-63z" />
    <glyph glyph-name="gcommaaccent" unicode="&#x123;" horiz-adv-x="531" 
d="M290 709h29v-100h-121v62l50 96h71zM35 171v168q0 73 50 120.5t132 47.5q75 0 135 -28l6 20h123v-508q0 -50 -18 -86.5t-49.5 -56.5t-67.5 -29.5t-77 -9.5q-82 0 -205 26l18 103q102 -21 163 -21q19 1 36.5 6.5t33.5 23t16 44.5v46q-67 -38 -129 -38q-71 0 -119 44.5
t-48 127.5zM331 129v254q-32 8 -72 8q-34 0 -57.5 -19.5t-23.5 -50.5v-142q0 -31 21 -50.5t54 -19.5q26 0 78 20z" />
    <glyph glyph-name="Hbar" unicode="&#x126;" horiz-adv-x="657" 
d="M604 614h43v-117h-43v-497h-164v285h-224v-285h-163v497h-43v117h43v86h163v-86h224v86h164v-86zM216 497v-83h224v83h-224z" />
    <glyph glyph-name="hbar" unicode="&#x127;" horiz-adv-x="568" 
d="M219 657h109v-101h-109v-73q61 26 123 26q73 0 122.5 -42.5t49.5 -129.5v-337h-142v324q0 24 -13 40t-31.5 22.5t-40.5 6.5q-31 0 -68 -7v-386h-151v556h-70v101h70v43h151v-43z" />
    <glyph glyph-name="Itilde" unicode="&#x128;" horiz-adv-x="296" 
d="M267 914l60 -65q-64 -67 -119 -67q-32 0 -62 19q-4 2 -13 8.5t-13.5 9.5t-11.5 5.5t-13 2.5t-12.5 -2.5t-12.5 -6t-13.5 -9t-12 -9.5t-10 -8.5t-6.5 -4.5l-59 64q71 68 124 72q17 0 32.5 -5t22.5 -9.5t21 -14.5q23 -17 43 -16q18 2 55 36zM229 0h-162v700h162v-700z" />
    <glyph glyph-name="itilde" unicode="&#x129;" horiz-adv-x="237" 
d="M239 714l60 -65q-64 -67 -119 -67q-32 0 -61 19q-4 2 -9.5 6t-9 6.5t-8 5.5t-8.5 4.5t-8.5 2.5t-8.5 1q-5 0 -12 -2.5t-13 -6t-13.5 -9t-12 -9.5t-10 -8.5t-6.5 -4.5l-59 64q71 68 124 72q17 0 32.5 -5t22.5 -9.5t22 -14.5q22 -17 42 -16q18 2 55 36zM194 0h-151v500h151
v-500z" />
    <glyph glyph-name="Imacron" unicode="&#x12a;" horiz-adv-x="296" 
d="M311 810h-327v90h327v-90zM229 0h-162v700h162v-700z" />
    <glyph glyph-name="imacron" unicode="&#x12b;" horiz-adv-x="237" 
d="M284 610h-327v90h327v-90zM194 0h-151v500h151v-500z" />
    <glyph glyph-name="Iogonek" unicode="&#x12e;" horiz-adv-x="284" 
d="M223 0h-155q-12 0 -20 -8.5t-8 -21.5v-8q0 -13 8 -21.5t20 -8.5h101v-76h-123q-41 0 -69.5 25t-28.5 69v27q0 44 28.5 68t69.5 24h15v631h162v-700z" />
    <glyph glyph-name="iogonek" unicode="&#x12f;" horiz-adv-x="237" 
d="M198 575h-160v111h160v-111zM194 0h-142q-8 0 -14.5 -4t-10.5 -11t-4 -15v-8q0 -13 8.5 -21.5t20.5 -8.5h101v-75h-124q-40 0 -68.5 24.5t-28.5 68.5v28q0 44 28.5 68t68.5 24h14v430h151v-500z" />
    <glyph glyph-name="Idotaccent" unicode="&#x130;" horiz-adv-x="296" 
d="M200 790h-105v107h105v-107zM229 0h-162v700h162v-700z" />
    <glyph glyph-name="dotlessi" unicode="&#x131;" horiz-adv-x="237" 
d="M194 0h-151v500h151v-500z" />
    <glyph glyph-name="IJ" unicode="&#x132;" horiz-adv-x="750" 
d="M683 700v-461q0 -115 -75.5 -181t-186.5 -66h-100v129h91q46 0 77 30t31 83v466h163zM229 0h-162v700h162v-700z" />
    <glyph glyph-name="ij" unicode="&#x133;" horiz-adv-x="528" 
d="M214 566h-160v111h160v-111zM476 566h-160v111h160v-111zM209 0h-150v500h150v-500zM471 500v-552q0 -38 -20.5 -70.5t-57.5 -52t-80 -19.5h-54v117h21q17 0 28.5 10t11.5 31v536h151z" />
    <glyph glyph-name="Kcommaaccent" unicode="&#x136;" horiz-adv-x="665" 
d="M349 349l285 -349h-194l-219 267v-267h-160v701h160v-268l214 268h188zM385 -135l-50 -95h-71l29 58h-29v100h121v-63z" />
    <glyph glyph-name="kcommaaccent" unicode="&#x137;" horiz-adv-x="539" 
d="M205 301l150 199h159l-176 -236l180 -264h-158l-155 212v-212h-151v700h151v-399zM346 -135l-51 -95h-71l30 58h-30v100h122v-63z" />
    <glyph glyph-name="Lacute" unicode="&#x139;" horiz-adv-x="557" 
d="M281 766h-113l86 156h140zM236 128h287v-128h-450v699h163v-571z" />
    <glyph glyph-name="lacute" unicode="&#x13a;" horiz-adv-x="249" 
d="M127 772h-113l86 156h140zM202 0h-151v700h151v-700z" />
    <glyph glyph-name="Lcommaaccent" unicode="&#x13b;" horiz-adv-x="557" 
d="M236 128h287v-128h-450v699h163v-571zM376 -135l-50 -95h-71l29 58h-29v100h121v-63z" />
    <glyph glyph-name="lcommaaccent" unicode="&#x13c;" horiz-adv-x="252" 
d="M205 0h-151v700h151v-700zM190 -135l-50 -95h-71l29 58h-29v100h121v-63z" />
    <glyph glyph-name="Lcaron" unicode="&#x13d;" horiz-adv-x="557" 
d="M236 128h287v-128h-450v699h163v-571zM485 637l-50 -96h-71l29 58h-29v100h121v-62z" />
    <glyph glyph-name="lcaron" unicode="&#x13e;" horiz-adv-x="390" 
d="M202 0h-151v700h151v-700zM369 636l-51 -96h-71l30 58h-30v100h122v-62z" />
    <glyph glyph-name="Ldot" unicode="&#x13f;" horiz-adv-x="560" 
d="M236 128h287v-128h-450v699h163v-571zM478 282h-134v103h134v-103z" />
    <glyph glyph-name="ldot" unicode="&#x140;" horiz-adv-x="411" 
d="M202 0h-151v700h151v-700zM389 285h-134v103h134v-103z" />
    <glyph glyph-name="Lslash" unicode="&#x141;" horiz-adv-x="570" 
d="M245 458l115 75v-137l-115 -75v-193h287v-128h-450v228l-78 -50v137l78 50v334h163v-241z" />
    <glyph glyph-name="lslash" unicode="&#x142;" horiz-adv-x="364" 
d="M244 457l116 76v-137l-116 -76v-320h-151v234l-89 -56v137l89 56v329h151v-243z" />
    <glyph glyph-name="Nacute" unicode="&#x143;" horiz-adv-x="679" 
d="M340 761h-113l86 156h140zM623 0h-158l-248 421v-421h-160v700h157l248 -425v425h161v-700z" />
    <glyph glyph-name="nacute" unicode="&#x144;" horiz-adv-x="540" 
d="M271 561h-113l86 156h140zM172 500l6 -36q69 45 141 45q79 0 127.5 -49t48.5 -123v-337h-142v323q0 31 -20.5 50.5t-51.5 19.5q-33 0 -81 -22v-371h-151v500h123z" />
    <glyph glyph-name="Ncommaaccent" unicode="&#x145;" horiz-adv-x="679" 
d="M623 0h-158l-248 421v-421h-160v700h157l248 -425v425h161v-700zM400 -135l-50 -95h-71l29 58h-29v100h121v-63z" />
    <glyph glyph-name="ncommaaccent" unicode="&#x146;" horiz-adv-x="540" 
d="M172 500l6 -36q69 45 141 45q79 0 127.5 -49t48.5 -123v-337h-142v323q0 20 -9.5 36t-26 25t-36.5 9q-33 0 -81 -22v-371h-151v500h123zM332 -135l-51 -95h-70l29 58h-29v100h121v-63z" />
    <glyph glyph-name="Ncaron" unicode="&#x147;" horiz-adv-x="679" 
d="M387 755h-93l-150 162h132l64 -74l64 74h133zM623 0h-158l-248 421v-421h-160v700h157l248 -425v425h161v-700z" />
    <glyph glyph-name="ncaron" unicode="&#x148;" horiz-adv-x="540" 
d="M318 555h-93l-150 162h132l64 -74l64 74h133zM172 500l6 -36q69 45 141 45q79 0 127.5 -49t48.5 -123v-337h-142v323q0 20 -9.5 36t-26 25t-36.5 9q-33 0 -81 -22v-371h-151v500h123z" />
    <glyph glyph-name="Eng" unicode="&#x14a;" horiz-adv-x="680" 
d="M623 700v-685q0 -96 -58.5 -154.5t-149.5 -58.5h-96v116h63q33 0 57.5 19t29.5 53l-252 431v-421h-160v700h157l248 -425v425h161z" />
    <glyph glyph-name="eng" unicode="&#x14b;" horiz-adv-x="566" 
d="M183 500l6 -36q69 45 141 45q53 0 93.5 -23t62 -61.5t21.5 -87.5v-389q0 -38 -21 -70.5t-57.5 -52t-80.5 -19.5h-69v117h45q17 0 28.5 10t11.5 31v363q-1 28 -21.5 47t-50.5 19q-33 0 -81 -22v-371h-151v500h123z" />
    <glyph glyph-name="Omacron" unicode="&#x14c;" horiz-adv-x="657" 
d="M492 810h-327v90h327v-90zM312 708h32q70 0 130.5 -29.5t97.5 -87t37 -130.5v-223q0 -108 -75 -177.5t-190 -69.5h-32q-120 0 -192 69.5t-72 177.5v223q0 111 75 179t189 68zM337 580h-18q-29 -1 -53.5 -14.5t-39.5 -39.5t-15 -61v-231q0 -53 31.5 -83.5t76.5 -30.5h18
q45 0 77.5 30t32.5 84v231q0 52 -33 83t-77 32z" />
    <glyph glyph-name="omacron" unicode="&#x14d;" horiz-adv-x="526" 
d="M425 610h-327v90h327v-90zM35 177v146q0 47 19.5 83.5t52.5 58t72.5 32.5t83.5 11q63 0 113 -18.5t82.5 -61.5t32.5 -105v-146q0 -62 -33 -105t-83 -61.5t-112 -18.5t-112.5 19.5t-83 62.5t-32.5 103zM344 179v142q0 36 -22.5 53.5t-58.5 17.5t-58.5 -18t-22.5 -53v-142
q0 -35 22.5 -53t58.5 -18t58.5 17.5t22.5 53.5z" />
    <glyph glyph-name="Ohungarumlaut" unicode="&#x150;" horiz-adv-x="657" 
d="M435 759h-113l86 157h140zM238 759h-113l86 157h140zM312 708h32q70 0 130.5 -29.5t97.5 -87t37 -130.5v-223q0 -108 -75 -177.5t-190 -69.5h-32q-120 0 -192 69.5t-72 177.5v223q0 111 75 179t189 68zM337 580h-18q-45 -1 -76.5 -32t-31.5 -83v-231q0 -36 15.5 -62.5
t39.5 -39t53 -12.5h18q45 0 77.5 30t32.5 84v231q0 35 -16 61.5t-41 40t-53 13.5z" />
    <glyph glyph-name="ohungarumlaut" unicode="&#x151;" horiz-adv-x="526" 
d="M171 559h-113l86 157h140zM368 559h-113l86 157h140zM35 177v146q0 47 19.5 83.5t52.5 58t72.5 32.5t83.5 11q63 0 113 -18.5t82.5 -61.5t32.5 -105v-146q0 -62 -33 -105t-83 -61.5t-112 -18.5t-112.5 19.5t-83 62.5t-32.5 103zM344 179v142q0 36 -22.5 53.5t-58.5 17.5
t-58.5 -18t-22.5 -53v-142q0 -35 22.5 -53t58.5 -18t58.5 17.5t22.5 53.5z" />
    <glyph glyph-name="OE" unicode="&#x152;" horiz-adv-x="952" 
d="M298 708h32q41 0 78.5 -16t64.5 -43v51h445v-129h-280v-153h244v-128h-245v-161h281v-129h-445v49q-56 -58 -143 -58h-32q-120 0 -192 69.5t-72 177.5v223q0 111 75 179t189 68zM323 580h-18q-45 -1 -76.5 -32t-31.5 -83v-231q0 -53 32 -83.5t77 -30.5h17q43 0 75 27.5
t35 78.5v247q-3 49 -35 77.5t-75 29.5z" />
    <glyph glyph-name="oe" unicode="&#x153;" horiz-adv-x="828" 
d="M35 177v146q0 47 19.5 83.5t52.5 58t72.5 32.5t83.5 11q104 0 158 -57q25 29 67 43.5t84 14.5t79.5 -10t70.5 -30.5t53 -56.5t20 -84v-112h-303v-52q0 -35 25.5 -50.5t55.5 -15.5q55 0 194 16l16 -99q-113 -22 -196 -22q-118 0 -168 56q-53 -57 -156 -57
q-62 0 -112.5 19.5t-83 62.5t-32.5 103zM653 282v55q0 35 -25 50.5t-55 15.5q-31 0 -56 -16t-25 -50v-55h161zM344 179v142q0 18 -6.5 32t-17.5 22t-25.5 12t-31.5 4q-36 0 -58 -17.5t-22 -52.5v-142q0 -35 22.5 -53t57.5 -18q36 0 58.5 17.5t22.5 53.5z" />
    <glyph glyph-name="Racute" unicode="&#x154;" horiz-adv-x="659" 
d="M315 761h-113l86 156h140zM67 700h316q62 0 108.5 -26.5t70.5 -74t24 -109.5v-67q0 -58 -25 -103t-67 -66l117 -254h-188l-83 213h-111v-213h-162v700zM230 569v-227h128q28 0 46.5 18.5t18.5 47.5v94q0 28 -18.5 47.5t-46.5 19.5h-128z" />
    <glyph glyph-name="racute" unicode="&#x155;" horiz-adv-x="341" 
d="M176 561h-113l86 156h140zM316 384h-55q-19 0 -37 -9t-24 -22v-353h-151v500h123l6 -51q23 24 55.5 40t64.5 16h18v-121z" />
    <glyph glyph-name="Rcommaaccent" unicode="&#x156;" horiz-adv-x="659" 
d="M67 700h316q94 0 148.5 -57.5t54.5 -152.5v-67q0 -58 -25 -103t-67 -66l117 -254h-188l-83 213h-111v-213h-162v700zM230 569v-227h128q28 0 46.5 18.5t18.5 47.5v94q0 28 -18.5 47.5t-46.5 19.5h-128zM381 -135l-50 -95h-71l29 58h-29v100h121v-63z" />
    <glyph glyph-name="rcommaaccent" unicode="&#x157;" horiz-adv-x="341" 
d="M316 384h-55q-19 0 -37 -9t-24 -22v-353h-151v500h123l6 -51q23 24 55.5 40t64.5 16h18v-121zM234 -135l-50 -95h-71l29 58h-29v100h121v-63z" />
    <glyph glyph-name="Rcaron" unicode="&#x158;" horiz-adv-x="659" 
d="M361 755h-92l-150 162h132l64 -74l64 74h132zM67 700h316q94 0 148.5 -57.5t54.5 -152.5v-67q0 -58 -25 -103t-67 -66l117 -254h-188l-83 213h-111v-213h-162v700zM230 569v-227h128q18 0 33 8.5t23.5 23.5t8.5 34v94q0 28 -18.5 47.5t-46.5 19.5h-128z" />
    <glyph glyph-name="rcaron" unicode="&#x159;" horiz-adv-x="341" 
d="M223 555h-93l-150 162h132l64 -74l64 74h132zM316 384h-55q-19 0 -37 -9t-24 -22v-353h-151v500h123l6 -51q23 24 55.5 40t63.5 16h19v-121z" />
    <glyph glyph-name="Sacute" unicode="&#x15a;" horiz-adv-x="563" 
d="M277 761h-112l86 156h140zM41 487v12q0 113 63 161.5t176 48.5q46 0 78 -2.5t62.5 -9t59.5 -17.5l-14 -132q-67 29 -182 29q-29 0 -52 -12.5t-23 -43.5v-10q0 -35 35 -53l145 -61q75 -30 103.5 -67t28.5 -110v-14q-2 -215 -245 -215q-140 0 -227 32l12 131
q60 -19 108.5 -26t118.5 -7q29 1 49 20.5t20 48.5v15q0 40 -40 59l-151 63q-70 28 -97 60.5t-28 99.5z" />
    <glyph glyph-name="sacute" unicode="&#x15b;" horiz-adv-x="442" 
d="M220 561h-113l86 156h140zM199 507h42q81 0 143 -21l-12 -97q-55 19 -114 20h-42q-11 0 -21 -5.5t-15.5 -15t-5.5 -20.5q0 -29 24 -38l116 -40q56 -20 79 -50.5t23 -85.5q0 -161 -191 -161h-39q-89 1 -152 25l11 95q75 -23 137 -22h36q24 0 38.5 15.5t14.5 37.5
q0 12 -4 22.5t-11.5 18.5t-17.5 12l-121 40q-51 19 -71 43.5t-20 74.5q0 152 173 152z" />
    <glyph glyph-name="Scedilla" unicode="&#x15e;" horiz-adv-x="563" 
d="M41 487v12q0 113 63 161.5t176 48.5q46 0 78 -2.5t62.5 -9t59.5 -17.5l-14 -132q-67 29 -182 29q-29 0 -52 -12.5t-23 -43.5v-10q0 -35 35 -53l144 -61q76 -30 104.5 -67t28.5 -110v-14q-2 -206 -219 -214h-16v-20h10q30 0 53 -24.5t23 -56.5v-16q0 -38 -25 -63t-60 -25
h-104v74h99q7 0 13 5t6 14v5q0 9 -6 14t-13 5h-60v88q-104 5 -173 31l12 131q60 -19 108.5 -26t118.5 -7q29 1 49 20.5t20 48.5v15q0 40 -40 59l-151 63q-70 28 -97 60.5t-28 99.5z" />
    <glyph glyph-name="scedilla" unicode="&#x15f;" horiz-adv-x="442" 
d="M199 507h42q81 0 143 -21l-12 -97q-55 19 -114 20h-42q-11 0 -21 -5.5t-15.5 -15t-5.5 -20.5q0 -29 24 -38l116 -40q56 -20 79 -50.5t23 -85.5q0 -39 -11 -69t-33 -49.5t-52.5 -30t-70.5 -12.5h-21v-21h10q31 0 53.5 -24.5t22.5 -56.5v-16q0 -38 -25 -63t-60 -25h-104v74
h99q8 0 13.5 5t5.5 14v5q0 9 -5.5 14t-13.5 5h-60v91h-22q-60 4 -108 23l11 95q75 -23 137 -22h36q24 0 38.5 15.5t14.5 37.5q0 12 -4 22.5t-11.5 18.5t-17.5 12l-121 40q-26 10 -42.5 19.5t-27.5 23t-16 31.5t-5 44q0 152 173 152z" />
    <glyph glyph-name="Scaron" unicode="&#x160;" horiz-adv-x="563" 
d="M324 755h-93l-150 162h132l64 -74l65 74h132zM41 487v12q0 113 63 161.5t176 48.5q69 0 113.5 -6t86.5 -23l-14 -132q-67 29 -182 29q-29 0 -52 -12.5t-23 -43.5v-10q0 -35 35 -53l144 -61q76 -30 104.5 -67t28.5 -110v-14q-2 -215 -245 -215q-140 0 -227 32l12 131
q60 -19 108.5 -26t118.5 -7q29 1 49 20.5t20 48.5v15q0 40 -40 59l-151 63q-70 28 -97 60.5t-28 99.5z" />
    <glyph glyph-name="scaron" unicode="&#x161;" horiz-adv-x="442" 
d="M266 555h-93l-149 162h131l65 -74l64 74h132zM199 507h42q81 0 143 -21l-12 -97q-55 19 -114 20h-42q-18 0 -30 -12t-12 -29q0 -29 24 -38l116 -40q56 -20 79 -50.5t23 -85.5q0 -161 -191 -161h-39q-89 1 -152 25l11 95q75 -23 137 -22h36q24 0 38.5 15.5t14.5 37.5
q0 18 -9 32.5t-24 20.5l-121 40q-51 19 -71 43.5t-20 74.5q0 152 173 152z" />
    <glyph glyph-name="Tcedilla" unicode="&#x162;" horiz-adv-x="621" 
d="M587 573h-193v-573l-67 -7v-21h10q30 0 53 -24.5t23 -56.5v-16q0 -38 -25.5 -63t-59.5 -25h-104v74h98q8 0 13.5 5t5.5 14v5q0 9 -5.5 14t-13.5 5h-59v89l-33 7v573h-195v127h552v-127z" />
    <glyph glyph-name="tcedilla" unicode="&#x163;" horiz-adv-x="367" 
d="M226 500h109v-115h-109v-237q0 -14 6.5 -23.5t15 -13.5t19.5 -4h68v-117h-101q-22 0 -42 6v-18h10q31 0 53.5 -24t22.5 -57v-16q0 -38 -25 -63t-59 -25h-104v75h98q8 0 13.5 5t5.5 14v5q0 5 -2.5 9.5t-7 7t-9.5 2.5h-60v116q-52 42 -52 105v253h-48v115h48v113h150v-113z
" />
    <glyph glyph-name="Tcaron" unicode="&#x164;" horiz-adv-x="621" 
d="M358 755h-93l-150 162h132l64 -74l64 74h132zM587 573h-193v-573h-164v573h-195v127h552v-127z" />
    <glyph glyph-name="tcaron" unicode="&#x165;" horiz-adv-x="371" 
d="M437 668l-50 -95h-71l29 58h-29v100h121v-63zM226 500h109v-115h-109v-237q0 -21 12 -31t29 -10h68v-117h-101q-66 0 -112 42.5t-46 99.5v253h-48v115h48v113h150v-113z" />
    <glyph glyph-name="Tbar" unicode="&#x166;" horiz-adv-x="603" 
d="M384 571v-169h94v-103h-94v-299h-163v299h-95v103h95v169h-196v128h552v-128h-193z" />
    <glyph glyph-name="tbar" unicode="&#x167;" horiz-adv-x="373" 
d="M233 385v-67h108v-71h-108v-99q0 -21 11.5 -31t28.5 -10h68v-117h-101q-66 0 -112 42.5t-46 99.5v115h-48v71h48v67h-48v115h48v113h151v-113h108v-115h-108z" />
    <glyph glyph-name="Utilde" unicode="&#x168;" horiz-adv-x="677" 
d="M454 914l61 -65q-65 -67 -120 -67q-31 0 -61 19q-4 2 -13 8.5t-13.5 9.5t-11.5 5.5t-14 2.5q-5 0 -12 -2.5t-13 -6t-13.5 -9t-12 -9.5t-10 -8.5l-5.5 -4.5l-59 64q70 68 123 72q17 0 32.5 -5t22.5 -9.5t22 -14.5q23 -17 42 -16q18 2 55 36zM613 700v-472
q0 -60 -21.5 -106t-58.5 -74t-83 -42.5t-99 -14.5h-30q-115 0 -187.5 60.5t-72.5 176.5v472h162v-472q0 -53 30.5 -80.5t75.5 -27.5h17q14 0 26.5 3t24.5 8.5t21.5 14.5t16.5 20.5t11 27.5t4 34v472h163z" />
    <glyph glyph-name="utilde" unicode="&#x169;" horiz-adv-x="537" 
d="M386 714l60 -65q-65 -67 -119 -67q-32 0 -62 19q-4 2 -13 8.5t-13.5 9.5t-11.5 5.5t-14 2.5q-5 0 -11.5 -2.5t-13 -6t-13.5 -9t-11.5 -9.5t-10 -8.5t-6.5 -4.5l-59 64q71 68 124 72q16 0 32 -5t22.5 -9.5t21.5 -14.5q23 -17 42 -16q18 2 56 36zM490 0h-123l-7 36
q-65 -43 -127 -44q-86 -4 -137.5 45t-51.5 126v337h143v-323q0 -31 21 -50.5t54 -19.5q30 0 77 22v371h151v-500z" />
    <glyph glyph-name="Umacron" unicode="&#x16a;" horiz-adv-x="677" 
d="M499 810h-327v90h327v-90zM613 700v-472q0 -60 -21.5 -106t-58.5 -74t-83 -42.5t-99 -14.5h-30q-115 0 -187.5 60.5t-72.5 176.5v472h162v-472q0 -53 30.5 -80.5t75.5 -27.5h17q14 0 26.5 3t24.5 8.5t21.5 14.5t16.5 20.5t11 27.5t4 34v472h163z" />
    <glyph glyph-name="umacron" unicode="&#x16b;" horiz-adv-x="537" 
d="M431 610h-327v90h327v-90zM490 0h-123l-7 36q-65 -43 -127 -44q-86 -4 -137.5 45t-51.5 126v337h143v-323q0 -31 21 -50.5t54 -19.5q30 0 77 22v371h151v-500z" />
    <glyph glyph-name="Uring" unicode="&#x16e;" horiz-adv-x="677" 
d="M335 951q29 0 54 -15t39 -39t14 -51q0 -46 -31 -77t-76 -31t-75.5 31t-30.5 77q0 27 14 51t38.5 39t53.5 15zM335 887q-12 0 -21.5 -5.5t-15 -15t-5.5 -20.5q0 -18 12 -30t30 -12q8 0 15.5 3.5t13.5 9t9 13t3 16.5q0 17 -12 29t-29 12zM613 700v-472q0 -60 -21.5 -106
t-58.5 -74t-83 -42.5t-99 -14.5h-30q-115 0 -187.5 60.5t-72.5 176.5v472h162v-472q0 -36 15.5 -61t38.5 -36t52 -11h17q44 0 74 27.5t30 80.5v472h163z" />
    <glyph glyph-name="uring" unicode="&#x16f;" horiz-adv-x="537" 
d="M266 751q29 0 54 -15t39.5 -39t14.5 -51q0 -46 -31.5 -77t-76.5 -31q-44 0 -74.5 31t-30.5 77q0 42 30.5 73.5t74.5 31.5zM266 687q-8 0 -16 -3t-13.5 -9t-8.5 -13.5t-3 -15.5q0 -12 5.5 -21.5t15 -15t20.5 -5.5q17 0 29 12t12 30q0 17 -12 29t-29 12zM490 0h-123l-7 36
q-65 -43 -127 -44q-86 -4 -137.5 45t-51.5 126v337h143v-323q0 -31 21 -50.5t54 -19.5q30 0 77 22v371h151v-500z" />
    <glyph glyph-name="Uhungarumlaut" unicode="&#x170;" horiz-adv-x="677" 
d="M442 759h-113l86 157h140zM245 759h-113l86 157h140zM613 700v-472q0 -60 -21.5 -106t-58.5 -74t-83 -42.5t-99 -14.5h-30q-115 0 -187.5 60.5t-72.5 176.5v472h162v-472q0 -53 30.5 -80.5t75.5 -27.5h17q14 0 26.5 3t24.5 8.5t21.5 14.5t16.5 20.5t11 27.5t4 34v472h163
z" />
    <glyph glyph-name="uhungarumlaut" unicode="&#x171;" horiz-adv-x="537" 
d="M373 559h-112l86 157h139zM177 559h-113l86 157h139zM490 0h-123l-7 36q-65 -43 -127 -44q-86 -4 -137.5 45t-51.5 126v337h143v-323q0 -31 21 -50.5t54 -19.5q30 0 77 22v371h151v-500z" />
    <glyph glyph-name="Uogonek" unicode="&#x172;" horiz-adv-x="673" 
d="M613 700v-472q0 -80 -37 -134.5t-100 -79.5q-15 -9 -16 -27v-26q0 -13 8.5 -21.5t20.5 -8.5h101v-76h-124q-40 0 -68.5 25t-28.5 69v11q0 14 3 33q-22 -2 -31 -2h-20q-115 0 -187.5 60.5t-72.5 176.5v472h162v-472q0 -53 30.5 -80.5t75.5 -27.5h19q43 0 72.5 28t29.5 80
v472h163z" />
    <glyph glyph-name="uogonek" unicode="&#x173;" horiz-adv-x="541" 
d="M493 -62h-100q-12 0 -20 -8.5t-8 -21.5v-8q0 -13 8 -21.5t20 -8.5h101v-75h-123q-26 0 -48 10t-36 32t-14 51v28q0 41 25 65t63 27h4l-2 28q-68 -44 -141 -44q-78 0 -126.5 48.5t-48.5 122.5v337h143v-323q0 -30 20.5 -50t51.5 -20q33 0 80 22v371h151v-562z" />
    <glyph glyph-name="Wcircumflex" unicode="&#x174;" horiz-adv-x="950" 
d="M671 755h-132l-64 74l-64 -75h-133l150 163h92zM771 0h-203l-92 454l-93 -454h-204l-147 700h171l87 -511l101 511h169l101 -511l87 511h170z" />
    <glyph glyph-name="wcircumflex" unicode="&#x175;" horiz-adv-x="744" 
d="M568 555h-132l-64 74l-64 -75h-132l149 163h93zM599 0h-153l-74 264l-74 -264h-154l-120 500h154l64 -353l78 353h103l79 -353l63 353h155z" />
    <glyph glyph-name="Ycircumflex" unicode="&#x176;" horiz-adv-x="668" 
d="M530 755h-132l-64 74l-64 -75h-132l149 163h93zM415 279v-279h-163v280l-221 420h174l129 -271l129 271h174z" />
    <glyph glyph-name="ycircumflex" unicode="&#x177;" horiz-adv-x="540" 
d="M465 555h-132l-64 74l-64 -75h-133l150 163h93zM489 500v-512q0 -40 -12.5 -71.5t-33 -52t-48.5 -33.5t-57 -19t-62 -6q-78 0 -205 26l18 103q106 -22 163 -20q31 0 58 17.5t27 55.5v49q-69 -40 -131 -40q-69 0 -116.5 44.5t-47.5 127.5v331h143v-323q0 -30 20.5 -50
t51.5 -20q33 0 80 22v371h152z" />
    <glyph glyph-name="Ydieresis" unicode="&#x178;" horiz-adv-x="668" 
d="M298 790h-105v107h105v-107zM474 790h-105v107h105v-107zM415 279v-279h-163v280l-221 420h174l129 -271l129 271h174z" />
    <glyph glyph-name="Zacute" unicode="&#x179;" horiz-adv-x="614" 
d="M316 761h-113l86 156h140zM569 639l-316 -510h322v-129h-537v61l317 510h-304v129h518v-61z" />
    <glyph glyph-name="zacute" unicode="&#x17a;" horiz-adv-x="462" 
d="M231 561h-112l86 156h140zM425 423l-224 -314h230v-109h-403v79l224 311h-212v111h385v-78z" />
    <glyph glyph-name="Zdotaccent" unicode="&#x17b;" horiz-adv-x="614" 
d="M367 790h-105v107h105v-107zM569 639l-316 -510h322v-129h-537v61l317 510h-304v129h518v-61z" />
    <glyph glyph-name="zdotaccent" unicode="&#x17c;" horiz-adv-x="462" 
d="M282 590h-104v107h104v-107zM425 423l-224 -314h230v-109h-403v79l224 311h-212v111h385v-78z" />
    <glyph glyph-name="Zcaron" unicode="&#x17d;" horiz-adv-x="614" 
d="M363 755h-93l-150 162h132l64 -74l64 74h132zM569 639l-316 -510h322v-129h-537v61l317 510h-304v129h518v-61z" />
    <glyph glyph-name="zcaron" unicode="&#x17e;" horiz-adv-x="462" 
d="M278 555h-93l-150 162h132l64 -74l65 74h132zM425 423l-224 -314h230v-109h-403v79l224 311h-212v111h385v-78z" />
    <glyph glyph-name="florin" unicode="&#x192;" horiz-adv-x="367" 
d="M342 589h-68q-8 0 -15 -2.5t-12.5 -7.5t-9 -13t-3.5 -19v-139h108v-115h-108v-327q0 -76 -49 -116.5t-142 -40.5v116q16 0 27.5 10.5t11.5 30.5v327h-47v115h47v156q0 57 46.5 99t112.5 42h101v-116z" />
    <glyph glyph-name="Acaron" unicode="&#x1cd;" horiz-adv-x="702" 
d="M399 755h-93l-150 162h132l64 -74l65 74h132zM665 0h-171l-42 150h-202l-41 -150h-171l211 700h205zM272 279h158l-79 290z" />
    <glyph glyph-name="acaron" unicode="&#x1ce;" horiz-adv-x="516" 
d="M306 555h-93l-149 162h131l64 -74l65 74h132zM87 377l-18 108q109 24 184 24q43 0 80 -9.5t69.5 -29.5t51 -56.5t18.5 -86.5v-327h-124l-8 41q-82 -48 -155 -48q-68 0 -113 39t-46 109v14q3 142 197 142q50 0 98 -9v33q0 21 -9 36t-24 23t-29 11.5t-29 3.5
q-57 0 -143 -18zM321 117v104q-30 5 -68 5q-85 0 -85 -58v-27q0 -13 4.5 -23.5t12 -18t18.5 -11.5t23 -4q40 0 95 33z" />
    <glyph glyph-name="Icaron" unicode="&#x1cf;" horiz-adv-x="296" 
d="M194 755h-92l-150 162h132l64 -74l64 74h132zM229 0h-162v700h162v-700z" />
    <glyph glyph-name="icaron" unicode="&#x1d0;" horiz-adv-x="237" 
d="M167 555h-93l-150 162h132l64 -74l64 74h133zM194 0h-151v500h151v-500z" />
    <glyph glyph-name="Ocaron" unicode="&#x1d1;" horiz-adv-x="657" 
d="M375 755h-92l-150 162h131l65 -74l64 74h132zM311 708h33q70 0 130.5 -29.5t97.5 -87t37 -130.5v-223q0 -108 -75 -177.5t-190 -69.5h-33q-119 0 -191 69.5t-72 177.5v223q0 111 75 179t188 68zM337 580h-18q-29 -1 -53.5 -14.5t-39.5 -39.5t-15 -61v-231
q0 -53 31.5 -83.5t76.5 -30.5h18q45 0 77.5 30t32.5 84v231q0 35 -16 61.5t-41 40t-53 13.5z" />
    <glyph glyph-name="ocaron" unicode="&#x1d2;" horiz-adv-x="526" 
d="M308 555h-93l-150 162h132l64 -74l65 74h132zM35 177v146q0 47 19.5 83.5t52.5 58t72.5 32.5t83.5 11q63 0 113 -18.5t82.5 -61.5t32.5 -105v-146q0 -62 -33 -105t-83 -61.5t-112 -18.5t-112.5 19.5t-83 62.5t-32.5 103zM344 179v142q0 36 -22.5 53.5t-58.5 17.5
t-58.5 -18t-22.5 -53v-142q0 -35 22.5 -53t58.5 -18t58.5 17.5t22.5 53.5z" />
    <glyph glyph-name="Ucaron" unicode="&#x1d3;" horiz-adv-x="677" 
d="M382 755h-93l-149 162h131l65 -74l64 74h132zM613 700v-472q0 -60 -21.5 -106t-58.5 -74t-83 -42.5t-99 -14.5h-30q-115 0 -187.5 60.5t-72.5 176.5v472h162v-472q0 -36 15.5 -61t38.5 -36t52 -11h17q44 0 74 27.5t30 80.5v472h163z" />
    <glyph glyph-name="ucaron" unicode="&#x1d4;" horiz-adv-x="537" 
d="M314 555h-93l-150 162h132l64 -74l64 74h133zM490 0h-123l-7 36q-65 -43 -127 -44q-86 -4 -137.5 45t-51.5 126v337h143v-323q0 -31 21 -50.5t54 -19.5q30 0 77 22v371h151v-500z" />
    <glyph glyph-name="Udieresismacron" unicode="&#x1d5;" horiz-adv-x="673" 
d="M499 924h-327v90h327v-90zM300 773h-105v107h105v-107zM475 773h-105v107h105v-107zM613 700v-472q0 -48 -14 -87.5t-38.5 -67t-58 -46.5t-71.5 -27.5t-80 -8.5h-30q-115 0 -187.5 60.5t-72.5 176.5v472h162v-472q0 -53 30.5 -80.5t75.5 -27.5h17q44 0 74 27.5t30 80.5
v472h163z" />
    <glyph glyph-name="udieresismacron" unicode="&#x1d6;" horiz-adv-x="541" 
d="M433 742h-326v90h326v-90zM234 578h-105v107h105v-107zM410 578h-105v107h105v-107zM493 0h-123l-7 36q-68 -44 -141 -44q-78 0 -126.5 48.5t-48.5 122.5v337h143v-323q0 -30 20.5 -50t51.5 -20q34 0 80 22v371h151v-500z" />
    <glyph glyph-name="Udieresisacute" unicode="&#x1d7;" horiz-adv-x="673" 
d="M336 924h-113l86 156h140zM300 773h-105v107h105v-107zM475 773h-105v107h105v-107zM613 700v-472q0 -60 -21.5 -106t-58.5 -74t-83 -42.5t-99 -14.5h-30q-115 0 -187.5 60.5t-72.5 176.5v472h162v-472q0 -36 15.5 -61t38.5 -36t52 -11h17q44 0 74 27.5t30 80.5v472h163z
" />
    <glyph glyph-name="udieresisacute" unicode="&#x1d8;" horiz-adv-x="541" 
d="M270 731h-113l86 156h140zM234 578h-105v107h105v-107zM410 578h-105v107h105v-107zM493 0h-123l-7 36q-68 -44 -141 -44q-78 0 -126.5 48.5t-48.5 122.5v337h143v-323q0 -30 20.5 -50t51.5 -20q34 0 80 22v371h151v-500z" />
    <glyph glyph-name="Udieresiscaron" unicode="&#x1d9;" horiz-adv-x="677" 
d="M382 924h-93l-149 162h131l65 -74l64 74h132zM300 773h-105v107h105v-107zM475 773h-105v107h105v-107zM613 700v-472q0 -60 -21.5 -106t-58.5 -74t-83 -42.5t-99 -14.5h-30q-115 0 -187.5 60.5t-72.5 176.5v472h162v-472q0 -36 15.5 -61t38.5 -36t52 -11h17
q44 0 74 27.5t30 80.5v472h163z" />
    <glyph glyph-name="udieresiscaron" unicode="&#x1da;" horiz-adv-x="541" 
d="M317 731h-93l-150 162h132l64 -74l64 74h132zM234 578h-105v107h105v-107zM410 578h-105v107h105v-107zM493 0h-123l-7 36q-68 -44 -141 -44q-78 0 -126.5 48.5t-48.5 122.5v337h143v-323q0 -30 20.5 -50t51.5 -20q34 0 80 22v371h151v-500z" />
    <glyph glyph-name="Udieresisgrave" unicode="&#x1db;" horiz-adv-x="673" 
d="M436 924h-113l-113 157h140zM300 773h-105v107h105v-107zM475 773h-105v107h105v-107zM613 700v-472q0 -60 -21.5 -106t-58.5 -74t-83 -42.5t-99 -14.5h-30q-115 0 -187.5 60.5t-72.5 176.5v472h162v-472q0 -36 15.5 -61t38.5 -36t52 -11h17q44 0 74 27.5t30 80.5v472
h163z" />
    <glyph glyph-name="udieresisgrave" unicode="&#x1dc;" horiz-adv-x="541" 
d="M370 731h-112l-114 157h140zM234 578h-105v107h105v-107zM410 578h-105v107h105v-107zM493 0h-123l-7 36q-68 -44 -141 -44q-78 0 -126.5 48.5t-48.5 122.5v337h143v-323q0 -30 20.5 -50t51.5 -20q34 0 80 22v371h151v-500z" />
    <glyph glyph-name="Adieresismacron" unicode="&#x1de;" horiz-adv-x="702" 
d="M516 927h-327v91h327v-91zM317 773h-105v107h105v-107zM492 773h-105v107h105v-107zM665 0h-171l-42 150h-202l-42 -150h-170l211 700h205zM272 279h158l-79 290z" />
    <glyph glyph-name="adieresismacron" unicode="&#x1df;" horiz-adv-x="516" 
d="M417 737h-327v91h327v-91zM217 578h-105v107h105v-107zM393 578h-105v107h105v-107zM87 377l-18 108q109 24 184 24q43 0 80 -9.5t69.5 -29.5t51 -56.5t18.5 -86.5v-327h-124l-8 41q-82 -48 -155 -48q-68 0 -113 39t-46 109v14q3 142 197 142q50 0 98 -9v33q0 21 -9 36
t-24 23t-29 11.5t-29 3.5q-57 0 -143 -18zM321 117v104q-30 5 -68 5q-85 0 -85 -58v-27q0 -26 16.5 -41.5t41.5 -15.5q40 0 95 33z" />
    <glyph glyph-name="Gcaron" unicode="&#x1e6;" horiz-adv-x="635" 
d="M375 755h-93l-150 162h132l64 -74l64 74h133zM311 708h27q124 0 220 -36l-21 -122q-94 30 -218 30q-49 0 -78.5 -30t-29.5 -85v-231q0 -52 27.5 -82.5t77.5 -31.5h16q58 0 98 19v147h-102v115h241v-350q-59 -32 -111.5 -46t-117.5 -14h-29q-124 1 -193.5 66.5
t-69.5 180.5v223q0 120 72 183.5t191 63.5z" />
    <glyph glyph-name="gcaron" unicode="&#x1e7;" horiz-adv-x="531" 
d="M309 555h-93l-150 162h132l64 -74l64 74h133zM35 171v168q0 73 50 120.5t132 47.5q75 0 135 -28l6 20h123v-508q0 -50 -18 -86.5t-49.5 -56.5t-67.5 -29.5t-77 -9.5q-82 0 -205 26l18 103q102 -21 163 -21q19 1 36.5 6.5t33.5 23t16 44.5v46q-67 -38 -129 -38
q-71 0 -119 44.5t-48 127.5zM331 129v254q-32 8 -72 8q-34 0 -57.5 -19.5t-23.5 -50.5v-142q0 -31 21 -50.5t54 -19.5q26 0 78 20z" />
    <glyph glyph-name="Oslashacute" unicode="&#x1fe;" horiz-adv-x="682" 
d="M315 761h-112l85 156h141zM575 750l-44 -99q91 -72 91 -190v-223q0 -108 -75.5 -177.5t-190.5 -69.5h-32q-43 0 -81 10l-23 -51h-112l42 95q-89 70 -89 193v223q0 111 74.5 179t188.5 68h32q43 0 83 -11l24 53h112zM223 465v-231q0 -11 2 -21l160 361q-17 6 -36 6h-17
q-46 -1 -77.5 -32t-31.5 -83zM459 234v231q0 11 -1 21l-160 -361q16 -5 34 -5h17q46 0 78 30t32 84z" />
    <glyph glyph-name="oslashacute" unicode="&#x1ff;" horiz-adv-x="539" 
d="M247 561h-113l86 156h140zM434 551l-31 -71q94 -48 94 -157v-146q0 -62 -33 -105t-83 -61.5t-112 -18.5q-41 0 -79 9l-23 -52h-63l33 73q-96 49 -96 155v146q0 47 19.5 83.5t52.5 58t72.5 32.5t83.5 11q43 0 80 -9l23 52h62zM189 321v-142q0 -16 5 -29l106 238
q-14 4 -31 4q-36 0 -58 -18t-22 -53zM350 179v142q0 16 -5 29l-106 -238q14 -4 30 -4q36 0 58.5 17.5t22.5 53.5z" />
    <glyph glyph-name="Scommaaccent" unicode="&#x218;" horiz-adv-x="563" 
d="M41 487v12q0 113 63 161.5t176 48.5q46 0 78 -2.5t62.5 -9t59.5 -17.5l-14 -132q-67 29 -182 29q-29 0 -52 -12.5t-23 -43.5v-10q0 -35 35 -53l145 -61q75 -30 103.5 -67t28.5 -110v-14q-2 -215 -245 -215q-140 0 -227 32l12 131q60 -19 108.5 -26t118.5 -7q29 1 49 20.5
t20 48.5v15q0 40 -40 59l-151 63q-70 28 -97 60.5t-28 99.5zM338 -135l-50 -95h-71l29 58h-29v100h121v-63z" />
    <glyph glyph-name="scommaaccent" unicode="&#x219;" horiz-adv-x="442" 
d="M199 507h42q81 0 143 -21l-12 -97q-55 19 -114 20h-42q-18 0 -30 -12t-12 -29q0 -29 24 -38l116 -40q56 -20 79 -50.5t23 -85.5q0 -161 -191 -161h-39q-89 1 -152 25l11 95q75 -23 137 -22h36q24 0 38.5 15.5t14.5 37.5q0 18 -9 32.5t-24 20.5l-121 40q-51 19 -71 43.5
t-20 74.5q0 152 173 152zM280 -135l-50 -95h-71l29 58h-29v100h121v-63z" />
    <glyph glyph-name="uni021A" unicode="&#x21a;" horiz-adv-x="621" 
d="M587 573h-193v-573h-164v573h-195v127h552v-127zM373 -135l-51 -95h-70l29 58h-29v100h121v-63z" />
    <glyph glyph-name="uni021B" unicode="&#x21b;" horiz-adv-x="367" 
d="M226 500h109v-115h-109v-237q0 -21 12 -31t29 -10h68v-117h-101q-66 0 -112 42.5t-46 99.5v253h-48v115h48v113h150v-113zM241 -135l-50 -95h-71l29 58h-29v100h121v-63z" />
    <glyph glyph-name="circumflex" unicode="&#x2c6;" horiz-adv-x="463" 
d="M428 555h-132l-64 74l-64 -75h-133l150 163h93z" />
    <glyph glyph-name="caron" unicode="&#x2c7;" horiz-adv-x="462" 
d="M278 555h-93l-150 162h132l64 -74l64 74h132z" />
    <glyph glyph-name="breve" unicode="&#x2d8;" horiz-adv-x="378" 
d="M244 719h98q-2 -40 -15.5 -72.5t-41 -53t-65.5 -20.5h-64q-55 0 -86.5 42t-33.5 104h98q2 -54 41 -54h28q37 0 41 54z" />
    <glyph glyph-name="dotaccent" unicode="&#x2d9;" horiz-adv-x="180" 
d="M143 590h-105v107h105v-107z" />
    <glyph glyph-name="ring" unicode="&#x2da;" horiz-adv-x="286" 
d="M142 751q44 0 75.5 -31.5t31.5 -73.5q0 -46 -31 -77t-76 -31t-75.5 31t-30.5 77q0 42 31 73.5t75 31.5zM141.5 687q-17.5 0 -29.5 -12t-12 -29q0 -18 12 -30t30 -12q11 0 20.5 5.5t15 15t5.5 21.5q0 17 -12 29t-29.5 12z" />
    <glyph glyph-name="ogonek" unicode="&#x2db;" horiz-adv-x="292" 
d="M191 -69h-34q-12 0 -20.5 -8.5t-8.5 -21.5v-9q0 -6 2.5 -11.5t6 -9.5t9 -6.5t11.5 -2.5h101v-75h-124q-40 0 -68.5 24.5t-28.5 68.5v28q0 44 28.5 68t68.5 24h57v-69z" />
    <glyph glyph-name="tilde" unicode="&#x2dc;" horiz-adv-x="428" 
d="M333 714l60 -65q-64 -67 -119 -67q-32 0 -62 19q-4 2 -13 8.5t-13.5 9.5t-11.5 5.5t-14 2.5q-5 0 -11.5 -2.5t-13 -6t-13.5 -9t-11.5 -9.5t-10 -8.5t-6.5 -4.5l-59 64q71 68 124 72q16 0 32 -5t22.5 -9.5t21.5 -14.5q23 -17 42 -16q18 2 56 36z" />
    <glyph glyph-name="hungarumlaut" unicode="&#x2dd;" horiz-adv-x="494" 
d="M149 559h-113l86 157h140zM346 559h-113l86 157h140z" />
    <glyph glyph-name="dotbelowcomb" unicode="&#x323;" horiz-adv-x="0" 
d="M164 -165h-134v103h134v-103z" />
    <glyph glyph-name="commaaccentcomb" unicode="&#x326;" horiz-adv-x="0" 
d="M151 -135l-50 -95h-71l29 58h-29v100h121v-63z" />
    <glyph glyph-name="circumflexbelowcomb" unicode="&#x32d;" horiz-adv-x="0" 
d="M422 -215h-132l-64 74l-64 -74h-132l150 162h92z" />
    <glyph glyph-name="macronbelowcomb" unicode="&#x331;" horiz-adv-x="0" 
d="M369 -159h-339v78h339v-78z" />
    <glyph glyph-name="Delta" unicode="&#x394;" horiz-adv-x="833" 
 />
    <glyph glyph-name="Omega" unicode="&#x3a9;" horiz-adv-x="833" 
 />
    <glyph glyph-name="mu" unicode="&#x3bc;" horiz-adv-x="833" 
 />
    <glyph glyph-name="pi" unicode="&#x3c0;" horiz-adv-x="118" 
 />
    <glyph glyph-name="uni0401" unicode="&#x401;" horiz-adv-x="546" 
d="M183 790v107h193v-107h-193zM224 571v-153h245v-128h-245v-161h281v-129h-444v700h444v-129h-281z" />
    <glyph glyph-name="uni0410" unicode="&#x410;" horiz-adv-x="702" 
d="M665 0h-171l-42 150h-202l-41 -150h-171l211 700h205zM272 279h158l-79 290z" />
    <glyph glyph-name="uni0411" unicode="&#x411;" horiz-adv-x="639" 
d="M546 578h-310v-133h152q96 0 149.5 -54t53.5 -150v-44q-2 -91 -56 -144t-146 -53h-316v700h473v-122zM236 314v-183h127q28 0 47 19.5t19 47.5v49q0 30 -18.5 48.5t-47.5 18.5h-127z" />
    <glyph glyph-name="uni0412" unicode="&#x412;" horiz-adv-x="640" 
d="M67 700h353q71 0 112.5 -44t41.5 -115v-30q0 -51 -22.5 -88.5t-64.5 -57.5q50 -15 77.5 -55.5t27.5 -102.5v-40q0 -74 -41.5 -120.5t-112.5 -46.5h-371v700zM229 578v-170h125q29 0 47.5 18.5t18.5 47.5v37q0 28 -18.5 47.5t-47.5 19.5h-125zM229 308v-179h140q18 0 33 8
t23.5 23.5t8.5 35.5v46q0 29 -18.5 47.5t-46.5 18.5h-140z" />
    <glyph glyph-name="uni0413" unicode="&#x413;" horiz-adv-x="581" 
d="M546 578h-310v-578h-163v700h473v-122z" />
    <glyph glyph-name="uni0414" unicode="&#x414;" horiz-adv-x="763" 
d="M665 130h64v-235h-162v106h-382v-106h-162v235h41q35 0 57 23.5t22 64.5v482h522v-570zM306 570v-383q-1 -20 -12 -35t-28 -22h237v440h-197z" />
    <glyph glyph-name="uni0415" unicode="&#x415;" horiz-adv-x="546" 
d="M505 571h-281v-153h246v-128h-246v-161h281v-129h-444v700h444v-129z" />
    <glyph glyph-name="uni0416" unicode="&#x416;" horiz-adv-x="1023" 
d="M686 349l313 -349h-219l-188 255v-255h-161v255l-188 -255h-219l313 349l-302 352h213l183 -256v256h161v-256l183 256h213z" />
    <glyph glyph-name="uni0417" unicode="&#x417;" horiz-adv-x="618" 
d="M230 699h144q78 0 131.5 -51.5t53.5 -123.5v-42q0 -31 -13 -57t-27 -38t-27 -18q24 -8 51.5 -41t27.5 -83v-69q0 -74 -53.5 -125.5t-132.5 -51.5h-161q-79 1 -132 53t-53 127h142q0 -27 18.5 -46t45.5 -19h120q28 0 46 18.5t18 46.5v69q0 19 -8.5 33.5t-23 22.5t-32.5 8
h-154v104h149q14 0 25.5 5t20 13.5t13.5 20.5t5 26v36q0 28 -18.5 46.5t-45.5 18.5h-116q-27 0 -45 -18.5t-18 -46.5h-136q1 77 53.5 129.5t131.5 52.5z" />
    <glyph glyph-name="uni0418" unicode="&#x418;" horiz-adv-x="687" 
d="M626 0h-160v421l-247 -421h-158v700h160v-425l248 425h157v-700z" />
    <glyph glyph-name="uni0419" unicode="&#x419;" horiz-adv-x="687" 
d="M391 760h-93l-150 162h132l64 -74l64 74h132zM626 0h-160v421l-247 -421h-158v700h160v-425l248 425h157v-700z" />
    <glyph glyph-name="uni041A" unicode="&#x41a;" horiz-adv-x="665" 
d="M349 349l285 -349h-194l-219 267v-267h-160v701h160v-268l214 268h188z" />
    <glyph glyph-name="uni041B" unicode="&#x41b;" horiz-adv-x="707" 
d="M647 0h-163v570h-197v-387q-2 -82 -54 -134.5t-124 -52.5h-86v152h30q34 0 52.5 22.5t18.5 65.5v464h523v-700z" />
    <glyph glyph-name="uni041C" unicode="&#x41c;" horiz-adv-x="813" 
d="M756 0h-160l-14 405l-130 -251h-90l-130 251l-16 -405h-159l25 700h161l163 -336l161 336h162z" />
    <glyph glyph-name="uni041D" unicode="&#x41d;" horiz-adv-x="684" 
d="M618 0h-163v285h-226v-285h-162v700h162v-286h226v286h163v-700z" />
    <glyph glyph-name="uni041E" unicode="&#x41e;" horiz-adv-x="657" 
d="M312 708h32q70 0 130.5 -29.5t97.5 -87t37 -130.5v-223q0 -108 -75 -177.5t-190 -69.5h-32q-120 0 -192 69.5t-72 177.5v223q0 111 75 179t189 68zM337 580h-18q-29 -1 -53.5 -14.5t-39.5 -39.5t-15 -61v-231q0 -53 31.5 -83.5t76.5 -30.5h18q45 0 77.5 30t32.5 84v231
q0 52 -33 83t-77 32z" />
    <glyph glyph-name="uni041F" unicode="&#x41f;" horiz-adv-x="678" 
d="M611 0h-162v570h-220v-570h-162v700h544v-700z" />
    <glyph glyph-name="uni0420" unicode="&#x420;" horiz-adv-x="636" 
d="M73 700h315q95 0 149 -57.5t54 -152.5v-68q0 -97 -54 -153.5t-149 -56.5h-152v-212h-163v700zM236 569v-226h127q29 0 47.5 18.5t18.5 48.5v92q0 28 -19 47.5t-47 19.5h-127z" />
    <glyph glyph-name="uni0421" unicode="&#x421;" horiz-adv-x="531" 
d="M310 709h27q69 0 155 -23l-9 -118q-80 11 -146 12h-18q-46 0 -77 -30.5t-31 -83.5v-232q0 -53 31 -83.5t77 -30.5h18q66 1 146 13l9 -119q-84 -22 -155 -22h-27q-112 0 -187 66t-75 181v223q0 115 75 181t187 66z" />
    <glyph glyph-name="uni0422" unicode="&#x422;" horiz-adv-x="621" 
d="M587 573h-193v-573h-164v573h-195v127h552v-127z" />
    <glyph glyph-name="uni0423" unicode="&#x423;" horiz-adv-x="699" 
d="M431 314v-314h-163v314l-237 386h171l147 -265l148 265h171z" />
    <glyph glyph-name="uni0424" unicode="&#x424;" horiz-adv-x="899" 
d="M531 635h121q94 0 148.5 -57.5t54.5 -152.5v-85q0 -97 -54 -153.5t-149 -56.5h-121v-130h-163v130h-121q-95 0 -149 56.5t-54 153.5v85q0 95 54.5 152.5t148.5 57.5h121v65h163v-65zM368 504h-96q-28 0 -46.5 -19.5t-18.5 -47.5v-109q0 -30 18.5 -48.5t46.5 -18.5h96v243
zM531 504v-243h96q28 0 46.5 18.5t18.5 48.5v109q0 28 -18.5 47.5t-46.5 19.5h-96z" />
    <glyph glyph-name="uni0425" unicode="&#x425;" horiz-adv-x="654" 
d="M424 350l206 -350h-171l-132 241l-132 -241h-171l206 350l-206 350h171l132 -242l132 242h171z" />
    <glyph glyph-name="uni0426" unicode="&#x426;" horiz-adv-x="724" 
d="M613 130h77v-231h-162v102h-455v700h163v-571h215v571h162v-571z" />
    <glyph glyph-name="uni0427" unicode="&#x427;" horiz-adv-x="653" 
d="M580 0h-162v259q-15 -16 -68 -16h-78q-109 0 -168.5 60.5t-59.5 153.5v243h162v-254q0 -34 16.5 -53t43.5 -19h91q30 0 45 13t15 49v264h163v-700z" />
    <glyph glyph-name="uni0428" unicode="&#x428;" horiz-adv-x="1005" 
d="M938 1h-865v700h162v-571h189v571h163v-571h189v571h162v-700z" />
    <glyph glyph-name="uni0429" unicode="&#x429;" horiz-adv-x="1056" 
d="M939 130h83v-232h-162v103h-787v700h163v-571h189v571h162v-571h189v571h163v-571z" />
    <glyph glyph-name="uni042A" unicode="&#x42a;" horiz-adv-x="690" 
d="M290 489h153q95 0 149 -57t54 -154v-67q0 -96 -54.5 -153.5t-148.5 -57.5h-316v573h-104v127h267v-211zM290 357v-226h128q28 0 46.5 19.5t18.5 47.5v93q0 29 -18.5 47.5t-46.5 18.5h-128z" />
    <glyph glyph-name="uni042B" unicode="&#x42b;" horiz-adv-x="878" 
d="M236 489h153q94 0 148 -57t54 -154v-67q0 -96 -54 -153.5t-148 -57.5h-316v700h163v-211zM811 0h-162v700h162v-700zM236 357v-226h127q14 0 26 5.5t21 14.5t14 21t5 26v93q0 29 -18.5 47.5t-47.5 18.5h-127z" />
    <glyph glyph-name="uni042C" unicode="&#x42c;" horiz-adv-x="636" 
d="M236 489h153q94 0 148 -57t54 -154v-67q0 -96 -54 -153.5t-148 -57.5h-316v700h163v-211zM236 357v-226h127q14 0 26 5.5t21 14.5t14 21t5 26v93q0 29 -18.5 47.5t-47.5 18.5h-127z" />
    <glyph glyph-name="uni042D" unicode="&#x42d;" horiz-adv-x="531" 
d="M194 708l27 1q112 0 187 -66t75 -181v-223q0 -116 -75 -181.5t-187 -65.5h-27q-71 0 -156 22l10 119q78 -12 146 -13h19q45 0 76.5 30.5t31.5 83.5v59h-226v115h226v58q0 52 -31.5 82.5t-76.5 30.5h-20q-68 -1 -145 -12l-10 118q87 23 156 23z" />
    <glyph glyph-name="uni042E" unicode="&#x42e;" horiz-adv-x="944" 
d="M598 709h32q71 0 131 -29.5t97.5 -87t37.5 -130.5v-223q0 -109 -75.5 -178.5t-189.5 -69.5h-33q-115 0 -187 66t-76 169v60h-99v-286h-163v700h163v-285h99v55q3 107 77.5 173t185.5 66zM622 580h-17q-44 0 -76.5 -32t-32.5 -82v-232q0 -52 32 -82.5t77 -30.5h17
q45 0 77.5 30t32.5 83v232q0 26 -9 48t-24.5 36t-35.5 22t-41 8z" />
    <glyph glyph-name="uni042F" unicode="&#x42f;" horiz-adv-x="659" 
d="M592 0h-162v213h-111l-82 -213h-189l117 254q-42 21 -67 66t-25 103v67q0 95 54.5 152.5t148.5 57.5h316v-700zM429 569h-127q-19 0 -34 -9t-23.5 -24.5t-8.5 -33.5v-94q0 -29 18.5 -47.5t47.5 -18.5h127v227z" />
    <glyph glyph-name="uni0430" unicode="&#x430;" horiz-adv-x="516" 
d="M87 377l-18 108q109 24 184 24q43 0 80 -9.5t69.5 -29.5t51 -56.5t18.5 -86.5v-327h-124l-8 41q-82 -48 -155 -48q-68 0 -113 39t-46 109v14q3 142 197 142q50 0 98 -9v33q0 21 -9 36t-24 23t-29 11.5t-29 3.5q-57 0 -143 -18zM321 117v104q-30 5 -68 5q-85 0 -85 -58
v-27q0 -13 4.5 -23.5t12 -18t18.5 -11.5t23 -4q40 0 95 33z" />
    <glyph glyph-name="uni0431" unicode="&#x431;" horiz-adv-x="547" 
d="M230 707h76q73 0 168 -21v-129q-105 28 -168 28h-43q-29 0 -47 -20.5t-20 -51.5v-82q61 10 71 10h70q70 -1 117.5 -40t48.5 -107v-125q0 -83 -59.5 -130t-145.5 -47h-43q-86 0 -147.5 47t-64.5 126v371q0 75 53.5 123t133.5 48zM294 321h-42q-44 0 -61 -18v-132
q0 -29 18.5 -46t45.5 -17h39q25 1 43 18t18 45v88q0 28 -18 45t-43 17z" />
    <glyph glyph-name="uni0432" unicode="&#x432;" horiz-adv-x="545" 
d="M54 500h314q58 0 95.5 -38t37.5 -88v-33q0 -48 -36 -80q44 -33 44 -88v-47q0 -35 -16.5 -63.5t-47.5 -45.5t-70 -17h-321v500zM207 400v-97h114q18 0 29 11.5t11 29.5v15q0 18 -11 29.5t-29 11.5h-114zM207 206v-104h121q19 0 30.5 11t11.5 29v23q0 18 -12 29.5t-30 11.5
h-121z" />
    <glyph glyph-name="uni0433" unicode="&#x433;" horiz-adv-x="447" 
d="M419 378h-212v-378h-153v500h365v-122z" />
    <glyph glyph-name="uni0434" unicode="&#x434;" horiz-adv-x="643" 
d="M545 122h71v-207h-155v85h-279v-85h-155v207h46q43 9 43 59v319h429v-378zM263 378v-214q-1 -31 -30 -42h165v256h-135z" />
    <glyph glyph-name="uni0435" unicode="&#x435;" 
d="M35 173v155q0 47 21 83.5t54.5 57t70.5 30.5t76 10q41 0 78.5 -10t70.5 -30.5t53 -56.5t20 -84v-112h-302v-52q0 -35 25 -50.5t56 -15.5q55 0 193 16l16 -99q-113 -22 -196 -22q-36 0 -68 5t-63.5 18t-54 33t-36.5 52t-14 72zM338 282v55q0 35 -25 50.5t-56 15.5
q-19 0 -36 -5.5t-30.5 -21t-13.5 -39.5v-55h161z" />
    <glyph glyph-name="uni0436" unicode="&#x436;" horiz-adv-x="869" 
d="M602 264l246 -264h-180l-161 181v-181h-145v181l-161 -181h-180l246 264l-241 236h180l156 -157v158h145v-158l156 157h180z" />
    <glyph glyph-name="uni0437" unicode="&#x437;" horiz-adv-x="501" 
d="M165 501h160q57 0 95 -38.5t38 -87.5v-33q0 -27 -14 -51t-27 -29q14 -5 31 -32t17 -56v-48q0 -53 -37.5 -89t-95.5 -36h-167q-55 0 -93.5 47.5t-40.5 105.5h126q1 -15 5.5 -26.5t13.5 -17t20 -5.5h105q17 0 27.5 11t10.5 30v28q0 17 -10.5 28t-27.5 11h-95v86h88
q16 0 26.5 11t10.5 30v15q0 18 -10.5 30t-26.5 12h-98q-17 0 -27.5 -14t-11.5 -33h-127q1 57 40 104t95 47z" />
    <glyph glyph-name="uni0438" unicode="&#x438;" horiz-adv-x="551" 
d="M499 0h-147v261l-176 -261h-125v500h147v-268l177 268h124v-500z" />
    <glyph glyph-name="uni0439" unicode="&#x439;" horiz-adv-x="551" 
d="M330 719h98q-2 -62 -34 -104t-88 -42h-64q-55 0 -86.5 42t-32.5 104h97q2 -53 42 -54h26q38 0 42 54zM499 0h-147v261l-176 -261h-125v500h147v-267l177 267h124v-500z" />
    <glyph glyph-name="uni043A" unicode="&#x43a;" horiz-adv-x="569" 
d="M295 264l253 -264h-180l-169 181v-181h-145v501h145v-158l164 157h180z" />
    <glyph glyph-name="uni043B" unicode="&#x43b;" horiz-adv-x="580" 
d="M529 -1h-152v378h-135v-255q-1 -34 -21 -63.5t-54 -46.5t-74 -17h-66v120h8q23 0 38 16.5t15 44.5v323h441v-500z" />
    <glyph glyph-name="uni043C" unicode="&#x43c;" horiz-adv-x="715" 
d="M358 229l139 271h156l16 -500h-153l-11 311l-104 -206h-86l-105 206l-11 -311h-153l17 500h156z" />
    <glyph glyph-name="uni043D" unicode="&#x43d;" horiz-adv-x="565" 
d="M514 0h-154v194h-155v-194h-154v500h154v-183h155v183h154v-500z" />
    <glyph glyph-name="uni043E" unicode="&#x43e;" horiz-adv-x="526" 
d="M35 177v146q0 47 19.5 83.5t52.5 58t72.5 32.5t83.5 11q63 0 113 -18.5t82.5 -61.5t32.5 -105v-146q0 -62 -33 -105t-83 -61.5t-112 -18.5t-112.5 19.5t-83 62.5t-32.5 103zM344 179v142q0 36 -22.5 53.5t-58.5 17.5t-58.5 -18t-22.5 -53v-142q0 -35 22.5 -53t58.5 -18
t58.5 17.5t22.5 53.5z" />
    <glyph glyph-name="uni043F" unicode="&#x43f;" horiz-adv-x="573" 
d="M522 0h-152v378h-166v-378h-153v500h471v-500z" />
    <glyph glyph-name="uni0440" unicode="&#x440;" horiz-adv-x="536" 
d="M177 500l6 -35q65 43 141 43q79 0 127.5 -48.5t48.5 -120.5v-170q0 -37 -10.5 -67t-27.5 -49.5t-40 -32t-46.5 -18t-48.5 -5.5q-67 2 -122 24v-208h-151v687h123zM358 177v144q0 29 -21 49.5t-51 20.5q-36 0 -80 -24v-255q24 -4 61 -4q21 0 39.5 5t35 21.5t16.5 42.5z
" />
    <glyph glyph-name="uni0441" unicode="&#x441;" horiz-adv-x="415" 
d="M35 170v158q0 49 19.5 86t52 56.5t68.5 29t75 9.5q64 0 134 -17l-9 -113q-57 13 -97 13q-39 0 -67 -18.5t-28 -58.5v-132q0 -40 28 -58.5t67 -18.5q41 0 97 13l9 -113q-73 -17 -134 -17q-31 0 -60 5.5t-57.5 18.5t-49.5 33.5t-34.5 52t-13.5 71.5z" />
    <glyph glyph-name="uni0442" unicode="&#x442;" horiz-adv-x="489" 
d="M465 378h-144v-378h-153v378h-144v122h441v-122z" />
    <glyph glyph-name="uni0443" unicode="&#x443;" horiz-adv-x="540" 
d="M489 500v-512q0 -50 -18.5 -86.5t-50 -56.5t-67.5 -29.5t-77 -9.5q-78 0 -205 26l18 103q106 -22 163 -20q31 0 58 17.5t27 55.5v49q-69 -40 -131 -40q-44 0 -80.5 18t-60 58t-23.5 96v331h143v-323q0 -30 20.5 -50t51.5 -20q33 0 80 22v371h152z" />
    <glyph glyph-name="uni0444" unicode="&#x444;" horiz-adv-x="812" 
d="M460 700v-224q59 29 135 29q82 0 132 -48t50 -121v-170q0 -82 -47 -126t-116 -46q-66 1 -133 39v-240h-150v240q-66 -38 -133 -39q-69 2 -116 46t-47 126v170q0 73 50 121t132 48q76 0 136 -29v224h107zM330 125v255q-33 9 -72 9q-34 0 -57 -20t-23 -50v-145
q0 -29 19.5 -47.5t50.5 -21.5q38 -1 82 20zM634 174v145q0 20 -10.5 36t-29 25t-40.5 9q-40 0 -72 -9v-255q44 -21 82 -20q20 2 36 10.5t25 24t9 34.5z" />
    <glyph glyph-name="uni0445" unicode="&#x445;" horiz-adv-x="533" 
d="M368 250l143 -250h-159l-87 168l-87 -168h-157l144 250l-137 250h156l81 -170l81 170h159z" />
    <glyph glyph-name="uni0446" unicode="&#x446;" horiz-adv-x="624" 
d="M518 122h79v-218h-155v96h-391v500h153v-378h161v378h153v-378z" />
    <glyph glyph-name="uni0447" unicode="&#x447;" horiz-adv-x="526" 
d="M475 0h-153v189q-13 -20 -69 -20h-73q-145 0 -145 154v177h154v-176q0 -18 12 -30.5t31 -12.5h45q45 0 45 33v186h153v-500z" />
    <glyph glyph-name="uni0448" unicode="&#x448;" horiz-adv-x="788" 
d="M737 0h-686v500h153v-378h114v378h152v-378h114v378h153v-500z" />
    <glyph glyph-name="uni0449" unicode="&#x449;" horiz-adv-x="844" 
d="M737 122h80v-218h-155v96h-611v500h153v-378h114v378h153v-378h113v378h153v-378z" />
    <glyph glyph-name="uni044A" unicode="&#x44a;" horiz-adv-x="590" 
d="M267 312h145q60 0 101 -41t42 -99v-31q0 -58 -42.5 -99.5t-100.5 -41.5h-296v377h-89v123h240v-188zM267 221v-130h110q22 0 37 14.5t15 35.5v30q0 23 -14.5 36.5t-37.5 13.5h-110z" />
    <glyph glyph-name="uni044B" unicode="&#x44b;" horiz-adv-x="759" 
d="M206 313h144q59 0 100.5 -41t42.5 -100v-30q0 -59 -42.5 -100t-100.5 -41h-296v500h152v-188zM708 0h-151v500h151v-500zM206 222v-130h110q22 0 37 14.5t15 36.5v28q0 23 -15 37t-37 14h-110z" />
    <glyph glyph-name="uni044C" unicode="&#x44c;" horiz-adv-x="528" 
d="M206 313h144q59 0 100.5 -41t42.5 -100v-30q0 -59 -42.5 -100t-100.5 -41h-296v500h152v-188zM206 222v-130h110q22 0 37 14.5t15 36.5v28q0 23 -15 37t-37 14h-110z" />
    <glyph glyph-name="uni044D" unicode="&#x44d;" horiz-adv-x="415" 
d="M40 378l-10 112q69 17 134 17q42 0 79 -10t68.5 -30.5t50 -56.5t18.5 -84v-157q0 -48 -19 -84.5t-51 -56.5t-68.5 -29.5t-77.5 -9.5q-66 0 -134 16l10 113q55 -13 99 -13q35 0 65 17t33 51v36h-147v78h147v36q-2 19 -12 33t-25.5 21t-30.5 10.5t-31 3.5q-43 0 -98 -13z
" />
    <glyph glyph-name="uni044E" unicode="&#x44e;" horiz-adv-x="761" 
d="M272 311v32q8 82 71.5 123t154.5 41q62 0 112 -19.5t83 -62.5t33 -103v-145q0 -89 -65.5 -137.5t-162.5 -48.5q-58 0 -106 16.5t-81.5 54t-39.5 92.5v34h-69v-188h-151v500h151v-189h70zM578 178v142q0 36 -22 53.5t-58 17.5q-24 0 -41.5 -7t-28.5 -23.5t-11 -40.5v-142
q0 -36 22.5 -53.5t58.5 -17.5q35 0 57.5 17.5t22.5 53.5z" />
    <glyph glyph-name="uni044F" unicode="&#x44f;" horiz-adv-x="552" 
d="M501 0h-151v165h-68l-89 -165h-164l136 201q-44 11 -72.5 45t-28.5 80v35q0 57 42.5 98t100.5 41h294v-500zM350 409h-108q-22 0 -37 -14.5t-15 -35.5v-30q0 -22 14.5 -36t37.5 -14h108v130z" />
    <glyph glyph-name="uni0451" unicode="&#x451;" 
d="M219 590h-105v107h105v-107zM395 590h-106v107h106v-107zM35 173v155q0 47 21 83.5t54.5 57t70.5 30.5t76 10q32 0 62.5 -6t60 -19.5t51.5 -34t35 -51.5t13 -70v-112h-302v-52q0 -35 25 -50.5t56 -15.5q55 0 193 16l16 -99q-113 -22 -196 -22q-36 0 -68 5t-63.5 18
t-54 33t-36.5 52t-14 72zM338 282v55q0 35 -25 50.5t-56 15.5q-30 0 -55 -16t-25 -50v-55h161z" />
    <glyph glyph-name="Bdotbelow" unicode="&#x1e04;" horiz-adv-x="640" 
d="M67 700h353q71 0 112.5 -44t41.5 -115v-30q0 -51 -22.5 -88.5t-64.5 -57.5q50 -15 77.5 -55.5t27.5 -102.5v-40q0 -74 -41.5 -120.5t-112.5 -46.5h-371v700zM229 578v-170h125q29 0 47.5 18.5t18.5 47.5v37q0 28 -18.5 47.5t-47.5 19.5h-125zM229 308v-179h140q18 0 33 8
t23.5 23.5t8.5 35.5v46q0 29 -18.5 47.5t-46.5 18.5h-140zM382 -165h-134v103h134v-103z" />
    <glyph glyph-name="bdotbelow" unicode="&#x1e05;" horiz-adv-x="534" 
d="M203 700v-215q56 24 122 24q31 0 60.5 -9t55.5 -28.5t41.5 -54t15.5 -81.5v-175q0 -73 -49 -121t-129 -48q-73 0 -139 43l-6 -35h-123v700h151zM355 179v144q0 35 -24.5 52t-55.5 18q-42 1 -73 -5v-255q45 -24 79 -24q33 0 53.5 20.5t20.5 49.5zM337 -165h-134v103h134
v-103z" />
    <glyph glyph-name="Ddotbelow" unicode="&#x1e0c;" horiz-adv-x="655" 
d="M73 701h271q111 0 187 -67t76 -181v-206q0 -115 -75.5 -181t-187.5 -66h-271v701zM237 571v-442h99q29 0 53.5 13t39.5 39t15 62v215q0 34 -15 60.5t-39.5 39.5t-53.5 13h-99zM380 -165h-134v103h134v-103z" />
    <glyph glyph-name="ddotbelow" unicode="&#x1e0d;" horiz-adv-x="534" 
d="M482 0h-123l-7 35q-65 -43 -138 -43q-80 0 -129.5 48t-49.5 121v176q0 46 16 80.5t42 53.5t55 28.5t60 9.5q66 0 123 -25v216h151v-700zM330 133v255q-26 5 -63 5q-14 0 -28 -3.5t-28.5 -10.5t-23.5 -21.5t-9 -34.5v-144q0 -29 20.5 -49.5t53.5 -20.5q34 0 78 24z
M343 -165h-134v103h134v-103z" />
    <glyph glyph-name="Dlinebelow" unicode="&#x1e0e;" horiz-adv-x="655" 
d="M73 701h271q111 0 187 -67t76 -181v-206q0 -115 -75.5 -181t-187.5 -66h-271v701zM237 571v-442h99q29 0 53.5 13t39.5 39t15 62v215q0 34 -15 60.5t-39.5 39.5t-53.5 13h-99zM495 -159h-339v78h339v-78z" />
    <glyph glyph-name="dlinebelow" unicode="&#x1e0f;" horiz-adv-x="534" 
d="M482 0h-123l-7 35q-65 -43 -138 -43q-80 0 -129.5 48t-49.5 121v176q0 46 16 80.5t42 53.5t55 28.5t60 9.5q66 0 123 -25v216h151v-700zM330 133v255q-26 5 -63 5q-14 0 -28 -3.5t-28.5 -10.5t-23.5 -21.5t-9 -34.5v-144q0 -29 20.5 -49.5t53.5 -20.5q34 0 78 24z
M445 -159h-339v78h339v-78z" />
    <glyph glyph-name="Dcircumflexbelow" unicode="&#x1e12;" horiz-adv-x="655" 
d="M73 701h271q111 0 187 -67t76 -181v-206q0 -115 -75.5 -181t-187.5 -66h-271v701zM237 571v-442h99q29 0 53.5 13t39.5 39t15 62v215q0 34 -15 60.5t-39.5 39.5t-53.5 13h-99zM528 -215h-132l-65 74l-64 -74h-131l149 162h93z" />
    <glyph glyph-name="dcircumflexbelow" unicode="&#x1e13;" horiz-adv-x="534" 
d="M482 0h-123l-7 35q-65 -43 -138 -43q-80 0 -129.5 48t-49.5 121v176q0 46 16 80.5t42 53.5t55 28.5t60 9.5q66 0 123 -25v216h151v-700zM330 133v255q-26 5 -63 5q-14 0 -28 -3.5t-28.5 -10.5t-23.5 -21.5t-9 -34.5v-144q0 -29 20.5 -49.5t53.5 -20.5q34 0 78 24z
M470 -215h-132l-64 74l-64 -74h-132l150 162h93z" />
    <glyph glyph-name="Hdotbelow" unicode="&#x1e24;" horiz-adv-x="684" 
d="M618 0h-163v285h-226v-285h-162v700h162v-286h226v286h163v-700zM417 -165h-134v103h134v-103z" />
    <glyph glyph-name="hdotbelow" unicode="&#x1e25;" horiz-adv-x="541" 
d="M202 700v-216q56 25 122 25q25 0 48.5 -5.5t46.5 -18.5t40 -32t27.5 -49t10.5 -68v-336h-142v323q0 24 -13.5 40.5t-31 22.5t-36.5 6q-42 1 -72 -4v-388h-151v700h151zM345 -165h-134v103h134v-103z" />
    <glyph glyph-name="Idieresisacute" unicode="&#x1e2e;" horiz-adv-x="284" 
d="M142 937h-113l86 156h140zM106 773h-105v107h105v-107zM282 773h-105v107h105v-107zM223 0h-162v700h162v-700z" />
    <glyph glyph-name="idieresisacute" unicode="&#x1e2f;" horiz-adv-x="237" 
d="M120 731h-112l85 156h141zM84 578h-105v107h105v-107zM260 578h-105v107h105v-107zM194 0h-151v500h151v-500z" />
    <glyph glyph-name="Ldotbelow" unicode="&#x1e36;" horiz-adv-x="557" 
d="M236 128h287v-128h-450v699h163v-571zM366 -165h-134v103h134v-103z" />
    <glyph glyph-name="ldotbelow" unicode="&#x1e37;" horiz-adv-x="252" 
d="M205 0h-151v700h151v-700zM196 -165h-134v103h134v-103z" />
    <glyph glyph-name="Lcircumflexbelow" unicode="&#x1e3c;" horiz-adv-x="557" 
d="M236 128h287v-128h-450v699h163v-571zM515 -215h-132l-65 74l-64 -74h-131l149 162h93z" />
    <glyph glyph-name="lcircumflexbelow" unicode="&#x1e3d;" horiz-adv-x="252" 
d="M205 0h-151v700h151v-700zM324 -215h-132l-64 74l-65 -74h-131l149 162h93z" />
    <glyph glyph-name="Macute" unicode="&#x1e3e;" horiz-adv-x="813" 
d="M441 766h-112l85 156h141zM756 0h-160l-14 405l-130 -251h-90l-130 251l-16 -405h-159l25 700h161l163 -336l161 336h162z" />
    <glyph glyph-name="macute" unicode="&#x1e3f;" horiz-adv-x="815" 
d="M432 561h-113l86 156h141zM166 500l6 -36q67 45 134 45q77 0 127 -50q80 50 152 50q84 0 134.5 -48.5t50.5 -123.5v-337h-136v323q0 31 -21 50.5t-52.5 19.5t-85.5 -25q7 -19 7 -39v-329h-136v323q0 32 -21 51t-54 19q-31 0 -78 -22v-371h-144v500h117z" />
    <glyph glyph-name="Ndotaccent" unicode="&#x1e44;" horiz-adv-x="679" 
d="M391 790h-105v107h105v-107zM623 0h-158l-248 421v-421h-160v700h157l248 -425v425h161v-700z" />
    <glyph glyph-name="ndotaccent" unicode="&#x1e45;" horiz-adv-x="540" 
d="M322 590h-105v107h105v-107zM172 500l6 -36q69 45 141 45q79 0 127.5 -49t48.5 -123v-337h-142v323q0 31 -20.5 50.5t-51.5 19.5q-33 0 -81 -22v-371h-151v500h123z" />
    <glyph glyph-name="Ndotbelow" unicode="&#x1e46;" horiz-adv-x="679" 
d="M623 0h-158l-248 421v-421h-160v700h157l248 -425v425h161v-700zM407 -165h-134v103h134v-103z" />
    <glyph glyph-name="ndotbelow" unicode="&#x1e47;" horiz-adv-x="540" 
d="M172 500l6 -36q69 45 141 45q79 0 127.5 -49t48.5 -123v-337h-142v323q0 20 -9.5 36t-26 25t-36.5 9q-33 0 -81 -22v-371h-151v500h123zM338 -165h-134v103h134v-103z" />
    <glyph glyph-name="Ncircumflexbelow" unicode="&#x1e4a;" horiz-adv-x="679" 
d="M623 0h-158l-248 421v-421h-160v700h157l248 -425v425h161v-700zM535 -215h-133l-64 74l-64 -74h-132l150 162h93z" />
    <glyph glyph-name="ncircumflexbelow" unicode="&#x1e4b;" horiz-adv-x="540" 
d="M172 500l6 -36q69 45 141 45q79 0 127.5 -49t48.5 -123v-337h-142v323q0 20 -9.5 36t-26 25t-36.5 9q-33 0 -81 -22v-371h-151v500h123zM466 -215h-132l-65 74l-64 -74h-131l149 162h93z" />
    <glyph glyph-name="Otildeacute" unicode="&#x1e4c;" horiz-adv-x="682" 
d="M341 924h-113l86 157h141zM460 882l60 -64q-64 -68 -119 -68q-32 0 -61 19q-5 3 -14 9.5t-13 9t-11.5 5.5t-13.5 3q-5 0 -12 -3t-13 -6.5t-13.5 -9t-12 -9t-10 -8t-6.5 -5.5l-59 65q71 68 124 71q13 1 23.5 -1t21.5 -8t15.5 -9t15.5 -11q23 -16 43 -15q18 2 55 35z
M324 708h32q71 0 131 -29.5t97.5 -87t37.5 -130.5v-223q0 -108 -75.5 -177.5t-190.5 -69.5h-32q-119 0 -191 69.5t-72 177.5v223q0 111 74.5 179t188.5 68zM349 580h-17q-30 -1 -54.5 -14.5t-39.5 -39.5t-15 -61v-231q0 -36 15.5 -62.5t40 -39t53.5 -12.5h17q46 0 78 30
t32 84v231q0 52 -32.5 83t-77.5 32z" />
    <glyph glyph-name="otildeacute" unicode="&#x1e4d;" horiz-adv-x="539" 
d="M268 731h-113l86 156h140zM386 694l61 -64q-65 -68 -120 -68q-31 0 -61 19q-4 3 -13 9l-13.5 9t-11.5 5.5t-14 2.5q-5 0 -12 -2.5t-13 -6t-13.5 -9t-12 -9t-10 -8.5l-5.5 -5l-59 65q70 68 123 71q17 0 32.5 -5t22.5 -9.5t22 -14.5q23 -17 42 -15q18 1 55 35zM41 177v146
q0 47 19.5 83.5t52.5 58t72.5 32.5t83.5 11q63 0 113 -18.5t82.5 -61.5t32.5 -105v-146q0 -62 -32.5 -105t-83 -61.5t-112.5 -18.5t-112 19.5t-83 62.5t-33 103zM350 179v142q0 36 -22.5 53t-58.5 17t-58 -17.5t-22 -52.5v-142q0 -35 22.5 -53t57.5 -18q36 0 58.5 17.5
t22.5 53.5z" />
    <glyph glyph-name="Omacrongrave" unicode="&#x1e50;" horiz-adv-x="682" 
d="M425 924h-113l-112 157h139zM504 779h-326v90h326v-90zM324 708h32q71 0 131 -29.5t97.5 -87t37.5 -130.5v-223q0 -108 -75.5 -177.5t-190.5 -69.5h-32q-119 0 -191 69.5t-72 177.5v223q0 111 74.5 179t188.5 68zM349 580h-17q-30 -1 -54.5 -14.5t-39.5 -39.5t-15 -61
v-231q0 -36 15.5 -62.5t40 -39t53.5 -12.5h17q46 0 78 30t32 84v231q0 52 -32.5 83t-77.5 32z" />
    <glyph glyph-name="omacrongrave" unicode="&#x1e51;" horiz-adv-x="539" 
d="M381 731h-113l-113 156h140zM431 584h-327v90h327v-90zM41 177v146q0 47 19.5 83.5t52.5 58t72.5 32.5t83.5 11q47 0 87 -11t72 -32.5t50.5 -58t18.5 -83.5v-146q0 -62 -32.5 -105t-83 -61.5t-112.5 -18.5t-112 19.5t-83 62.5t-33 103zM350 179v142q0 24 -11 40t-28.5 23
t-41.5 7q-36 0 -58 -17.5t-22 -52.5v-142q0 -24 11 -40t28.5 -23.5t40.5 -7.5q36 0 58.5 17.5t22.5 53.5z" />
    <glyph glyph-name="Omacronacute" unicode="&#x1e52;" horiz-adv-x="682" 
d="M342 924h-112l86 156h140zM505 779h-327v90h327v-90zM324 708h32q71 0 131 -29.5t97.5 -87t37.5 -130.5v-223q0 -108 -75.5 -177.5t-190.5 -69.5h-32q-119 0 -191 69.5t-72 177.5v223q0 111 74.5 179t188.5 68zM349 580h-17q-46 -1 -77.5 -32t-31.5 -83v-231
q0 -36 15.5 -62.5t40 -39t53.5 -12.5h17q46 0 78 30t32 84v231q0 35 -15.5 61.5t-40.5 40t-54 13.5z" />
    <glyph glyph-name="omacronacute" unicode="&#x1e53;" horiz-adv-x="539" 
d="M268 731h-113l86 156h140zM431 584h-327v90h327v-90zM41 177v146q0 47 19.5 83.5t52.5 58t72.5 32.5t83.5 11q47 0 87 -11t72 -32.5t50.5 -58t18.5 -83.5v-146q0 -62 -32.5 -105t-83 -61.5t-112.5 -18.5t-112 19.5t-83 62.5t-33 103zM350 179v142q0 24 -11 40t-28.5 23
t-41.5 7q-36 0 -58 -17.5t-22 -52.5v-142q0 -24 11 -40t28.5 -23.5t40.5 -7.5q36 0 58.5 17.5t22.5 53.5z" />
    <glyph glyph-name="Sdotbelow" unicode="&#x1e62;" horiz-adv-x="563" 
d="M41 487v12q0 113 63 161.5t176 48.5q46 0 78 -2.5t62.5 -9t59.5 -17.5l-14 -132q-67 29 -182 29q-29 0 -52 -12.5t-23 -43.5v-10q0 -35 35 -53l145 -61q75 -30 103.5 -67t28.5 -110v-14q-2 -215 -245 -215q-140 0 -227 32l12 131q60 -19 108.5 -26t118.5 -7q29 1 49 20.5
t20 48.5v15q0 40 -40 59l-151 63q-70 28 -97 60.5t-28 99.5zM344 -165h-133v103h133v-103z" />
    <glyph glyph-name="sdotbelow" unicode="&#x1e63;" horiz-adv-x="442" 
d="M199 507h42q81 0 143 -21l-12 -97q-55 19 -114 20h-42q-18 0 -30 -12t-12 -29q0 -29 24 -38l116 -40q56 -20 79 -50.5t23 -85.5q0 -161 -191 -161h-39q-89 1 -152 25l11 95q75 -23 137 -22h36q24 0 38.5 15.5t14.5 37.5q0 18 -9 32.5t-24 20.5l-121 40q-51 19 -71 43.5
t-20 74.5q0 152 173 152zM287 -165h-134v103h134v-103z" />
    <glyph glyph-name="Tdotbelow" unicode="&#x1e6c;" horiz-adv-x="621" 
d="M587 573h-193v-573h-164v573h-195v127h552v-127zM379 -165h-134v103h134v-103z" />
    <glyph glyph-name="tdotbelow" unicode="&#x1e6d;" horiz-adv-x="367" 
d="M226 500h109v-115h-109v-237q0 -21 12 -31t29 -10h68v-117h-101q-66 0 -112 42.5t-46 99.5v253h-48v115h48v113h150v-113zM248 -165h-134v103h134v-103z" />
    <glyph glyph-name="Tlinebelow" unicode="&#x1e6e;" horiz-adv-x="621" 
d="M587 573h-193v-573h-164v573h-195v127h552v-127zM482 -159h-339v78h339v-78z" />
    <glyph glyph-name="tlinebelow" unicode="&#x1e6f;" horiz-adv-x="367" 
d="M226 500h109v-115h-109v-237q0 -21 12 -31t29 -10h68v-117h-101q-66 0 -112 42.5t-46 99.5v253h-48v115h48v113h150v-113zM350 -159h-339v78h339v-78z" />
    <glyph glyph-name="Tcircumflexbelow" unicode="&#x1e70;" horiz-adv-x="621" 
d="M587 573h-193v-573h-164v573h-195v127h552v-127zM507 -215h-132l-64 74l-65 -74h-131l149 162h93z" />
    <glyph glyph-name="tcircumflexbelow" unicode="&#x1e71;" horiz-adv-x="367" 
d="M226 500h109v-115h-109v-237q0 -21 12 -31t29 -10h68v-117h-101q-66 0 -112 42.5t-46 99.5v253h-48v115h48v113h150v-113zM375 -215h-132l-64 74l-64 -74h-132l150 162h93z" />
    <glyph glyph-name="Wgrave" unicode="&#x1e80;" horiz-adv-x="950" 
d="M575 760h-112l-114 157h140zM771 0h-203l-92 454l-93 -454h-204l-147 700h171l87 -511l101 511h169l101 -511l87 511h170z" />
    <glyph glyph-name="wgrave" unicode="&#x1e81;" horiz-adv-x="744" 
d="M472 560h-113l-113 157h140zM599 0h-153l-74 264l-74 -264h-154l-120 500h154l64 -353l78 353h103l79 -353l63 353h155z" />
    <glyph glyph-name="Wacute" unicode="&#x1e82;" horiz-adv-x="950" 
d="M475 761h-113l86 156h140zM771 0h-203l-92 454l-93 -454h-204l-147 700h171l87 -511l101 511h169l101 -511l87 511h170z" />
    <glyph glyph-name="wacute" unicode="&#x1e83;" horiz-adv-x="744" 
d="M372 561h-113l86 156h140zM599 0h-153l-74 264l-74 -264h-154l-120 500h154l64 -353l78 353h103l79 -353l63 353h155z" />
    <glyph glyph-name="Wdieresis" unicode="&#x1e84;" horiz-adv-x="950" 
d="M439 790h-105v107h105v-107zM615 790h-105v107h105v-107zM771 0h-203l-92 454l-93 -454h-204l-147 700h171l87 -511l101 511h169l101 -511l87 511h170z" />
    <glyph glyph-name="wdieresis" unicode="&#x1e85;" horiz-adv-x="744" 
d="M336 590h-105v107h105v-107zM511 590h-105v107h105v-107zM599 0h-153l-74 264l-74 -264h-154l-120 500h154l64 -353l78 353h103l79 -353l63 353h155z" />
    <glyph glyph-name="Zdotbelow" unicode="&#x1e92;" horiz-adv-x="614" 
d="M569 639l-316 -510h322v-129h-537v61l317 510h-304v129h518v-61zM384 -165h-134v103h134v-103z" />
    <glyph glyph-name="zdotbelow" unicode="&#x1e93;" horiz-adv-x="462" 
d="M425 423l-224 -314h230v-109h-403v79l224 311h-212v111h385v-78zM313 -165h-134v103h134v-103z" />
    <glyph glyph-name="adotbelow" unicode="&#x1ea1;" horiz-adv-x="516" 
d="M87 377l-18 108q109 24 184 24q43 0 80 -9.5t69.5 -29.5t51 -56.5t18.5 -86.5v-327h-124l-8 41q-82 -48 -155 -48q-68 0 -113 39t-46 109v14q3 142 197 142q50 0 98 -9v33q0 21 -9 36t-24 23t-29 11.5t-29 3.5q-57 0 -143 -18zM321 117v104q-30 5 -68 5q-85 0 -85 -58
v-27q0 -13 4.5 -23.5t12 -18t18.5 -11.5t23 -4q40 0 95 33zM326 -170h-134v103h134v-103z" />
    <glyph glyph-name="Acircumflexdotbelow" unicode="&#x1eac;" horiz-adv-x="702" 
d="M549 755h-132l-64 74l-64 -75h-133l150 163h92zM665 0h-171l-42 150h-202l-41 -150h-171l211 700h205zM272 279h158l-79 290zM412 -165h-134v103h134v-103z" />
    <glyph glyph-name="acircumflexdotbelow" unicode="&#x1ead;" horiz-adv-x="516" 
d="M456 555h-132l-64 74l-64 -75h-133l150 163h93zM87 377l-18 108q109 24 184 24q43 0 80 -9.5t69.5 -29.5t51 -56.5t18.5 -86.5v-327h-124l-8 41q-82 -48 -155 -48q-68 0 -113 39.5t-46 108.5v14q3 142 197 142q50 0 98 -9v33q0 21 -9 36t-24 23t-29 11.5t-29 3.5
q-57 0 -143 -18zM321 117v104q-30 5 -68 5q-85 0 -85 -58v-27q0 -9 2 -16.5t5.5 -13.5t9 -11t12 -8.5t14 -5.5t15.5 -2q40 0 95 33zM326 -170h-134v103h134v-103z" />
    <glyph glyph-name="Edotbelow" unicode="&#x1eb8;" horiz-adv-x="546" 
d="M505 571h-281v-153h246v-128h-246v-161h281v-129h-444v700h444v-129zM347 -165h-134v103h134v-103z" />
    <glyph glyph-name="edotbelow" unicode="&#x1eb9;" 
d="M35 173v155q0 47 21 83.5t54.5 57t70.5 30.5t76 10q41 0 78.5 -10t70.5 -30.5t53 -56.5t20 -84v-117h-302v-47q0 -35 25 -50.5t56 -15.5q55 0 193 16l16 -99q-113 -22 -196 -22q-36 0 -68 5t-63.5 18t-54 33t-36.5 52t-14 72zM338 287v50q0 35 -25 50.5t-56 15.5
q-19 0 -36 -5.5t-30.5 -21t-13.5 -39.5v-50h161zM322 -165h-134v103h134v-103z" />
    <glyph glyph-name="Etilde" unicode="&#x1ebc;" horiz-adv-x="546" 
d="M399 914l60 -65q-64 -67 -119 -67q-32 0 -62 19q-4 2 -13 8.5t-13.5 9.5t-11.5 5.5t-13 2.5t-12.5 -2.5t-12.5 -6t-13.5 -9t-12 -9.5t-10 -8.5t-6.5 -4.5l-59 64q71 68 124 72q17 0 32.5 -5t22.5 -9.5t21 -14.5q23 -17 43 -16q18 2 55 36zM505 571h-281v-153h245v-128
h-245v-161h281v-129h-444v700h444v-129z" />
    <glyph glyph-name="etilde" unicode="&#x1ebd;" 
d="M373 714l61 -65q-65 -67 -120 -67q-31 0 -61 19q-4 2 -13 8.5t-13.5 9.5t-11.5 5.5t-14 2.5q-5 0 -12 -2.5t-13 -6t-13.5 -9t-12 -9.5t-10 -8.5l-5.5 -4.5l-59 64q70 68 123 72q17 0 33 -5t22.5 -9.5t21.5 -14.5q23 -17 42 -16q18 2 55 36zM35 173v155q0 47 21 83.5
t54.5 57t70.5 30.5t76 10q32 0 62.5 -6t60 -19.5t51.5 -34t35 -51.5t13 -70v-117h-302v-47q0 -35 25 -50.5t56 -15.5q55 0 193 16l16 -99q-113 -22 -196 -22q-36 0 -68 5t-63.5 18t-54 33t-36.5 52t-14 72zM338 287v50q0 35 -25 50.5t-56 15.5q-30 0 -55 -16t-25 -50v-50
h161z" />
    <glyph glyph-name="Ecircumflexdotbelow" unicode="&#x1ec6;" horiz-adv-x="546" 
d="M477 755h-132l-64 74l-64 -75h-133l150 163h92zM505 571h-281v-153h246v-128h-246v-161h281v-129h-444v700h444v-129zM347 -165h-134v103h134v-103z" />
    <glyph glyph-name="ecircumflexdotbelow" unicode="&#x1ec7;" 
d="M451 555h-132l-64 74l-64 -75h-132l149 163h93zM35 173v155q0 47 21 83.5t54.5 57t70.5 30.5t76 10q32 0 62.5 -6t60 -19.5t51.5 -34t35 -51.5t13 -70v-117h-302v-47q0 -35 25 -50.5t56 -15.5q55 0 193 16l16 -99q-113 -22 -196 -22q-36 0 -68 5t-63.5 18t-54 33
t-36.5 52t-14 72zM338 287v50q0 35 -25 50.5t-56 15.5q-30 0 -55 -16t-25 -50v-50h161zM322 -165h-134v103h134v-103z" />
    <glyph glyph-name="Idotbelow" unicode="&#x1eca;" horiz-adv-x="296" 
d="M229 0h-162v700h162v-700zM220 -165h-135v103h135v-103z" />
    <glyph glyph-name="idotbelow" unicode="&#x1ecb;" horiz-adv-x="266" 
d="M213 566h-160v111h160v-111zM209 0h-151v500h151v-500zM200 -165h-134v103h134v-103z" />
    <glyph glyph-name="Odotbelow" unicode="&#x1ecc;" horiz-adv-x="657" 
d="M312 708h32q70 0 130.5 -29.5t97.5 -87t37 -130.5v-223q0 -108 -75 -177.5t-190 -69.5h-32q-120 0 -192 69.5t-72 177.5v223q0 111 75 179t189 68zM337 580h-18q-29 -1 -53.5 -14.5t-39.5 -39.5t-15 -61v-231q0 -53 31.5 -83.5t76.5 -30.5h18q45 0 77.5 30t32.5 84v231
q0 52 -33 83t-77 32zM395 -171h-134v103h134v-103z" />
    <glyph glyph-name="odotbelow" unicode="&#x1ecd;" horiz-adv-x="526" 
d="M35 177v146q0 47 19.5 83.5t52.5 58t72.5 32.5t83.5 11q63 0 113 -18.5t82.5 -61.5t32.5 -105v-146q0 -62 -33 -105t-83 -61.5t-112 -18.5t-112.5 19.5t-83 62.5t-32.5 103zM344 179v142q0 36 -22.5 53.5t-58.5 17.5t-58.5 -18t-22.5 -53v-142q0 -35 22.5 -53t58.5 -18
t58.5 17.5t22.5 53.5zM329 -165h-134v103h134v-103z" />
    <glyph glyph-name="Ocircumflexdotbelow" unicode="&#x1ed8;" horiz-adv-x="657" 
d="M525 755h-132l-64 74l-64 -75h-132l149 163h93zM312 708h32q70 0 130.5 -29.5t97.5 -87t37 -130.5v-223q0 -108 -75 -177.5t-190 -69.5h-32q-80 0 -140 32t-92 88t-32 127v223q0 111 75 179t189 68zM337 580h-18q-29 -1 -53.5 -14.5t-39.5 -39.5t-15 -61v-231
q0 -53 31.5 -83.5t76.5 -30.5h18q21 0 40.5 7.5t35 21t25 36t9.5 49.5v231q0 52 -33 83t-77 32zM395 -171h-134v103h134v-103z" />
    <glyph glyph-name="ocircumflexdotbelow" unicode="&#x1ed9;" horiz-adv-x="526" 
d="M458 555h-132l-64 74l-64 -75h-133l150 163h92zM35 177v146q0 47 19.5 83.5t52.5 58t72.5 32.5t83.5 11q63 0 113 -18.5t82.5 -61.5t32.5 -105v-146q0 -62 -33 -105t-83 -61.5t-112 -18.5t-112.5 19.5t-83 62.5t-32.5 103zM344 179v142q0 36 -22.5 53.5t-58.5 17.5
t-58.5 -18t-22.5 -53v-142q0 -35 22.5 -53t58.5 -18t58.5 17.5t22.5 53.5zM329 -165h-134v103h134v-103z" />
    <glyph glyph-name="Udotbelow" unicode="&#x1ee4;" horiz-adv-x="677" 
d="M613 700v-472q0 -60 -21.5 -106t-58.5 -74t-83 -42.5t-99 -14.5h-30q-115 0 -187.5 60.5t-72.5 176.5v472h162v-472q0 -36 15.5 -61t38.5 -36t52 -11h17q44 0 74 27.5t30 80.5v472h163zM403 -171h-134v103h134v-103z" />
    <glyph glyph-name="udotbelow" unicode="&#x1ee5;" horiz-adv-x="537" 
d="M490 0h-123l-7 36q-65 -43 -127 -44q-86 -4 -137.5 45t-51.5 126v337h143v-323q0 -31 21 -50.5t54 -19.5q30 0 77 22v371h151v-500zM349 -165h-134v103h134v-103z" />
    <glyph glyph-name="Ygrave" unicode="&#x1ef2;" horiz-adv-x="668" 
d="M435 760h-113l-113 157h140zM415 279v-279h-163v280l-221 420h174l129 -271l129 271h174z" />
    <glyph glyph-name="ygrave" unicode="&#x1ef3;" horiz-adv-x="540" 
d="M369 560h-113l-113 157h140zM489 500v-512q0 -40 -12.5 -71.5t-33 -52t-48.5 -33.5t-57 -19t-62 -6q-78 0 -205 26l18 103q106 -22 163 -20q31 0 58 17.5t27 55.5v49q-69 -40 -131 -40q-44 0 -80.5 18t-60 58t-23.5 96v331h143v-323q0 -30 20.5 -50t51.5 -20q33 0 80 22
v371h152z" />
    <glyph glyph-name="endash" unicode="&#x2013;" horiz-adv-x="585" 
d="M547 209h-509v115h509v-115z" />
    <glyph glyph-name="emdash" unicode="&#x2014;" horiz-adv-x="756" 
d="M718 209h-680v115h680v-115z" />
    <glyph glyph-name="quoteleft" unicode="&#x2018;" horiz-adv-x="233" 
d="M158 673h38v-130h-160v80l67 125h93z" />
    <glyph glyph-name="quoteright" unicode="&#x2019;" horiz-adv-x="232" 
d="M196 667l-66 -124h-93l38 75h-38v130h159v-81z" />
    <glyph glyph-name="quotesinglbase" unicode="&#x201a;" horiz-adv-x="232" 
d="M196 46l-66 -125h-93l38 75h-38v131h159v-81z" />
    <glyph glyph-name="quotedblleft" unicode="&#x201c;" horiz-adv-x="422" 
d="M158 673h38v-130h-159v80l66 125h93zM347 673h38v-131h-159v81l66 125h93z" />
    <glyph glyph-name="quotedblright" unicode="&#x201d;" horiz-adv-x="422" 
d="M197 667l-66 -124h-93l38 75h-38v130h159v-81zM385 667l-66 -124h-93l38 75h-38v130h159v-81z" />
    <glyph glyph-name="quotedblbase" unicode="&#x201e;" horiz-adv-x="421" 
d="M197 46l-66 -125h-93l38 75h-38v131h159v-81zM384 46l-66 -125h-93l38 75h-38v131h159v-81z" />
    <glyph glyph-name="dagger" unicode="&#x2020;" horiz-adv-x="415" 
d="M283 500h99v-125h-99v-485h-151v485h-100v125h100v200h151v-200z" />
    <glyph glyph-name="daggerdbl" unicode="&#x2021;" horiz-adv-x="415" 
d="M283 500h100v-125h-100v-160h100v-125h-100v-200h-150v200h-100v125h100v160h-100v125h100v200h150v-200z" />
    <glyph glyph-name="bullet" unicode="&#x2022;" horiz-adv-x="370" 
d="M185 454q42 0 76 -19.5t53 -53t19 -74.5q0 -64 -42.5 -107t-105.5 -43t-105.5 43t-42.5 107q0 62 42.5 104.5t105.5 42.5z" />
    <glyph glyph-name="ellipsis" unicode="&#x2026;" horiz-adv-x="679" 
d="M197 0h-159v127h159v-127zM419 0h-159v127h159v-127zM641 0h-159v127h159v-127z" />
    <glyph glyph-name="perthousand" unicode="&#x2030;" horiz-adv-x="1058" 
d="M193 -18h-104l457 735h103zM151 706h33q29 0 54.5 -12t42.5 -35.5t17 -54.5v-166q0 -46 -34.5 -74t-79.5 -28h-33q-44 0 -78.5 28t-34.5 74v166q0 46 34.5 74t78.5 28zM169 638h-3q-17 0 -30 -9t-13 -28v-160q0 -19 13 -28t30 -9h4q17 0 30 9.5t12 27.5v160
q0 18 -12.5 27.5t-30.5 9.5zM873 363h34q45 0 79 -28t34 -74v-165q0 -47 -34 -75t-79 -28h-34q-44 0 -78.5 28t-34.5 75v165q0 31 17 55t42.5 35.5t53.5 11.5zM560 363h35q44 0 78 -28t34 -74v-165q0 -47 -34 -75t-79 -28h-34q-44 0 -78.5 28t-34.5 75v165q0 47 34.5 74.5
t78.5 27.5zM579 295h-3q-18 0 -31 -9t-12 -28v-159q0 -13 6.5 -22t16 -12.5t19.5 -3.5h3q18 0 31 9.5t13 28.5v159q0 19 -13 28t-30 9zM892 295h-3q-18 0 -31 -9t-12 -28v-159q0 -19 12.5 -28.5t29.5 -9.5h3q18 0 31 9.5t13 28.5v159q0 19 -13 28t-30 9z" />
    <glyph glyph-name="guilsinglleft" unicode="&#x2039;" horiz-adv-x="272" 
d="M228 329l-69 -54l69 -54v-126l-195 156v49l195 155v-126z" />
    <glyph glyph-name="guilsinglright" unicode="&#x203a;" horiz-adv-x="272" 
d="M239 300v-49l-195 -156v126l69 54l-69 54v126z" />
    <glyph glyph-name="fraction" unicode="&#x2044;" horiz-adv-x="504" 
d="M141 -18h-103l326 735h103z" />
    <glyph glyph-name="Euro" unicode="&#x20ac;" horiz-adv-x="555" 
d="M334 709h27q68 0 155 -23l-10 -118q-79 11 -145 12h-19q-40 0 -69 -25t-34 -65v-22h222v-87h-226v-59h195v-88h-191l1 -25q3 -26 17.5 -46t36.5 -31.5t48 -11.5h19q66 1 145 13l10 -119q-85 -22 -155 -22h-27q-103 0 -176.5 57.5t-84.5 157.5v27h-67v88h66v59h-66v87h68
v26q11 100 84 157.5t176 57.5z" />
    <glyph glyph-name="trademark" unicode="&#x2122;" horiz-adv-x="746" 
d="M321 628h-95v-284h-93v284h-97v72h285v-72zM708 344h-91l-6 182l-56 -106h-52l-56 106l-7 -182h-91l13 356h89l78 -157l76 157h89z" />
    <glyph glyph-name="oneeighth" unicode="&#x215b;" horiz-adv-x="678" 
d="M195 -18h-103l326 735h103zM193 339h-86v274l-43 -11l-23 71l87 27h65v-361zM488 364h38q28 0 52 -13t37.5 -35t13.5 -49v-21q0 -37 -28 -57q33 -21 33 -63v-35q0 -41 -30 -69t-73 -28h-49q-43 0 -73 28.5t-30 69.5v35q0 21 12 38.5t22 22.5q-29 21 -29 58v21q0 20 8 38
t22 31t33 20.5t41 7.5zM516 297h-17q-14 0 -23 -8.5t-9 -21.5v-23q0 -13 9 -21.5t22 -8.5h18q13 0 22 9t9 21v23q0 9 -4.5 16t-11.5 10.5t-15 3.5zM518 165h-21q-14 0 -23 -8.5t-9 -21.5v-44q0 -13 9 -21.5t22 -8.5h21q13 0 22.5 8.5t9.5 21.5v44q0 8 -4.5 15t-11.5 11
t-15 4z" />
    <glyph glyph-name="threeeighths" unicode="&#x215c;" horiz-adv-x="719" 
d="M246 -18h-103l326 735h103zM144 707h34q27 0 49.5 -12.5t36.5 -34t14 -47.5v-23q0 -36 -32 -58q17 -10 26 -27t9 -35v-38q0 -40 -29.5 -67.5t-70.5 -27.5h-37q-54 0 -91 23l13 61q36 -13 85 -13h15q12 0 19.5 7.5t7.5 18.5v37q0 12 -7.5 19t-19.5 7h-42v66h42
q12 0 19.5 7.5t7.5 19.5v20q0 24 -27 27h-15q-51 0 -85 -11l-13 60q39 21 91 21zM539 364h38q43 0 73 -28t30 -68v-22q0 -36 -28 -57q34 -21 34 -62v-35q0 -41 -30.5 -69.5t-73.5 -28.5h-49q-43 0 -73 28.5t-30 69.5v35q0 21 12 38.5t22 22.5q-29 21 -29 58v22q0 19 8 37
t22 31t33.5 20.5t40.5 7.5zM567 298h-17q-13 0 -22.5 -8.5t-9.5 -21.5v-23q0 -13 9 -22t22 -9h18q9 0 16 4t11 11t4 16v23q0 8 -4 15t-11 11t-16 4zM569 165h-21q-14 0 -22.5 -8.5t-8.5 -21.5v-43q0 -14 8.5 -22.5t21.5 -8.5h21q14 0 23 8.5t9 22.5v43q0 9 -4.5 16
t-11.5 10.5t-15 3.5z" />
    <glyph glyph-name="fiveeighths" unicode="&#x215d;" horiz-adv-x="719" 
d="M246 -18h-103l326 735h103zM262 631h-117l-5 -59h38q27 -1 50.5 -13.5t36.5 -33t13 -44.5v-52q0 -40 -29.5 -67.5t-70.5 -27.5h-37q-62 0 -96 27l13 61q32 -18 84 -18h22q12 0 20.5 7.5t8.5 20.5v41q-1 8 -5 14.5t-10.5 10t-13.5 3.5h-81l-33 26l19 173h193v-69zM539 364
h38q29 0 52.5 -13t37 -35t13.5 -49v-21q0 -36 -28 -57q34 -21 34 -62v-35q0 -41 -30.5 -69.5t-73.5 -28.5h-49q-43 0 -73 28.5t-30 69.5v35q0 21 12 38.5t22 22.5q-29 21 -29 58v22q0 40 30 68t74 28zM567 298h-17q-13 0 -22.5 -8.5t-9.5 -21.5v-23q0 -13 9 -22t22 -9h18
q13 1 22 9.5t9 21.5v22q0 9 -4 16t-11 11t-16 4zM569 165h-21q-14 0 -22.5 -8.5t-8.5 -21.5v-43q0 -14 8.5 -22.5t21.5 -8.5h21q14 0 23 8.5t9 22.5v43q0 13 -9 21.5t-22 8.5z" />
    <glyph glyph-name="seveneighths" unicode="&#x215e;" horiz-adv-x="656" 
d="M178 -18h-103l326 735h103zM158 338h-96l112 286h-132v76h258zM470 364h39q42 0 72 -28.5t30 -68.5v-21q0 -37 -28 -57q34 -21 34 -63v-35q0 -41 -30 -69t-74 -28h-49q-28 0 -51.5 13t-37.5 35.5t-14 48.5v35q0 21 12 39t23 23q-30 21 -30 58v21q1 41 31 69t73 28z
M498 297h-17q-13 0 -22 -8.5t-9 -21.5v-23q0 -13 9 -21.5t22 -8.5h18q8 0 15 4t11 11t4 15v23q0 13 -9 21.5t-22 8.5zM500 165h-21q-13 0 -22 -8.5t-9 -21.5v-44q0 -13 8.5 -21.5t21.5 -8.5h21q14 0 23 8.5t9 21.5v44q0 13 -9 21.5t-22 8.5z" />
    <glyph glyph-name="partialdiff" unicode="&#x2202;" horiz-adv-x="882" 
 />
    <glyph glyph-name="emptyset" unicode="&#x2205;" horiz-adv-x="600" 
 />
    <glyph glyph-name="product" unicode="&#x220f;" horiz-adv-x="882" 
 />
    <glyph glyph-name="summation" unicode="&#x2211;" horiz-adv-x="882" 
 />
    <glyph glyph-name="minus" unicode="&#x2212;" horiz-adv-x="569" 
d="M532 233h-494v126h494v-126z" />
    <glyph glyph-name="radical" unicode="&#x221a;" horiz-adv-x="882" 
 />
    <glyph glyph-name="infinity" unicode="&#x221e;" horiz-adv-x="882" 
 />
    <glyph glyph-name="integral" unicode="&#x222b;" horiz-adv-x="882" 
 />
    <glyph glyph-name="approxequal" unicode="&#x2248;" horiz-adv-x="593" 
d="M145 303l-108 15q0 84 49.5 140t127.5 56q25 0 45.5 -8t33.5 -18t28 -27q35 -38 63 -38q16 0 30 10t22.5 29t9.5 44l110 -11q-2 -80 -47 -138t-116 -58q-9 0 -18 1.5t-16 3.5t-15 5.5t-13.5 6.5t-12.5 8.5t-11 8.5t-10 9.5t-9 9t-9 9.5t-7 8q-28 31 -54 31q-6 0 -11 -2
q-25 -4 -42 -30t-20 -65zM145 58l-108 15q0 84 49.5 140.5t127.5 56.5q36 0 60 -14t49 -42q33 -35 61 -35q25 0 42.5 22.5t19.5 60.5l110 -11q-2 -80 -47 -138t-116 -58q-9 0 -18 1.5t-16 3t-15 5.5l-13 6.5t-12.5 8t-11 8.5t-10 9.5t-8.5 9t-8.5 9.5t-7.5 8q-29 31 -55 31
q-6 0 -11 -1q-25 -4 -42 -30t-20 -66z" />
    <glyph glyph-name="notequal" unicode="&#x2260;" horiz-adv-x="541" 
d="M403 447h108v-125h-164l-30 -69h194v-125h-250l-57 -129h-116l57 129h-110v125h166l31 69h-197v125h252l65 144h115z" />
    <glyph glyph-name="lessequal" unicode="&#x2264;" horiz-adv-x="452" 
d="M419 502l-275 -101l275 -101v-137l-387 148v181l387 148v-138zM419 -10h-387v124h387v-124z" />
    <glyph glyph-name="greaterequal" unicode="&#x2265;" horiz-adv-x="452" 
d="M420 492v-181l-386 -148v137l274 101l-274 101v138zM420 -10h-386v124h386v-124z" />
    <glyph glyph-name="lozenge" unicode="&#x25ca;" horiz-adv-x="882" 
 />
    <glyph glyph-name="s_t" unicode="&#xfb06;" horiz-adv-x="783" 
d="M169 507h51q10 0 19 -2q-27 32 -27 72q0 34 18.5 62.5t49 47.5t69.5 29t81 10q88 0 150.5 -41t62.5 -111v-74h109v-115h-109v-237q0 -21 12 -31t29 -10h68v-117h-101q-66 0 -112 42t-46 100v418q-2 29 -25 47t-54 18q-19 0 -37 -8t-30.5 -23.5t-12.5 -36.5q0 -35 32 -50
l17 -11l-11 -97q-55 19 -115 20h-41q-12 0 -21.5 -5.5t-15.5 -15t-6 -20.5q0 -29 25 -38l115 -40q57 -20 80 -50.5t23 -85.5q0 -161 -191 -161h-39q-89 1 -153 25l12 95q75 -23 136 -22h37q15 0 27.5 7t18.5 19t6 27q0 18 -8.5 32.5t-24.5 20.5l-120 40q-35 13 -54 27
t-28 35.5t-9 55.5q0 71 37.5 111.5t105.5 40.5z" />
    <glyph glyph-name="uni00540068" horiz-adv-x="1133" 
d="M778 700v-215q56 24 122 24q74 0 123.5 -44.5t49.5 -128.5v-336h-142v323q0 26 -16.5 43t-35 21.5t-39.5 4.5q-35 0 -62 -4v-388h-151v571h-243v-571h-163v571h-196v129h753z" />
    <glyph glyph-name="uni00630068" horiz-adv-x="944" 
d="M35 169v159q0 41 14 73.5t38 52.5t50.5 32t56.5 17q22 3 56 2q-26 29 -26 71q0 47 37 82.5t88.5 51.5t106.5 16q81 0 149 -27v-214q55 24 121 24q74 0 124 -44.5t50 -128.5v-336h-143v323q0 26 -16.5 43t-35 21.5t-39.5 4.5q-34 0 -61 -4v-388h-151v605q-16 10 -36 10
q-30 0 -51 -19t-21 -47q0 -38 38 -57l-9 -114q-54 13 -98 13q-38 0 -65.5 -19t-27.5 -59v-131q0 -40 27.5 -58.5t66.5 -18.5q42 0 97 13l10 -113q-68 -16 -134 -16q-41 0 -78 9.5t-68.5 30t-50.5 56.5t-19 84z" />
    <glyph glyph-name="uni00630074" horiz-adv-x="759" 
d="M35 169v159q0 41 14 73.5t38 52.5t51 32t57 17q21 3 54 2q-26 32 -26 71q0 64 64.5 106.5t143.5 42.5q57 0 107 -23t80 -69v-133h109v-115h-109v-237q0 -21 12 -31t29 -10h68v-117h-101q-64 0 -111 41.5t-47 100.5v459q-21 24 -53 24q-18 0 -34 -8.5t-25.5 -24
t-9.5 -33.5t10.5 -33.5t27.5 -23.5l-9 -114q-54 13 -98 13q-38 0 -65.5 -19t-27.5 -59v-131q0 -40 27.5 -58.5t66.5 -18.5q42 0 97 13l10 -113q-68 -16 -134 -16q-41 0 -78 9.5t-68.5 30t-50.5 56.5t-19 84z" />
    <glyph glyph-name="uni00660062" horiz-adv-x="895" 
d="M527 708v-223q56 24 122 24q48 0 86.5 -18.5t63 -58.5t24.5 -96v-175q0 -73 -49.5 -121t-125.5 -48q-75 0 -142 43l-6 -35h-124v592h-113q-11 0 -19.5 -4t-14.5 -14t-6 -24v-50h108v-115h-108v-385h-151v385h-48v115h48v67q0 29 13 55.5t34.5 45t50.5 29.5t60 11h297z
M679 179v144q0 27 -16.5 43.5t-35 21.5t-39.5 5q-34 0 -61 -5v-255q45 -24 80 -24q16 0 29.5 5.5t23 15t14.5 22.5t5 27z" />
    <glyph glyph-name="uni00660066006A" horiz-adv-x="976" 
d="M687 592h-68q-10 0 -19 -4t-15 -14t-6 -24v-50h340v-552q0 -58 -46 -100t-112 -42h-54v117h21q17 0 28.5 10t11.5 31v421h-189v-385h-151v385h-204v-385h-152v385h-47v115h47v67q0 57 46.5 99t112.5 42h101v-116h-68q-8 0 -15 -2.5t-12.5 -7.5t-9 -13t-3.5 -19v-50h204
v67q0 57 46 99t112 42h101v-116z" />
    <glyph glyph-name="uni00660068" horiz-adv-x="901" 
d="M552 708v-223q56 24 122 24q74 0 123.5 -44.5t49.5 -128.5v-336h-143v323q0 26 -16 43t-35 21.5t-39 4.5q-35 0 -62 -4v-388h-151v592h-140q-10 0 -19 -4t-14.5 -14t-5.5 -24v-50h107v-115h-107v-385h-152v385h-48v115h48v67q0 17 4.5 33t12.5 30t19 26t25 21.5
t29.5 16.5t33 10.5t34.5 3.5h324z" />
    <glyph glyph-name="uni0066006A" horiz-adv-x="620" 
d="M332 592h-68q-8 0 -15 -2.5t-12.5 -7.5t-9 -13t-3.5 -19v-50h340v-552q0 -58 -46.5 -100t-112.5 -42h-53v117h21q10 0 18.5 4t14.5 13.5t6 23.5v421h-188v-385h-152v385h-47v115h47v67q0 57 46.5 99t112.5 42h101v-116z" />
    <glyph glyph-name="uni0066006B" horiz-adv-x="895" 
d="M561 301l150 199h158l-176 -236l180 -264h-157l-155 212v-212h-151v593h-146q-11 0 -19.5 -4t-14.5 -13.5t-6 -23.5v-51l108 -1v-115h-108v-385h-152v385h-47v115h47v67q0 57 46.5 99t112.5 42h330v-407z" />
    <glyph glyph-name="uni00730070" horiz-adv-x="954" 
d="M169 507h51h2q7 0 16 -1q-25 31 -25 71q0 67 59.5 108t140.5 41q98 0 154 -53q42 -40 42 -99v-109q64 43 141 43q78 0 127 -48.5t49 -121.5v-169q0 -37 -10.5 -67t-27.5 -49.5t-40 -32t-46.5 -18t-48.5 -5.5q-68 2 -123 24v-208h-150v734q0 30 -21 49t-50 19
q-28 0 -51 -18.5t-23 -49.5q0 -16 9 -29.5t22 -20.5l17 -11l-11 -97q-55 19 -115 20h-41q-18 0 -30.5 -12t-12.5 -29q0 -29 25 -38l115 -40q57 -20 80 -50.5t23 -85.5q0 -161 -191 -161h-39q-89 1 -153 25l12 95q75 -23 136 -22h37q15 0 27.5 7t18.5 19t6 27q0 18 -8.5 32.5
t-24.5 20.5l-120 40q-35 13 -54 27t-28 35.5t-9 55.5q0 71 37.5 111.5t105.5 40.5zM784 177v144q0 29 -21 49.5t-52 20.5q-36 0 -80 -24v-255q25 -4 61 -4q15 0 29.5 3t29 10t24 21.5t9.5 34.5z" />
    <glyph glyph-name="zero.lf" horiz-adv-x="547" 
d="M231 681h92q75 0 128 -50t53 -124v-338q0 -74 -53 -124.5t-128 -50.5h-92q-80 0 -134 50t-54 125v338q0 49 25 89t68 62.5t95 22.5zM297 551h-44q-26 0 -44 -17.5t-18 -45.5v-302q0 -28 17.5 -45.5t44.5 -17.5h44q26 0 43 17.5t17 45.5v302q0 28 -17 45.5t-43 17.5z" />
    <glyph glyph-name="one.lf" horiz-adv-x="373" 
d="M307 0h-156v532l-91 -28l-36 121l182 56h101v-681z" />
    <glyph glyph-name="two.lf" horiz-adv-x="530" 
d="M238 682h65q76 0 129.5 -49.5t53.5 -121.5v-21q0 -47 -28.5 -90t-76.5 -69l-136 -72q-14 -7 -25.5 -18.5t-18.5 -27.5t-7 -35v-65h292v-113h-440v197q0 105 113 164l149 78q32 17 32 51v10q0 24 -16.5 40t-41.5 16h-40q-88 0 -152 -21l-17 111q70 36 165 36z" />
    <glyph glyph-name="three.lf" horiz-adv-x="528" 
d="M217 682h64q76 0 129.5 -49.5t53.5 -121.5v-37q0 -38 -19.5 -67t-50.5 -45q35 -16 56 -49t21 -70v-76q0 -73 -54 -123t-130 -50h-70q-99 0 -164 39l20 101q64 -23 155 -23h33q27 0 44.5 17.5t17.5 43.5v71q0 27 -17.5 44.5t-44.5 17.5h-73v108h73q27 0 44.5 17.5
t17.5 43.5v30q0 27 -17.5 44.5t-44.5 17.5h-30q-100 0 -159 -20l-20 100q70 36 165 36z" />
    <glyph glyph-name="four.lf" horiz-adv-x="551" 
d="M173 250h132l39 194h99v-194h85v-116h-85v-133h-138v133h-282v74l186 473h135z" />
    <glyph glyph-name="five.lf" 
d="M429 564h-222l-11 -128h74q78 0 134 -49t56 -117v-103q0 -49 -25 -89t-67 -62.5t-91 -22.5h-71q-48 0 -96 12t-78 35l20 101q61 -31 155 -30h43q18 0 32.5 8t22.5 21.5t8 31.5v84q-1 25 -18.5 42t-42.5 18h-159l-53 46l36 318h353v-116z" />
    <glyph glyph-name="six.lf" horiz-adv-x="562" 
d="M287 681h53q57 0 149 -20v-111q-81 13 -147 14h-47q-38 0 -63 -24.5t-25 -65.5v-53q55 10 88 10h55q73 0 119.5 -45.5t46.5 -127.5v-89q0 -78 -53 -126.5t-128 -48.5h-90q-89 0 -138.5 52.5t-49.5 154.5v266q0 98 65 156t165 58zM309 315h-45q-38 0 -60 -20v-121
q0 -19 8 -33.5t22.5 -22.5t32.5 -8h42q25 0 42 18t17 46v77q0 27 -17 45.5t-42 18.5z" />
    <glyph glyph-name="seven.lf" horiz-adv-x="519" 
d="M227 0h-163l223 564h-265v117h473z" />
    <glyph glyph-name="eight.lf" horiz-adv-x="575" 
d="M251 681h74q76 0 129.5 -49.5t53.5 -121.5v-38q0 -38 -19 -67.5t-48 -43.5q35 -16 56 -49t21 -71v-76q0 -72 -53.5 -122t-129.5 -50h-94q-38 0 -72 13.5t-58.5 36.5t-39 55t-14.5 67v76q0 27 11 51.5t28.5 42t38.5 26.5q-32 17 -49.5 46t-17.5 65v38q1 72 54.5 121.5
t128.5 49.5zM305 565h-33q-28 0 -45.5 -17.5t-17.5 -44.5v-31q0 -26 17.5 -43.5t45.5 -17.5h35q27 0 44 17.5t17 43.5v31q0 27 -18 44.5t-45 17.5zM308 303h-40q-28 0 -45.5 -17.5t-17.5 -43.5v-72q0 -26 17.5 -43.5t45.5 -17.5h40q28 0 45.5 17.5t17.5 43.5v72q0 17 -8 31
t-22.5 22t-32.5 8z" />
    <glyph glyph-name="nine.lf" horiz-adv-x="562" 
d="M227 681h90q59 0 100.5 -22.5t64.5 -69.5t23 -115v-266q0 -98 -65 -156t-165 -58h-53q-57 0 -149 20v111q80 -13 147 -14h47q38 0 62.5 24.5t24.5 65.5v63q-54 -10 -87 -10h-55q-73 0 -119.5 45.5t-46.5 127.5v79q0 78 53 126.5t128 48.5zM295 564h-42q-16 0 -29.5 -8
t-21.5 -22.5t-8 -32.5v-67q0 -27 17 -45.5t42 -18.5h45q38 0 60 20v111q0 28 -17.5 45.5t-45.5 17.5z" />
    <glyph glyph-name="zero.osf" horiz-adv-x="543" 
d="M231 516h87q74 0 126 -49.5t52 -120.5v-183q0 -72 -52.5 -121.5t-125.5 -49.5h-87q-79 0 -132 49t-53 122v183q0 73 53.5 121.5t131.5 48.5zM293 407h-42q-14 0 -26.5 -5.5t-21.5 -15t-14 -22.5t-5 -28v-164q0 -31 19.5 -51.5t48.5 -20.5h41q29 0 47.5 20.5t18.5 51.5
v164q0 30 -18.5 50.5t-47.5 20.5z" />
    <glyph glyph-name="one.osf" horiz-adv-x="482" 
d="M322 0h-138v362l-87 -26l-34 111l171 53h88v-500z" />
    <glyph glyph-name="two.osf" horiz-adv-x="518" 
d="M222 510h56q47 0 87.5 -19.5t65 -54t24.5 -76.5q0 -85 -100 -130l-112 -49q-48 -20 -50 -54v-24h262v-103h-401v121q0 72 105 124l128 62q32 14 32 41q0 23 -17 38.5t-41 15.5h-28q-87 0 -143 -19l-20 97q63 30 152 30z" />
    <glyph glyph-name="three.osf" horiz-adv-x="528" 
d="M217 509h64q76 0 129.5 -49.5t53.5 -121.5v-37q0 -38 -20 -67t-50 -45q35 -16 55.5 -49t20.5 -70v-76q0 -73 -53.5 -123t-129.5 -50h-70q-100 0 -165 39l21 101q60 -22 155 -23h32q27 0 45 17.5t18 43.5v71q0 27 -17.5 44.5t-45.5 17.5h-72v108h72q28 0 45.5 17.5
t17.5 43.5v30q0 27 -17.5 44.5t-45.5 17.5h-30q-99 0 -158 -20l-20 100q70 36 165 36z" />
    <glyph glyph-name="four.osf" horiz-adv-x="551" 
d="M173 92h132l39 194h99v-194h85v-116h-85v-134h-138v134h-282v73l186 473h135z" />
    <glyph glyph-name="five.osf" 
d="M429 384h-222l-11 -128h74q78 0 134 -49t56 -117v-103q0 -74 -54 -123.5t-129 -50.5h-71q-48 0 -96 12.5t-78 34.5l20 101q63 -32 155 -30h43q27 0 45 17.5t18 43.5v84q-1 25 -18.5 42t-42.5 18h-159l-53 46l36 318h353v-116z" />
    <glyph glyph-name="six.osf" horiz-adv-x="562" 
d="M287 681h53q57 0 149 -20v-111q-81 13 -147 14h-47q-38 0 -63 -24.5t-25 -65.5v-53q55 10 88 10h55q73 0 119.5 -45.5t46.5 -127.5v-89q0 -78 -53 -126.5t-128 -48.5h-90q-89 0 -138.5 52.5t-49.5 154.5v266q0 98 65 156t165 58zM309 315h-45q-38 0 -60 -20v-121
q0 -19 8 -33.5t22.5 -22.5t32.5 -8h42q25 0 42 18t17 46v77q0 27 -17 45.5t-42 18.5z" />
    <glyph glyph-name="seven.osf" horiz-adv-x="519" 
d="M227 -159h-163l223 564h-265v117h473z" />
    <glyph glyph-name="eight.osf" horiz-adv-x="575" 
d="M251 681h74q76 0 129.5 -49.5t53.5 -121.5v-38q0 -38 -19 -67.5t-48 -43.5q35 -16 56 -49t21 -71v-76q0 -72 -53.5 -122t-129.5 -50h-94q-38 0 -72 13.5t-58.5 36.5t-39 55t-14.5 67v76q0 27 11 51.5t28.5 42t38.5 26.5q-32 17 -49.5 46t-17.5 65v38q1 72 54.5 121.5
t128.5 49.5zM305 565h-33q-28 0 -45.5 -17.5t-17.5 -44.5v-31q0 -26 17.5 -43.5t45.5 -17.5h35q27 0 44 17.5t17 43.5v31q0 27 -18 44.5t-45 17.5zM308 303h-40q-28 0 -45.5 -17.5t-17.5 -43.5v-72q0 -26 17.5 -43.5t45.5 -17.5h40q28 0 45.5 17.5t17.5 43.5v72q0 17 -8 31
t-22.5 22t-32.5 8z" />
    <glyph glyph-name="nine.osf" horiz-adv-x="562" 
d="M227 516h90q89 0 138.5 -52.5t49.5 -154.5v-266q0 -98 -65 -156t-165 -58h-53q-56 0 -149 20v110q89 -13 147 -13h47q38 0 62.5 24.5t24.5 64.5v64q-54 -10 -87 -10h-55q-73 0 -119.5 45.5t-46.5 127.5v79q0 78 53 126.5t128 48.5zM295 399h-42q-25 0 -42 -18t-17 -46
v-66q0 -28 17 -46t42 -18h45q38 0 60 20v110q0 29 -17.5 46.5t-45.5 17.5z" />
    <glyph glyph-name="zero.tf" horiz-adv-x="547" 
d="M231 681h92q75 0 128 -50t53 -124v-338q0 -74 -53 -124.5t-128 -50.5h-92q-80 0 -134 50t-54 125v338q0 49 25 89t68 62.5t95 22.5zM297 551h-44q-26 0 -44 -17.5t-18 -45.5v-302q0 -28 17.5 -45.5t44.5 -17.5h44q26 0 43 17.5t17 45.5v302q0 28 -17 45.5t-43 17.5z" />
    <glyph glyph-name="one.tf" horiz-adv-x="489" 
d="M330 0h-157v532l-90 -28l-36 121l181 56h102v-681z" />
    <glyph glyph-name="two.tf" horiz-adv-x="530" 
d="M238 682h65q76 0 129.5 -49.5t53.5 -121.5v-21q0 -47 -28.5 -90t-76.5 -69l-136 -72q-14 -7 -25.5 -18.5t-18.5 -27.5t-7 -35v-65h292v-113h-440v197q0 105 113 164l149 78q32 17 32 51v10q0 24 -16.5 40t-41.5 16h-40q-88 0 -152 -21l-17 111q70 36 165 36z" />
    <glyph glyph-name="three.tf" horiz-adv-x="528" 
d="M217 682h64q76 0 129.5 -49.5t53.5 -121.5v-37q0 -38 -19.5 -67t-50.5 -45q35 -16 56 -49t21 -70v-76q0 -73 -54 -123t-130 -50h-70q-99 0 -164 39l20 101q64 -23 155 -23h33q27 0 44.5 17.5t17.5 43.5v71q0 27 -17.5 44.5t-44.5 17.5h-73v108h73q27 0 44.5 17.5
t17.5 43.5v30q0 27 -17.5 44.5t-44.5 17.5h-30q-100 0 -159 -20l-20 100q70 36 165 36z" />
    <glyph glyph-name="four.tf" horiz-adv-x="551" 
d="M173 250h132l39 194h99v-194h85v-116h-85v-133h-138v133h-282v74l186 473h135z" />
    <glyph glyph-name="five.tf" 
d="M429 564h-222l-11 -128h74q78 0 134 -49t56 -117v-103q0 -49 -25 -89t-67 -62.5t-91 -22.5h-71q-48 0 -96 12t-78 35l20 101q61 -31 155 -30h43q18 0 32.5 8t22.5 21.5t8 31.5v84q-1 25 -18.5 42t-42.5 18h-159l-53 46l36 318h353v-116z" />
    <glyph glyph-name="six.tf" horiz-adv-x="562" 
d="M287 681h53q57 0 149 -20v-111q-81 13 -147 14h-47q-38 0 -63 -24.5t-25 -65.5v-53q55 10 88 10h55q73 0 119.5 -45.5t46.5 -127.5v-89q0 -78 -53 -126.5t-128 -48.5h-90q-89 0 -138.5 52.5t-49.5 154.5v266q0 98 65 156t165 58zM309 315h-45q-38 0 -60 -20v-121
q0 -19 8 -33.5t22.5 -22.5t32.5 -8h42q25 0 42 18t17 46v77q0 27 -17 45.5t-42 18.5z" />
    <glyph glyph-name="seven.tf" horiz-adv-x="519" 
d="M227 0h-163l223 564h-265v117h473z" />
    <glyph glyph-name="eight.tf" horiz-adv-x="575" 
d="M251 681h74q76 0 129.5 -49.5t53.5 -121.5v-38q0 -38 -19 -67.5t-48 -43.5q35 -16 56 -49t21 -71v-76q0 -72 -53.5 -122t-129.5 -50h-94q-38 0 -72 13.5t-58.5 36.5t-39 55t-14.5 67v76q0 27 11 51.5t28.5 42t38.5 26.5q-32 17 -49.5 46t-17.5 65v38q1 72 54.5 121.5
t128.5 49.5zM305 565h-33q-28 0 -45.5 -17.5t-17.5 -44.5v-31q0 -26 17.5 -43.5t45.5 -17.5h35q27 0 44 17.5t17 43.5v31q0 27 -18 44.5t-45 17.5zM308 303h-40q-28 0 -45.5 -17.5t-17.5 -43.5v-72q0 -26 17.5 -43.5t45.5 -17.5h40q28 0 45.5 17.5t17.5 43.5v72q0 17 -8 31
t-22.5 22t-32.5 8z" />
    <glyph glyph-name="nine.tf" horiz-adv-x="562" 
d="M227 681h90q59 0 100.5 -22.5t64.5 -69.5t23 -115v-266q0 -98 -65 -156t-165 -58h-53q-57 0 -149 20v111q81 -13 147 -14h47q38 0 62.5 24.5t24.5 65.5v63q-54 -10 -87 -10h-55q-73 0 -119.5 45.5t-46.5 127.5v79q0 78 53 126.5t128 48.5zM295 564h-42q-25 0 -42 -18
t-17 -45v-67q0 -27 17 -45.5t42 -18.5h45q38 0 60 20v111q0 28 -17.5 45.5t-45.5 17.5z" />
    <glyph glyph-name="zero.tosf" horiz-adv-x="543" 
d="M231 516h87q74 0 126 -49.5t52 -120.5v-183q0 -72 -52.5 -121.5t-125.5 -49.5h-87q-79 0 -132 49t-53 122v183q0 73 53.5 121.5t131.5 48.5zM293 407h-42q-14 0 -26.5 -5.5t-21.5 -15t-14 -22.5t-5 -28v-164q0 -31 19.5 -51.5t48.5 -20.5h41q29 0 47.5 20.5t18.5 51.5
v164q0 30 -18.5 50.5t-47.5 20.5z" />
    <glyph glyph-name="one.tosf" horiz-adv-x="481" 
d="M322 0h-138v362l-87 -26l-34 111l171 53h88v-500z" />
    <glyph glyph-name="two.tosf" horiz-adv-x="530" 
d="M222 510h56q47 0 87.5 -19.5t65 -54t24.5 -76.5q0 -85 -100 -130l-112 -49q-48 -20 -50 -54v-24h262v-103h-401v121q0 72 105 124l128 62q32 14 32 41q0 23 -17 38.5t-41 15.5h-28q-87 0 -143 -19l-20 97q63 30 152 30z" />
    <glyph glyph-name="three.tosf" horiz-adv-x="528" 
d="M217 509h64q76 0 129.5 -49.5t53.5 -121.5v-37q0 -38 -20 -67t-50 -45q35 -16 55.5 -49t20.5 -70v-76q0 -73 -53.5 -123t-129.5 -50h-70q-100 0 -165 39l21 101q60 -22 155 -23h32q27 0 45 17.5t18 43.5v71q0 27 -17.5 44.5t-45.5 17.5h-72v108h72q28 0 45.5 17.5
t17.5 43.5v30q0 27 -17.5 44.5t-45.5 17.5h-30q-99 0 -158 -20l-20 100q70 36 165 36z" />
    <glyph glyph-name="four.tosf" horiz-adv-x="551" 
d="M173 92h132l39 194h99v-194h85v-116h-85v-134h-138v134h-282v73l186 473h135z" />
    <glyph glyph-name="five.tosf" 
d="M429 384h-222l-11 -128h74q78 0 134 -49t56 -117v-103q0 -74 -54 -123.5t-129 -50.5h-71q-48 0 -96 12.5t-78 34.5l20 101q63 -32 155 -30h43q27 0 45 17.5t18 43.5v84q-1 25 -18.5 42t-42.5 18h-159l-53 46l36 318h353v-116z" />
    <glyph glyph-name="six.tosf" horiz-adv-x="562" 
d="M287 681h53q57 0 149 -20v-111q-81 13 -147 14h-47q-38 0 -63 -24.5t-25 -65.5v-53q55 10 88 10h55q73 0 119.5 -45.5t46.5 -127.5v-89q0 -78 -53 -126.5t-128 -48.5h-90q-89 0 -138.5 52.5t-49.5 154.5v266q0 98 65 156t165 58zM309 315h-45q-38 0 -60 -20v-121
q0 -19 8 -33.5t22.5 -22.5t32.5 -8h42q25 0 42 18t17 46v77q0 27 -17 45.5t-42 18.5z" />
    <glyph glyph-name="seven.tosf" horiz-adv-x="519" 
d="M227 -159h-163l223 564h-265v117h473z" />
    <glyph glyph-name="eight.tosf" horiz-adv-x="575" 
d="M251 681h74q76 0 129.5 -49.5t53.5 -121.5v-38q0 -38 -19 -67.5t-48 -43.5q35 -16 56 -49t21 -71v-76q0 -72 -53.5 -122t-129.5 -50h-94q-38 0 -72 13.5t-58.5 36.5t-39 55t-14.5 67v76q0 27 11 51.5t28.5 42t38.5 26.5q-32 17 -49.5 46t-17.5 65v38q1 72 54.5 121.5
t128.5 49.5zM305 565h-33q-28 0 -45.5 -17.5t-17.5 -44.5v-31q0 -26 17.5 -43.5t45.5 -17.5h35q27 0 44 17.5t17 43.5v31q0 27 -18 44.5t-45 17.5zM308 303h-40q-28 0 -45.5 -17.5t-17.5 -43.5v-72q0 -26 17.5 -43.5t45.5 -17.5h40q28 0 45.5 17.5t17.5 43.5v72q0 17 -8 31
t-22.5 22t-32.5 8z" />
    <glyph glyph-name="nine.tosf" horiz-adv-x="562" 
d="M227 516h90q89 0 138.5 -52.5t49.5 -154.5v-266q0 -98 -65 -156t-165 -58h-53q-56 0 -149 20v110q89 -13 147 -13h47q38 0 62.5 24.5t24.5 64.5v64q-54 -10 -87 -10h-55q-73 0 -119.5 45.5t-46.5 127.5v79q0 78 53 126.5t128 48.5zM295 399h-42q-25 0 -42 -18t-17 -46
v-66q0 -28 17 -46t42 -18h45q38 0 60 20v110q0 29 -17.5 46.5t-45.5 17.5z" />
    <glyph glyph-name="zero.dnom" horiz-adv-x="321" 
d="M143 364h34q45 0 79 -28t34 -74v-166q0 -46 -34 -74t-79 -28h-34q-44 0 -78.5 28t-34.5 74v166q0 46 34.5 74t78.5 28zM162 296h-3q-18 0 -31 -9t-12 -28v-160q0 -12 6.5 -21t15.5 -12.5t20 -3.5h3q18 0 31 9.5t13 27.5v160q0 12 -7 21t-16 12.5t-20 3.5z" />
    <glyph glyph-name="one.dnom" horiz-adv-x="229" 
d="M191 0h-85v274l-44 -11l-22 71l87 26h64v-360z" />
    <glyph glyph-name="two.dnom" horiz-adv-x="322" 
d="M146 365h33q42 0 71 -26.5t29 -66.5v-10q0 -26 -15.5 -49.5t-40.5 -36.5l-70 -37q-24 -12 -24 -38v-33h150v-68h-238v112q0 56 62 88l75 39q15 8 15 23v5q0 10 -7.5 16.5t-18.5 6.5h-20q-46 0 -82 -12l-9 67q37 20 90 20z" />
    <glyph glyph-name="three.dnom" horiz-adv-x="319" 
d="M142 365h34q27 -1 49.5 -13t36.5 -33.5t14 -47.5v-23q0 -36 -32 -58q17 -10 26 -27t9 -35v-39q0 -39 -29.5 -66.5t-70.5 -27.5h-37q-54 0 -91 23l13 61q36 -13 85 -13h15q8 0 14.5 3t9.5 9t3 14v37q0 11 -7.5 18.5t-19.5 7.5h-42v66h42q8 0 14.5 3.5t9.5 9.5t3 14v20
q0 24 -27 27h-15q-51 0 -85 -11l-13 60q39 21 91 21z" />
    <glyph glyph-name="four.dnom" horiz-adv-x="352" 
d="M128 141h62l19 100h61v-100h42v-75h-42v-67h-82v67h-154v46l94 248h84z" />
    <glyph glyph-name="five.dnom" horiz-adv-x="343" 
d="M274 291h-117l-5 -59h37q43 -2 72 -28t29 -63v-51q0 -41 -29.5 -68t-70.5 -27h-37q-63 0 -97 27l13 60q33 -18 85 -18h22q12 0 20 8t8 20v42q0 8 -4 14t-10.5 9.5t-14.5 3.5h-80l-34 27l20 172h193v-69z" />
    <glyph glyph-name="six.dnom" horiz-adv-x="319" 
d="M156 365h28q35 0 86 -12v-73q-53 8 -86 9h-24q-13 0 -23.5 -9t-12.5 -24v-24q22 3 36 3h28q42 0 68.5 -26t26.5 -72v-44q0 -41 -29 -69.5t-73 -28.5h-47q-45 0 -75 28t-30 70v152q0 56 36.5 88t90.5 32zM168 176h-23q-21 0 -30 -10v-73q0 -14 8.5 -23t22.5 -9h21
q13 0 21.5 9t8.5 23v52q0 13 -8.5 22t-20.5 9z" />
    <glyph glyph-name="seven.dnom" horiz-adv-x="321" 
d="M159 -1h-96l113 286h-133v75h258z" />
    <glyph glyph-name="eight.dnom" horiz-adv-x="315" 
d="M137 364h38q28 0 51.5 -13t37 -35t13.5 -49v-21q0 -37 -28 -57q34 -21 34 -63v-35q0 -41 -30 -69t-74 -28h-48q-29 0 -52.5 13t-37.5 35.5t-14 48.5v35q0 21 12 39t23 23q-30 21 -30 58v21q1 41 31 69t74 28zM165 297h-18q-13 0 -22 -8.5t-9 -21.5v-23q0 -13 9 -21.5
t22 -8.5h18q13 0 21.5 9t8.5 21v23q0 13 -9 21.5t-21 8.5zM166 165h-21q-13 0 -22 -8.5t-9 -21.5v-44q0 -13 9 -21.5t22 -8.5h20q14 0 23 8.5t9 21.5v44q0 8 -4 15t-11 11t-16 4z" />
    <glyph glyph-name="nine.dnom" horiz-adv-x="319" 
d="M131 365h47q45 0 75 -28.5t30 -70.5v-152q0 -55 -36.5 -87t-90.5 -32h-28q-40 0 -85 12v73q50 -8 85 -9h24q14 0 24.5 8.5t12.5 23.5v29q-11 -3 -37 -3h-23q-43 0 -71.5 26.5t-28.5 70.5v40q0 41 29.5 70t72.5 29zM167 298h-22q-13 0 -21.5 -9t-8.5 -23v-47
q0 -13 8.5 -22t21.5 -9h22q22 0 30 10v68q0 10 -4 17t-11 11t-15 4z" />
    <glyph glyph-name="zero.numr" horiz-adv-x="321" 
d="M143 704h34q45 0 79 -28t34 -74v-166q0 -46 -34.5 -74t-79.5 -28h-33q-44 0 -78.5 27.5t-34.5 74.5v166q0 46 34.5 74t78.5 28zM162 636h-3q-18 0 -31 -9t-12 -29v-159q0 -19 13 -28.5t30 -9.5h3q17 0 30 9.5t13 28.5v159q0 19 -13 28t-30 10z" />
    <glyph glyph-name="one.numr" horiz-adv-x="229" 
d="M191 340h-85v273l-44 -11l-22 71l87 27h64v-360z" />
    <glyph glyph-name="two.numr" horiz-adv-x="322" 
d="M152 706h34q27 0 50 -12t36 -33.5t13 -47.5v-10q0 -27 -15 -50t-41 -37l-70 -37q-23 -11 -23 -37v-33h149v-68h-237v111q0 57 61 89l75 39q15 8 15 22v5q0 11 -7 17.5t-18 6.5h-20q-46 0 -82 -13l-10 68q37 20 90 20z" />
    <glyph glyph-name="three.numr" horiz-adv-x="319" 
d="M142 707h34q20 0 38.5 -7.5t32 -20t21.5 -29.5t8 -37v-23q0 -36 -32 -58q17 -10 26 -27t9 -35v-38q0 -40 -29.5 -67.5t-70.5 -27.5h-37q-54 0 -91 23l13 61q36 -13 85 -13h15q8 0 14.5 3.5t9.5 9.5t3 13v37q0 12 -7.5 19t-19.5 7h-42v66h42q6 0 11 2t8.5 5.5t5.5 8.5
t2 11v20q0 24 -27 27h-15q-51 0 -85 -11l-13 60q39 21 91 21z" />
    <glyph glyph-name="four.numr" horiz-adv-x="352" 
d="M128 481h62l19 100h61v-100h42v-76h-42v-67h-82v67h-154v47l94 248h84z" />
    <glyph glyph-name="five.numr" horiz-adv-x="343" 
d="M278 631h-116l-5 -59h37q28 -1 51 -13.5t36.5 -33t13.5 -44.5v-52q0 -40 -29.5 -67.5t-70.5 -27.5h-37q-63 0 -97 27l13 61q32 -18 84 -18h22q13 0 21 7.5t8 20.5v41q0 12 -8.5 20t-20.5 8h-81l-33 26l19 173h193v-69z" />
    <glyph glyph-name="six.numr" horiz-adv-x="319" 
d="M156 706h28q35 0 86 -12v-73q-53 8 -86 9h-24q-13 0 -23.5 -9t-12.5 -24v-24q17 3 36 3h28q27 0 48.5 -11t34 -33.5t12.5 -53.5v-44q0 -41 -29 -69.5t-73 -28.5h-47q-45 0 -75 28.5t-30 69.5v152q0 56 36.5 88t90.5 32zM168 517h-23q-21 0 -30 -10v-73q0 -14 8.5 -22.5
t22.5 -8.5h21q13 0 21.5 9t8.5 22v52q0 13 -8.5 22t-20.5 9z" />
    <glyph glyph-name="seven.numr" horiz-adv-x="321" 
d="M159 338h-99l112 286h-132v76h261z" />
    <glyph glyph-name="eight.numr" horiz-adv-x="315" 
d="M137 706h38q28 0 51.5 -13t37 -35t13.5 -49v-21q0 -37 -28 -57q34 -21 34 -62v-36q0 -40 -30 -68.5t-74 -28.5h-48q-29 0 -52.5 13t-37.5 35.5t-14 48.5v36q0 20 12 38t23 23q-30 21 -30 58v21q1 41 31 69t74 28zM165 639h-18q-13 0 -22 -8t-9 -22v-22q0 -13 9 -22t22 -9
h18q13 0 21.5 9t8.5 22v22q0 13 -9 21.5t-21 8.5zM166 507h-21q-13 0 -22 -8.5t-9 -21.5v-44q0 -13 9 -21.5t22 -8.5h20q14 0 23 8.5t9 21.5v44q0 9 -4 15.5t-11 10.5t-16 4z" />
    <glyph glyph-name="nine.numr" horiz-adv-x="319" 
d="M131 706h47q45 0 75 -28.5t30 -69.5v-152q0 -56 -36.5 -88t-90.5 -32h-28q-39 0 -85 12v73q50 -8 85 -9h24q14 0 24.5 9t12.5 24v28q-11 -3 -37 -3h-23q-43 0 -71.5 27t-28.5 71v40q0 40 29.5 69t72.5 29zM167 639h-22q-13 0 -21.5 -9t-8.5 -22v-48q0 -13 8.5 -22
t21.5 -9h22q22 0 30 10v69q0 14 -8.5 22.5t-21.5 8.5z" />
    </font>
</defs>
</svg>
